  0
SECTION
  2
HEADER
  9
$ACADVER
  1
AC1009
  9
$DWGCODEPAGE
  3
ansi_932
  9
$INSBASE
 10
0.0
 20
0.0
 30
0.0
  9
$EXTMIN
 10
34.925
 20
-146.075
 30
0.0
  9
$EXTMAX
 10
203.075
 20
-27.925
 30
0.0
  9
$LIMMIN
 10
0.0
 20
0.0
  9
$LIMMAX
 10
12.0
 20
9.0
  9
$ORTHOMODE
 70
     0
  9
$REGENMODE
 70
     1
  9
$FILLMODE
 70
     1
  9
$QTEXTMODE
 70
     0
  9
$MIRRTEXT
 70
     1
  9
$DRAGMODE
 70
     2
  9
$LTSCALE
 40
1.0
  9
$OSMODE
 70
   511
  9
$ATTMODE
 70
     1
  9
$TEXTSIZE
 40
0.2
  9
$TRACEWID
 40
0.05
  9
$TEXTSTYLE
  7
STANDARD
  9
$CLAYER
  8
0
  9
$CELTYPE
  6
BYBLOCK
  9
$CECOLOR
 62
   256
  9
$DIMSCALE
 40
1.0
  9
$DIMASZ
 40
0.18
  9
$DIMEXO
 40
0.0625
  9
$DIMDLI
 40
0.38
  9
$DIMRND
 40
0.0
  9
$DIMDLE
 40
0.0
  9
$DIMEXE
 40
0.18
  9
$DIMTP
 40
0.0
  9
$DIMTM
 40
0.0
  9
$DIMTXT
 40
0.18
  9
$DIMCEN
 40
0.09
  9
$DIMTSZ
 40
0.0
  9
$DIMTOL
 70
     0
  9
$DIMLIM
 70
     0
  9
$DIMTIH
 70
     1
  9
$DIMTOH
 70
     1
  9
$DIMSE1
 70
     0
  9
$DIMSE2
 70
     0
  9
$DIMTAD
 70
     0
  9
$DIMZIN
 70
     0
  9
$DIMBLK
  1

  9
$DIMASO
 70
     1
  9
$DIMSHO
 70
     1
  9
$DIMPOST
  1

  9
$DIMAPOST
  1

  9
$DIMALT
 70
     0
  9
$DIMALTD
 70
     2
  9
$DIMALTF
 40
25.4
  9
$DIMLFAC
 40
1.0
  9
$DIMTOFL
 70
     0
  9
$DIMTVP
 40
0.0
  9
$DIMTIX
 70
     0
  9
$DIMSOXD
 70
     0
  9
$DIMSAH
 70
     0
  9
$DIMBLK1
  1

  9
$DIMBLK2
  1

  9
$DIMSTYLE
  2
STANDARD
  9
$DIMCLRD
 70
     0
  9
$DIMCLRE
 70
     0
  9
$DIMCLRT
 70
     0
  9
$DIMTFAC
 40
1.0
  9
$DIMGAP
 40
0.09
  9
$LUNITS
 70
     2
  9
$LUPREC
 70
     4
  9
$SKETCHINC
 40
0.1
  9
$FILLETRAD
 40
0.5
  9
$AUNITS
 70
     0
  9
$AUPREC
 70
     0
  9
$MENU
  1
.
  9
$ELEVATION
 40
0.0
  9
$PELEVATION
 40
0.0
  9
$THICKNESS
 40
0.0
  9
$LIMCHECK
 70
     0
  9
$CHAMFERA
 40
0.0
  9
$CHAMFERB
 40
0.0
  9
$SKPOLY
 70
     0
  9
$TDCREATE
 40
2457801.959365035
  9
$TDUPDATE
 40
2457801.977266504
  9
$TDINDWG
 40
0.0000190625
  9
$TDUSRTIMER
 40
2457801.602248704
  9
$USRTIMER
 70
     1
  9
$ANGBASE
 50
0.0
  9
$ANGDIR
 70
     1
  9
$PDMODE
 70
     0
  9
$PDSIZE
 40
0.0
  9
$PLINEWID
 40
0.0
  9
$COORDS
 70
     1
  9
$SPLFRAME
 70
     0
  9
$SPLINETYPE
 70
     6
  9
$SPLINESEGS
 70
     8
  9
$ATTDIA
 70
     0
  9
$ATTREQ
 70
     1
  9
$HANDLING
 70
     1
  9
$HANDSEED
  5
F2
  9
$SURFTAB1
 70
     6
  9
$SURFTAB2
 70
     6
  9
$SURFTYPE
 70
     6
  9
$SURFU
 70
     6
  9
$SURFV
 70
     6
  9
$UCSNAME
  2

  9
$UCSORG
 10
0.0
 20
0.0
 30
0.0
  9
$UCSXDIR
 10
1.0
 20
0.0
 30
0.0
  9
$UCSYDIR
 10
0.0
 20
1.0
 30
0.0
  9
$PUCSNAME
  2

  9
$PUCSORG
 10
0.0
 20
0.0
 30
0.0
  9
$PUCSXDIR
 10
1.0
 20
0.0
 30
0.0
  9
$PUCSYDIR
 10
0.0
 20
1.0
 30
0.0
  9
$USERI1
 70
     0
  9
$USERI2
 70
     0
  9
$USERI3
 70
     0
  9
$USERI4
 70
     0
  9
$USERI5
 70
     0
  9
$USERR1
 40
0.0
  9
$USERR2
 40
0.0
  9
$USERR3
 40
0.0
  9
$USERR4
 40
0.0
  9
$USERR5
 40
0.0
  9
$WORLDVIEW
 70
     1
  9
$SHADEDGE
 70
     3
  9
$SHADEDIF
 70
    70
  9
$TILEMODE
 70
     1
  9
$MAXACTVP
 70
    64
  9
$PLIMCHECK
 70
     0
  9
$PEXTMIN
 10
1.000000000000000E+20
 20
1.000000000000000E+20
 30
1.000000000000000E+20
  9
$PEXTMAX
 10
-1.000000000000000E+20
 20
-1.000000000000000E+20
 30
-1.000000000000000E+20
  9
$PLIMMIN
 10
0.0
 20
0.0
  9
$PLIMMAX
 10
0.0
 20
0.0
  9
$UNITMODE
 70
     0
  9
$VISRETAIN
 70
     1
  9
$PLINEGEN
 70
     0
  9
$PSLTSCALE
 70
     1
  0
ENDSEC
  0
SECTION
  2
TABLES
  0
TABLE
  2
VPORT
 70
     1
  0
VPORT
  2
*ACTIVE
 70
     0
 10
0.0
 20
0.0
 11
1.0
 21
1.0
 12
-161.3706380059448
 22
-61.27096132260316
 13
0.0
 23
0.0
 14
0.5
 24
0.5
 15
0.5
 25
0.5
 16
0.0
 26
0.0
 36
1.0
 17
0.0
 27
0.0
 37
0.0
 40
499.6003610813199
 41
3.982507288629737
 42
50.0
 43
0.0
 44
0.0
 50
0.0
 51
0.0
 71
    16
 72
   100
 73
     1
 74
     3
 75
     0
 76
     0
 77
     0
 78
     0
  0
ENDTAB
  0
TABLE
  2
LTYPE
 70
     1
  0
LTYPE
  2
CONTINUOUS
 70
     0
  3
Solid line
 72
    65
 73
     0
 40
0.0
  0
ENDTAB
  0
TABLE
  2
LAYER
 70
    31
  0
LAYER
  2
0
 70
     0
 62
     7
  6
CONTINUOUS
  0
LAYER
  2
BLACK
 70
     0
 62
     7
  6
CONTINUOUS
  0
LAYER
  2
GRAY1
 70
     0
 62
   251
  6
CONTINUOUS
  0
LAYER
  2
GRAY2
 70
     0
 62
     8
  6
CONTINUOUS
  0
LAYER
  2
GRAY3
 70
     0
 62
     9
  6
CONTINUOUS
  0
LAYER
  2
WHITE
 70
     0
 62
     7
  6
CONTINUOUS
  0
LAYER
  2
LYELLOW
 70
     0
 62
    51
  6
CONTINUOUS
  0
LAYER
  2
BLUE1
 70
     0
 62
   178
  6
CONTINUOUS
  0
LAYER
  2
GREEN1
 70
     0
 62
    98
  6
CONTINUOUS
  0
LAYER
  2
CYAN1
 70
     0
 62
   138
  6
CONTINUOUS
  0
LAYER
  2
RED1
 70
     0
 62
    18
  6
CONTINUOUS
  0
LAYER
  2
MAGENTA1
 70
     0
 62
   228
  6
CONTINUOUS
  0
LAYER
  2
BROWN1
 70
     0
 62
    58
  6
CONTINUOUS
  0
LAYER
  2
BLUE2
 70
     0
 62
     5
  6
CONTINUOUS
  0
LAYER
  2
GREEN2
 70
     0
 62
     3
  6
CONTINUOUS
  0
LAYER
  2
CYAN2
 70
     0
 62
     4
  6
CONTINUOUS
  0
LAYER
  2
RED2
 70
     0
 62
     1
  6
CONTINUOUS
  0
LAYER
  2
MAGENTA2
 70
     0
 62
     6
  6
CONTINUOUS
  0
LAYER
  2
BROWN2
 70
     0
 62
    54
  6
CONTINUOUS
  0
LAYER
  2
BLUE3
 70
     0
 62
   171
  6
CONTINUOUS
  0
LAYER
  2
GREEN3
 70
     0
 62
    91
  6
CONTINUOUS
  0
LAYER
  2
CYAN3
 70
     0
 62
   131
  6
CONTINUOUS
  0
LAYER
  2
RED3
 70
     0
 62
    11
  6
CONTINUOUS
  0
LAYER
  2
MAGENTA3
 70
     0
 62
   221
  6
CONTINUOUS
  0
LAYER
  2
YELLOW3
 70
     0
 62
     2
  6
CONTINUOUS
  0
LAYER
  2
BLUE4
 70
     0
 62
     5
  6
CONTINUOUS
  0
LAYER
  2
GREEN4
 70
     0
 62
     3
  6
CONTINUOUS
  0
LAYER
  2
CYAN4
 70
     0
 62
     4
  6
CONTINUOUS
  0
LAYER
  2
RED4
 70
     0
 62
     1
  6
CONTINUOUS
  0
LAYER
  2
MAGENTA4
 70
     0
 62
     6
  6
CONTINUOUS
  0
LAYER
  2
YELLOW4
 70
     0
 62
     2
  6
CONTINUOUS
  0
ENDTAB
  0
TABLE
  2
STYLE
 70
     5
  0
STYLE
  2
STANDARD
 70
     0
 40
0.0
 41
1.0
 50
0.0
 71
     0
 42
0.2
  3
txt
  4

  0
STYLE
  2
KICAD
 70
     0
 40
0.0
 41
1.0
 50
0.0
 71
     0
 42
1.0
  3
isocp.shx
  4

  0
STYLE
  2
KICADB
 70
     0
 40
0.0
 41
1.0
 50
0.0
 71
     0
 42
1.0
  3
isocp.shx
  4

  0
STYLE
  2
KICADI
 70
     0
 40
0.0
 41
1.0
 50
15.0
 71
     0
 42
1.0
  3
isocp.shx
  4

  0
STYLE
  2
KICADBI
 70
     0
 40
0.0
 41
1.0
 50
15.0
 71
     0
 42
1.0
  3
isocp.shx
  4

  0
ENDTAB
  0
TABLE
  2
VIEW
 70
     0
  0
ENDTAB
  0
TABLE
  2
UCS
 70
     0
  0
ENDTAB
  0
TABLE
  2
APPID
 70
     1
  0
APPID
  2
ACAD
 70
     0
  0
ENDTAB
  0
TABLE
  2
DIMSTYLE
 70
     1
  0
DIMSTYLE
  2
STANDARD
 70
     0
  3

  4

  5

  6

  7

 40
1.0
 41
0.18
 42
0.0625
 43
0.38
 44
0.18
 45
0.0
 46
0.0
 47
0.0
 48
0.0
140
0.18
141
0.09
142
0.0
143
25.4
144
1.0
145
0.0
146
1.0
147
0.09
 71
     0
 72
     0
 73
     1
 74
     1
 75
     0
 76
     0
 77
     0
 78
     0
170
     0
171
     2
172
     0
173
     0
174
     0
175
     0
176
     0
177
     0
178
     0
  0
ENDTAB
  0
ENDSEC
  0
SECTION
  2
BLOCKS
  0
BLOCK
  8
0
  2
$MODEL_SPACE
 70
     0
 10
0.0
 20
0.0
 30
0.0
  3
$MODEL_SPACE
  1

  0
ENDBLK
  5
BC
  8
0
  0
BLOCK
 67
     1
  8
0
  2
$PAPER_SPACE
 70
     0
 10
0.0
 20
0.0
 30
0.0
  3
$PAPER_SPACE
  1

  0
ENDBLK
  5
BE
 67
     1
  8
0
  0
BLOCK
  8
0
  2
PCB外形
 70
     0
 10
0.0
 20
0.0
 30
0.0
  3
PCB外形
  1

  0
LINE
  5
E4
  8
BLACK
 10
202.925
 20
-28.075
 30
0.0
 11
35.5
 21
-28.075
 31
0.0
  0
LINE
  5
E5
  8
BLACK
 10
202.925
 20
-145.925
 30
0.0
 11
202.925
 21
-28.075
 31
0.0
  0
LINE
  5
E6
  8
BLACK
 10
36.0
 20
-145.925
 30
0.0
 11
202.925
 21
-145.925
 31
0.0
  0
LINE
  5
E7
  8
BLACK
 10
35.075
 20
-28.075
 30
0.0
 11
35.075
 21
-145.925
 31
0.0
  0
ENDBLK
  5
E9
  8
0
  0
ENDSEC
  0
SECTION
  2
ENTITIES
  0
LINE
  5
45
  8
BLACK
 10
34.9935
 20
-146.074
 30
0.0
 11
34.987
 21
-146.074
 31
0.0
  0
LINE
  5
46
  8
BLACK
 10
34.987
 20
-146.074
 30
0.0
 11
34.9808
 21
-146.072
 31
0.0
  0
LINE
  5
47
  8
BLACK
 10
34.9808
 20
-146.072
 30
0.0
 11
34.9743
 21
-146.07
 31
0.0
  0
LINE
  5
48
  8
BLACK
 10
34.9743
 20
-146.07
 30
0.0
 11
34.9687
 21
-146.067
 31
0.0
  0
LINE
  5
49
  8
BLACK
 10
34.9687
 20
-146.067
 30
0.0
 11
34.9625
 21
-146.065
 31
0.0
  0
LINE
  5
4A
  8
BLACK
 10
34.9625
 20
-146.065
 30
0.0
 11
34.9575
 21
-146.061
 31
0.0
  0
LINE
  5
4B
  8
BLACK
 10
34.9575
 20
-146.061
 30
0.0
 11
34.9518
 21
-146.057
 31
0.0
  0
LINE
  5
4C
  8
BLACK
 10
34.9518
 20
-146.057
 30
0.0
 11
34.9476
 21
-146.052
 31
0.0
  0
LINE
  5
4D
  8
BLACK
 10
34.9476
 20
-146.052
 30
0.0
 11
34.9425
 21
-146.048
 31
0.0
  0
LINE
  5
4E
  8
BLACK
 10
34.9425
 20
-146.048
 30
0.0
 11
34.9393
 21
-146.043
 31
0.0
  0
LINE
  5
4F
  8
BLACK
 10
34.9393
 20
-146.043
 30
0.0
 11
34.935
 21
-146.037
 31
0.0
  0
LINE
  5
50
  8
BLACK
 10
34.935
 20
-146.037
 30
0.0
 11
34.9328
 21
-146.031
 31
0.0
  0
LINE
  5
51
  8
BLACK
 10
34.9328
 20
-146.031
 30
0.0
 11
34.9295
 21
-146.026
 31
0.0
  0
LINE
  5
52
  8
BLACK
 10
34.9295
 20
-146.026
 30
0.0
 11
34.9284
 21
-146.019
 31
0.0
  0
LINE
  5
53
  8
BLACK
 10
34.9284
 20
-146.019
 30
0.0
 11
34.9261
 21
-146.013
 31
0.0
  0
LINE
  5
54
  8
BLACK
 10
34.9261
 20
-146.013
 30
0.0
 11
34.9261
 21
-146.006
 31
0.0
  0
LINE
  5
55
  8
BLACK
 10
34.9261
 20
-146.006
 30
0.0
 11
34.925
 21
-146.0
 31
0.0
  0
LINE
  5
56
  8
BLACK
 10
34.925
 20
-146.0
 30
0.0
 11
34.925
 21
-28.0
 31
0.0
  0
LINE
  5
57
  8
BLACK
 10
34.925
 20
-28.0
 30
0.0
 11
34.9261
 21
-27.9935
 31
0.0
  0
LINE
  5
58
  8
BLACK
 10
34.9261
 20
-27.9935
 30
0.0
 11
34.9261
 21
-27.987
 31
0.0
  0
LINE
  5
59
  8
BLACK
 10
34.9261
 20
-27.987
 30
0.0
 11
34.9284
 21
-27.9808
 31
0.0
  0
LINE
  5
5A
  8
BLACK
 10
34.9284
 20
-27.9808
 30
0.0
 11
34.9295
 21
-27.9743
 31
0.0
  0
LINE
  5
5B
  8
BLACK
 10
34.9295
 20
-27.9743
 30
0.0
 11
34.9328
 21
-27.9687
 31
0.0
  0
LINE
  5
5C
  8
BLACK
 10
34.9328
 20
-27.9687
 30
0.0
 11
34.935
 21
-27.9625
 31
0.0
  0
LINE
  5
5D
  8
BLACK
 10
34.935
 20
-27.9625
 30
0.0
 11
34.9393
 21
-27.9575
 31
0.0
  0
LINE
  5
5E
  8
BLACK
 10
34.9393
 20
-27.9575
 30
0.0
 11
34.9425
 21
-27.9518
 31
0.0
  0
LINE
  5
5F
  8
BLACK
 10
34.9425
 20
-27.9518
 30
0.0
 11
34.9476
 21
-27.9476
 31
0.0
  0
LINE
  5
60
  8
BLACK
 10
34.9476
 20
-27.9476
 30
0.0
 11
34.9518
 21
-27.9425
 31
0.0
  0
LINE
  5
61
  8
BLACK
 10
34.9518
 20
-27.9425
 30
0.0
 11
34.9575
 21
-27.9393
 31
0.0
  0
LINE
  5
62
  8
BLACK
 10
34.9575
 20
-27.9393
 30
0.0
 11
34.9625
 21
-27.935
 31
0.0
  0
LINE
  5
63
  8
BLACK
 10
34.9625
 20
-27.935
 30
0.0
 11
34.9687
 21
-27.9328
 31
0.0
  0
LINE
  5
64
  8
BLACK
 10
34.9687
 20
-27.9328
 30
0.0
 11
34.9743
 21
-27.9295
 31
0.0
  0
LINE
  5
65
  8
BLACK
 10
34.9743
 20
-27.9295
 30
0.0
 11
34.9808
 21
-27.9284
 31
0.0
  0
LINE
  5
66
  8
BLACK
 10
34.9808
 20
-27.9284
 30
0.0
 11
34.987
 21
-27.9261
 31
0.0
  0
LINE
  5
67
  8
BLACK
 10
34.987
 20
-27.9261
 30
0.0
 11
34.9935
 21
-27.9261
 31
0.0
  0
LINE
  5
68
  8
BLACK
 10
34.9935
 20
-27.9261
 30
0.0
 11
35.0
 21
-27.925
 31
0.0
  0
LINE
  5
69
  8
BLACK
 10
35.0
 20
-27.925
 30
0.0
 11
36.0
 21
-27.925
 31
0.0
  0
LINE
  5
6A
  8
BLACK
 10
36.0
 20
-27.925
 30
0.0
 11
203.0
 21
-27.925
 31
0.0
  0
LINE
  5
6B
  8
BLACK
 10
203.0
 20
-27.925
 30
0.0
 11
203.006
 21
-27.9261
 31
0.0
  0
LINE
  5
6C
  8
BLACK
 10
203.006
 20
-27.9261
 30
0.0
 11
203.013
 21
-27.9261
 31
0.0
  0
LINE
  5
6D
  8
BLACK
 10
203.013
 20
-27.9261
 30
0.0
 11
203.019
 21
-27.9284
 31
0.0
  0
LINE
  5
6E
  8
BLACK
 10
203.019
 20
-27.9284
 30
0.0
 11
203.026
 21
-27.9295
 31
0.0
  0
LINE
  5
6F
  8
BLACK
 10
203.026
 20
-27.9295
 30
0.0
 11
203.031
 21
-27.9328
 31
0.0
  0
LINE
  5
70
  8
BLACK
 10
203.031
 20
-27.9328
 30
0.0
 11
203.037
 21
-27.935
 31
0.0
  0
LINE
  5
71
  8
BLACK
 10
203.037
 20
-27.935
 30
0.0
 11
203.043
 21
-27.9393
 31
0.0
  0
LINE
  5
72
  8
BLACK
 10
203.043
 20
-27.9393
 30
0.0
 11
203.048
 21
-27.9425
 31
0.0
  0
LINE
  5
73
  8
BLACK
 10
203.048
 20
-27.9425
 30
0.0
 11
203.052
 21
-27.9476
 31
0.0
  0
LINE
  5
74
  8
BLACK
 10
203.052
 20
-27.9476
 30
0.0
 11
203.057
 21
-27.9518
 31
0.0
  0
LINE
  5
75
  8
BLACK
 10
203.057
 20
-27.9518
 30
0.0
 11
203.061
 21
-27.9575
 31
0.0
  0
LINE
  5
76
  8
BLACK
 10
203.061
 20
-27.9575
 30
0.0
 11
203.065
 21
-27.9625
 31
0.0
  0
LINE
  5
77
  8
BLACK
 10
203.065
 20
-27.9625
 30
0.0
 11
203.067
 21
-27.9687
 31
0.0
  0
LINE
  5
78
  8
BLACK
 10
203.067
 20
-27.9687
 30
0.0
 11
203.07
 21
-27.9743
 31
0.0
  0
LINE
  5
79
  8
BLACK
 10
203.07
 20
-27.9743
 30
0.0
 11
203.072
 21
-27.9808
 31
0.0
  0
LINE
  5
7A
  8
BLACK
 10
203.072
 20
-27.9808
 30
0.0
 11
203.074
 21
-27.987
 31
0.0
  0
LINE
  5
7B
  8
BLACK
 10
203.074
 20
-27.987
 30
0.0
 11
203.074
 21
-27.9935
 31
0.0
  0
LINE
  5
7C
  8
BLACK
 10
203.074
 20
-27.9935
 30
0.0
 11
203.075
 21
-28.0
 31
0.0
  0
LINE
  5
7D
  8
BLACK
 10
203.075
 20
-28.0
 30
0.0
 11
203.075
 21
-146.0
 31
0.0
  0
LINE
  5
7E
  8
BLACK
 10
203.075
 20
-146.0
 30
0.0
 11
203.074
 21
-146.006
 31
0.0
  0
LINE
  5
7F
  8
BLACK
 10
203.074
 20
-146.006
 30
0.0
 11
203.074
 21
-146.013
 31
0.0
  0
LINE
  5
80
  8
BLACK
 10
203.074
 20
-146.013
 30
0.0
 11
203.072
 21
-146.019
 31
0.0
  0
LINE
  5
81
  8
BLACK
 10
203.072
 20
-146.019
 30
0.0
 11
203.07
 21
-146.026
 31
0.0
  0
LINE
  5
82
  8
BLACK
 10
203.07
 20
-146.026
 30
0.0
 11
203.067
 21
-146.031
 31
0.0
  0
LINE
  5
83
  8
BLACK
 10
203.067
 20
-146.031
 30
0.0
 11
203.065
 21
-146.037
 31
0.0
  0
LINE
  5
84
  8
BLACK
 10
203.065
 20
-146.037
 30
0.0
 11
203.061
 21
-146.043
 31
0.0
  0
LINE
  5
85
  8
BLACK
 10
203.061
 20
-146.043
 30
0.0
 11
203.057
 21
-146.048
 31
0.0
  0
LINE
  5
86
  8
BLACK
 10
203.057
 20
-146.048
 30
0.0
 11
203.052
 21
-146.052
 31
0.0
  0
LINE
  5
87
  8
BLACK
 10
203.052
 20
-146.052
 30
0.0
 11
203.048
 21
-146.057
 31
0.0
  0
LINE
  5
88
  8
BLACK
 10
203.048
 20
-146.057
 30
0.0
 11
203.043
 21
-146.061
 31
0.0
  0
LINE
  5
89
  8
BLACK
 10
203.043
 20
-146.061
 30
0.0
 11
203.037
 21
-146.065
 31
0.0
  0
LINE
  5
8A
  8
BLACK
 10
203.037
 20
-146.065
 30
0.0
 11
203.031
 21
-146.067
 31
0.0
  0
LINE
  5
8B
  8
BLACK
 10
203.031
 20
-146.067
 30
0.0
 11
203.026
 21
-146.07
 31
0.0
  0
LINE
  5
8C
  8
BLACK
 10
203.026
 20
-146.07
 30
0.0
 11
203.019
 21
-146.072
 31
0.0
  0
LINE
  5
8D
  8
BLACK
 10
203.019
 20
-146.072
 30
0.0
 11
203.013
 21
-146.074
 31
0.0
  0
LINE
  5
8E
  8
BLACK
 10
203.013
 20
-146.074
 30
0.0
 11
203.006
 21
-146.074
 31
0.0
  0
LINE
  5
8F
  8
BLACK
 10
203.006
 20
-146.074
 30
0.0
 11
203.0
 21
-146.075
 31
0.0
  0
LINE
  5
90
  8
BLACK
 10
203.0
 20
-146.075
 30
0.0
 11
35.5
 21
-146.075
 31
0.0
  0
LINE
  5
91
  8
BLACK
 10
35.5
 20
-146.075
 30
0.0
 11
35.0
 21
-146.075
 31
0.0
  0
LINE
  5
92
  8
BLACK
 10
35.0
 20
-146.075
 30
0.0
 11
34.9935
 21
-146.074
 31
0.0
  0
LINE
  5
94
  8
BLACK
 10
35.5
 20
-28.075
 30
0.0
 11
35.075
 21
-28.075
 31
0.0
  0
LINE
  5
96
  8
BLACK
 10
35.075
 20
-145.925
 30
0.0
 11
36.0
 21
-145.925
 31
0.0
  0
INSERT
  5
EA
  8
0
  6
BYBLOCK
  2
PCB外形
 10
0.0
 20
0.0
 30
0.0
  0
ENDSEC
  0
EOF
