M48
;DRILL file {KiCad 4.0.1-stable} date 2017/02/16 22:57:25
;FORMAT={-:-/ absolute / metric / decimal}
FMAT,2
METRIC,TZ
T1C0.400
T2C0.800
T3C0.889
T4C1.499
T5C1.702
T6C1.800
T7C2.500
T8C3.988
%
G90
G05
M71
T1
X93.Y-36.5
X100.Y-36.5
X137.Y-40.25
X138.Y-32.
X145.Y-39.25
X161.5Y-39.25
T2
X158.Y-30.254
X158.Y-45.746
X160.54Y-30.254
X160.54Y-45.746
X163.08Y-30.254
X163.08Y-45.746
X165.62Y-30.254
X165.62Y-45.746
X168.16Y-30.254
X168.16Y-45.746
X170.7Y-30.254
X170.7Y-45.746
X173.24Y-30.254
X173.24Y-45.746
X175.78Y-30.254
X175.78Y-45.746
X178.32Y-30.254
X178.32Y-45.746
X180.86Y-30.254
X180.86Y-45.746
X183.4Y-30.254
X183.4Y-45.746
X185.94Y-30.254
X185.94Y-45.746
X188.48Y-30.254
X188.48Y-45.746
X191.02Y-30.254
X191.02Y-45.746
X193.56Y-30.254
X193.56Y-45.746
X196.1Y-30.254
X196.1Y-45.746
X198.64Y-30.254
X198.64Y-45.746
T3
X40.25Y-95.42
X40.25Y-105.58
X41.Y-71.92
X41.Y-82.08
X42.Y-128.92
X42.Y-139.08
X46.Y-90.92
X46.Y-101.08
X51.Y-54.92
X51.Y-65.08
X55.Y-109.92
X55.Y-120.08
X60.Y-71.92
X60.Y-82.08
X65.Y-90.92
X65.Y-101.08
X70.Y-54.92
X70.Y-65.08
X70.Y-128.92
X70.Y-139.08
X74.Y-109.92
X74.Y-120.08
X79.Y-71.92
X79.Y-82.08
X84.Y-90.92
X84.Y-101.08
X89.Y-54.92
X89.Y-65.08
X93.Y-109.92
X93.Y-120.08
X93.Y-128.92
X93.Y-139.08
X98.Y-71.92
X98.Y-82.08
X103.Y-90.92
X103.Y-101.08
X108.Y-54.92
X108.Y-65.08
X112.Y-109.92
X112.Y-120.08
X112.Y-128.92
X112.Y-139.08
X117.Y-71.92
X117.Y-82.08
X122.Y-90.92
X122.Y-101.08
X127.Y-54.92
X127.Y-65.08
X131.Y-109.92
X131.Y-120.08
X131.Y-128.92
X131.Y-139.08
X136.Y-71.92
X136.Y-82.08
X141.Y-90.92
X141.Y-101.08
X145.Y-54.92
X145.Y-65.08
X151.Y-128.92
X151.Y-139.08
X155.Y-71.92
X155.Y-82.08
X158.Y-109.92
X158.Y-120.08
X162.Y-90.92
X162.Y-101.08
X165.Y-54.92
X165.Y-65.08
X171.Y-128.92
X171.Y-139.08
X176.Y-71.92
X176.Y-82.08
X184.Y-56.92
X184.Y-67.08
X184.Y-109.92
X184.Y-120.08
T4
X41.94Y-114.46
X46.69Y-76.46
X46.69Y-133.46
X48.29Y-111.92
X51.44Y-95.46
X53.04Y-73.92
X53.04Y-130.92
X56.19Y-57.46
X57.79Y-92.92
X60.94Y-114.46
X62.54Y-54.92
X65.69Y-76.46
X67.29Y-111.92
X70.44Y-95.46
X72.04Y-73.92
X75.19Y-57.46
X75.19Y-133.46
X76.79Y-92.92
X79.94Y-114.46
X81.54Y-54.92
X81.54Y-130.92
X84.69Y-76.46
X86.29Y-111.92
X89.44Y-95.46
X91.04Y-73.92
X94.19Y-57.46
X95.79Y-92.92
X98.94Y-114.46
X98.94Y-133.46
X100.54Y-54.92
X103.69Y-76.46
X105.29Y-111.92
X105.29Y-130.92
X108.44Y-95.46
X110.04Y-73.92
X113.19Y-57.46
X114.79Y-92.92
X117.94Y-114.46
X117.94Y-133.46
X119.54Y-54.92
X122.69Y-76.46
X124.29Y-111.92
X124.29Y-130.92
X127.44Y-95.46
X129.04Y-73.92
X132.19Y-57.46
X133.79Y-92.92
X136.94Y-114.46
X136.94Y-133.46
X138.54Y-54.92
X141.69Y-76.46
X143.29Y-111.92
X143.29Y-130.92
X146.44Y-95.46
X148.04Y-73.92
X151.19Y-57.46
X152.79Y-92.92
X155.94Y-133.46
X157.54Y-54.92
X160.69Y-76.46
X162.29Y-130.92
X163.065Y-114.46
X167.04Y-73.92
X169.415Y-111.92
X170.19Y-57.46
X176.54Y-54.92
X177.315Y-95.46
X182.065Y-133.46
X183.665Y-92.92
X184.44Y-76.46
X188.415Y-130.92
X189.19Y-57.46
X189.19Y-114.46
X190.79Y-73.92
X195.54Y-54.92
X195.54Y-111.92
T5
X40.67Y-117.
X45.42Y-79.
X45.42Y-136.
X50.17Y-98.
X50.83Y-117.
X54.92Y-60.
X55.58Y-79.
X55.58Y-136.
X59.67Y-117.
X60.33Y-98.
X64.42Y-79.
X65.08Y-60.
X69.17Y-98.
X69.83Y-117.
X73.92Y-60.
X73.92Y-136.
X74.58Y-79.
X78.67Y-117.
X79.33Y-98.
X83.42Y-79.
X84.08Y-60.
X84.08Y-136.
X88.17Y-98.
X88.83Y-117.
X92.92Y-60.
X93.58Y-79.
X97.67Y-117.
X97.67Y-136.
X98.33Y-98.
X102.42Y-79.
X103.08Y-60.
X107.17Y-98.
X107.83Y-117.
X107.83Y-136.
X111.92Y-60.
X112.58Y-79.
X116.67Y-117.
X116.67Y-136.
X117.33Y-98.
X121.42Y-79.
X122.08Y-60.
X126.17Y-98.
X126.83Y-117.
X126.83Y-136.
X130.92Y-60.
X131.58Y-79.
X135.67Y-117.
X135.67Y-136.
X136.33Y-98.
X140.42Y-79.
X141.08Y-60.
X145.17Y-98.
X145.83Y-117.
X145.83Y-136.
X149.92Y-60.
X150.58Y-79.
X154.67Y-136.
X155.33Y-98.
X159.42Y-79.
X160.08Y-60.
X161.795Y-117.
X164.83Y-136.
X168.92Y-60.
X169.58Y-79.
X171.955Y-117.
X176.045Y-98.
X179.08Y-60.
X180.795Y-136.
X183.17Y-79.
X186.205Y-98.
X187.92Y-60.
X187.92Y-117.
X190.955Y-136.
X193.33Y-79.
X198.08Y-60.
X198.08Y-117.
T6
X59.9Y-39.
X64.1Y-30.5
X64.1Y-33.5
X64.1Y-37.5
T7
X38.75Y-31.5
X39.Y-142.5
X44.25Y-60.75
X44.25Y-107.5
X58.5Y-44.25
X64.25Y-127.5
X64.75Y-143.
X67.5Y-69.5
X69.Y-88.25
X81.5Y-107.5
X93.Y-143.
X99.5Y-31.75
X100.Y-44.25
X105.75Y-69.5
X109.25Y-88.5
X118.25Y-126.75
X118.75Y-107.5
X133.25Y-31.75
X133.75Y-44.5
X142.5Y-69.75
X150.Y-142.75
X151.Y-107.75
X156.75Y-88.75
X179.75Y-69.5
X191.5Y-89.
X191.75Y-107.5
X196.5Y-39.
X199.Y-142.25
T8
X45.75Y-117.
X50.5Y-79.
X50.5Y-136.
X55.25Y-98.
X60.Y-60.
X64.75Y-117.
X69.5Y-79.
X74.25Y-98.
X79.Y-60.
X79.Y-136.
X83.75Y-117.
X88.5Y-79.
X93.25Y-98.
X98.Y-60.
X102.75Y-117.
X102.75Y-136.
X107.5Y-79.
X112.25Y-98.
X117.Y-60.
X121.75Y-117.
X121.75Y-136.
X126.5Y-79.
X131.25Y-98.
X136.Y-60.
X140.75Y-117.
X140.75Y-136.
X145.5Y-79.
X150.25Y-98.
X155.Y-60.
X159.75Y-136.
X164.5Y-79.
X166.875Y-117.
X174.Y-60.
X181.125Y-98.
X185.875Y-136.
X188.25Y-79.
X193.Y-60.
X193.Y-117.
T0
M30
