  0
SECTION
  2
HEADER
  9
$ANGBASE
  50
0.0
  9
$ANGDIR
  70
  1
  9
$MEASUREMENT
  70
0
  0
ENDSEC
  0
SECTION
  2
TABLES
  0
TABLE
  2
LTYPE
  70
1
  0
LTYPE
  2
CONTINUOUS
  70
0
  3
Solid line
  72
65
  73
0
  40
0.0
  0
ENDTAB
  0
TABLE
  2
STYLE
  70
4
  0
STYLE
  2
KICAD
  70
0
  40
0
  41
1
  42
1
  50
0
  71
0
  3
isocp.shx
  0
STYLE
  2
KICADB
  70
0
  40
0
  41
1
  42
1
  50
0
  71
0
  3
isocp.shx
  0
STYLE
  2
KICADI
  70
0
  40
0
  41
1
  42
1
  50
15
  71
0
  3
isocp.shx
  0
STYLE
  2
KICADBI
  70
0
  40
0
  41
1
  42
1
  50
15
  71
0
  3
isocp.shx
  0
ENDTAB
  0
TABLE
  2
LAYER
  70
30
  0
LAYER
  2
BLACK
  70
0
  62
7
  6
CONTINUOUS
  0
LAYER
  2
GRAY1
  70
0
  62
251
  6
CONTINUOUS
  0
LAYER
  2
GRAY2
  70
0
  62
8
  6
CONTINUOUS
  0
LAYER
  2
GRAY3
  70
0
  62
9
  6
CONTINUOUS
  0
LAYER
  2
WHITE
  70
0
  62
7
  6
CONTINUOUS
  0
LAYER
  2
LYELLOW
  70
0
  62
51
  6
CONTINUOUS
  0
LAYER
  2
BLUE1
  70
0
  62
178
  6
CONTINUOUS
  0
LAYER
  2
GREEN1
  70
0
  62
98
  6
CONTINUOUS
  0
LAYER
  2
CYAN1
  70
0
  62
138
  6
CONTINUOUS
  0
LAYER
  2
RED1
  70
0
  62
18
  6
CONTINUOUS
  0
LAYER
  2
MAGENTA1
  70
0
  62
228
  6
CONTINUOUS
  0
LAYER
  2
BROWN1
  70
0
  62
58
  6
CONTINUOUS
  0
LAYER
  2
BLUE2
  70
0
  62
5
  6
CONTINUOUS
  0
LAYER
  2
GREEN2
  70
0
  62
3
  6
CONTINUOUS
  0
LAYER
  2
CYAN2
  70
0
  62
4
  6
CONTINUOUS
  0
LAYER
  2
RED2
  70
0
  62
1
  6
CONTINUOUS
  0
LAYER
  2
MAGENTA2
  70
0
  62
6
  6
CONTINUOUS
  0
LAYER
  2
BROWN2
  70
0
  62
54
  6
CONTINUOUS
  0
LAYER
  2
BLUE3
  70
0
  62
171
  6
CONTINUOUS
  0
LAYER
  2
GREEN3
  70
0
  62
91
  6
CONTINUOUS
  0
LAYER
  2
CYAN3
  70
0
  62
131
  6
CONTINUOUS
  0
LAYER
  2
RED3
  70
0
  62
11
  6
CONTINUOUS
  0
LAYER
  2
MAGENTA3
  70
0
  62
221
  6
CONTINUOUS
  0
LAYER
  2
YELLOW3
  70
0
  62
2
  6
CONTINUOUS
  0
LAYER
  2
BLUE4
  70
0
  62
5
  6
CONTINUOUS
  0
LAYER
  2
GREEN4
  70
0
  62
3
  6
CONTINUOUS
  0
LAYER
  2
CYAN4
  70
0
  62
4
  6
CONTINUOUS
  0
LAYER
  2
RED4
  70
0
  62
1
  6
CONTINUOUS
  0
LAYER
  2
MAGENTA4
  70
0
  62
6
  6
CONTINUOUS
  0
LAYER
  2
YELLOW4
  70
0
  62
2
  6
CONTINUOUS
  0
ENDTAB
  0
ENDSEC
  0
SECTION
  2
ENTITIES
0
LINE
8
Black
10
93.6008
20
-141.349
11
94.1292
21
-141.654
0
LINE
8
Black
10
94.1292
20
-141.654
11
94.5213
21
-142.122
0
LINE
8
Black
10
94.5213
20
-142.122
11
94.73
21
-142.695
0
LINE
8
Black
10
94.73
20
-142.695
11
94.73
21
-143.305
0
LINE
8
Black
10
94.73
20
-143.305
11
94.5213
21
-143.878
0
LINE
8
Black
10
94.5213
20
-143.878
11
94.1292
21
-144.346
0
LINE
8
Black
10
94.1292
20
-144.346
11
93.6008
21
-144.651
0
LINE
8
Black
10
93.6008
20
-144.651
11
93
21
-144.757
0
LINE
8
Black
10
93
20
-144.757
11
92.3992
21
-144.651
0
LINE
8
Black
10
92.3992
20
-144.651
11
91.8708
21
-144.346
0
LINE
8
Black
10
91.8708
20
-144.346
11
91.4787
21
-143.878
0
LINE
8
Black
10
91.4787
20
-143.878
11
91.27
21
-143.305
0
LINE
8
Black
10
91.27
20
-143.305
11
91.27
21
-142.695
0
LINE
8
Black
10
91.27
20
-142.695
11
91.4787
21
-142.122
0
LINE
8
Black
10
91.4787
20
-142.122
11
91.8708
21
-141.654
0
LINE
8
Black
10
91.8708
20
-141.654
11
92.3992
21
-141.349
0
LINE
8
Black
10
92.3992
20
-141.349
11
93
21
-141.243
0
LINE
8
Black
10
93
20
-141.243
11
93.6008
21
-141.349
0
LINE
8
Black
10
65.3508
20
-141.349
11
65.8792
21
-141.654
0
LINE
8
Black
10
65.8792
20
-141.654
11
66.2713
21
-142.122
0
LINE
8
Black
10
66.2713
20
-142.122
11
66.48
21
-142.695
0
LINE
8
Black
10
66.48
20
-142.695
11
66.48
21
-143.305
0
LINE
8
Black
10
66.48
20
-143.305
11
66.2713
21
-143.878
0
LINE
8
Black
10
66.2713
20
-143.878
11
65.8792
21
-144.346
0
LINE
8
Black
10
65.8792
20
-144.346
11
65.3508
21
-144.651
0
LINE
8
Black
10
65.3508
20
-144.651
11
64.75
21
-144.757
0
LINE
8
Black
10
64.75
20
-144.757
11
64.1492
21
-144.651
0
LINE
8
Black
10
64.1492
20
-144.651
11
63.6208
21
-144.346
0
LINE
8
Black
10
63.6208
20
-144.346
11
63.2287
21
-143.878
0
LINE
8
Black
10
63.2287
20
-143.878
11
63.02
21
-143.305
0
LINE
8
Black
10
63.02
20
-143.305
11
63.02
21
-142.695
0
LINE
8
Black
10
63.02
20
-142.695
11
63.2287
21
-142.122
0
LINE
8
Black
10
63.2287
20
-142.122
11
63.6208
21
-141.654
0
LINE
8
Black
10
63.6208
20
-141.654
11
64.1492
21
-141.349
0
LINE
8
Black
10
64.1492
20
-141.349
11
64.75
21
-141.243
0
LINE
8
Black
10
64.75
20
-141.243
11
65.3508
21
-141.349
0
LINE
8
Black
10
150.601
20
-141.099
11
151.129
21
-141.404
0
LINE
8
Black
10
151.129
20
-141.404
11
151.521
21
-141.872
0
LINE
8
Black
10
151.521
20
-141.872
11
151.73
21
-142.445
0
LINE
8
Black
10
151.73
20
-142.445
11
151.73
21
-143.055
0
LINE
8
Black
10
151.73
20
-143.055
11
151.521
21
-143.628
0
LINE
8
Black
10
151.521
20
-143.628
11
151.129
21
-144.096
0
LINE
8
Black
10
151.129
20
-144.096
11
150.601
21
-144.401
0
LINE
8
Black
10
150.601
20
-144.401
11
150
21
-144.507
0
LINE
8
Black
10
150
20
-144.507
11
149.399
21
-144.401
0
LINE
8
Black
10
149.399
20
-144.401
11
148.871
21
-144.096
0
LINE
8
Black
10
148.871
20
-144.096
11
148.479
21
-143.628
0
LINE
8
Black
10
148.479
20
-143.628
11
148.27
21
-143.055
0
LINE
8
Black
10
148.27
20
-143.055
11
148.27
21
-142.445
0
LINE
8
Black
10
148.27
20
-142.445
11
148.479
21
-141.872
0
LINE
8
Black
10
148.479
20
-141.872
11
148.871
21
-141.404
0
LINE
8
Black
10
148.871
20
-141.404
11
149.399
21
-141.099
0
LINE
8
Black
10
149.399
20
-141.099
11
150
21
-140.993
0
LINE
8
Black
10
150
20
-140.993
11
150.601
21
-141.099
0
LINE
8
Black
10
39.6008
20
-140.849
11
40.1292
21
-141.154
0
LINE
8
Black
10
40.1292
20
-141.154
11
40.5213
21
-141.622
0
LINE
8
Black
10
40.5213
20
-141.622
11
40.73
21
-142.195
0
LINE
8
Black
10
40.73
20
-142.195
11
40.73
21
-142.805
0
LINE
8
Black
10
40.73
20
-142.805
11
40.5213
21
-143.378
0
LINE
8
Black
10
40.5213
20
-143.378
11
40.1292
21
-143.846
0
LINE
8
Black
10
40.1292
20
-143.846
11
39.6008
21
-144.151
0
LINE
8
Black
10
39.6008
20
-144.151
11
39
21
-144.257
0
LINE
8
Black
10
39
20
-144.257
11
38.3992
21
-144.151
0
LINE
8
Black
10
38.3992
20
-144.151
11
37.8708
21
-143.846
0
LINE
8
Black
10
37.8708
20
-143.846
11
37.4787
21
-143.378
0
LINE
8
Black
10
37.4787
20
-143.378
11
37.27
21
-142.805
0
LINE
8
Black
10
37.27
20
-142.805
11
37.27
21
-142.195
0
LINE
8
Black
10
37.27
20
-142.195
11
37.4787
21
-141.622
0
LINE
8
Black
10
37.4787
20
-141.622
11
37.8708
21
-141.154
0
LINE
8
Black
10
37.8708
20
-141.154
11
38.3992
21
-140.849
0
LINE
8
Black
10
38.3992
20
-140.849
11
39
21
-140.743
0
LINE
8
Black
10
39
20
-140.743
11
39.6008
21
-140.849
0
LINE
8
Black
10
199.601
20
-140.599
11
200.129
21
-140.904
0
LINE
8
Black
10
200.129
20
-140.904
11
200.521
21
-141.372
0
LINE
8
Black
10
200.521
20
-141.372
11
200.73
21
-141.945
0
LINE
8
Black
10
200.73
20
-141.945
11
200.73
21
-142.555
0
LINE
8
Black
10
200.73
20
-142.555
11
200.521
21
-143.128
0
LINE
8
Black
10
200.521
20
-143.128
11
200.129
21
-143.596
0
LINE
8
Black
10
200.129
20
-143.596
11
199.601
21
-143.901
0
LINE
8
Black
10
199.601
20
-143.901
11
199
21
-144.007
0
LINE
8
Black
10
199
20
-144.007
11
198.399
21
-143.901
0
LINE
8
Black
10
198.399
20
-143.901
11
197.871
21
-143.596
0
LINE
8
Black
10
197.871
20
-143.596
11
197.479
21
-143.128
0
LINE
8
Black
10
197.479
20
-143.128
11
197.27
21
-142.555
0
LINE
8
Black
10
197.27
20
-142.555
11
197.27
21
-141.945
0
LINE
8
Black
10
197.27
20
-141.945
11
197.479
21
-141.372
0
LINE
8
Black
10
197.479
20
-141.372
11
197.871
21
-140.904
0
LINE
8
Black
10
197.871
20
-140.904
11
198.399
21
-140.599
0
LINE
8
Black
10
198.399
20
-140.599
11
199
21
-140.493
0
LINE
8
Black
10
199
20
-140.493
11
199.601
21
-140.599
0
LINE
8
Black
10
64.8508
20
-125.849
11
65.3792
21
-126.154
0
LINE
8
Black
10
65.3792
20
-126.154
11
65.7713
21
-126.622
0
LINE
8
Black
10
65.7713
20
-126.622
11
65.98
21
-127.195
0
LINE
8
Black
10
65.98
20
-127.195
11
65.98
21
-127.805
0
LINE
8
Black
10
65.98
20
-127.805
11
65.7713
21
-128.378
0
LINE
8
Black
10
65.7713
20
-128.378
11
65.3792
21
-128.846
0
LINE
8
Black
10
65.3792
20
-128.846
11
64.8508
21
-129.151
0
LINE
8
Black
10
64.8508
20
-129.151
11
64.25
21
-129.257
0
LINE
8
Black
10
64.25
20
-129.257
11
63.6492
21
-129.151
0
LINE
8
Black
10
63.6492
20
-129.151
11
63.1208
21
-128.846
0
LINE
8
Black
10
63.1208
20
-128.846
11
62.7287
21
-128.378
0
LINE
8
Black
10
62.7287
20
-128.378
11
62.52
21
-127.805
0
LINE
8
Black
10
62.52
20
-127.805
11
62.52
21
-127.195
0
LINE
8
Black
10
62.52
20
-127.195
11
62.7287
21
-126.622
0
LINE
8
Black
10
62.7287
20
-126.622
11
63.1208
21
-126.154
0
LINE
8
Black
10
63.1208
20
-126.154
11
63.6492
21
-125.849
0
LINE
8
Black
10
63.6492
20
-125.849
11
64.25
21
-125.743
0
LINE
8
Black
10
64.25
20
-125.743
11
64.8508
21
-125.849
0
LINE
8
Black
10
118.851
20
-125.099
11
119.379
21
-125.404
0
LINE
8
Black
10
119.379
20
-125.404
11
119.771
21
-125.872
0
LINE
8
Black
10
119.771
20
-125.872
11
119.98
21
-126.445
0
LINE
8
Black
10
119.98
20
-126.445
11
119.98
21
-127.055
0
LINE
8
Black
10
119.98
20
-127.055
11
119.771
21
-127.628
0
LINE
8
Black
10
119.771
20
-127.628
11
119.379
21
-128.096
0
LINE
8
Black
10
119.379
20
-128.096
11
118.851
21
-128.401
0
LINE
8
Black
10
118.851
20
-128.401
11
118.25
21
-128.507
0
LINE
8
Black
10
118.25
20
-128.507
11
117.649
21
-128.401
0
LINE
8
Black
10
117.649
20
-128.401
11
117.121
21
-128.096
0
LINE
8
Black
10
117.121
20
-128.096
11
116.729
21
-127.628
0
LINE
8
Black
10
116.729
20
-127.628
11
116.52
21
-127.055
0
LINE
8
Black
10
116.52
20
-127.055
11
116.52
21
-126.445
0
LINE
8
Black
10
116.52
20
-126.445
11
116.729
21
-125.872
0
LINE
8
Black
10
116.729
20
-125.872
11
117.121
21
-125.404
0
LINE
8
Black
10
117.121
20
-125.404
11
117.649
21
-125.099
0
LINE
8
Black
10
117.649
20
-125.099
11
118.25
21
-124.993
0
LINE
8
Black
10
118.25
20
-124.993
11
118.851
21
-125.099
0
LINE
8
Black
10
151.601
20
-106.099
11
152.129
21
-106.404
0
LINE
8
Black
10
152.129
20
-106.404
11
152.521
21
-106.872
0
LINE
8
Black
10
152.521
20
-106.872
11
152.73
21
-107.445
0
LINE
8
Black
10
152.73
20
-107.445
11
152.73
21
-108.055
0
LINE
8
Black
10
152.73
20
-108.055
11
152.521
21
-108.628
0
LINE
8
Black
10
152.521
20
-108.628
11
152.129
21
-109.096
0
LINE
8
Black
10
152.129
20
-109.096
11
151.601
21
-109.401
0
LINE
8
Black
10
151.601
20
-109.401
11
151
21
-109.507
0
LINE
8
Black
10
151
20
-109.507
11
150.399
21
-109.401
0
LINE
8
Black
10
150.399
20
-109.401
11
149.871
21
-109.096
0
LINE
8
Black
10
149.871
20
-109.096
11
149.479
21
-108.628
0
LINE
8
Black
10
149.479
20
-108.628
11
149.27
21
-108.055
0
LINE
8
Black
10
149.27
20
-108.055
11
149.27
21
-107.445
0
LINE
8
Black
10
149.27
20
-107.445
11
149.479
21
-106.872
0
LINE
8
Black
10
149.479
20
-106.872
11
149.871
21
-106.404
0
LINE
8
Black
10
149.871
20
-106.404
11
150.399
21
-106.099
0
LINE
8
Black
10
150.399
20
-106.099
11
151
21
-105.993
0
LINE
8
Black
10
151
20
-105.993
11
151.601
21
-106.099
0
LINE
8
Black
10
44.8508
20
-105.849
11
45.3792
21
-106.154
0
LINE
8
Black
10
45.3792
20
-106.154
11
45.7713
21
-106.622
0
LINE
8
Black
10
45.7713
20
-106.622
11
45.98
21
-107.195
0
LINE
8
Black
10
45.98
20
-107.195
11
45.98
21
-107.805
0
LINE
8
Black
10
45.98
20
-107.805
11
45.7713
21
-108.378
0
LINE
8
Black
10
45.7713
20
-108.378
11
45.3792
21
-108.846
0
LINE
8
Black
10
45.3792
20
-108.846
11
44.8508
21
-109.151
0
LINE
8
Black
10
44.8508
20
-109.151
11
44.25
21
-109.257
0
LINE
8
Black
10
44.25
20
-109.257
11
43.6492
21
-109.151
0
LINE
8
Black
10
43.6492
20
-109.151
11
43.1208
21
-108.846
0
LINE
8
Black
10
43.1208
20
-108.846
11
42.7287
21
-108.378
0
LINE
8
Black
10
42.7287
20
-108.378
11
42.52
21
-107.805
0
LINE
8
Black
10
42.52
20
-107.805
11
42.52
21
-107.195
0
LINE
8
Black
10
42.52
20
-107.195
11
42.7287
21
-106.622
0
LINE
8
Black
10
42.7287
20
-106.622
11
43.1208
21
-106.154
0
LINE
8
Black
10
43.1208
20
-106.154
11
43.6492
21
-105.849
0
LINE
8
Black
10
43.6492
20
-105.849
11
44.25
21
-105.743
0
LINE
8
Black
10
44.25
20
-105.743
11
44.8508
21
-105.849
0
LINE
8
Black
10
82.1008
20
-105.849
11
82.6292
21
-106.154
0
LINE
8
Black
10
82.6292
20
-106.154
11
83.0213
21
-106.622
0
LINE
8
Black
10
83.0213
20
-106.622
11
83.23
21
-107.195
0
LINE
8
Black
10
83.23
20
-107.195
11
83.23
21
-107.805
0
LINE
8
Black
10
83.23
20
-107.805
11
83.0213
21
-108.378
0
LINE
8
Black
10
83.0213
20
-108.378
11
82.6292
21
-108.846
0
LINE
8
Black
10
82.6292
20
-108.846
11
82.1008
21
-109.151
0
LINE
8
Black
10
82.1008
20
-109.151
11
81.5
21
-109.257
0
LINE
8
Black
10
81.5
20
-109.257
11
80.8992
21
-109.151
0
LINE
8
Black
10
80.8992
20
-109.151
11
80.3708
21
-108.846
0
LINE
8
Black
10
80.3708
20
-108.846
11
79.9787
21
-108.378
0
LINE
8
Black
10
79.9787
20
-108.378
11
79.77
21
-107.805
0
LINE
8
Black
10
79.77
20
-107.805
11
79.77
21
-107.195
0
LINE
8
Black
10
79.77
20
-107.195
11
79.9787
21
-106.622
0
LINE
8
Black
10
79.9787
20
-106.622
11
80.3708
21
-106.154
0
LINE
8
Black
10
80.3708
20
-106.154
11
80.8992
21
-105.849
0
LINE
8
Black
10
80.8992
20
-105.849
11
81.5
21
-105.743
0
LINE
8
Black
10
81.5
20
-105.743
11
82.1008
21
-105.849
0
LINE
8
Black
10
119.351
20
-105.849
11
119.879
21
-106.154
0
LINE
8
Black
10
119.879
20
-106.154
11
120.271
21
-106.622
0
LINE
8
Black
10
120.271
20
-106.622
11
120.48
21
-107.195
0
LINE
8
Black
10
120.48
20
-107.195
11
120.48
21
-107.805
0
LINE
8
Black
10
120.48
20
-107.805
11
120.271
21
-108.378
0
LINE
8
Black
10
120.271
20
-108.378
11
119.879
21
-108.846
0
LINE
8
Black
10
119.879
20
-108.846
11
119.351
21
-109.151
0
LINE
8
Black
10
119.351
20
-109.151
11
118.75
21
-109.257
0
LINE
8
Black
10
118.75
20
-109.257
11
118.149
21
-109.151
0
LINE
8
Black
10
118.149
20
-109.151
11
117.621
21
-108.846
0
LINE
8
Black
10
117.621
20
-108.846
11
117.229
21
-108.378
0
LINE
8
Black
10
117.229
20
-108.378
11
117.02
21
-107.805
0
LINE
8
Black
10
117.02
20
-107.805
11
117.02
21
-107.195
0
LINE
8
Black
10
117.02
20
-107.195
11
117.229
21
-106.622
0
LINE
8
Black
10
117.229
20
-106.622
11
117.621
21
-106.154
0
LINE
8
Black
10
117.621
20
-106.154
11
118.149
21
-105.849
0
LINE
8
Black
10
118.149
20
-105.849
11
118.75
21
-105.743
0
LINE
8
Black
10
118.75
20
-105.743
11
119.351
21
-105.849
0
LINE
8
Black
10
192.351
20
-105.849
11
192.879
21
-106.154
0
LINE
8
Black
10
192.879
20
-106.154
11
193.271
21
-106.622
0
LINE
8
Black
10
193.271
20
-106.622
11
193.48
21
-107.195
0
LINE
8
Black
10
193.48
20
-107.195
11
193.48
21
-107.805
0
LINE
8
Black
10
193.48
20
-107.805
11
193.271
21
-108.378
0
LINE
8
Black
10
193.271
20
-108.378
11
192.879
21
-108.846
0
LINE
8
Black
10
192.879
20
-108.846
11
192.351
21
-109.151
0
LINE
8
Black
10
192.351
20
-109.151
11
191.75
21
-109.257
0
LINE
8
Black
10
191.75
20
-109.257
11
191.149
21
-109.151
0
LINE
8
Black
10
191.149
20
-109.151
11
190.621
21
-108.846
0
LINE
8
Black
10
190.621
20
-108.846
11
190.229
21
-108.378
0
LINE
8
Black
10
190.229
20
-108.378
11
190.02
21
-107.805
0
LINE
8
Black
10
190.02
20
-107.805
11
190.02
21
-107.195
0
LINE
8
Black
10
190.02
20
-107.195
11
190.229
21
-106.622
0
LINE
8
Black
10
190.229
20
-106.622
11
190.621
21
-106.154
0
LINE
8
Black
10
190.621
20
-106.154
11
191.149
21
-105.849
0
LINE
8
Black
10
191.149
20
-105.849
11
191.75
21
-105.743
0
LINE
8
Black
10
191.75
20
-105.743
11
192.351
21
-105.849
0
LINE
8
Black
10
192.101
20
-87.3493
11
192.629
21
-87.6543
0
LINE
8
Black
10
192.629
20
-87.6543
11
193.021
21
-88.1217
0
LINE
8
Black
10
193.021
20
-88.1217
11
193.23
21
-88.695
0
LINE
8
Black
10
193.23
20
-88.695
11
193.23
21
-89.305
0
LINE
8
Black
10
193.23
20
-89.305
11
193.021
21
-89.8783
0
LINE
8
Black
10
193.021
20
-89.8783
11
192.629
21
-90.3457
0
LINE
8
Black
10
192.629
20
-90.3457
11
192.101
21
-90.6507
0
LINE
8
Black
10
192.101
20
-90.6507
11
191.5
21
-90.7567
0
LINE
8
Black
10
191.5
20
-90.7567
11
190.899
21
-90.6507
0
LINE
8
Black
10
190.899
20
-90.6507
11
190.371
21
-90.3457
0
LINE
8
Black
10
190.371
20
-90.3457
11
189.979
21
-89.8783
0
LINE
8
Black
10
189.979
20
-89.8783
11
189.77
21
-89.305
0
LINE
8
Black
10
189.77
20
-89.305
11
189.77
21
-88.695
0
LINE
8
Black
10
189.77
20
-88.695
11
189.979
21
-88.1217
0
LINE
8
Black
10
189.979
20
-88.1217
11
190.371
21
-87.6543
0
LINE
8
Black
10
190.371
20
-87.6543
11
190.899
21
-87.3493
0
LINE
8
Black
10
190.899
20
-87.3493
11
191.5
21
-87.2433
0
LINE
8
Black
10
191.5
20
-87.2433
11
192.101
21
-87.3493
0
LINE
8
Black
10
157.351
20
-87.0993
11
157.879
21
-87.4043
0
LINE
8
Black
10
157.879
20
-87.4043
11
158.271
21
-87.8717
0
LINE
8
Black
10
158.271
20
-87.8717
11
158.48
21
-88.445
0
LINE
8
Black
10
158.48
20
-88.445
11
158.48
21
-89.055
0
LINE
8
Black
10
158.48
20
-89.055
11
158.271
21
-89.6283
0
LINE
8
Black
10
158.271
20
-89.6283
11
157.879
21
-90.0957
0
LINE
8
Black
10
157.879
20
-90.0957
11
157.351
21
-90.4007
0
LINE
8
Black
10
157.351
20
-90.4007
11
156.75
21
-90.5067
0
LINE
8
Black
10
156.75
20
-90.5067
11
156.149
21
-90.4007
0
LINE
8
Black
10
156.149
20
-90.4007
11
155.621
21
-90.0957
0
LINE
8
Black
10
155.621
20
-90.0957
11
155.229
21
-89.6283
0
LINE
8
Black
10
155.229
20
-89.6283
11
155.02
21
-89.055
0
LINE
8
Black
10
155.02
20
-89.055
11
155.02
21
-88.445
0
LINE
8
Black
10
155.02
20
-88.445
11
155.229
21
-87.8717
0
LINE
8
Black
10
155.229
20
-87.8717
11
155.621
21
-87.4043
0
LINE
8
Black
10
155.621
20
-87.4043
11
156.149
21
-87.0993
0
LINE
8
Black
10
156.149
20
-87.0993
11
156.75
21
-86.9933
0
LINE
8
Black
10
156.75
20
-86.9933
11
157.351
21
-87.0993
0
LINE
8
Black
10
109.851
20
-86.8493
11
110.379
21
-87.1543
0
LINE
8
Black
10
110.379
20
-87.1543
11
110.771
21
-87.6217
0
LINE
8
Black
10
110.771
20
-87.6217
11
110.98
21
-88.195
0
LINE
8
Black
10
110.98
20
-88.195
11
110.98
21
-88.805
0
LINE
8
Black
10
110.98
20
-88.805
11
110.771
21
-89.3783
0
LINE
8
Black
10
110.771
20
-89.3783
11
110.379
21
-89.8457
0
LINE
8
Black
10
110.379
20
-89.8457
11
109.851
21
-90.1507
0
LINE
8
Black
10
109.851
20
-90.1507
11
109.25
21
-90.2567
0
LINE
8
Black
10
109.25
20
-90.2567
11
108.649
21
-90.1507
0
LINE
8
Black
10
108.649
20
-90.1507
11
108.121
21
-89.8457
0
LINE
8
Black
10
108.121
20
-89.8457
11
107.729
21
-89.3783
0
LINE
8
Black
10
107.729
20
-89.3783
11
107.52
21
-88.805
0
LINE
8
Black
10
107.52
20
-88.805
11
107.52
21
-88.195
0
LINE
8
Black
10
107.52
20
-88.195
11
107.729
21
-87.6217
0
LINE
8
Black
10
107.729
20
-87.6217
11
108.121
21
-87.1543
0
LINE
8
Black
10
108.121
20
-87.1543
11
108.649
21
-86.8493
0
LINE
8
Black
10
108.649
20
-86.8493
11
109.25
21
-86.7433
0
LINE
8
Black
10
109.25
20
-86.7433
11
109.851
21
-86.8493
0
LINE
8
Black
10
69.6008
20
-86.5993
11
70.1292
21
-86.9043
0
LINE
8
Black
10
70.1292
20
-86.9043
11
70.5213
21
-87.3717
0
LINE
8
Black
10
70.5213
20
-87.3717
11
70.73
21
-87.945
0
LINE
8
Black
10
70.73
20
-87.945
11
70.73
21
-88.555
0
LINE
8
Black
10
70.73
20
-88.555
11
70.5213
21
-89.1283
0
LINE
8
Black
10
70.5213
20
-89.1283
11
70.1292
21
-89.5957
0
LINE
8
Black
10
70.1292
20
-89.5957
11
69.6008
21
-89.9007
0
LINE
8
Black
10
69.6008
20
-89.9007
11
69
21
-90.0067
0
LINE
8
Black
10
69
20
-90.0067
11
68.3992
21
-89.9007
0
LINE
8
Black
10
68.3992
20
-89.9007
11
67.8708
21
-89.5957
0
LINE
8
Black
10
67.8708
20
-89.5957
11
67.4787
21
-89.1283
0
LINE
8
Black
10
67.4787
20
-89.1283
11
67.27
21
-88.555
0
LINE
8
Black
10
67.27
20
-88.555
11
67.27
21
-87.945
0
LINE
8
Black
10
67.27
20
-87.945
11
67.4787
21
-87.3717
0
LINE
8
Black
10
67.4787
20
-87.3717
11
67.8708
21
-86.9043
0
LINE
8
Black
10
67.8708
20
-86.9043
11
68.3992
21
-86.5993
0
LINE
8
Black
10
68.3992
20
-86.5993
11
69
21
-86.4933
0
LINE
8
Black
10
69
20
-86.4933
11
69.6008
21
-86.5993
0
LINE
8
Black
10
143.101
20
-68.0993
11
143.629
21
-68.4043
0
LINE
8
Black
10
143.629
20
-68.4043
11
144.021
21
-68.8717
0
LINE
8
Black
10
144.021
20
-68.8717
11
144.23
21
-69.445
0
LINE
8
Black
10
144.23
20
-69.445
11
144.23
21
-70.055
0
LINE
8
Black
10
144.23
20
-70.055
11
144.021
21
-70.6283
0
LINE
8
Black
10
144.021
20
-70.6283
11
143.629
21
-71.0957
0
LINE
8
Black
10
143.629
20
-71.0957
11
143.101
21
-71.4007
0
LINE
8
Black
10
143.101
20
-71.4007
11
142.5
21
-71.5067
0
LINE
8
Black
10
142.5
20
-71.5067
11
141.899
21
-71.4007
0
LINE
8
Black
10
141.899
20
-71.4007
11
141.371
21
-71.0957
0
LINE
8
Black
10
141.371
20
-71.0957
11
140.979
21
-70.6283
0
LINE
8
Black
10
140.979
20
-70.6283
11
140.77
21
-70.055
0
LINE
8
Black
10
140.77
20
-70.055
11
140.77
21
-69.445
0
LINE
8
Black
10
140.77
20
-69.445
11
140.979
21
-68.8717
0
LINE
8
Black
10
140.979
20
-68.8717
11
141.371
21
-68.4043
0
LINE
8
Black
10
141.371
20
-68.4043
11
141.899
21
-68.0993
0
LINE
8
Black
10
141.899
20
-68.0993
11
142.5
21
-67.9933
0
LINE
8
Black
10
142.5
20
-67.9933
11
143.101
21
-68.0993
0
LINE
8
Black
10
106.351
20
-67.8493
11
106.879
21
-68.1543
0
LINE
8
Black
10
106.879
20
-68.1543
11
107.271
21
-68.6217
0
LINE
8
Black
10
107.271
20
-68.6217
11
107.48
21
-69.195
0
LINE
8
Black
10
107.48
20
-69.195
11
107.48
21
-69.805
0
LINE
8
Black
10
107.48
20
-69.805
11
107.271
21
-70.3783
0
LINE
8
Black
10
107.271
20
-70.3783
11
106.879
21
-70.8457
0
LINE
8
Black
10
106.879
20
-70.8457
11
106.351
21
-71.1507
0
LINE
8
Black
10
106.351
20
-71.1507
11
105.75
21
-71.2567
0
LINE
8
Black
10
105.75
20
-71.2567
11
105.149
21
-71.1507
0
LINE
8
Black
10
105.149
20
-71.1507
11
104.621
21
-70.8457
0
LINE
8
Black
10
104.621
20
-70.8457
11
104.229
21
-70.3783
0
LINE
8
Black
10
104.229
20
-70.3783
11
104.02
21
-69.805
0
LINE
8
Black
10
104.02
20
-69.805
11
104.02
21
-69.195
0
LINE
8
Black
10
104.02
20
-69.195
11
104.229
21
-68.6217
0
LINE
8
Black
10
104.229
20
-68.6217
11
104.621
21
-68.1543
0
LINE
8
Black
10
104.621
20
-68.1543
11
105.149
21
-67.8493
0
LINE
8
Black
10
105.149
20
-67.8493
11
105.75
21
-67.7433
0
LINE
8
Black
10
105.75
20
-67.7433
11
106.351
21
-67.8493
0
LINE
8
Black
10
180.351
20
-67.8493
11
180.879
21
-68.1543
0
LINE
8
Black
10
180.879
20
-68.1543
11
181.271
21
-68.6217
0
LINE
8
Black
10
181.271
20
-68.6217
11
181.48
21
-69.195
0
LINE
8
Black
10
181.48
20
-69.195
11
181.48
21
-69.805
0
LINE
8
Black
10
181.48
20
-69.805
11
181.271
21
-70.3783
0
LINE
8
Black
10
181.271
20
-70.3783
11
180.879
21
-70.8457
0
LINE
8
Black
10
180.879
20
-70.8457
11
180.351
21
-71.1507
0
LINE
8
Black
10
180.351
20
-71.1507
11
179.75
21
-71.2567
0
LINE
8
Black
10
179.75
20
-71.2567
11
179.149
21
-71.1507
0
LINE
8
Black
10
179.149
20
-71.1507
11
178.621
21
-70.8457
0
LINE
8
Black
10
178.621
20
-70.8457
11
178.229
21
-70.3783
0
LINE
8
Black
10
178.229
20
-70.3783
11
178.02
21
-69.805
0
LINE
8
Black
10
178.02
20
-69.805
11
178.02
21
-69.195
0
LINE
8
Black
10
178.02
20
-69.195
11
178.229
21
-68.6217
0
LINE
8
Black
10
178.229
20
-68.6217
11
178.621
21
-68.1543
0
LINE
8
Black
10
178.621
20
-68.1543
11
179.149
21
-67.8493
0
LINE
8
Black
10
179.149
20
-67.8493
11
179.75
21
-67.7433
0
LINE
8
Black
10
179.75
20
-67.7433
11
180.351
21
-67.8493
0
LINE
8
Black
10
68.1008
20
-67.8493
11
68.6292
21
-68.1543
0
LINE
8
Black
10
68.6292
20
-68.1543
11
69.0213
21
-68.6217
0
LINE
8
Black
10
69.0213
20
-68.6217
11
69.23
21
-69.195
0
LINE
8
Black
10
69.23
20
-69.195
11
69.23
21
-69.805
0
LINE
8
Black
10
69.23
20
-69.805
11
69.0213
21
-70.3783
0
LINE
8
Black
10
69.0213
20
-70.3783
11
68.6292
21
-70.8457
0
LINE
8
Black
10
68.6292
20
-70.8457
11
68.1008
21
-71.1507
0
LINE
8
Black
10
68.1008
20
-71.1507
11
67.5
21
-71.2567
0
LINE
8
Black
10
67.5
20
-71.2567
11
66.8992
21
-71.1507
0
LINE
8
Black
10
66.8992
20
-71.1507
11
66.3708
21
-70.8457
0
LINE
8
Black
10
66.3708
20
-70.8457
11
65.9787
21
-70.3783
0
LINE
8
Black
10
65.9787
20
-70.3783
11
65.77
21
-69.805
0
LINE
8
Black
10
65.77
20
-69.805
11
65.77
21
-69.195
0
LINE
8
Black
10
65.77
20
-69.195
11
65.9787
21
-68.6217
0
LINE
8
Black
10
65.9787
20
-68.6217
11
66.3708
21
-68.1543
0
LINE
8
Black
10
66.3708
20
-68.1543
11
66.8992
21
-67.8493
0
LINE
8
Black
10
66.8992
20
-67.8493
11
67.5
21
-67.7433
0
LINE
8
Black
10
67.5
20
-67.7433
11
68.1008
21
-67.8493
0
LINE
8
Black
10
44.8508
20
-59.0993
11
45.3792
21
-59.4043
0
LINE
8
Black
10
45.3792
20
-59.4043
11
45.7713
21
-59.8717
0
LINE
8
Black
10
45.7713
20
-59.8717
11
45.98
21
-60.445
0
LINE
8
Black
10
45.98
20
-60.445
11
45.98
21
-61.055
0
LINE
8
Black
10
45.98
20
-61.055
11
45.7713
21
-61.6283
0
LINE
8
Black
10
45.7713
20
-61.6283
11
45.3792
21
-62.0957
0
LINE
8
Black
10
45.3792
20
-62.0957
11
44.8508
21
-62.4007
0
LINE
8
Black
10
44.8508
20
-62.4007
11
44.25
21
-62.5067
0
LINE
8
Black
10
44.25
20
-62.5067
11
43.6492
21
-62.4007
0
LINE
8
Black
10
43.6492
20
-62.4007
11
43.1208
21
-62.0957
0
LINE
8
Black
10
43.1208
20
-62.0957
11
42.7287
21
-61.6283
0
LINE
8
Black
10
42.7287
20
-61.6283
11
42.52
21
-61.055
0
LINE
8
Black
10
42.52
20
-61.055
11
42.52
21
-60.445
0
LINE
8
Black
10
42.52
20
-60.445
11
42.7287
21
-59.8717
0
LINE
8
Black
10
42.7287
20
-59.8717
11
43.1208
21
-59.4043
0
LINE
8
Black
10
43.1208
20
-59.4043
11
43.6492
21
-59.0993
0
LINE
8
Black
10
43.6492
20
-59.0993
11
44.25
21
-58.9933
0
LINE
8
Black
10
44.25
20
-58.9933
11
44.8508
21
-59.0993
0
LINE
8
Black
10
134.351
20
-42.8493
11
134.879
21
-43.1543
0
LINE
8
Black
10
134.879
20
-43.1543
11
135.271
21
-43.6217
0
LINE
8
Black
10
135.271
20
-43.6217
11
135.48
21
-44.195
0
LINE
8
Black
10
135.48
20
-44.195
11
135.48
21
-44.805
0
LINE
8
Black
10
135.48
20
-44.805
11
135.271
21
-45.3783
0
LINE
8
Black
10
135.271
20
-45.3783
11
134.879
21
-45.8457
0
LINE
8
Black
10
134.879
20
-45.8457
11
134.351
21
-46.1507
0
LINE
8
Black
10
134.351
20
-46.1507
11
133.75
21
-46.2567
0
LINE
8
Black
10
133.75
20
-46.2567
11
133.149
21
-46.1507
0
LINE
8
Black
10
133.149
20
-46.1507
11
132.621
21
-45.8457
0
LINE
8
Black
10
132.621
20
-45.8457
11
132.229
21
-45.3783
0
LINE
8
Black
10
132.229
20
-45.3783
11
132.02
21
-44.805
0
LINE
8
Black
10
132.02
20
-44.805
11
132.02
21
-44.195
0
LINE
8
Black
10
132.02
20
-44.195
11
132.229
21
-43.6217
0
LINE
8
Black
10
132.229
20
-43.6217
11
132.621
21
-43.1543
0
LINE
8
Black
10
132.621
20
-43.1543
11
133.149
21
-42.8493
0
LINE
8
Black
10
133.149
20
-42.8493
11
133.75
21
-42.7433
0
LINE
8
Black
10
133.75
20
-42.7433
11
134.351
21
-42.8493
0
LINE
8
Black
10
59.1008
20
-42.5993
11
59.6292
21
-42.9043
0
LINE
8
Black
10
59.6292
20
-42.9043
11
60.0213
21
-43.3717
0
LINE
8
Black
10
60.0213
20
-43.3717
11
60.23
21
-43.945
0
LINE
8
Black
10
60.23
20
-43.945
11
60.23
21
-44.555
0
LINE
8
Black
10
60.23
20
-44.555
11
60.0213
21
-45.1283
0
LINE
8
Black
10
60.0213
20
-45.1283
11
59.6292
21
-45.5957
0
LINE
8
Black
10
59.6292
20
-45.5957
11
59.1008
21
-45.9007
0
LINE
8
Black
10
59.1008
20
-45.9007
11
58.5
21
-46.0067
0
LINE
8
Black
10
58.5
20
-46.0067
11
57.8992
21
-45.9007
0
LINE
8
Black
10
57.8992
20
-45.9007
11
57.3708
21
-45.5957
0
LINE
8
Black
10
57.3708
20
-45.5957
11
56.9787
21
-45.1283
0
LINE
8
Black
10
56.9787
20
-45.1283
11
56.77
21
-44.555
0
LINE
8
Black
10
56.77
20
-44.555
11
56.77
21
-43.945
0
LINE
8
Black
10
56.77
20
-43.945
11
56.9787
21
-43.3717
0
LINE
8
Black
10
56.9787
20
-43.3717
11
57.3708
21
-42.9043
0
LINE
8
Black
10
57.3708
20
-42.9043
11
57.8992
21
-42.5993
0
LINE
8
Black
10
57.8992
20
-42.5993
11
58.5
21
-42.4933
0
LINE
8
Black
10
58.5
20
-42.4933
11
59.1008
21
-42.5993
0
LINE
8
Black
10
100.601
20
-42.5993
11
101.129
21
-42.9043
0
LINE
8
Black
10
101.129
20
-42.9043
11
101.521
21
-43.3717
0
LINE
8
Black
10
101.521
20
-43.3717
11
101.73
21
-43.945
0
LINE
8
Black
10
101.73
20
-43.945
11
101.73
21
-44.555
0
LINE
8
Black
10
101.73
20
-44.555
11
101.521
21
-45.1283
0
LINE
8
Black
10
101.521
20
-45.1283
11
101.129
21
-45.5957
0
LINE
8
Black
10
101.129
20
-45.5957
11
100.601
21
-45.9007
0
LINE
8
Black
10
100.601
20
-45.9007
11
100
21
-46.0067
0
LINE
8
Black
10
100
20
-46.0067
11
99.3992
21
-45.9007
0
LINE
8
Black
10
99.3992
20
-45.9007
11
98.8708
21
-45.5957
0
LINE
8
Black
10
98.8708
20
-45.5957
11
98.4787
21
-45.1283
0
LINE
8
Black
10
98.4787
20
-45.1283
11
98.27
21
-44.555
0
LINE
8
Black
10
98.27
20
-44.555
11
98.27
21
-43.945
0
LINE
8
Black
10
98.27
20
-43.945
11
98.4787
21
-43.3717
0
LINE
8
Black
10
98.4787
20
-43.3717
11
98.8708
21
-42.9043
0
LINE
8
Black
10
98.8708
20
-42.9043
11
99.3992
21
-42.5993
0
LINE
8
Black
10
99.3992
20
-42.5993
11
100
21
-42.4933
0
LINE
8
Black
10
100
20
-42.4933
11
100.601
21
-42.5993
0
LINE
8
Black
10
197.101
20
-37.3493
11
197.629
21
-37.6543
0
LINE
8
Black
10
197.629
20
-37.6543
11
198.021
21
-38.1217
0
LINE
8
Black
10
198.021
20
-38.1217
11
198.23
21
-38.695
0
LINE
8
Black
10
198.23
20
-38.695
11
198.23
21
-39.305
0
LINE
8
Black
10
198.23
20
-39.305
11
198.021
21
-39.8783
0
LINE
8
Black
10
198.021
20
-39.8783
11
197.629
21
-40.3457
0
LINE
8
Black
10
197.629
20
-40.3457
11
197.101
21
-40.6507
0
LINE
8
Black
10
197.101
20
-40.6507
11
196.5
21
-40.7567
0
LINE
8
Black
10
196.5
20
-40.7567
11
195.899
21
-40.6507
0
LINE
8
Black
10
195.899
20
-40.6507
11
195.371
21
-40.3457
0
LINE
8
Black
10
195.371
20
-40.3457
11
194.979
21
-39.8783
0
LINE
8
Black
10
194.979
20
-39.8783
11
194.77
21
-39.305
0
LINE
8
Black
10
194.77
20
-39.305
11
194.77
21
-38.695
0
LINE
8
Black
10
194.77
20
-38.695
11
194.979
21
-38.1217
0
LINE
8
Black
10
194.979
20
-38.1217
11
195.371
21
-37.6543
0
LINE
8
Black
10
195.371
20
-37.6543
11
195.899
21
-37.3493
0
LINE
8
Black
10
195.899
20
-37.3493
11
196.5
21
-37.2433
0
LINE
8
Black
10
196.5
20
-37.2433
11
197.101
21
-37.3493
0
LINE
8
Black
10
100.101
20
-30.0993
11
100.629
21
-30.4043
0
LINE
8
Black
10
100.629
20
-30.4043
11
101.021
21
-30.8717
0
LINE
8
Black
10
101.021
20
-30.8717
11
101.23
21
-31.445
0
LINE
8
Black
10
101.23
20
-31.445
11
101.23
21
-32.055
0
LINE
8
Black
10
101.23
20
-32.055
11
101.021
21
-32.6283
0
LINE
8
Black
10
101.021
20
-32.6283
11
100.629
21
-33.0957
0
LINE
8
Black
10
100.629
20
-33.0957
11
100.101
21
-33.4007
0
LINE
8
Black
10
100.101
20
-33.4007
11
99.5
21
-33.5067
0
LINE
8
Black
10
99.5
20
-33.5067
11
98.8992
21
-33.4007
0
LINE
8
Black
10
98.8992
20
-33.4007
11
98.3708
21
-33.0957
0
LINE
8
Black
10
98.3708
20
-33.0957
11
97.9787
21
-32.6283
0
LINE
8
Black
10
97.9787
20
-32.6283
11
97.77
21
-32.055
0
LINE
8
Black
10
97.77
20
-32.055
11
97.77
21
-31.445
0
LINE
8
Black
10
97.77
20
-31.445
11
97.9787
21
-30.8717
0
LINE
8
Black
10
97.9787
20
-30.8717
11
98.3708
21
-30.4043
0
LINE
8
Black
10
98.3708
20
-30.4043
11
98.8992
21
-30.0993
0
LINE
8
Black
10
98.8992
20
-30.0993
11
99.5
21
-29.9933
0
LINE
8
Black
10
99.5
20
-29.9933
11
100.101
21
-30.0993
0
LINE
8
Black
10
133.851
20
-30.0993
11
134.379
21
-30.4043
0
LINE
8
Black
10
134.379
20
-30.4043
11
134.771
21
-30.8717
0
LINE
8
Black
10
134.771
20
-30.8717
11
134.98
21
-31.445
0
LINE
8
Black
10
134.98
20
-31.445
11
134.98
21
-32.055
0
LINE
8
Black
10
134.98
20
-32.055
11
134.771
21
-32.6283
0
LINE
8
Black
10
134.771
20
-32.6283
11
134.379
21
-33.0957
0
LINE
8
Black
10
134.379
20
-33.0957
11
133.851
21
-33.4007
0
LINE
8
Black
10
133.851
20
-33.4007
11
133.25
21
-33.5067
0
LINE
8
Black
10
133.25
20
-33.5067
11
132.649
21
-33.4007
0
LINE
8
Black
10
132.649
20
-33.4007
11
132.121
21
-33.0957
0
LINE
8
Black
10
132.121
20
-33.0957
11
131.729
21
-32.6283
0
LINE
8
Black
10
131.729
20
-32.6283
11
131.52
21
-32.055
0
LINE
8
Black
10
131.52
20
-32.055
11
131.52
21
-31.445
0
LINE
8
Black
10
131.52
20
-31.445
11
131.729
21
-30.8717
0
LINE
8
Black
10
131.729
20
-30.8717
11
132.121
21
-30.4043
0
LINE
8
Black
10
132.121
20
-30.4043
11
132.649
21
-30.0993
0
LINE
8
Black
10
132.649
20
-30.0993
11
133.25
21
-29.9933
0
LINE
8
Black
10
133.25
20
-29.9933
11
133.851
21
-30.0993
0
LINE
8
Black
10
39.3508
20
-29.8493
11
39.8792
21
-30.1543
0
LINE
8
Black
10
39.8792
20
-30.1543
11
40.2713
21
-30.6217
0
LINE
8
Black
10
40.2713
20
-30.6217
11
40.48
21
-31.195
0
LINE
8
Black
10
40.48
20
-31.195
11
40.48
21
-31.805
0
LINE
8
Black
10
40.48
20
-31.805
11
40.2713
21
-32.3783
0
LINE
8
Black
10
40.2713
20
-32.3783
11
39.8792
21
-32.8457
0
LINE
8
Black
10
39.8792
20
-32.8457
11
39.3508
21
-33.1507
0
LINE
8
Black
10
39.3508
20
-33.1507
11
38.75
21
-33.2567
0
LINE
8
Black
10
38.75
20
-33.2567
11
38.1492
21
-33.1507
0
LINE
8
Black
10
38.1492
20
-33.1507
11
37.6208
21
-32.8457
0
LINE
8
Black
10
37.6208
20
-32.8457
11
37.2287
21
-32.3783
0
LINE
8
Black
10
37.2287
20
-32.3783
11
37.02
21
-31.805
0
LINE
8
Black
10
37.02
20
-31.805
11
37.02
21
-31.195
0
LINE
8
Black
10
37.02
20
-31.195
11
37.2287
21
-30.6217
0
LINE
8
Black
10
37.2287
20
-30.6217
11
37.6208
21
-30.1543
0
LINE
8
Black
10
37.6208
20
-30.1543
11
38.1492
21
-29.8493
0
LINE
8
Black
10
38.1492
20
-29.8493
11
38.75
21
-29.7433
0
LINE
8
Black
10
38.75
20
-29.7433
11
39.3508
21
-29.8493
  0
ENDSEC
  0
EOF
