M48
;DRILL file {KiCad 4.0.1-stable} date 2017/01/26 22:55:56
;FORMAT={-:-/ absolute / metric / decimal}
FMAT,2
METRIC,TZ
T1C1.702
T2C3.988
%
G90
G05
M71
T1
X34.92Y-60.
X37.295Y-136.
X39.67Y-79.
X42.045Y-98.
X45.08Y-60.
X46.795Y-117.
X47.455Y-136.
X49.83Y-79.
X52.205Y-98.
X53.92Y-60.
X56.955Y-117.
X58.67Y-136.
X63.42Y-79.
X64.08Y-60.
X68.17Y-98.
X68.83Y-136.
X72.92Y-60.
X73.58Y-79.
X77.67Y-117.
X77.67Y-136.
X78.33Y-98.
X82.42Y-79.
X83.08Y-60.
X87.17Y-98.
X87.83Y-117.
X87.83Y-136.
X91.92Y-60.
X92.58Y-79.
X96.67Y-117.
X96.67Y-136.
X97.33Y-98.
X101.42Y-79.
X102.08Y-60.
X106.17Y-98.
X106.83Y-117.
X106.83Y-136.
X110.92Y-60.
X111.58Y-79.
X115.67Y-117.
X116.33Y-98.
X120.42Y-79.
X120.42Y-136.
X121.08Y-60.
X125.17Y-98.
X125.83Y-117.
X129.92Y-60.
X130.58Y-79.
X130.58Y-136.
X134.67Y-117.
X135.33Y-98.
X139.42Y-79.
X140.08Y-60.
X144.17Y-98.
X144.83Y-117.
X148.92Y-60.
X148.92Y-136.
X149.58Y-79.
X153.67Y-117.
X154.33Y-98.
X159.08Y-60.
X159.08Y-136.
X163.83Y-117.
T2
X40.Y-60.
X42.375Y-136.
X44.75Y-79.
X47.125Y-98.
X51.875Y-117.
X59.Y-60.
X63.75Y-136.
X68.5Y-79.
X73.25Y-98.
X78.Y-60.
X82.75Y-117.
X82.75Y-136.
X87.5Y-79.
X92.25Y-98.
X97.Y-60.
X101.75Y-117.
X101.75Y-136.
X106.5Y-79.
X111.25Y-98.
X116.Y-60.
X120.75Y-117.
X125.5Y-79.
X125.5Y-136.
X130.25Y-98.
X135.Y-60.
X139.75Y-117.
X144.5Y-79.
X149.25Y-98.
X154.Y-60.
X154.Y-136.
X158.75Y-117.
T0
M30
