M48
;DRILL file {KiCad 4.0.1-stable} date 2017/01/26 22:55:55
;FORMAT={-:-/ absolute / metric / decimal}
FMAT,2
METRIC,TZ
T1C0.400
T2C0.800
T3C0.813
T4C0.889
T5C0.900
T6C1.300
T7C1.499
T8C3.000
%
G90
G05
M71
T1
X104.5Y-32.5
X111.Y-47.
T2
X111.Y-35.
X111.Y-37.5
T3
X49.9Y-37.355
X49.9Y-46.245
X58.3Y-37.255
X58.3Y-46.145
X67.Y-37.255
X67.Y-46.145
X101.Y-37.055
X101.Y-45.945
X128.99Y-38.19
X128.99Y-45.81
X131.53Y-38.19
X131.53Y-45.81
X134.07Y-38.19
X134.07Y-45.81
X136.61Y-38.19
X136.61Y-45.81
X139.15Y-38.19
X139.15Y-45.81
X141.69Y-38.19
X141.69Y-45.81
X144.23Y-38.19
X144.23Y-45.81
X146.77Y-38.19
X146.77Y-45.81
X149.31Y-38.19
X149.31Y-45.81
X151.85Y-38.19
X151.85Y-45.81
X154.39Y-38.19
X154.39Y-45.81
X156.93Y-38.19
X156.93Y-45.81
X159.47Y-38.19
X159.47Y-45.81
X162.01Y-38.19
X162.01Y-45.81
T4
X32.92Y-48.5
X33.1Y-133.22
X33.1Y-143.38
X33.9Y-76.42
X33.9Y-86.58
X37.Y-94.72
X37.Y-104.88
X41.Y-114.02
X41.Y-124.18
X43.08Y-48.5
X49.4Y-57.32
X49.4Y-67.48
X54.5Y-132.82
X54.5Y-142.98
X59.2Y-76.32
X59.2Y-86.48
X64.Y-95.22
X64.Y-105.38
X68.5Y-57.52
X68.5Y-67.68
X73.4Y-114.22
X73.4Y-124.38
X73.6Y-133.22
X73.6Y-143.38
X78.1Y-76.22
X78.1Y-86.38
X82.8Y-95.22
X82.8Y-105.38
X87.3Y-57.42
X87.3Y-67.58
X92.5Y-132.82
X92.5Y-142.98
X92.7Y-114.02
X92.7Y-124.18
X97.Y-76.12
X97.Y-86.28
X102.1Y-95.22
X102.1Y-105.38
X106.9Y-57.22
X106.9Y-67.38
X111.4Y-114.62
X111.4Y-124.78
X115.4Y-133.22
X115.4Y-143.38
X116.2Y-76.22
X116.2Y-86.38
X121.Y-95.22
X121.Y-105.38
X125.9Y-57.52
X125.9Y-67.68
X130.7Y-114.22
X130.7Y-124.38
X135.Y-76.12
X135.Y-86.28
X139.8Y-95.32
X139.8Y-105.48
X143.3Y-132.82
X143.3Y-142.98
X145.1Y-57.02
X145.1Y-67.18
X149.1Y-114.42
X149.1Y-124.58
T5
X35.25Y-35.25
X35.25Y-41.75
X39.75Y-35.25
X39.75Y-41.75
X50.Y-32.
X50.Y-34.54
X58.5Y-32.
X58.5Y-34.54
X67.Y-32.
X67.Y-34.54
T6
X116.7Y-43.1
X121.3Y-35.
X121.3Y-38.
X121.3Y-42.
T7
X36.19Y-57.46
X38.565Y-133.46
X40.94Y-76.46
X42.54Y-54.92
X43.315Y-95.46
X44.915Y-130.92
X47.29Y-73.92
X48.065Y-114.46
X49.665Y-92.92
X54.415Y-111.92
X55.19Y-57.46
X59.94Y-133.46
X61.54Y-54.92
X64.69Y-76.46
X66.29Y-130.92
X69.44Y-95.46
X71.04Y-73.92
X74.19Y-57.46
X75.79Y-92.92
X78.94Y-114.46
X78.94Y-133.46
X80.54Y-54.92
X83.69Y-76.46
X85.29Y-111.92
X85.29Y-130.92
X88.44Y-95.46
X90.04Y-73.92
X93.19Y-57.46
X94.79Y-92.92
X97.94Y-114.46
X97.94Y-133.46
X99.54Y-54.92
X102.69Y-76.46
X104.29Y-111.92
X104.29Y-130.92
X107.44Y-95.46
X109.04Y-73.92
X112.19Y-57.46
X113.79Y-92.92
X116.94Y-114.46
X118.54Y-54.92
X121.69Y-76.46
X121.69Y-133.46
X123.29Y-111.92
X126.44Y-95.46
X128.04Y-73.92
X128.04Y-130.92
X131.19Y-57.46
X132.79Y-92.92
X135.94Y-114.46
X137.54Y-54.92
X140.69Y-76.46
X142.29Y-111.92
X145.44Y-95.46
X147.04Y-73.92
X150.19Y-57.46
X150.19Y-133.46
X151.79Y-92.92
X154.94Y-114.46
X156.54Y-54.92
X156.54Y-130.92
X161.29Y-111.92
T8
X32.Y-33.
X51.Y-140.
X65.Y-90.
X75.Y-35.
X120.Y-90.
X135.Y-140.
X148.Y-33.
X160.Y-90.
X165.Y-140.
T0
M30
