G04 #@! TF.FileFunction,Legend,Top*
%FSLAX46Y46*%
G04 Gerber Fmt 4.6, Leading zero omitted, Abs format (unit mm)*
G04 Created by KiCad (PCBNEW 4.0.1-stable) date 2017/01/26 22:55:25*
%MOMM*%
G01*
G04 APERTURE LIST*
%ADD10C,0.100000*%
%ADD11C,0.150000*%
%ADD12C,0.381000*%
%ADD13C,0.152400*%
%ADD14C,0.120000*%
%ADD15C,0.203200*%
%ADD16C,0.050000*%
G04 APERTURE END LIST*
D10*
D11*
X41810000Y-48500000D02*
X43080000Y-48500000D01*
X34190000Y-48500000D02*
X32920000Y-48500000D01*
X34190000Y-48500000D02*
X34952000Y-48500000D01*
X34952000Y-48500000D02*
X34952000Y-49516000D01*
X34952000Y-49516000D02*
X41048000Y-49516000D01*
X41048000Y-49516000D02*
X41048000Y-48500000D01*
X41048000Y-48500000D02*
X41810000Y-48500000D01*
X41048000Y-48500000D02*
X41048000Y-47484000D01*
X41048000Y-47484000D02*
X34952000Y-47484000D01*
X34952000Y-47484000D02*
X34952000Y-48500000D01*
X35460000Y-49516000D02*
X35460000Y-47484000D01*
X35714000Y-47484000D02*
X35714000Y-49516000D01*
X49400000Y-58590000D02*
X49400000Y-57320000D01*
X49400000Y-66210000D02*
X49400000Y-67480000D01*
X49400000Y-66210000D02*
X49400000Y-65448000D01*
X49400000Y-65448000D02*
X50416000Y-65448000D01*
X50416000Y-65448000D02*
X50416000Y-59352000D01*
X50416000Y-59352000D02*
X49400000Y-59352000D01*
X49400000Y-59352000D02*
X49400000Y-58590000D01*
X49400000Y-59352000D02*
X48384000Y-59352000D01*
X48384000Y-59352000D02*
X48384000Y-65448000D01*
X48384000Y-65448000D02*
X49400000Y-65448000D01*
X50416000Y-64940000D02*
X48384000Y-64940000D01*
X48384000Y-64686000D02*
X50416000Y-64686000D01*
X68500000Y-58790000D02*
X68500000Y-57520000D01*
X68500000Y-66410000D02*
X68500000Y-67680000D01*
X68500000Y-66410000D02*
X68500000Y-65648000D01*
X68500000Y-65648000D02*
X69516000Y-65648000D01*
X69516000Y-65648000D02*
X69516000Y-59552000D01*
X69516000Y-59552000D02*
X68500000Y-59552000D01*
X68500000Y-59552000D02*
X68500000Y-58790000D01*
X68500000Y-59552000D02*
X67484000Y-59552000D01*
X67484000Y-59552000D02*
X67484000Y-65648000D01*
X67484000Y-65648000D02*
X68500000Y-65648000D01*
X69516000Y-65140000D02*
X67484000Y-65140000D01*
X67484000Y-64886000D02*
X69516000Y-64886000D01*
X87300000Y-58690000D02*
X87300000Y-57420000D01*
X87300000Y-66310000D02*
X87300000Y-67580000D01*
X87300000Y-66310000D02*
X87300000Y-65548000D01*
X87300000Y-65548000D02*
X88316000Y-65548000D01*
X88316000Y-65548000D02*
X88316000Y-59452000D01*
X88316000Y-59452000D02*
X87300000Y-59452000D01*
X87300000Y-59452000D02*
X87300000Y-58690000D01*
X87300000Y-59452000D02*
X86284000Y-59452000D01*
X86284000Y-59452000D02*
X86284000Y-65548000D01*
X86284000Y-65548000D02*
X87300000Y-65548000D01*
X88316000Y-65040000D02*
X86284000Y-65040000D01*
X86284000Y-64786000D02*
X88316000Y-64786000D01*
X106900000Y-58490000D02*
X106900000Y-57220000D01*
X106900000Y-66110000D02*
X106900000Y-67380000D01*
X106900000Y-66110000D02*
X106900000Y-65348000D01*
X106900000Y-65348000D02*
X107916000Y-65348000D01*
X107916000Y-65348000D02*
X107916000Y-59252000D01*
X107916000Y-59252000D02*
X106900000Y-59252000D01*
X106900000Y-59252000D02*
X106900000Y-58490000D01*
X106900000Y-59252000D02*
X105884000Y-59252000D01*
X105884000Y-59252000D02*
X105884000Y-65348000D01*
X105884000Y-65348000D02*
X106900000Y-65348000D01*
X107916000Y-64840000D02*
X105884000Y-64840000D01*
X105884000Y-64586000D02*
X107916000Y-64586000D01*
X125900000Y-58790000D02*
X125900000Y-57520000D01*
X125900000Y-66410000D02*
X125900000Y-67680000D01*
X125900000Y-66410000D02*
X125900000Y-65648000D01*
X125900000Y-65648000D02*
X126916000Y-65648000D01*
X126916000Y-65648000D02*
X126916000Y-59552000D01*
X126916000Y-59552000D02*
X125900000Y-59552000D01*
X125900000Y-59552000D02*
X125900000Y-58790000D01*
X125900000Y-59552000D02*
X124884000Y-59552000D01*
X124884000Y-59552000D02*
X124884000Y-65648000D01*
X124884000Y-65648000D02*
X125900000Y-65648000D01*
X126916000Y-65140000D02*
X124884000Y-65140000D01*
X124884000Y-64886000D02*
X126916000Y-64886000D01*
X145100000Y-58290000D02*
X145100000Y-57020000D01*
X145100000Y-65910000D02*
X145100000Y-67180000D01*
X145100000Y-65910000D02*
X145100000Y-65148000D01*
X145100000Y-65148000D02*
X146116000Y-65148000D01*
X146116000Y-65148000D02*
X146116000Y-59052000D01*
X146116000Y-59052000D02*
X145100000Y-59052000D01*
X145100000Y-59052000D02*
X145100000Y-58290000D01*
X145100000Y-59052000D02*
X144084000Y-59052000D01*
X144084000Y-59052000D02*
X144084000Y-65148000D01*
X144084000Y-65148000D02*
X145100000Y-65148000D01*
X146116000Y-64640000D02*
X144084000Y-64640000D01*
X144084000Y-64386000D02*
X146116000Y-64386000D01*
X33900000Y-77690000D02*
X33900000Y-76420000D01*
X33900000Y-85310000D02*
X33900000Y-86580000D01*
X33900000Y-85310000D02*
X33900000Y-84548000D01*
X33900000Y-84548000D02*
X34916000Y-84548000D01*
X34916000Y-84548000D02*
X34916000Y-78452000D01*
X34916000Y-78452000D02*
X33900000Y-78452000D01*
X33900000Y-78452000D02*
X33900000Y-77690000D01*
X33900000Y-78452000D02*
X32884000Y-78452000D01*
X32884000Y-78452000D02*
X32884000Y-84548000D01*
X32884000Y-84548000D02*
X33900000Y-84548000D01*
X34916000Y-84040000D02*
X32884000Y-84040000D01*
X32884000Y-83786000D02*
X34916000Y-83786000D01*
X59200000Y-77590000D02*
X59200000Y-76320000D01*
X59200000Y-85210000D02*
X59200000Y-86480000D01*
X59200000Y-85210000D02*
X59200000Y-84448000D01*
X59200000Y-84448000D02*
X60216000Y-84448000D01*
X60216000Y-84448000D02*
X60216000Y-78352000D01*
X60216000Y-78352000D02*
X59200000Y-78352000D01*
X59200000Y-78352000D02*
X59200000Y-77590000D01*
X59200000Y-78352000D02*
X58184000Y-78352000D01*
X58184000Y-78352000D02*
X58184000Y-84448000D01*
X58184000Y-84448000D02*
X59200000Y-84448000D01*
X60216000Y-83940000D02*
X58184000Y-83940000D01*
X58184000Y-83686000D02*
X60216000Y-83686000D01*
X78100000Y-77490000D02*
X78100000Y-76220000D01*
X78100000Y-85110000D02*
X78100000Y-86380000D01*
X78100000Y-85110000D02*
X78100000Y-84348000D01*
X78100000Y-84348000D02*
X79116000Y-84348000D01*
X79116000Y-84348000D02*
X79116000Y-78252000D01*
X79116000Y-78252000D02*
X78100000Y-78252000D01*
X78100000Y-78252000D02*
X78100000Y-77490000D01*
X78100000Y-78252000D02*
X77084000Y-78252000D01*
X77084000Y-78252000D02*
X77084000Y-84348000D01*
X77084000Y-84348000D02*
X78100000Y-84348000D01*
X79116000Y-83840000D02*
X77084000Y-83840000D01*
X77084000Y-83586000D02*
X79116000Y-83586000D01*
X97000000Y-77390000D02*
X97000000Y-76120000D01*
X97000000Y-85010000D02*
X97000000Y-86280000D01*
X97000000Y-85010000D02*
X97000000Y-84248000D01*
X97000000Y-84248000D02*
X98016000Y-84248000D01*
X98016000Y-84248000D02*
X98016000Y-78152000D01*
X98016000Y-78152000D02*
X97000000Y-78152000D01*
X97000000Y-78152000D02*
X97000000Y-77390000D01*
X97000000Y-78152000D02*
X95984000Y-78152000D01*
X95984000Y-78152000D02*
X95984000Y-84248000D01*
X95984000Y-84248000D02*
X97000000Y-84248000D01*
X98016000Y-83740000D02*
X95984000Y-83740000D01*
X95984000Y-83486000D02*
X98016000Y-83486000D01*
X116200000Y-77490000D02*
X116200000Y-76220000D01*
X116200000Y-85110000D02*
X116200000Y-86380000D01*
X116200000Y-85110000D02*
X116200000Y-84348000D01*
X116200000Y-84348000D02*
X117216000Y-84348000D01*
X117216000Y-84348000D02*
X117216000Y-78252000D01*
X117216000Y-78252000D02*
X116200000Y-78252000D01*
X116200000Y-78252000D02*
X116200000Y-77490000D01*
X116200000Y-78252000D02*
X115184000Y-78252000D01*
X115184000Y-78252000D02*
X115184000Y-84348000D01*
X115184000Y-84348000D02*
X116200000Y-84348000D01*
X117216000Y-83840000D02*
X115184000Y-83840000D01*
X115184000Y-83586000D02*
X117216000Y-83586000D01*
X135000000Y-77390000D02*
X135000000Y-76120000D01*
X135000000Y-85010000D02*
X135000000Y-86280000D01*
X135000000Y-85010000D02*
X135000000Y-84248000D01*
X135000000Y-84248000D02*
X136016000Y-84248000D01*
X136016000Y-84248000D02*
X136016000Y-78152000D01*
X136016000Y-78152000D02*
X135000000Y-78152000D01*
X135000000Y-78152000D02*
X135000000Y-77390000D01*
X135000000Y-78152000D02*
X133984000Y-78152000D01*
X133984000Y-78152000D02*
X133984000Y-84248000D01*
X133984000Y-84248000D02*
X135000000Y-84248000D01*
X136016000Y-83740000D02*
X133984000Y-83740000D01*
X133984000Y-83486000D02*
X136016000Y-83486000D01*
X37000000Y-95990000D02*
X37000000Y-94720000D01*
X37000000Y-103610000D02*
X37000000Y-104880000D01*
X37000000Y-103610000D02*
X37000000Y-102848000D01*
X37000000Y-102848000D02*
X38016000Y-102848000D01*
X38016000Y-102848000D02*
X38016000Y-96752000D01*
X38016000Y-96752000D02*
X37000000Y-96752000D01*
X37000000Y-96752000D02*
X37000000Y-95990000D01*
X37000000Y-96752000D02*
X35984000Y-96752000D01*
X35984000Y-96752000D02*
X35984000Y-102848000D01*
X35984000Y-102848000D02*
X37000000Y-102848000D01*
X38016000Y-102340000D02*
X35984000Y-102340000D01*
X35984000Y-102086000D02*
X38016000Y-102086000D01*
X64000000Y-96490000D02*
X64000000Y-95220000D01*
X64000000Y-104110000D02*
X64000000Y-105380000D01*
X64000000Y-104110000D02*
X64000000Y-103348000D01*
X64000000Y-103348000D02*
X65016000Y-103348000D01*
X65016000Y-103348000D02*
X65016000Y-97252000D01*
X65016000Y-97252000D02*
X64000000Y-97252000D01*
X64000000Y-97252000D02*
X64000000Y-96490000D01*
X64000000Y-97252000D02*
X62984000Y-97252000D01*
X62984000Y-97252000D02*
X62984000Y-103348000D01*
X62984000Y-103348000D02*
X64000000Y-103348000D01*
X65016000Y-102840000D02*
X62984000Y-102840000D01*
X62984000Y-102586000D02*
X65016000Y-102586000D01*
X82800000Y-96490000D02*
X82800000Y-95220000D01*
X82800000Y-104110000D02*
X82800000Y-105380000D01*
X82800000Y-104110000D02*
X82800000Y-103348000D01*
X82800000Y-103348000D02*
X83816000Y-103348000D01*
X83816000Y-103348000D02*
X83816000Y-97252000D01*
X83816000Y-97252000D02*
X82800000Y-97252000D01*
X82800000Y-97252000D02*
X82800000Y-96490000D01*
X82800000Y-97252000D02*
X81784000Y-97252000D01*
X81784000Y-97252000D02*
X81784000Y-103348000D01*
X81784000Y-103348000D02*
X82800000Y-103348000D01*
X83816000Y-102840000D02*
X81784000Y-102840000D01*
X81784000Y-102586000D02*
X83816000Y-102586000D01*
X102100000Y-96490000D02*
X102100000Y-95220000D01*
X102100000Y-104110000D02*
X102100000Y-105380000D01*
X102100000Y-104110000D02*
X102100000Y-103348000D01*
X102100000Y-103348000D02*
X103116000Y-103348000D01*
X103116000Y-103348000D02*
X103116000Y-97252000D01*
X103116000Y-97252000D02*
X102100000Y-97252000D01*
X102100000Y-97252000D02*
X102100000Y-96490000D01*
X102100000Y-97252000D02*
X101084000Y-97252000D01*
X101084000Y-97252000D02*
X101084000Y-103348000D01*
X101084000Y-103348000D02*
X102100000Y-103348000D01*
X103116000Y-102840000D02*
X101084000Y-102840000D01*
X101084000Y-102586000D02*
X103116000Y-102586000D01*
X121000000Y-96490000D02*
X121000000Y-95220000D01*
X121000000Y-104110000D02*
X121000000Y-105380000D01*
X121000000Y-104110000D02*
X121000000Y-103348000D01*
X121000000Y-103348000D02*
X122016000Y-103348000D01*
X122016000Y-103348000D02*
X122016000Y-97252000D01*
X122016000Y-97252000D02*
X121000000Y-97252000D01*
X121000000Y-97252000D02*
X121000000Y-96490000D01*
X121000000Y-97252000D02*
X119984000Y-97252000D01*
X119984000Y-97252000D02*
X119984000Y-103348000D01*
X119984000Y-103348000D02*
X121000000Y-103348000D01*
X122016000Y-102840000D02*
X119984000Y-102840000D01*
X119984000Y-102586000D02*
X122016000Y-102586000D01*
X139800000Y-96590000D02*
X139800000Y-95320000D01*
X139800000Y-104210000D02*
X139800000Y-105480000D01*
X139800000Y-104210000D02*
X139800000Y-103448000D01*
X139800000Y-103448000D02*
X140816000Y-103448000D01*
X140816000Y-103448000D02*
X140816000Y-97352000D01*
X140816000Y-97352000D02*
X139800000Y-97352000D01*
X139800000Y-97352000D02*
X139800000Y-96590000D01*
X139800000Y-97352000D02*
X138784000Y-97352000D01*
X138784000Y-97352000D02*
X138784000Y-103448000D01*
X138784000Y-103448000D02*
X139800000Y-103448000D01*
X140816000Y-102940000D02*
X138784000Y-102940000D01*
X138784000Y-102686000D02*
X140816000Y-102686000D01*
X41000000Y-115290000D02*
X41000000Y-114020000D01*
X41000000Y-122910000D02*
X41000000Y-124180000D01*
X41000000Y-122910000D02*
X41000000Y-122148000D01*
X41000000Y-122148000D02*
X42016000Y-122148000D01*
X42016000Y-122148000D02*
X42016000Y-116052000D01*
X42016000Y-116052000D02*
X41000000Y-116052000D01*
X41000000Y-116052000D02*
X41000000Y-115290000D01*
X41000000Y-116052000D02*
X39984000Y-116052000D01*
X39984000Y-116052000D02*
X39984000Y-122148000D01*
X39984000Y-122148000D02*
X41000000Y-122148000D01*
X42016000Y-121640000D02*
X39984000Y-121640000D01*
X39984000Y-121386000D02*
X42016000Y-121386000D01*
X73400000Y-115490000D02*
X73400000Y-114220000D01*
X73400000Y-123110000D02*
X73400000Y-124380000D01*
X73400000Y-123110000D02*
X73400000Y-122348000D01*
X73400000Y-122348000D02*
X74416000Y-122348000D01*
X74416000Y-122348000D02*
X74416000Y-116252000D01*
X74416000Y-116252000D02*
X73400000Y-116252000D01*
X73400000Y-116252000D02*
X73400000Y-115490000D01*
X73400000Y-116252000D02*
X72384000Y-116252000D01*
X72384000Y-116252000D02*
X72384000Y-122348000D01*
X72384000Y-122348000D02*
X73400000Y-122348000D01*
X74416000Y-121840000D02*
X72384000Y-121840000D01*
X72384000Y-121586000D02*
X74416000Y-121586000D01*
X92700000Y-115290000D02*
X92700000Y-114020000D01*
X92700000Y-122910000D02*
X92700000Y-124180000D01*
X92700000Y-122910000D02*
X92700000Y-122148000D01*
X92700000Y-122148000D02*
X93716000Y-122148000D01*
X93716000Y-122148000D02*
X93716000Y-116052000D01*
X93716000Y-116052000D02*
X92700000Y-116052000D01*
X92700000Y-116052000D02*
X92700000Y-115290000D01*
X92700000Y-116052000D02*
X91684000Y-116052000D01*
X91684000Y-116052000D02*
X91684000Y-122148000D01*
X91684000Y-122148000D02*
X92700000Y-122148000D01*
X93716000Y-121640000D02*
X91684000Y-121640000D01*
X91684000Y-121386000D02*
X93716000Y-121386000D01*
X111400000Y-115890000D02*
X111400000Y-114620000D01*
X111400000Y-123510000D02*
X111400000Y-124780000D01*
X111400000Y-123510000D02*
X111400000Y-122748000D01*
X111400000Y-122748000D02*
X112416000Y-122748000D01*
X112416000Y-122748000D02*
X112416000Y-116652000D01*
X112416000Y-116652000D02*
X111400000Y-116652000D01*
X111400000Y-116652000D02*
X111400000Y-115890000D01*
X111400000Y-116652000D02*
X110384000Y-116652000D01*
X110384000Y-116652000D02*
X110384000Y-122748000D01*
X110384000Y-122748000D02*
X111400000Y-122748000D01*
X112416000Y-122240000D02*
X110384000Y-122240000D01*
X110384000Y-121986000D02*
X112416000Y-121986000D01*
X130700000Y-115490000D02*
X130700000Y-114220000D01*
X130700000Y-123110000D02*
X130700000Y-124380000D01*
X130700000Y-123110000D02*
X130700000Y-122348000D01*
X130700000Y-122348000D02*
X131716000Y-122348000D01*
X131716000Y-122348000D02*
X131716000Y-116252000D01*
X131716000Y-116252000D02*
X130700000Y-116252000D01*
X130700000Y-116252000D02*
X130700000Y-115490000D01*
X130700000Y-116252000D02*
X129684000Y-116252000D01*
X129684000Y-116252000D02*
X129684000Y-122348000D01*
X129684000Y-122348000D02*
X130700000Y-122348000D01*
X131716000Y-121840000D02*
X129684000Y-121840000D01*
X129684000Y-121586000D02*
X131716000Y-121586000D01*
X149100000Y-115690000D02*
X149100000Y-114420000D01*
X149100000Y-123310000D02*
X149100000Y-124580000D01*
X149100000Y-123310000D02*
X149100000Y-122548000D01*
X149100000Y-122548000D02*
X150116000Y-122548000D01*
X150116000Y-122548000D02*
X150116000Y-116452000D01*
X150116000Y-116452000D02*
X149100000Y-116452000D01*
X149100000Y-116452000D02*
X149100000Y-115690000D01*
X149100000Y-116452000D02*
X148084000Y-116452000D01*
X148084000Y-116452000D02*
X148084000Y-122548000D01*
X148084000Y-122548000D02*
X149100000Y-122548000D01*
X150116000Y-122040000D02*
X148084000Y-122040000D01*
X148084000Y-121786000D02*
X150116000Y-121786000D01*
X33100000Y-134490000D02*
X33100000Y-133220000D01*
X33100000Y-142110000D02*
X33100000Y-143380000D01*
X33100000Y-142110000D02*
X33100000Y-141348000D01*
X33100000Y-141348000D02*
X34116000Y-141348000D01*
X34116000Y-141348000D02*
X34116000Y-135252000D01*
X34116000Y-135252000D02*
X33100000Y-135252000D01*
X33100000Y-135252000D02*
X33100000Y-134490000D01*
X33100000Y-135252000D02*
X32084000Y-135252000D01*
X32084000Y-135252000D02*
X32084000Y-141348000D01*
X32084000Y-141348000D02*
X33100000Y-141348000D01*
X34116000Y-140840000D02*
X32084000Y-140840000D01*
X32084000Y-140586000D02*
X34116000Y-140586000D01*
X54500000Y-134090000D02*
X54500000Y-132820000D01*
X54500000Y-141710000D02*
X54500000Y-142980000D01*
X54500000Y-141710000D02*
X54500000Y-140948000D01*
X54500000Y-140948000D02*
X55516000Y-140948000D01*
X55516000Y-140948000D02*
X55516000Y-134852000D01*
X55516000Y-134852000D02*
X54500000Y-134852000D01*
X54500000Y-134852000D02*
X54500000Y-134090000D01*
X54500000Y-134852000D02*
X53484000Y-134852000D01*
X53484000Y-134852000D02*
X53484000Y-140948000D01*
X53484000Y-140948000D02*
X54500000Y-140948000D01*
X55516000Y-140440000D02*
X53484000Y-140440000D01*
X53484000Y-140186000D02*
X55516000Y-140186000D01*
X73600000Y-134490000D02*
X73600000Y-133220000D01*
X73600000Y-142110000D02*
X73600000Y-143380000D01*
X73600000Y-142110000D02*
X73600000Y-141348000D01*
X73600000Y-141348000D02*
X74616000Y-141348000D01*
X74616000Y-141348000D02*
X74616000Y-135252000D01*
X74616000Y-135252000D02*
X73600000Y-135252000D01*
X73600000Y-135252000D02*
X73600000Y-134490000D01*
X73600000Y-135252000D02*
X72584000Y-135252000D01*
X72584000Y-135252000D02*
X72584000Y-141348000D01*
X72584000Y-141348000D02*
X73600000Y-141348000D01*
X74616000Y-140840000D02*
X72584000Y-140840000D01*
X72584000Y-140586000D02*
X74616000Y-140586000D01*
X92500000Y-134090000D02*
X92500000Y-132820000D01*
X92500000Y-141710000D02*
X92500000Y-142980000D01*
X92500000Y-141710000D02*
X92500000Y-140948000D01*
X92500000Y-140948000D02*
X93516000Y-140948000D01*
X93516000Y-140948000D02*
X93516000Y-134852000D01*
X93516000Y-134852000D02*
X92500000Y-134852000D01*
X92500000Y-134852000D02*
X92500000Y-134090000D01*
X92500000Y-134852000D02*
X91484000Y-134852000D01*
X91484000Y-134852000D02*
X91484000Y-140948000D01*
X91484000Y-140948000D02*
X92500000Y-140948000D01*
X93516000Y-140440000D02*
X91484000Y-140440000D01*
X91484000Y-140186000D02*
X93516000Y-140186000D01*
X115400000Y-134490000D02*
X115400000Y-133220000D01*
X115400000Y-142110000D02*
X115400000Y-143380000D01*
X115400000Y-142110000D02*
X115400000Y-141348000D01*
X115400000Y-141348000D02*
X116416000Y-141348000D01*
X116416000Y-141348000D02*
X116416000Y-135252000D01*
X116416000Y-135252000D02*
X115400000Y-135252000D01*
X115400000Y-135252000D02*
X115400000Y-134490000D01*
X115400000Y-135252000D02*
X114384000Y-135252000D01*
X114384000Y-135252000D02*
X114384000Y-141348000D01*
X114384000Y-141348000D02*
X115400000Y-141348000D01*
X116416000Y-140840000D02*
X114384000Y-140840000D01*
X114384000Y-140586000D02*
X116416000Y-140586000D01*
X143300000Y-134090000D02*
X143300000Y-132820000D01*
X143300000Y-141710000D02*
X143300000Y-142980000D01*
X143300000Y-141710000D02*
X143300000Y-140948000D01*
X143300000Y-140948000D02*
X144316000Y-140948000D01*
X144316000Y-140948000D02*
X144316000Y-134852000D01*
X144316000Y-134852000D02*
X143300000Y-134852000D01*
X143300000Y-134852000D02*
X143300000Y-134090000D01*
X143300000Y-134852000D02*
X142284000Y-134852000D01*
X142284000Y-134852000D02*
X142284000Y-140948000D01*
X142284000Y-140948000D02*
X143300000Y-140948000D01*
X144316000Y-140440000D02*
X142284000Y-140440000D01*
X142284000Y-140186000D02*
X144316000Y-140186000D01*
X122050000Y-31800000D02*
X122050000Y-30800000D01*
X122050000Y-30800000D02*
X115950000Y-30800000D01*
X115950000Y-30800000D02*
X115950000Y-31800000D01*
X115950000Y-31800000D02*
X115950000Y-43900000D01*
X122050000Y-31800000D02*
X122050000Y-43900000D01*
X122050000Y-31800000D02*
X115950000Y-31800000D01*
X115950000Y-43900000D02*
X122050000Y-43900000D01*
X101635000Y-37690000D02*
X99730000Y-37690000D01*
X99730000Y-37690000D02*
X99730000Y-45310000D01*
X99730000Y-45310000D02*
X102270000Y-45310000D01*
X102270000Y-45310000D02*
X102270000Y-37690000D01*
X102270000Y-37690000D02*
X101635000Y-37690000D01*
X101000000Y-37055000D02*
X101000000Y-37690000D01*
X101000000Y-45310000D02*
X101000000Y-45945000D01*
X101635000Y-37690000D02*
X102270000Y-38325000D01*
X49265000Y-45610000D02*
X51170000Y-45610000D01*
X51170000Y-45610000D02*
X51170000Y-37990000D01*
X51170000Y-37990000D02*
X48630000Y-37990000D01*
X48630000Y-37990000D02*
X48630000Y-45610000D01*
X48630000Y-45610000D02*
X49265000Y-45610000D01*
X49900000Y-46245000D02*
X49900000Y-45610000D01*
X49900000Y-37990000D02*
X49900000Y-37355000D01*
X49265000Y-45610000D02*
X48630000Y-44975000D01*
X57665000Y-45510000D02*
X59570000Y-45510000D01*
X59570000Y-45510000D02*
X59570000Y-37890000D01*
X59570000Y-37890000D02*
X57030000Y-37890000D01*
X57030000Y-37890000D02*
X57030000Y-45510000D01*
X57030000Y-45510000D02*
X57665000Y-45510000D01*
X58300000Y-46145000D02*
X58300000Y-45510000D01*
X58300000Y-37890000D02*
X58300000Y-37255000D01*
X57665000Y-45510000D02*
X57030000Y-44875000D01*
X66365000Y-45510000D02*
X68270000Y-45510000D01*
X68270000Y-45510000D02*
X68270000Y-37890000D01*
X68270000Y-37890000D02*
X65730000Y-37890000D01*
X65730000Y-37890000D02*
X65730000Y-45510000D01*
X65730000Y-45510000D02*
X66365000Y-45510000D01*
X67000000Y-46145000D02*
X67000000Y-45510000D01*
X67000000Y-37890000D02*
X67000000Y-37255000D01*
X66365000Y-45510000D02*
X65730000Y-44875000D01*
D12*
X33650000Y-53650000D02*
X35428000Y-53650000D01*
X44572000Y-53650000D02*
X46350000Y-53650000D01*
X46350000Y-53650000D02*
X46350000Y-55428000D01*
X46350000Y-64572000D02*
X46350000Y-66350000D01*
X46350000Y-66350000D02*
X44572000Y-66350000D01*
X35428000Y-66350000D02*
X33650000Y-66350000D01*
X33650000Y-66350000D02*
X33650000Y-64572000D01*
X33650000Y-55428000D02*
X33650000Y-53650000D01*
X52650000Y-53650000D02*
X54428000Y-53650000D01*
X63572000Y-53650000D02*
X65350000Y-53650000D01*
X65350000Y-53650000D02*
X65350000Y-55428000D01*
X65350000Y-64572000D02*
X65350000Y-66350000D01*
X65350000Y-66350000D02*
X63572000Y-66350000D01*
X54428000Y-66350000D02*
X52650000Y-66350000D01*
X52650000Y-66350000D02*
X52650000Y-64572000D01*
X52650000Y-55428000D02*
X52650000Y-53650000D01*
X71650000Y-53650000D02*
X73428000Y-53650000D01*
X82572000Y-53650000D02*
X84350000Y-53650000D01*
X84350000Y-53650000D02*
X84350000Y-55428000D01*
X84350000Y-64572000D02*
X84350000Y-66350000D01*
X84350000Y-66350000D02*
X82572000Y-66350000D01*
X73428000Y-66350000D02*
X71650000Y-66350000D01*
X71650000Y-66350000D02*
X71650000Y-64572000D01*
X71650000Y-55428000D02*
X71650000Y-53650000D01*
X90650000Y-53650000D02*
X92428000Y-53650000D01*
X101572000Y-53650000D02*
X103350000Y-53650000D01*
X103350000Y-53650000D02*
X103350000Y-55428000D01*
X103350000Y-64572000D02*
X103350000Y-66350000D01*
X103350000Y-66350000D02*
X101572000Y-66350000D01*
X92428000Y-66350000D02*
X90650000Y-66350000D01*
X90650000Y-66350000D02*
X90650000Y-64572000D01*
X90650000Y-55428000D02*
X90650000Y-53650000D01*
X109650000Y-53650000D02*
X111428000Y-53650000D01*
X120572000Y-53650000D02*
X122350000Y-53650000D01*
X122350000Y-53650000D02*
X122350000Y-55428000D01*
X122350000Y-64572000D02*
X122350000Y-66350000D01*
X122350000Y-66350000D02*
X120572000Y-66350000D01*
X111428000Y-66350000D02*
X109650000Y-66350000D01*
X109650000Y-66350000D02*
X109650000Y-64572000D01*
X109650000Y-55428000D02*
X109650000Y-53650000D01*
X128650000Y-53650000D02*
X130428000Y-53650000D01*
X139572000Y-53650000D02*
X141350000Y-53650000D01*
X141350000Y-53650000D02*
X141350000Y-55428000D01*
X141350000Y-64572000D02*
X141350000Y-66350000D01*
X141350000Y-66350000D02*
X139572000Y-66350000D01*
X130428000Y-66350000D02*
X128650000Y-66350000D01*
X128650000Y-66350000D02*
X128650000Y-64572000D01*
X128650000Y-55428000D02*
X128650000Y-53650000D01*
X147650000Y-53650000D02*
X149428000Y-53650000D01*
X158572000Y-53650000D02*
X160350000Y-53650000D01*
X160350000Y-53650000D02*
X160350000Y-55428000D01*
X160350000Y-64572000D02*
X160350000Y-66350000D01*
X160350000Y-66350000D02*
X158572000Y-66350000D01*
X149428000Y-66350000D02*
X147650000Y-66350000D01*
X147650000Y-66350000D02*
X147650000Y-64572000D01*
X147650000Y-55428000D02*
X147650000Y-53650000D01*
X38400000Y-72650000D02*
X40178000Y-72650000D01*
X49322000Y-72650000D02*
X51100000Y-72650000D01*
X51100000Y-72650000D02*
X51100000Y-74428000D01*
X51100000Y-83572000D02*
X51100000Y-85350000D01*
X51100000Y-85350000D02*
X49322000Y-85350000D01*
X40178000Y-85350000D02*
X38400000Y-85350000D01*
X38400000Y-85350000D02*
X38400000Y-83572000D01*
X38400000Y-74428000D02*
X38400000Y-72650000D01*
X62150000Y-72650000D02*
X63928000Y-72650000D01*
X73072000Y-72650000D02*
X74850000Y-72650000D01*
X74850000Y-72650000D02*
X74850000Y-74428000D01*
X74850000Y-83572000D02*
X74850000Y-85350000D01*
X74850000Y-85350000D02*
X73072000Y-85350000D01*
X63928000Y-85350000D02*
X62150000Y-85350000D01*
X62150000Y-85350000D02*
X62150000Y-83572000D01*
X62150000Y-74428000D02*
X62150000Y-72650000D01*
X81150000Y-72650000D02*
X82928000Y-72650000D01*
X92072000Y-72650000D02*
X93850000Y-72650000D01*
X93850000Y-72650000D02*
X93850000Y-74428000D01*
X93850000Y-83572000D02*
X93850000Y-85350000D01*
X93850000Y-85350000D02*
X92072000Y-85350000D01*
X82928000Y-85350000D02*
X81150000Y-85350000D01*
X81150000Y-85350000D02*
X81150000Y-83572000D01*
X81150000Y-74428000D02*
X81150000Y-72650000D01*
X100150000Y-72650000D02*
X101928000Y-72650000D01*
X111072000Y-72650000D02*
X112850000Y-72650000D01*
X112850000Y-72650000D02*
X112850000Y-74428000D01*
X112850000Y-83572000D02*
X112850000Y-85350000D01*
X112850000Y-85350000D02*
X111072000Y-85350000D01*
X101928000Y-85350000D02*
X100150000Y-85350000D01*
X100150000Y-85350000D02*
X100150000Y-83572000D01*
X100150000Y-74428000D02*
X100150000Y-72650000D01*
X119150000Y-72650000D02*
X120928000Y-72650000D01*
X130072000Y-72650000D02*
X131850000Y-72650000D01*
X131850000Y-72650000D02*
X131850000Y-74428000D01*
X131850000Y-83572000D02*
X131850000Y-85350000D01*
X131850000Y-85350000D02*
X130072000Y-85350000D01*
X120928000Y-85350000D02*
X119150000Y-85350000D01*
X119150000Y-85350000D02*
X119150000Y-83572000D01*
X119150000Y-74428000D02*
X119150000Y-72650000D01*
X138150000Y-72650000D02*
X139928000Y-72650000D01*
X149072000Y-72650000D02*
X150850000Y-72650000D01*
X150850000Y-72650000D02*
X150850000Y-74428000D01*
X150850000Y-83572000D02*
X150850000Y-85350000D01*
X150850000Y-85350000D02*
X149072000Y-85350000D01*
X139928000Y-85350000D02*
X138150000Y-85350000D01*
X138150000Y-85350000D02*
X138150000Y-83572000D01*
X138150000Y-74428000D02*
X138150000Y-72650000D01*
X40775000Y-91650000D02*
X42553000Y-91650000D01*
X51697000Y-91650000D02*
X53475000Y-91650000D01*
X53475000Y-91650000D02*
X53475000Y-93428000D01*
X53475000Y-102572000D02*
X53475000Y-104350000D01*
X53475000Y-104350000D02*
X51697000Y-104350000D01*
X42553000Y-104350000D02*
X40775000Y-104350000D01*
X40775000Y-104350000D02*
X40775000Y-102572000D01*
X40775000Y-93428000D02*
X40775000Y-91650000D01*
X66900000Y-91650000D02*
X68678000Y-91650000D01*
X77822000Y-91650000D02*
X79600000Y-91650000D01*
X79600000Y-91650000D02*
X79600000Y-93428000D01*
X79600000Y-102572000D02*
X79600000Y-104350000D01*
X79600000Y-104350000D02*
X77822000Y-104350000D01*
X68678000Y-104350000D02*
X66900000Y-104350000D01*
X66900000Y-104350000D02*
X66900000Y-102572000D01*
X66900000Y-93428000D02*
X66900000Y-91650000D01*
X85900000Y-91650000D02*
X87678000Y-91650000D01*
X96822000Y-91650000D02*
X98600000Y-91650000D01*
X98600000Y-91650000D02*
X98600000Y-93428000D01*
X98600000Y-102572000D02*
X98600000Y-104350000D01*
X98600000Y-104350000D02*
X96822000Y-104350000D01*
X87678000Y-104350000D02*
X85900000Y-104350000D01*
X85900000Y-104350000D02*
X85900000Y-102572000D01*
X85900000Y-93428000D02*
X85900000Y-91650000D01*
X104900000Y-91650000D02*
X106678000Y-91650000D01*
X115822000Y-91650000D02*
X117600000Y-91650000D01*
X117600000Y-91650000D02*
X117600000Y-93428000D01*
X117600000Y-102572000D02*
X117600000Y-104350000D01*
X117600000Y-104350000D02*
X115822000Y-104350000D01*
X106678000Y-104350000D02*
X104900000Y-104350000D01*
X104900000Y-104350000D02*
X104900000Y-102572000D01*
X104900000Y-93428000D02*
X104900000Y-91650000D01*
X123900000Y-91650000D02*
X125678000Y-91650000D01*
X134822000Y-91650000D02*
X136600000Y-91650000D01*
X136600000Y-91650000D02*
X136600000Y-93428000D01*
X136600000Y-102572000D02*
X136600000Y-104350000D01*
X136600000Y-104350000D02*
X134822000Y-104350000D01*
X125678000Y-104350000D02*
X123900000Y-104350000D01*
X123900000Y-104350000D02*
X123900000Y-102572000D01*
X123900000Y-93428000D02*
X123900000Y-91650000D01*
X142900000Y-91650000D02*
X144678000Y-91650000D01*
X153822000Y-91650000D02*
X155600000Y-91650000D01*
X155600000Y-91650000D02*
X155600000Y-93428000D01*
X155600000Y-102572000D02*
X155600000Y-104350000D01*
X155600000Y-104350000D02*
X153822000Y-104350000D01*
X144678000Y-104350000D02*
X142900000Y-104350000D01*
X142900000Y-104350000D02*
X142900000Y-102572000D01*
X142900000Y-93428000D02*
X142900000Y-91650000D01*
X45525000Y-110650000D02*
X47303000Y-110650000D01*
X56447000Y-110650000D02*
X58225000Y-110650000D01*
X58225000Y-110650000D02*
X58225000Y-112428000D01*
X58225000Y-121572000D02*
X58225000Y-123350000D01*
X58225000Y-123350000D02*
X56447000Y-123350000D01*
X47303000Y-123350000D02*
X45525000Y-123350000D01*
X45525000Y-123350000D02*
X45525000Y-121572000D01*
X45525000Y-112428000D02*
X45525000Y-110650000D01*
X76400000Y-110650000D02*
X78178000Y-110650000D01*
X87322000Y-110650000D02*
X89100000Y-110650000D01*
X89100000Y-110650000D02*
X89100000Y-112428000D01*
X89100000Y-121572000D02*
X89100000Y-123350000D01*
X89100000Y-123350000D02*
X87322000Y-123350000D01*
X78178000Y-123350000D02*
X76400000Y-123350000D01*
X76400000Y-123350000D02*
X76400000Y-121572000D01*
X76400000Y-112428000D02*
X76400000Y-110650000D01*
X95400000Y-110650000D02*
X97178000Y-110650000D01*
X106322000Y-110650000D02*
X108100000Y-110650000D01*
X108100000Y-110650000D02*
X108100000Y-112428000D01*
X108100000Y-121572000D02*
X108100000Y-123350000D01*
X108100000Y-123350000D02*
X106322000Y-123350000D01*
X97178000Y-123350000D02*
X95400000Y-123350000D01*
X95400000Y-123350000D02*
X95400000Y-121572000D01*
X95400000Y-112428000D02*
X95400000Y-110650000D01*
X114400000Y-110650000D02*
X116178000Y-110650000D01*
X125322000Y-110650000D02*
X127100000Y-110650000D01*
X127100000Y-110650000D02*
X127100000Y-112428000D01*
X127100000Y-121572000D02*
X127100000Y-123350000D01*
X127100000Y-123350000D02*
X125322000Y-123350000D01*
X116178000Y-123350000D02*
X114400000Y-123350000D01*
X114400000Y-123350000D02*
X114400000Y-121572000D01*
X114400000Y-112428000D02*
X114400000Y-110650000D01*
X133400000Y-110650000D02*
X135178000Y-110650000D01*
X144322000Y-110650000D02*
X146100000Y-110650000D01*
X146100000Y-110650000D02*
X146100000Y-112428000D01*
X146100000Y-121572000D02*
X146100000Y-123350000D01*
X146100000Y-123350000D02*
X144322000Y-123350000D01*
X135178000Y-123350000D02*
X133400000Y-123350000D01*
X133400000Y-123350000D02*
X133400000Y-121572000D01*
X133400000Y-112428000D02*
X133400000Y-110650000D01*
X152400000Y-110650000D02*
X154178000Y-110650000D01*
X163322000Y-110650000D02*
X165100000Y-110650000D01*
X165100000Y-110650000D02*
X165100000Y-112428000D01*
X165100000Y-121572000D02*
X165100000Y-123350000D01*
X165100000Y-123350000D02*
X163322000Y-123350000D01*
X154178000Y-123350000D02*
X152400000Y-123350000D01*
X152400000Y-123350000D02*
X152400000Y-121572000D01*
X152400000Y-112428000D02*
X152400000Y-110650000D01*
X57400000Y-129650000D02*
X59178000Y-129650000D01*
X68322000Y-129650000D02*
X70100000Y-129650000D01*
X70100000Y-129650000D02*
X70100000Y-131428000D01*
X70100000Y-140572000D02*
X70100000Y-142350000D01*
X70100000Y-142350000D02*
X68322000Y-142350000D01*
X59178000Y-142350000D02*
X57400000Y-142350000D01*
X57400000Y-142350000D02*
X57400000Y-140572000D01*
X57400000Y-131428000D02*
X57400000Y-129650000D01*
X76400000Y-129650000D02*
X78178000Y-129650000D01*
X87322000Y-129650000D02*
X89100000Y-129650000D01*
X89100000Y-129650000D02*
X89100000Y-131428000D01*
X89100000Y-140572000D02*
X89100000Y-142350000D01*
X89100000Y-142350000D02*
X87322000Y-142350000D01*
X78178000Y-142350000D02*
X76400000Y-142350000D01*
X76400000Y-142350000D02*
X76400000Y-140572000D01*
X76400000Y-131428000D02*
X76400000Y-129650000D01*
D13*
X163280000Y-40730000D02*
X163280000Y-39460000D01*
X163280000Y-43270000D02*
G75*
G02X163280000Y-40730000I0J1270000D01*
G01*
X127720000Y-39460000D02*
X127720000Y-44540000D01*
X163280000Y-44540000D02*
X163280000Y-43270000D01*
X163280000Y-44540000D02*
X127720000Y-44540000D01*
X163153000Y-39460000D02*
X127720000Y-39460000D01*
D14*
X112310000Y-34190000D02*
X112310000Y-38310000D01*
X109690000Y-34190000D02*
X109690000Y-38310000D01*
X112310000Y-34190000D02*
X111750000Y-34190000D01*
X110250000Y-34190000D02*
X109690000Y-34190000D01*
X112310000Y-38310000D02*
X111750000Y-38310000D01*
X110250000Y-38310000D02*
X109690000Y-38310000D01*
X51078608Y-34942335D02*
G75*
G03X51235516Y-31710000I-1078608J1672335D01*
G01*
X48921392Y-34942335D02*
G75*
G02X48764484Y-31710000I1078608J1672335D01*
G01*
X51079837Y-34311130D02*
G75*
G03X51080000Y-32229039I-1079837J1041130D01*
G01*
X48920163Y-34311130D02*
G75*
G02X48920000Y-32229039I1079837J1041130D01*
G01*
X51236000Y-31710000D02*
X51080000Y-31710000D01*
X48920000Y-31710000D02*
X48764000Y-31710000D01*
X59578608Y-34942335D02*
G75*
G03X59735516Y-31710000I-1078608J1672335D01*
G01*
X57421392Y-34942335D02*
G75*
G02X57264484Y-31710000I1078608J1672335D01*
G01*
X59579837Y-34311130D02*
G75*
G03X59580000Y-32229039I-1079837J1041130D01*
G01*
X57420163Y-34311130D02*
G75*
G02X57420000Y-32229039I1079837J1041130D01*
G01*
X59736000Y-31710000D02*
X59580000Y-31710000D01*
X57420000Y-31710000D02*
X57264000Y-31710000D01*
X68078608Y-34942335D02*
G75*
G03X68235516Y-31710000I-1078608J1672335D01*
G01*
X65921392Y-34942335D02*
G75*
G02X65764484Y-31710000I1078608J1672335D01*
G01*
X68079837Y-34311130D02*
G75*
G03X68080000Y-32229039I-1079837J1041130D01*
G01*
X65920163Y-34311130D02*
G75*
G02X65920000Y-32229039I1079837J1041130D01*
G01*
X68236000Y-31710000D02*
X68080000Y-31710000D01*
X65920000Y-31710000D02*
X65764000Y-31710000D01*
D11*
X36500000Y-39500000D02*
X38750000Y-39500000D01*
X38750000Y-38500000D02*
X40000000Y-38500000D01*
X36500000Y-38500000D02*
X35000000Y-38500000D01*
X38853553Y-38500000D02*
G75*
G03X38853553Y-38500000I-353553J0D01*
G01*
X37103553Y-38500000D02*
G75*
G03X37103553Y-38500000I-353553J0D01*
G01*
X40000000Y-40500000D02*
X40000000Y-36500000D01*
X35000000Y-40500000D02*
X35000000Y-36500000D01*
X36500000Y-35500000D02*
X38500000Y-35500000D01*
X36500000Y-41500000D02*
X38500000Y-41500000D01*
D12*
X36025000Y-129650000D02*
X37803000Y-129650000D01*
X46947000Y-129650000D02*
X48725000Y-129650000D01*
X48725000Y-129650000D02*
X48725000Y-131428000D01*
X48725000Y-140572000D02*
X48725000Y-142350000D01*
X48725000Y-142350000D02*
X46947000Y-142350000D01*
X37803000Y-142350000D02*
X36025000Y-142350000D01*
X36025000Y-142350000D02*
X36025000Y-140572000D01*
X36025000Y-131428000D02*
X36025000Y-129650000D01*
X95400000Y-129650000D02*
X97178000Y-129650000D01*
X106322000Y-129650000D02*
X108100000Y-129650000D01*
X108100000Y-129650000D02*
X108100000Y-131428000D01*
X108100000Y-140572000D02*
X108100000Y-142350000D01*
X108100000Y-142350000D02*
X106322000Y-142350000D01*
X97178000Y-142350000D02*
X95400000Y-142350000D01*
X95400000Y-142350000D02*
X95400000Y-140572000D01*
X95400000Y-131428000D02*
X95400000Y-129650000D01*
X119150000Y-129650000D02*
X120928000Y-129650000D01*
X130072000Y-129650000D02*
X131850000Y-129650000D01*
X131850000Y-129650000D02*
X131850000Y-131428000D01*
X131850000Y-140572000D02*
X131850000Y-142350000D01*
X131850000Y-142350000D02*
X130072000Y-142350000D01*
X120928000Y-142350000D02*
X119150000Y-142350000D01*
X119150000Y-142350000D02*
X119150000Y-140572000D01*
X119150000Y-131428000D02*
X119150000Y-129650000D01*
X147650000Y-129650000D02*
X149428000Y-129650000D01*
X158572000Y-129650000D02*
X160350000Y-129650000D01*
X160350000Y-129650000D02*
X160350000Y-131428000D01*
X160350000Y-140572000D02*
X160350000Y-142350000D01*
X160350000Y-142350000D02*
X158572000Y-142350000D01*
X149428000Y-142350000D02*
X147650000Y-142350000D01*
X147650000Y-142350000D02*
X147650000Y-140572000D01*
X147650000Y-131428000D02*
X147650000Y-129650000D01*
D11*
X36785714Y-48952381D02*
X36785714Y-47952381D01*
X37023809Y-47952381D01*
X37166667Y-48000000D01*
X37261905Y-48095238D01*
X37309524Y-48190476D01*
X37357143Y-48380952D01*
X37357143Y-48523810D01*
X37309524Y-48714286D01*
X37261905Y-48809524D01*
X37166667Y-48904762D01*
X37023809Y-48952381D01*
X36785714Y-48952381D01*
X38309524Y-48952381D02*
X37738095Y-48952381D01*
X38023809Y-48952381D02*
X38023809Y-47952381D01*
X37928571Y-48095238D01*
X37833333Y-48190476D01*
X37738095Y-48238095D01*
X39261905Y-48952381D02*
X38690476Y-48952381D01*
X38976190Y-48952381D02*
X38976190Y-47952381D01*
X38880952Y-48095238D01*
X38785714Y-48190476D01*
X38690476Y-48238095D01*
X49852381Y-63614286D02*
X48852381Y-63614286D01*
X48852381Y-63376191D01*
X48900000Y-63233333D01*
X48995238Y-63138095D01*
X49090476Y-63090476D01*
X49280952Y-63042857D01*
X49423810Y-63042857D01*
X49614286Y-63090476D01*
X49709524Y-63138095D01*
X49804762Y-63233333D01*
X49852381Y-63376191D01*
X49852381Y-63614286D01*
X49852381Y-62090476D02*
X49852381Y-62661905D01*
X49852381Y-62376191D02*
X48852381Y-62376191D01*
X48995238Y-62471429D01*
X49090476Y-62566667D01*
X49138095Y-62661905D01*
X48947619Y-61709524D02*
X48900000Y-61661905D01*
X48852381Y-61566667D01*
X48852381Y-61328571D01*
X48900000Y-61233333D01*
X48947619Y-61185714D01*
X49042857Y-61138095D01*
X49138095Y-61138095D01*
X49280952Y-61185714D01*
X49852381Y-61757143D01*
X49852381Y-61138095D01*
X68952381Y-63814286D02*
X67952381Y-63814286D01*
X67952381Y-63576191D01*
X68000000Y-63433333D01*
X68095238Y-63338095D01*
X68190476Y-63290476D01*
X68380952Y-63242857D01*
X68523810Y-63242857D01*
X68714286Y-63290476D01*
X68809524Y-63338095D01*
X68904762Y-63433333D01*
X68952381Y-63576191D01*
X68952381Y-63814286D01*
X68952381Y-62290476D02*
X68952381Y-62861905D01*
X68952381Y-62576191D02*
X67952381Y-62576191D01*
X68095238Y-62671429D01*
X68190476Y-62766667D01*
X68238095Y-62861905D01*
X67952381Y-61957143D02*
X67952381Y-61338095D01*
X68333333Y-61671429D01*
X68333333Y-61528571D01*
X68380952Y-61433333D01*
X68428571Y-61385714D01*
X68523810Y-61338095D01*
X68761905Y-61338095D01*
X68857143Y-61385714D01*
X68904762Y-61433333D01*
X68952381Y-61528571D01*
X68952381Y-61814286D01*
X68904762Y-61909524D01*
X68857143Y-61957143D01*
X87752381Y-63714286D02*
X86752381Y-63714286D01*
X86752381Y-63476191D01*
X86800000Y-63333333D01*
X86895238Y-63238095D01*
X86990476Y-63190476D01*
X87180952Y-63142857D01*
X87323810Y-63142857D01*
X87514286Y-63190476D01*
X87609524Y-63238095D01*
X87704762Y-63333333D01*
X87752381Y-63476191D01*
X87752381Y-63714286D01*
X87752381Y-62190476D02*
X87752381Y-62761905D01*
X87752381Y-62476191D02*
X86752381Y-62476191D01*
X86895238Y-62571429D01*
X86990476Y-62666667D01*
X87038095Y-62761905D01*
X87085714Y-61333333D02*
X87752381Y-61333333D01*
X86704762Y-61571429D02*
X87419048Y-61809524D01*
X87419048Y-61190476D01*
X107352381Y-63514286D02*
X106352381Y-63514286D01*
X106352381Y-63276191D01*
X106400000Y-63133333D01*
X106495238Y-63038095D01*
X106590476Y-62990476D01*
X106780952Y-62942857D01*
X106923810Y-62942857D01*
X107114286Y-62990476D01*
X107209524Y-63038095D01*
X107304762Y-63133333D01*
X107352381Y-63276191D01*
X107352381Y-63514286D01*
X107352381Y-61990476D02*
X107352381Y-62561905D01*
X107352381Y-62276191D02*
X106352381Y-62276191D01*
X106495238Y-62371429D01*
X106590476Y-62466667D01*
X106638095Y-62561905D01*
X106352381Y-61085714D02*
X106352381Y-61561905D01*
X106828571Y-61609524D01*
X106780952Y-61561905D01*
X106733333Y-61466667D01*
X106733333Y-61228571D01*
X106780952Y-61133333D01*
X106828571Y-61085714D01*
X106923810Y-61038095D01*
X107161905Y-61038095D01*
X107257143Y-61085714D01*
X107304762Y-61133333D01*
X107352381Y-61228571D01*
X107352381Y-61466667D01*
X107304762Y-61561905D01*
X107257143Y-61609524D01*
X126352381Y-63814286D02*
X125352381Y-63814286D01*
X125352381Y-63576191D01*
X125400000Y-63433333D01*
X125495238Y-63338095D01*
X125590476Y-63290476D01*
X125780952Y-63242857D01*
X125923810Y-63242857D01*
X126114286Y-63290476D01*
X126209524Y-63338095D01*
X126304762Y-63433333D01*
X126352381Y-63576191D01*
X126352381Y-63814286D01*
X126352381Y-62290476D02*
X126352381Y-62861905D01*
X126352381Y-62576191D02*
X125352381Y-62576191D01*
X125495238Y-62671429D01*
X125590476Y-62766667D01*
X125638095Y-62861905D01*
X125352381Y-61433333D02*
X125352381Y-61623810D01*
X125400000Y-61719048D01*
X125447619Y-61766667D01*
X125590476Y-61861905D01*
X125780952Y-61909524D01*
X126161905Y-61909524D01*
X126257143Y-61861905D01*
X126304762Y-61814286D01*
X126352381Y-61719048D01*
X126352381Y-61528571D01*
X126304762Y-61433333D01*
X126257143Y-61385714D01*
X126161905Y-61338095D01*
X125923810Y-61338095D01*
X125828571Y-61385714D01*
X125780952Y-61433333D01*
X125733333Y-61528571D01*
X125733333Y-61719048D01*
X125780952Y-61814286D01*
X125828571Y-61861905D01*
X125923810Y-61909524D01*
X145552381Y-63314286D02*
X144552381Y-63314286D01*
X144552381Y-63076191D01*
X144600000Y-62933333D01*
X144695238Y-62838095D01*
X144790476Y-62790476D01*
X144980952Y-62742857D01*
X145123810Y-62742857D01*
X145314286Y-62790476D01*
X145409524Y-62838095D01*
X145504762Y-62933333D01*
X145552381Y-63076191D01*
X145552381Y-63314286D01*
X145552381Y-61790476D02*
X145552381Y-62361905D01*
X145552381Y-62076191D02*
X144552381Y-62076191D01*
X144695238Y-62171429D01*
X144790476Y-62266667D01*
X144838095Y-62361905D01*
X144552381Y-61457143D02*
X144552381Y-60790476D01*
X145552381Y-61219048D01*
X34352381Y-82714286D02*
X33352381Y-82714286D01*
X33352381Y-82476191D01*
X33400000Y-82333333D01*
X33495238Y-82238095D01*
X33590476Y-82190476D01*
X33780952Y-82142857D01*
X33923810Y-82142857D01*
X34114286Y-82190476D01*
X34209524Y-82238095D01*
X34304762Y-82333333D01*
X34352381Y-82476191D01*
X34352381Y-82714286D01*
X33447619Y-81761905D02*
X33400000Y-81714286D01*
X33352381Y-81619048D01*
X33352381Y-81380952D01*
X33400000Y-81285714D01*
X33447619Y-81238095D01*
X33542857Y-81190476D01*
X33638095Y-81190476D01*
X33780952Y-81238095D01*
X34352381Y-81809524D01*
X34352381Y-81190476D01*
X34352381Y-80238095D02*
X34352381Y-80809524D01*
X34352381Y-80523810D02*
X33352381Y-80523810D01*
X33495238Y-80619048D01*
X33590476Y-80714286D01*
X33638095Y-80809524D01*
X59652381Y-82614286D02*
X58652381Y-82614286D01*
X58652381Y-82376191D01*
X58700000Y-82233333D01*
X58795238Y-82138095D01*
X58890476Y-82090476D01*
X59080952Y-82042857D01*
X59223810Y-82042857D01*
X59414286Y-82090476D01*
X59509524Y-82138095D01*
X59604762Y-82233333D01*
X59652381Y-82376191D01*
X59652381Y-82614286D01*
X58747619Y-81661905D02*
X58700000Y-81614286D01*
X58652381Y-81519048D01*
X58652381Y-81280952D01*
X58700000Y-81185714D01*
X58747619Y-81138095D01*
X58842857Y-81090476D01*
X58938095Y-81090476D01*
X59080952Y-81138095D01*
X59652381Y-81709524D01*
X59652381Y-81090476D01*
X58747619Y-80709524D02*
X58700000Y-80661905D01*
X58652381Y-80566667D01*
X58652381Y-80328571D01*
X58700000Y-80233333D01*
X58747619Y-80185714D01*
X58842857Y-80138095D01*
X58938095Y-80138095D01*
X59080952Y-80185714D01*
X59652381Y-80757143D01*
X59652381Y-80138095D01*
X78552381Y-82514286D02*
X77552381Y-82514286D01*
X77552381Y-82276191D01*
X77600000Y-82133333D01*
X77695238Y-82038095D01*
X77790476Y-81990476D01*
X77980952Y-81942857D01*
X78123810Y-81942857D01*
X78314286Y-81990476D01*
X78409524Y-82038095D01*
X78504762Y-82133333D01*
X78552381Y-82276191D01*
X78552381Y-82514286D01*
X77647619Y-81561905D02*
X77600000Y-81514286D01*
X77552381Y-81419048D01*
X77552381Y-81180952D01*
X77600000Y-81085714D01*
X77647619Y-81038095D01*
X77742857Y-80990476D01*
X77838095Y-80990476D01*
X77980952Y-81038095D01*
X78552381Y-81609524D01*
X78552381Y-80990476D01*
X77552381Y-80657143D02*
X77552381Y-80038095D01*
X77933333Y-80371429D01*
X77933333Y-80228571D01*
X77980952Y-80133333D01*
X78028571Y-80085714D01*
X78123810Y-80038095D01*
X78361905Y-80038095D01*
X78457143Y-80085714D01*
X78504762Y-80133333D01*
X78552381Y-80228571D01*
X78552381Y-80514286D01*
X78504762Y-80609524D01*
X78457143Y-80657143D01*
X97452381Y-82414286D02*
X96452381Y-82414286D01*
X96452381Y-82176191D01*
X96500000Y-82033333D01*
X96595238Y-81938095D01*
X96690476Y-81890476D01*
X96880952Y-81842857D01*
X97023810Y-81842857D01*
X97214286Y-81890476D01*
X97309524Y-81938095D01*
X97404762Y-82033333D01*
X97452381Y-82176191D01*
X97452381Y-82414286D01*
X96547619Y-81461905D02*
X96500000Y-81414286D01*
X96452381Y-81319048D01*
X96452381Y-81080952D01*
X96500000Y-80985714D01*
X96547619Y-80938095D01*
X96642857Y-80890476D01*
X96738095Y-80890476D01*
X96880952Y-80938095D01*
X97452381Y-81509524D01*
X97452381Y-80890476D01*
X96785714Y-80033333D02*
X97452381Y-80033333D01*
X96404762Y-80271429D02*
X97119048Y-80509524D01*
X97119048Y-79890476D01*
X116652381Y-82514286D02*
X115652381Y-82514286D01*
X115652381Y-82276191D01*
X115700000Y-82133333D01*
X115795238Y-82038095D01*
X115890476Y-81990476D01*
X116080952Y-81942857D01*
X116223810Y-81942857D01*
X116414286Y-81990476D01*
X116509524Y-82038095D01*
X116604762Y-82133333D01*
X116652381Y-82276191D01*
X116652381Y-82514286D01*
X115747619Y-81561905D02*
X115700000Y-81514286D01*
X115652381Y-81419048D01*
X115652381Y-81180952D01*
X115700000Y-81085714D01*
X115747619Y-81038095D01*
X115842857Y-80990476D01*
X115938095Y-80990476D01*
X116080952Y-81038095D01*
X116652381Y-81609524D01*
X116652381Y-80990476D01*
X115652381Y-80085714D02*
X115652381Y-80561905D01*
X116128571Y-80609524D01*
X116080952Y-80561905D01*
X116033333Y-80466667D01*
X116033333Y-80228571D01*
X116080952Y-80133333D01*
X116128571Y-80085714D01*
X116223810Y-80038095D01*
X116461905Y-80038095D01*
X116557143Y-80085714D01*
X116604762Y-80133333D01*
X116652381Y-80228571D01*
X116652381Y-80466667D01*
X116604762Y-80561905D01*
X116557143Y-80609524D01*
X135452381Y-82414286D02*
X134452381Y-82414286D01*
X134452381Y-82176191D01*
X134500000Y-82033333D01*
X134595238Y-81938095D01*
X134690476Y-81890476D01*
X134880952Y-81842857D01*
X135023810Y-81842857D01*
X135214286Y-81890476D01*
X135309524Y-81938095D01*
X135404762Y-82033333D01*
X135452381Y-82176191D01*
X135452381Y-82414286D01*
X134547619Y-81461905D02*
X134500000Y-81414286D01*
X134452381Y-81319048D01*
X134452381Y-81080952D01*
X134500000Y-80985714D01*
X134547619Y-80938095D01*
X134642857Y-80890476D01*
X134738095Y-80890476D01*
X134880952Y-80938095D01*
X135452381Y-81509524D01*
X135452381Y-80890476D01*
X134452381Y-80033333D02*
X134452381Y-80223810D01*
X134500000Y-80319048D01*
X134547619Y-80366667D01*
X134690476Y-80461905D01*
X134880952Y-80509524D01*
X135261905Y-80509524D01*
X135357143Y-80461905D01*
X135404762Y-80414286D01*
X135452381Y-80319048D01*
X135452381Y-80128571D01*
X135404762Y-80033333D01*
X135357143Y-79985714D01*
X135261905Y-79938095D01*
X135023810Y-79938095D01*
X134928571Y-79985714D01*
X134880952Y-80033333D01*
X134833333Y-80128571D01*
X134833333Y-80319048D01*
X134880952Y-80414286D01*
X134928571Y-80461905D01*
X135023810Y-80509524D01*
X37452381Y-101014286D02*
X36452381Y-101014286D01*
X36452381Y-100776191D01*
X36500000Y-100633333D01*
X36595238Y-100538095D01*
X36690476Y-100490476D01*
X36880952Y-100442857D01*
X37023810Y-100442857D01*
X37214286Y-100490476D01*
X37309524Y-100538095D01*
X37404762Y-100633333D01*
X37452381Y-100776191D01*
X37452381Y-101014286D01*
X36452381Y-100109524D02*
X36452381Y-99490476D01*
X36833333Y-99823810D01*
X36833333Y-99680952D01*
X36880952Y-99585714D01*
X36928571Y-99538095D01*
X37023810Y-99490476D01*
X37261905Y-99490476D01*
X37357143Y-99538095D01*
X37404762Y-99585714D01*
X37452381Y-99680952D01*
X37452381Y-99966667D01*
X37404762Y-100061905D01*
X37357143Y-100109524D01*
X37452381Y-98538095D02*
X37452381Y-99109524D01*
X37452381Y-98823810D02*
X36452381Y-98823810D01*
X36595238Y-98919048D01*
X36690476Y-99014286D01*
X36738095Y-99109524D01*
X64452381Y-101514286D02*
X63452381Y-101514286D01*
X63452381Y-101276191D01*
X63500000Y-101133333D01*
X63595238Y-101038095D01*
X63690476Y-100990476D01*
X63880952Y-100942857D01*
X64023810Y-100942857D01*
X64214286Y-100990476D01*
X64309524Y-101038095D01*
X64404762Y-101133333D01*
X64452381Y-101276191D01*
X64452381Y-101514286D01*
X63452381Y-100609524D02*
X63452381Y-99990476D01*
X63833333Y-100323810D01*
X63833333Y-100180952D01*
X63880952Y-100085714D01*
X63928571Y-100038095D01*
X64023810Y-99990476D01*
X64261905Y-99990476D01*
X64357143Y-100038095D01*
X64404762Y-100085714D01*
X64452381Y-100180952D01*
X64452381Y-100466667D01*
X64404762Y-100561905D01*
X64357143Y-100609524D01*
X63547619Y-99609524D02*
X63500000Y-99561905D01*
X63452381Y-99466667D01*
X63452381Y-99228571D01*
X63500000Y-99133333D01*
X63547619Y-99085714D01*
X63642857Y-99038095D01*
X63738095Y-99038095D01*
X63880952Y-99085714D01*
X64452381Y-99657143D01*
X64452381Y-99038095D01*
X83252381Y-101514286D02*
X82252381Y-101514286D01*
X82252381Y-101276191D01*
X82300000Y-101133333D01*
X82395238Y-101038095D01*
X82490476Y-100990476D01*
X82680952Y-100942857D01*
X82823810Y-100942857D01*
X83014286Y-100990476D01*
X83109524Y-101038095D01*
X83204762Y-101133333D01*
X83252381Y-101276191D01*
X83252381Y-101514286D01*
X82252381Y-100609524D02*
X82252381Y-99990476D01*
X82633333Y-100323810D01*
X82633333Y-100180952D01*
X82680952Y-100085714D01*
X82728571Y-100038095D01*
X82823810Y-99990476D01*
X83061905Y-99990476D01*
X83157143Y-100038095D01*
X83204762Y-100085714D01*
X83252381Y-100180952D01*
X83252381Y-100466667D01*
X83204762Y-100561905D01*
X83157143Y-100609524D01*
X82252381Y-99657143D02*
X82252381Y-99038095D01*
X82633333Y-99371429D01*
X82633333Y-99228571D01*
X82680952Y-99133333D01*
X82728571Y-99085714D01*
X82823810Y-99038095D01*
X83061905Y-99038095D01*
X83157143Y-99085714D01*
X83204762Y-99133333D01*
X83252381Y-99228571D01*
X83252381Y-99514286D01*
X83204762Y-99609524D01*
X83157143Y-99657143D01*
X102552381Y-101514286D02*
X101552381Y-101514286D01*
X101552381Y-101276191D01*
X101600000Y-101133333D01*
X101695238Y-101038095D01*
X101790476Y-100990476D01*
X101980952Y-100942857D01*
X102123810Y-100942857D01*
X102314286Y-100990476D01*
X102409524Y-101038095D01*
X102504762Y-101133333D01*
X102552381Y-101276191D01*
X102552381Y-101514286D01*
X101552381Y-100609524D02*
X101552381Y-99990476D01*
X101933333Y-100323810D01*
X101933333Y-100180952D01*
X101980952Y-100085714D01*
X102028571Y-100038095D01*
X102123810Y-99990476D01*
X102361905Y-99990476D01*
X102457143Y-100038095D01*
X102504762Y-100085714D01*
X102552381Y-100180952D01*
X102552381Y-100466667D01*
X102504762Y-100561905D01*
X102457143Y-100609524D01*
X101885714Y-99133333D02*
X102552381Y-99133333D01*
X101504762Y-99371429D02*
X102219048Y-99609524D01*
X102219048Y-98990476D01*
X121452381Y-101514286D02*
X120452381Y-101514286D01*
X120452381Y-101276191D01*
X120500000Y-101133333D01*
X120595238Y-101038095D01*
X120690476Y-100990476D01*
X120880952Y-100942857D01*
X121023810Y-100942857D01*
X121214286Y-100990476D01*
X121309524Y-101038095D01*
X121404762Y-101133333D01*
X121452381Y-101276191D01*
X121452381Y-101514286D01*
X120452381Y-100609524D02*
X120452381Y-99990476D01*
X120833333Y-100323810D01*
X120833333Y-100180952D01*
X120880952Y-100085714D01*
X120928571Y-100038095D01*
X121023810Y-99990476D01*
X121261905Y-99990476D01*
X121357143Y-100038095D01*
X121404762Y-100085714D01*
X121452381Y-100180952D01*
X121452381Y-100466667D01*
X121404762Y-100561905D01*
X121357143Y-100609524D01*
X120452381Y-99085714D02*
X120452381Y-99561905D01*
X120928571Y-99609524D01*
X120880952Y-99561905D01*
X120833333Y-99466667D01*
X120833333Y-99228571D01*
X120880952Y-99133333D01*
X120928571Y-99085714D01*
X121023810Y-99038095D01*
X121261905Y-99038095D01*
X121357143Y-99085714D01*
X121404762Y-99133333D01*
X121452381Y-99228571D01*
X121452381Y-99466667D01*
X121404762Y-99561905D01*
X121357143Y-99609524D01*
X140252381Y-101614286D02*
X139252381Y-101614286D01*
X139252381Y-101376191D01*
X139300000Y-101233333D01*
X139395238Y-101138095D01*
X139490476Y-101090476D01*
X139680952Y-101042857D01*
X139823810Y-101042857D01*
X140014286Y-101090476D01*
X140109524Y-101138095D01*
X140204762Y-101233333D01*
X140252381Y-101376191D01*
X140252381Y-101614286D01*
X139252381Y-100709524D02*
X139252381Y-100090476D01*
X139633333Y-100423810D01*
X139633333Y-100280952D01*
X139680952Y-100185714D01*
X139728571Y-100138095D01*
X139823810Y-100090476D01*
X140061905Y-100090476D01*
X140157143Y-100138095D01*
X140204762Y-100185714D01*
X140252381Y-100280952D01*
X140252381Y-100566667D01*
X140204762Y-100661905D01*
X140157143Y-100709524D01*
X139252381Y-99233333D02*
X139252381Y-99423810D01*
X139300000Y-99519048D01*
X139347619Y-99566667D01*
X139490476Y-99661905D01*
X139680952Y-99709524D01*
X140061905Y-99709524D01*
X140157143Y-99661905D01*
X140204762Y-99614286D01*
X140252381Y-99519048D01*
X140252381Y-99328571D01*
X140204762Y-99233333D01*
X140157143Y-99185714D01*
X140061905Y-99138095D01*
X139823810Y-99138095D01*
X139728571Y-99185714D01*
X139680952Y-99233333D01*
X139633333Y-99328571D01*
X139633333Y-99519048D01*
X139680952Y-99614286D01*
X139728571Y-99661905D01*
X139823810Y-99709524D01*
X41452381Y-120314286D02*
X40452381Y-120314286D01*
X40452381Y-120076191D01*
X40500000Y-119933333D01*
X40595238Y-119838095D01*
X40690476Y-119790476D01*
X40880952Y-119742857D01*
X41023810Y-119742857D01*
X41214286Y-119790476D01*
X41309524Y-119838095D01*
X41404762Y-119933333D01*
X41452381Y-120076191D01*
X41452381Y-120314286D01*
X40785714Y-118885714D02*
X41452381Y-118885714D01*
X40404762Y-119123810D02*
X41119048Y-119361905D01*
X41119048Y-118742857D01*
X41452381Y-117838095D02*
X41452381Y-118409524D01*
X41452381Y-118123810D02*
X40452381Y-118123810D01*
X40595238Y-118219048D01*
X40690476Y-118314286D01*
X40738095Y-118409524D01*
X73852381Y-120514286D02*
X72852381Y-120514286D01*
X72852381Y-120276191D01*
X72900000Y-120133333D01*
X72995238Y-120038095D01*
X73090476Y-119990476D01*
X73280952Y-119942857D01*
X73423810Y-119942857D01*
X73614286Y-119990476D01*
X73709524Y-120038095D01*
X73804762Y-120133333D01*
X73852381Y-120276191D01*
X73852381Y-120514286D01*
X73185714Y-119085714D02*
X73852381Y-119085714D01*
X72804762Y-119323810D02*
X73519048Y-119561905D01*
X73519048Y-118942857D01*
X72947619Y-118609524D02*
X72900000Y-118561905D01*
X72852381Y-118466667D01*
X72852381Y-118228571D01*
X72900000Y-118133333D01*
X72947619Y-118085714D01*
X73042857Y-118038095D01*
X73138095Y-118038095D01*
X73280952Y-118085714D01*
X73852381Y-118657143D01*
X73852381Y-118038095D01*
X93152381Y-120314286D02*
X92152381Y-120314286D01*
X92152381Y-120076191D01*
X92200000Y-119933333D01*
X92295238Y-119838095D01*
X92390476Y-119790476D01*
X92580952Y-119742857D01*
X92723810Y-119742857D01*
X92914286Y-119790476D01*
X93009524Y-119838095D01*
X93104762Y-119933333D01*
X93152381Y-120076191D01*
X93152381Y-120314286D01*
X92485714Y-118885714D02*
X93152381Y-118885714D01*
X92104762Y-119123810D02*
X92819048Y-119361905D01*
X92819048Y-118742857D01*
X92152381Y-118457143D02*
X92152381Y-117838095D01*
X92533333Y-118171429D01*
X92533333Y-118028571D01*
X92580952Y-117933333D01*
X92628571Y-117885714D01*
X92723810Y-117838095D01*
X92961905Y-117838095D01*
X93057143Y-117885714D01*
X93104762Y-117933333D01*
X93152381Y-118028571D01*
X93152381Y-118314286D01*
X93104762Y-118409524D01*
X93057143Y-118457143D01*
X111852381Y-120914286D02*
X110852381Y-120914286D01*
X110852381Y-120676191D01*
X110900000Y-120533333D01*
X110995238Y-120438095D01*
X111090476Y-120390476D01*
X111280952Y-120342857D01*
X111423810Y-120342857D01*
X111614286Y-120390476D01*
X111709524Y-120438095D01*
X111804762Y-120533333D01*
X111852381Y-120676191D01*
X111852381Y-120914286D01*
X111185714Y-119485714D02*
X111852381Y-119485714D01*
X110804762Y-119723810D02*
X111519048Y-119961905D01*
X111519048Y-119342857D01*
X111185714Y-118533333D02*
X111852381Y-118533333D01*
X110804762Y-118771429D02*
X111519048Y-119009524D01*
X111519048Y-118390476D01*
X131152381Y-120514286D02*
X130152381Y-120514286D01*
X130152381Y-120276191D01*
X130200000Y-120133333D01*
X130295238Y-120038095D01*
X130390476Y-119990476D01*
X130580952Y-119942857D01*
X130723810Y-119942857D01*
X130914286Y-119990476D01*
X131009524Y-120038095D01*
X131104762Y-120133333D01*
X131152381Y-120276191D01*
X131152381Y-120514286D01*
X130485714Y-119085714D02*
X131152381Y-119085714D01*
X130104762Y-119323810D02*
X130819048Y-119561905D01*
X130819048Y-118942857D01*
X130152381Y-118085714D02*
X130152381Y-118561905D01*
X130628571Y-118609524D01*
X130580952Y-118561905D01*
X130533333Y-118466667D01*
X130533333Y-118228571D01*
X130580952Y-118133333D01*
X130628571Y-118085714D01*
X130723810Y-118038095D01*
X130961905Y-118038095D01*
X131057143Y-118085714D01*
X131104762Y-118133333D01*
X131152381Y-118228571D01*
X131152381Y-118466667D01*
X131104762Y-118561905D01*
X131057143Y-118609524D01*
X149552381Y-120714286D02*
X148552381Y-120714286D01*
X148552381Y-120476191D01*
X148600000Y-120333333D01*
X148695238Y-120238095D01*
X148790476Y-120190476D01*
X148980952Y-120142857D01*
X149123810Y-120142857D01*
X149314286Y-120190476D01*
X149409524Y-120238095D01*
X149504762Y-120333333D01*
X149552381Y-120476191D01*
X149552381Y-120714286D01*
X148885714Y-119285714D02*
X149552381Y-119285714D01*
X148504762Y-119523810D02*
X149219048Y-119761905D01*
X149219048Y-119142857D01*
X148552381Y-118333333D02*
X148552381Y-118523810D01*
X148600000Y-118619048D01*
X148647619Y-118666667D01*
X148790476Y-118761905D01*
X148980952Y-118809524D01*
X149361905Y-118809524D01*
X149457143Y-118761905D01*
X149504762Y-118714286D01*
X149552381Y-118619048D01*
X149552381Y-118428571D01*
X149504762Y-118333333D01*
X149457143Y-118285714D01*
X149361905Y-118238095D01*
X149123810Y-118238095D01*
X149028571Y-118285714D01*
X148980952Y-118333333D01*
X148933333Y-118428571D01*
X148933333Y-118619048D01*
X148980952Y-118714286D01*
X149028571Y-118761905D01*
X149123810Y-118809524D01*
X33552381Y-139514286D02*
X32552381Y-139514286D01*
X32552381Y-139276191D01*
X32600000Y-139133333D01*
X32695238Y-139038095D01*
X32790476Y-138990476D01*
X32980952Y-138942857D01*
X33123810Y-138942857D01*
X33314286Y-138990476D01*
X33409524Y-139038095D01*
X33504762Y-139133333D01*
X33552381Y-139276191D01*
X33552381Y-139514286D01*
X32552381Y-138038095D02*
X32552381Y-138514286D01*
X33028571Y-138561905D01*
X32980952Y-138514286D01*
X32933333Y-138419048D01*
X32933333Y-138180952D01*
X32980952Y-138085714D01*
X33028571Y-138038095D01*
X33123810Y-137990476D01*
X33361905Y-137990476D01*
X33457143Y-138038095D01*
X33504762Y-138085714D01*
X33552381Y-138180952D01*
X33552381Y-138419048D01*
X33504762Y-138514286D01*
X33457143Y-138561905D01*
X33552381Y-137038095D02*
X33552381Y-137609524D01*
X33552381Y-137323810D02*
X32552381Y-137323810D01*
X32695238Y-137419048D01*
X32790476Y-137514286D01*
X32838095Y-137609524D01*
X54952381Y-139114286D02*
X53952381Y-139114286D01*
X53952381Y-138876191D01*
X54000000Y-138733333D01*
X54095238Y-138638095D01*
X54190476Y-138590476D01*
X54380952Y-138542857D01*
X54523810Y-138542857D01*
X54714286Y-138590476D01*
X54809524Y-138638095D01*
X54904762Y-138733333D01*
X54952381Y-138876191D01*
X54952381Y-139114286D01*
X53952381Y-137638095D02*
X53952381Y-138114286D01*
X54428571Y-138161905D01*
X54380952Y-138114286D01*
X54333333Y-138019048D01*
X54333333Y-137780952D01*
X54380952Y-137685714D01*
X54428571Y-137638095D01*
X54523810Y-137590476D01*
X54761905Y-137590476D01*
X54857143Y-137638095D01*
X54904762Y-137685714D01*
X54952381Y-137780952D01*
X54952381Y-138019048D01*
X54904762Y-138114286D01*
X54857143Y-138161905D01*
X54047619Y-137209524D02*
X54000000Y-137161905D01*
X53952381Y-137066667D01*
X53952381Y-136828571D01*
X54000000Y-136733333D01*
X54047619Y-136685714D01*
X54142857Y-136638095D01*
X54238095Y-136638095D01*
X54380952Y-136685714D01*
X54952381Y-137257143D01*
X54952381Y-136638095D01*
X74052381Y-139514286D02*
X73052381Y-139514286D01*
X73052381Y-139276191D01*
X73100000Y-139133333D01*
X73195238Y-139038095D01*
X73290476Y-138990476D01*
X73480952Y-138942857D01*
X73623810Y-138942857D01*
X73814286Y-138990476D01*
X73909524Y-139038095D01*
X74004762Y-139133333D01*
X74052381Y-139276191D01*
X74052381Y-139514286D01*
X73052381Y-138038095D02*
X73052381Y-138514286D01*
X73528571Y-138561905D01*
X73480952Y-138514286D01*
X73433333Y-138419048D01*
X73433333Y-138180952D01*
X73480952Y-138085714D01*
X73528571Y-138038095D01*
X73623810Y-137990476D01*
X73861905Y-137990476D01*
X73957143Y-138038095D01*
X74004762Y-138085714D01*
X74052381Y-138180952D01*
X74052381Y-138419048D01*
X74004762Y-138514286D01*
X73957143Y-138561905D01*
X73052381Y-137657143D02*
X73052381Y-137038095D01*
X73433333Y-137371429D01*
X73433333Y-137228571D01*
X73480952Y-137133333D01*
X73528571Y-137085714D01*
X73623810Y-137038095D01*
X73861905Y-137038095D01*
X73957143Y-137085714D01*
X74004762Y-137133333D01*
X74052381Y-137228571D01*
X74052381Y-137514286D01*
X74004762Y-137609524D01*
X73957143Y-137657143D01*
X92952381Y-139114286D02*
X91952381Y-139114286D01*
X91952381Y-138876191D01*
X92000000Y-138733333D01*
X92095238Y-138638095D01*
X92190476Y-138590476D01*
X92380952Y-138542857D01*
X92523810Y-138542857D01*
X92714286Y-138590476D01*
X92809524Y-138638095D01*
X92904762Y-138733333D01*
X92952381Y-138876191D01*
X92952381Y-139114286D01*
X91952381Y-137638095D02*
X91952381Y-138114286D01*
X92428571Y-138161905D01*
X92380952Y-138114286D01*
X92333333Y-138019048D01*
X92333333Y-137780952D01*
X92380952Y-137685714D01*
X92428571Y-137638095D01*
X92523810Y-137590476D01*
X92761905Y-137590476D01*
X92857143Y-137638095D01*
X92904762Y-137685714D01*
X92952381Y-137780952D01*
X92952381Y-138019048D01*
X92904762Y-138114286D01*
X92857143Y-138161905D01*
X92285714Y-136733333D02*
X92952381Y-136733333D01*
X91904762Y-136971429D02*
X92619048Y-137209524D01*
X92619048Y-136590476D01*
X115852381Y-139514286D02*
X114852381Y-139514286D01*
X114852381Y-139276191D01*
X114900000Y-139133333D01*
X114995238Y-139038095D01*
X115090476Y-138990476D01*
X115280952Y-138942857D01*
X115423810Y-138942857D01*
X115614286Y-138990476D01*
X115709524Y-139038095D01*
X115804762Y-139133333D01*
X115852381Y-139276191D01*
X115852381Y-139514286D01*
X114852381Y-138038095D02*
X114852381Y-138514286D01*
X115328571Y-138561905D01*
X115280952Y-138514286D01*
X115233333Y-138419048D01*
X115233333Y-138180952D01*
X115280952Y-138085714D01*
X115328571Y-138038095D01*
X115423810Y-137990476D01*
X115661905Y-137990476D01*
X115757143Y-138038095D01*
X115804762Y-138085714D01*
X115852381Y-138180952D01*
X115852381Y-138419048D01*
X115804762Y-138514286D01*
X115757143Y-138561905D01*
X114852381Y-137085714D02*
X114852381Y-137561905D01*
X115328571Y-137609524D01*
X115280952Y-137561905D01*
X115233333Y-137466667D01*
X115233333Y-137228571D01*
X115280952Y-137133333D01*
X115328571Y-137085714D01*
X115423810Y-137038095D01*
X115661905Y-137038095D01*
X115757143Y-137085714D01*
X115804762Y-137133333D01*
X115852381Y-137228571D01*
X115852381Y-137466667D01*
X115804762Y-137561905D01*
X115757143Y-137609524D01*
X143752381Y-139114286D02*
X142752381Y-139114286D01*
X142752381Y-138876191D01*
X142800000Y-138733333D01*
X142895238Y-138638095D01*
X142990476Y-138590476D01*
X143180952Y-138542857D01*
X143323810Y-138542857D01*
X143514286Y-138590476D01*
X143609524Y-138638095D01*
X143704762Y-138733333D01*
X143752381Y-138876191D01*
X143752381Y-139114286D01*
X142752381Y-137638095D02*
X142752381Y-138114286D01*
X143228571Y-138161905D01*
X143180952Y-138114286D01*
X143133333Y-138019048D01*
X143133333Y-137780952D01*
X143180952Y-137685714D01*
X143228571Y-137638095D01*
X143323810Y-137590476D01*
X143561905Y-137590476D01*
X143657143Y-137638095D01*
X143704762Y-137685714D01*
X143752381Y-137780952D01*
X143752381Y-138019048D01*
X143704762Y-138114286D01*
X143657143Y-138161905D01*
X142752381Y-136733333D02*
X142752381Y-136923810D01*
X142800000Y-137019048D01*
X142847619Y-137066667D01*
X142990476Y-137161905D01*
X143180952Y-137209524D01*
X143561905Y-137209524D01*
X143657143Y-137161905D01*
X143704762Y-137114286D01*
X143752381Y-137019048D01*
X143752381Y-136828571D01*
X143704762Y-136733333D01*
X143657143Y-136685714D01*
X143561905Y-136638095D01*
X143323810Y-136638095D01*
X143228571Y-136685714D01*
X143180952Y-136733333D01*
X143133333Y-136828571D01*
X143133333Y-137019048D01*
X143180952Y-137114286D01*
X143228571Y-137161905D01*
X143323810Y-137209524D01*
X114642381Y-38333333D02*
X115356667Y-38333333D01*
X115499524Y-38380953D01*
X115594762Y-38476191D01*
X115642381Y-38619048D01*
X115642381Y-38714286D01*
X115642381Y-37333333D02*
X115642381Y-37904762D01*
X115642381Y-37619048D02*
X114642381Y-37619048D01*
X114785238Y-37714286D01*
X114880476Y-37809524D01*
X114928095Y-37904762D01*
X101452381Y-41666666D02*
X100976190Y-42000000D01*
X101452381Y-42238095D02*
X100452381Y-42238095D01*
X100452381Y-41857142D01*
X100500000Y-41761904D01*
X100547619Y-41714285D01*
X100642857Y-41666666D01*
X100785714Y-41666666D01*
X100880952Y-41714285D01*
X100928571Y-41761904D01*
X100976190Y-41857142D01*
X100976190Y-42238095D01*
X101452381Y-40714285D02*
X101452381Y-41285714D01*
X101452381Y-41000000D02*
X100452381Y-41000000D01*
X100595238Y-41095238D01*
X100690476Y-41190476D01*
X100738095Y-41285714D01*
X50352381Y-41966666D02*
X49876190Y-42300000D01*
X50352381Y-42538095D02*
X49352381Y-42538095D01*
X49352381Y-42157142D01*
X49400000Y-42061904D01*
X49447619Y-42014285D01*
X49542857Y-41966666D01*
X49685714Y-41966666D01*
X49780952Y-42014285D01*
X49828571Y-42061904D01*
X49876190Y-42157142D01*
X49876190Y-42538095D01*
X49447619Y-41585714D02*
X49400000Y-41538095D01*
X49352381Y-41442857D01*
X49352381Y-41204761D01*
X49400000Y-41109523D01*
X49447619Y-41061904D01*
X49542857Y-41014285D01*
X49638095Y-41014285D01*
X49780952Y-41061904D01*
X50352381Y-41633333D01*
X50352381Y-41014285D01*
X58752381Y-41866666D02*
X58276190Y-42200000D01*
X58752381Y-42438095D02*
X57752381Y-42438095D01*
X57752381Y-42057142D01*
X57800000Y-41961904D01*
X57847619Y-41914285D01*
X57942857Y-41866666D01*
X58085714Y-41866666D01*
X58180952Y-41914285D01*
X58228571Y-41961904D01*
X58276190Y-42057142D01*
X58276190Y-42438095D01*
X57752381Y-41533333D02*
X57752381Y-40914285D01*
X58133333Y-41247619D01*
X58133333Y-41104761D01*
X58180952Y-41009523D01*
X58228571Y-40961904D01*
X58323810Y-40914285D01*
X58561905Y-40914285D01*
X58657143Y-40961904D01*
X58704762Y-41009523D01*
X58752381Y-41104761D01*
X58752381Y-41390476D01*
X58704762Y-41485714D01*
X58657143Y-41533333D01*
X67452381Y-41866666D02*
X66976190Y-42200000D01*
X67452381Y-42438095D02*
X66452381Y-42438095D01*
X66452381Y-42057142D01*
X66500000Y-41961904D01*
X66547619Y-41914285D01*
X66642857Y-41866666D01*
X66785714Y-41866666D01*
X66880952Y-41914285D01*
X66928571Y-41961904D01*
X66976190Y-42057142D01*
X66976190Y-42438095D01*
X66785714Y-41009523D02*
X67452381Y-41009523D01*
X66404762Y-41247619D02*
X67119048Y-41485714D01*
X67119048Y-40866666D01*
D15*
X37242286Y-63689048D02*
X37460000Y-63749524D01*
X37822857Y-63749524D01*
X37968000Y-63689048D01*
X38040571Y-63628571D01*
X38113143Y-63507619D01*
X38113143Y-63386667D01*
X38040571Y-63265714D01*
X37968000Y-63205238D01*
X37822857Y-63144762D01*
X37532571Y-63084286D01*
X37387429Y-63023810D01*
X37314857Y-62963333D01*
X37242286Y-62842381D01*
X37242286Y-62721429D01*
X37314857Y-62600476D01*
X37387429Y-62540000D01*
X37532571Y-62479524D01*
X37895429Y-62479524D01*
X38113143Y-62540000D01*
X38621143Y-62479524D02*
X38984000Y-63749524D01*
X39274286Y-62842381D01*
X39564572Y-63749524D01*
X39927429Y-62479524D01*
X41306286Y-63749524D02*
X40435429Y-63749524D01*
X40870857Y-63749524D02*
X40870857Y-62479524D01*
X40725714Y-62660952D01*
X40580572Y-62781905D01*
X40435429Y-62842381D01*
X42757715Y-63749524D02*
X41886858Y-63749524D01*
X42322286Y-63749524D02*
X42322286Y-62479524D01*
X42177143Y-62660952D01*
X42032001Y-62781905D01*
X41886858Y-62842381D01*
X56242286Y-63689048D02*
X56460000Y-63749524D01*
X56822857Y-63749524D01*
X56968000Y-63689048D01*
X57040571Y-63628571D01*
X57113143Y-63507619D01*
X57113143Y-63386667D01*
X57040571Y-63265714D01*
X56968000Y-63205238D01*
X56822857Y-63144762D01*
X56532571Y-63084286D01*
X56387429Y-63023810D01*
X56314857Y-62963333D01*
X56242286Y-62842381D01*
X56242286Y-62721429D01*
X56314857Y-62600476D01*
X56387429Y-62540000D01*
X56532571Y-62479524D01*
X56895429Y-62479524D01*
X57113143Y-62540000D01*
X57621143Y-62479524D02*
X57984000Y-63749524D01*
X58274286Y-62842381D01*
X58564572Y-63749524D01*
X58927429Y-62479524D01*
X60306286Y-63749524D02*
X59435429Y-63749524D01*
X59870857Y-63749524D02*
X59870857Y-62479524D01*
X59725714Y-62660952D01*
X59580572Y-62781905D01*
X59435429Y-62842381D01*
X60886858Y-62600476D02*
X60959429Y-62540000D01*
X61104572Y-62479524D01*
X61467429Y-62479524D01*
X61612572Y-62540000D01*
X61685143Y-62600476D01*
X61757715Y-62721429D01*
X61757715Y-62842381D01*
X61685143Y-63023810D01*
X60814286Y-63749524D01*
X61757715Y-63749524D01*
X75242286Y-63689048D02*
X75460000Y-63749524D01*
X75822857Y-63749524D01*
X75968000Y-63689048D01*
X76040571Y-63628571D01*
X76113143Y-63507619D01*
X76113143Y-63386667D01*
X76040571Y-63265714D01*
X75968000Y-63205238D01*
X75822857Y-63144762D01*
X75532571Y-63084286D01*
X75387429Y-63023810D01*
X75314857Y-62963333D01*
X75242286Y-62842381D01*
X75242286Y-62721429D01*
X75314857Y-62600476D01*
X75387429Y-62540000D01*
X75532571Y-62479524D01*
X75895429Y-62479524D01*
X76113143Y-62540000D01*
X76621143Y-62479524D02*
X76984000Y-63749524D01*
X77274286Y-62842381D01*
X77564572Y-63749524D01*
X77927429Y-62479524D01*
X79306286Y-63749524D02*
X78435429Y-63749524D01*
X78870857Y-63749524D02*
X78870857Y-62479524D01*
X78725714Y-62660952D01*
X78580572Y-62781905D01*
X78435429Y-62842381D01*
X79814286Y-62479524D02*
X80757715Y-62479524D01*
X80249715Y-62963333D01*
X80467429Y-62963333D01*
X80612572Y-63023810D01*
X80685143Y-63084286D01*
X80757715Y-63205238D01*
X80757715Y-63507619D01*
X80685143Y-63628571D01*
X80612572Y-63689048D01*
X80467429Y-63749524D01*
X80032001Y-63749524D01*
X79886858Y-63689048D01*
X79814286Y-63628571D01*
X94242286Y-63689048D02*
X94460000Y-63749524D01*
X94822857Y-63749524D01*
X94968000Y-63689048D01*
X95040571Y-63628571D01*
X95113143Y-63507619D01*
X95113143Y-63386667D01*
X95040571Y-63265714D01*
X94968000Y-63205238D01*
X94822857Y-63144762D01*
X94532571Y-63084286D01*
X94387429Y-63023810D01*
X94314857Y-62963333D01*
X94242286Y-62842381D01*
X94242286Y-62721429D01*
X94314857Y-62600476D01*
X94387429Y-62540000D01*
X94532571Y-62479524D01*
X94895429Y-62479524D01*
X95113143Y-62540000D01*
X95621143Y-62479524D02*
X95984000Y-63749524D01*
X96274286Y-62842381D01*
X96564572Y-63749524D01*
X96927429Y-62479524D01*
X98306286Y-63749524D02*
X97435429Y-63749524D01*
X97870857Y-63749524D02*
X97870857Y-62479524D01*
X97725714Y-62660952D01*
X97580572Y-62781905D01*
X97435429Y-62842381D01*
X99612572Y-62902857D02*
X99612572Y-63749524D01*
X99249715Y-62419048D02*
X98886858Y-63326190D01*
X99830286Y-63326190D01*
X113242286Y-63689048D02*
X113460000Y-63749524D01*
X113822857Y-63749524D01*
X113968000Y-63689048D01*
X114040571Y-63628571D01*
X114113143Y-63507619D01*
X114113143Y-63386667D01*
X114040571Y-63265714D01*
X113968000Y-63205238D01*
X113822857Y-63144762D01*
X113532571Y-63084286D01*
X113387429Y-63023810D01*
X113314857Y-62963333D01*
X113242286Y-62842381D01*
X113242286Y-62721429D01*
X113314857Y-62600476D01*
X113387429Y-62540000D01*
X113532571Y-62479524D01*
X113895429Y-62479524D01*
X114113143Y-62540000D01*
X114621143Y-62479524D02*
X114984000Y-63749524D01*
X115274286Y-62842381D01*
X115564572Y-63749524D01*
X115927429Y-62479524D01*
X117306286Y-63749524D02*
X116435429Y-63749524D01*
X116870857Y-63749524D02*
X116870857Y-62479524D01*
X116725714Y-62660952D01*
X116580572Y-62781905D01*
X116435429Y-62842381D01*
X118685143Y-62479524D02*
X117959429Y-62479524D01*
X117886858Y-63084286D01*
X117959429Y-63023810D01*
X118104572Y-62963333D01*
X118467429Y-62963333D01*
X118612572Y-63023810D01*
X118685143Y-63084286D01*
X118757715Y-63205238D01*
X118757715Y-63507619D01*
X118685143Y-63628571D01*
X118612572Y-63689048D01*
X118467429Y-63749524D01*
X118104572Y-63749524D01*
X117959429Y-63689048D01*
X117886858Y-63628571D01*
X132242286Y-63689048D02*
X132460000Y-63749524D01*
X132822857Y-63749524D01*
X132968000Y-63689048D01*
X133040571Y-63628571D01*
X133113143Y-63507619D01*
X133113143Y-63386667D01*
X133040571Y-63265714D01*
X132968000Y-63205238D01*
X132822857Y-63144762D01*
X132532571Y-63084286D01*
X132387429Y-63023810D01*
X132314857Y-62963333D01*
X132242286Y-62842381D01*
X132242286Y-62721429D01*
X132314857Y-62600476D01*
X132387429Y-62540000D01*
X132532571Y-62479524D01*
X132895429Y-62479524D01*
X133113143Y-62540000D01*
X133621143Y-62479524D02*
X133984000Y-63749524D01*
X134274286Y-62842381D01*
X134564572Y-63749524D01*
X134927429Y-62479524D01*
X136306286Y-63749524D02*
X135435429Y-63749524D01*
X135870857Y-63749524D02*
X135870857Y-62479524D01*
X135725714Y-62660952D01*
X135580572Y-62781905D01*
X135435429Y-62842381D01*
X137612572Y-62479524D02*
X137322286Y-62479524D01*
X137177143Y-62540000D01*
X137104572Y-62600476D01*
X136959429Y-62781905D01*
X136886858Y-63023810D01*
X136886858Y-63507619D01*
X136959429Y-63628571D01*
X137032001Y-63689048D01*
X137177143Y-63749524D01*
X137467429Y-63749524D01*
X137612572Y-63689048D01*
X137685143Y-63628571D01*
X137757715Y-63507619D01*
X137757715Y-63205238D01*
X137685143Y-63084286D01*
X137612572Y-63023810D01*
X137467429Y-62963333D01*
X137177143Y-62963333D01*
X137032001Y-63023810D01*
X136959429Y-63084286D01*
X136886858Y-63205238D01*
X151242286Y-63689048D02*
X151460000Y-63749524D01*
X151822857Y-63749524D01*
X151968000Y-63689048D01*
X152040571Y-63628571D01*
X152113143Y-63507619D01*
X152113143Y-63386667D01*
X152040571Y-63265714D01*
X151968000Y-63205238D01*
X151822857Y-63144762D01*
X151532571Y-63084286D01*
X151387429Y-63023810D01*
X151314857Y-62963333D01*
X151242286Y-62842381D01*
X151242286Y-62721429D01*
X151314857Y-62600476D01*
X151387429Y-62540000D01*
X151532571Y-62479524D01*
X151895429Y-62479524D01*
X152113143Y-62540000D01*
X152621143Y-62479524D02*
X152984000Y-63749524D01*
X153274286Y-62842381D01*
X153564572Y-63749524D01*
X153927429Y-62479524D01*
X155306286Y-63749524D02*
X154435429Y-63749524D01*
X154870857Y-63749524D02*
X154870857Y-62479524D01*
X154725714Y-62660952D01*
X154580572Y-62781905D01*
X154435429Y-62842381D01*
X155814286Y-62479524D02*
X156830286Y-62479524D01*
X156177143Y-63749524D01*
X41992286Y-82689048D02*
X42210000Y-82749524D01*
X42572857Y-82749524D01*
X42718000Y-82689048D01*
X42790571Y-82628571D01*
X42863143Y-82507619D01*
X42863143Y-82386667D01*
X42790571Y-82265714D01*
X42718000Y-82205238D01*
X42572857Y-82144762D01*
X42282571Y-82084286D01*
X42137429Y-82023810D01*
X42064857Y-81963333D01*
X41992286Y-81842381D01*
X41992286Y-81721429D01*
X42064857Y-81600476D01*
X42137429Y-81540000D01*
X42282571Y-81479524D01*
X42645429Y-81479524D01*
X42863143Y-81540000D01*
X43371143Y-81479524D02*
X43734000Y-82749524D01*
X44024286Y-81842381D01*
X44314572Y-82749524D01*
X44677429Y-81479524D01*
X45185429Y-81600476D02*
X45258000Y-81540000D01*
X45403143Y-81479524D01*
X45766000Y-81479524D01*
X45911143Y-81540000D01*
X45983714Y-81600476D01*
X46056286Y-81721429D01*
X46056286Y-81842381D01*
X45983714Y-82023810D01*
X45112857Y-82749524D01*
X46056286Y-82749524D01*
X47507715Y-82749524D02*
X46636858Y-82749524D01*
X47072286Y-82749524D02*
X47072286Y-81479524D01*
X46927143Y-81660952D01*
X46782001Y-81781905D01*
X46636858Y-81842381D01*
X65742286Y-82689048D02*
X65960000Y-82749524D01*
X66322857Y-82749524D01*
X66468000Y-82689048D01*
X66540571Y-82628571D01*
X66613143Y-82507619D01*
X66613143Y-82386667D01*
X66540571Y-82265714D01*
X66468000Y-82205238D01*
X66322857Y-82144762D01*
X66032571Y-82084286D01*
X65887429Y-82023810D01*
X65814857Y-81963333D01*
X65742286Y-81842381D01*
X65742286Y-81721429D01*
X65814857Y-81600476D01*
X65887429Y-81540000D01*
X66032571Y-81479524D01*
X66395429Y-81479524D01*
X66613143Y-81540000D01*
X67121143Y-81479524D02*
X67484000Y-82749524D01*
X67774286Y-81842381D01*
X68064572Y-82749524D01*
X68427429Y-81479524D01*
X68935429Y-81600476D02*
X69008000Y-81540000D01*
X69153143Y-81479524D01*
X69516000Y-81479524D01*
X69661143Y-81540000D01*
X69733714Y-81600476D01*
X69806286Y-81721429D01*
X69806286Y-81842381D01*
X69733714Y-82023810D01*
X68862857Y-82749524D01*
X69806286Y-82749524D01*
X70386858Y-81600476D02*
X70459429Y-81540000D01*
X70604572Y-81479524D01*
X70967429Y-81479524D01*
X71112572Y-81540000D01*
X71185143Y-81600476D01*
X71257715Y-81721429D01*
X71257715Y-81842381D01*
X71185143Y-82023810D01*
X70314286Y-82749524D01*
X71257715Y-82749524D01*
X84742286Y-82689048D02*
X84960000Y-82749524D01*
X85322857Y-82749524D01*
X85468000Y-82689048D01*
X85540571Y-82628571D01*
X85613143Y-82507619D01*
X85613143Y-82386667D01*
X85540571Y-82265714D01*
X85468000Y-82205238D01*
X85322857Y-82144762D01*
X85032571Y-82084286D01*
X84887429Y-82023810D01*
X84814857Y-81963333D01*
X84742286Y-81842381D01*
X84742286Y-81721429D01*
X84814857Y-81600476D01*
X84887429Y-81540000D01*
X85032571Y-81479524D01*
X85395429Y-81479524D01*
X85613143Y-81540000D01*
X86121143Y-81479524D02*
X86484000Y-82749524D01*
X86774286Y-81842381D01*
X87064572Y-82749524D01*
X87427429Y-81479524D01*
X87935429Y-81600476D02*
X88008000Y-81540000D01*
X88153143Y-81479524D01*
X88516000Y-81479524D01*
X88661143Y-81540000D01*
X88733714Y-81600476D01*
X88806286Y-81721429D01*
X88806286Y-81842381D01*
X88733714Y-82023810D01*
X87862857Y-82749524D01*
X88806286Y-82749524D01*
X89314286Y-81479524D02*
X90257715Y-81479524D01*
X89749715Y-81963333D01*
X89967429Y-81963333D01*
X90112572Y-82023810D01*
X90185143Y-82084286D01*
X90257715Y-82205238D01*
X90257715Y-82507619D01*
X90185143Y-82628571D01*
X90112572Y-82689048D01*
X89967429Y-82749524D01*
X89532001Y-82749524D01*
X89386858Y-82689048D01*
X89314286Y-82628571D01*
X103742286Y-82689048D02*
X103960000Y-82749524D01*
X104322857Y-82749524D01*
X104468000Y-82689048D01*
X104540571Y-82628571D01*
X104613143Y-82507619D01*
X104613143Y-82386667D01*
X104540571Y-82265714D01*
X104468000Y-82205238D01*
X104322857Y-82144762D01*
X104032571Y-82084286D01*
X103887429Y-82023810D01*
X103814857Y-81963333D01*
X103742286Y-81842381D01*
X103742286Y-81721429D01*
X103814857Y-81600476D01*
X103887429Y-81540000D01*
X104032571Y-81479524D01*
X104395429Y-81479524D01*
X104613143Y-81540000D01*
X105121143Y-81479524D02*
X105484000Y-82749524D01*
X105774286Y-81842381D01*
X106064572Y-82749524D01*
X106427429Y-81479524D01*
X106935429Y-81600476D02*
X107008000Y-81540000D01*
X107153143Y-81479524D01*
X107516000Y-81479524D01*
X107661143Y-81540000D01*
X107733714Y-81600476D01*
X107806286Y-81721429D01*
X107806286Y-81842381D01*
X107733714Y-82023810D01*
X106862857Y-82749524D01*
X107806286Y-82749524D01*
X109112572Y-81902857D02*
X109112572Y-82749524D01*
X108749715Y-81419048D02*
X108386858Y-82326190D01*
X109330286Y-82326190D01*
X122742286Y-82689048D02*
X122960000Y-82749524D01*
X123322857Y-82749524D01*
X123468000Y-82689048D01*
X123540571Y-82628571D01*
X123613143Y-82507619D01*
X123613143Y-82386667D01*
X123540571Y-82265714D01*
X123468000Y-82205238D01*
X123322857Y-82144762D01*
X123032571Y-82084286D01*
X122887429Y-82023810D01*
X122814857Y-81963333D01*
X122742286Y-81842381D01*
X122742286Y-81721429D01*
X122814857Y-81600476D01*
X122887429Y-81540000D01*
X123032571Y-81479524D01*
X123395429Y-81479524D01*
X123613143Y-81540000D01*
X124121143Y-81479524D02*
X124484000Y-82749524D01*
X124774286Y-81842381D01*
X125064572Y-82749524D01*
X125427429Y-81479524D01*
X125935429Y-81600476D02*
X126008000Y-81540000D01*
X126153143Y-81479524D01*
X126516000Y-81479524D01*
X126661143Y-81540000D01*
X126733714Y-81600476D01*
X126806286Y-81721429D01*
X126806286Y-81842381D01*
X126733714Y-82023810D01*
X125862857Y-82749524D01*
X126806286Y-82749524D01*
X128185143Y-81479524D02*
X127459429Y-81479524D01*
X127386858Y-82084286D01*
X127459429Y-82023810D01*
X127604572Y-81963333D01*
X127967429Y-81963333D01*
X128112572Y-82023810D01*
X128185143Y-82084286D01*
X128257715Y-82205238D01*
X128257715Y-82507619D01*
X128185143Y-82628571D01*
X128112572Y-82689048D01*
X127967429Y-82749524D01*
X127604572Y-82749524D01*
X127459429Y-82689048D01*
X127386858Y-82628571D01*
X141742286Y-82689048D02*
X141960000Y-82749524D01*
X142322857Y-82749524D01*
X142468000Y-82689048D01*
X142540571Y-82628571D01*
X142613143Y-82507619D01*
X142613143Y-82386667D01*
X142540571Y-82265714D01*
X142468000Y-82205238D01*
X142322857Y-82144762D01*
X142032571Y-82084286D01*
X141887429Y-82023810D01*
X141814857Y-81963333D01*
X141742286Y-81842381D01*
X141742286Y-81721429D01*
X141814857Y-81600476D01*
X141887429Y-81540000D01*
X142032571Y-81479524D01*
X142395429Y-81479524D01*
X142613143Y-81540000D01*
X143121143Y-81479524D02*
X143484000Y-82749524D01*
X143774286Y-81842381D01*
X144064572Y-82749524D01*
X144427429Y-81479524D01*
X144935429Y-81600476D02*
X145008000Y-81540000D01*
X145153143Y-81479524D01*
X145516000Y-81479524D01*
X145661143Y-81540000D01*
X145733714Y-81600476D01*
X145806286Y-81721429D01*
X145806286Y-81842381D01*
X145733714Y-82023810D01*
X144862857Y-82749524D01*
X145806286Y-82749524D01*
X147112572Y-81479524D02*
X146822286Y-81479524D01*
X146677143Y-81540000D01*
X146604572Y-81600476D01*
X146459429Y-81781905D01*
X146386858Y-82023810D01*
X146386858Y-82507619D01*
X146459429Y-82628571D01*
X146532001Y-82689048D01*
X146677143Y-82749524D01*
X146967429Y-82749524D01*
X147112572Y-82689048D01*
X147185143Y-82628571D01*
X147257715Y-82507619D01*
X147257715Y-82205238D01*
X147185143Y-82084286D01*
X147112572Y-82023810D01*
X146967429Y-81963333D01*
X146677143Y-81963333D01*
X146532001Y-82023810D01*
X146459429Y-82084286D01*
X146386858Y-82205238D01*
X44367286Y-101689048D02*
X44585000Y-101749524D01*
X44947857Y-101749524D01*
X45093000Y-101689048D01*
X45165571Y-101628571D01*
X45238143Y-101507619D01*
X45238143Y-101386667D01*
X45165571Y-101265714D01*
X45093000Y-101205238D01*
X44947857Y-101144762D01*
X44657571Y-101084286D01*
X44512429Y-101023810D01*
X44439857Y-100963333D01*
X44367286Y-100842381D01*
X44367286Y-100721429D01*
X44439857Y-100600476D01*
X44512429Y-100540000D01*
X44657571Y-100479524D01*
X45020429Y-100479524D01*
X45238143Y-100540000D01*
X45746143Y-100479524D02*
X46109000Y-101749524D01*
X46399286Y-100842381D01*
X46689572Y-101749524D01*
X47052429Y-100479524D01*
X47487857Y-100479524D02*
X48431286Y-100479524D01*
X47923286Y-100963333D01*
X48141000Y-100963333D01*
X48286143Y-101023810D01*
X48358714Y-101084286D01*
X48431286Y-101205238D01*
X48431286Y-101507619D01*
X48358714Y-101628571D01*
X48286143Y-101689048D01*
X48141000Y-101749524D01*
X47705572Y-101749524D01*
X47560429Y-101689048D01*
X47487857Y-101628571D01*
X49882715Y-101749524D02*
X49011858Y-101749524D01*
X49447286Y-101749524D02*
X49447286Y-100479524D01*
X49302143Y-100660952D01*
X49157001Y-100781905D01*
X49011858Y-100842381D01*
X70492286Y-101689048D02*
X70710000Y-101749524D01*
X71072857Y-101749524D01*
X71218000Y-101689048D01*
X71290571Y-101628571D01*
X71363143Y-101507619D01*
X71363143Y-101386667D01*
X71290571Y-101265714D01*
X71218000Y-101205238D01*
X71072857Y-101144762D01*
X70782571Y-101084286D01*
X70637429Y-101023810D01*
X70564857Y-100963333D01*
X70492286Y-100842381D01*
X70492286Y-100721429D01*
X70564857Y-100600476D01*
X70637429Y-100540000D01*
X70782571Y-100479524D01*
X71145429Y-100479524D01*
X71363143Y-100540000D01*
X71871143Y-100479524D02*
X72234000Y-101749524D01*
X72524286Y-100842381D01*
X72814572Y-101749524D01*
X73177429Y-100479524D01*
X73612857Y-100479524D02*
X74556286Y-100479524D01*
X74048286Y-100963333D01*
X74266000Y-100963333D01*
X74411143Y-101023810D01*
X74483714Y-101084286D01*
X74556286Y-101205238D01*
X74556286Y-101507619D01*
X74483714Y-101628571D01*
X74411143Y-101689048D01*
X74266000Y-101749524D01*
X73830572Y-101749524D01*
X73685429Y-101689048D01*
X73612857Y-101628571D01*
X75136858Y-100600476D02*
X75209429Y-100540000D01*
X75354572Y-100479524D01*
X75717429Y-100479524D01*
X75862572Y-100540000D01*
X75935143Y-100600476D01*
X76007715Y-100721429D01*
X76007715Y-100842381D01*
X75935143Y-101023810D01*
X75064286Y-101749524D01*
X76007715Y-101749524D01*
X89492286Y-101689048D02*
X89710000Y-101749524D01*
X90072857Y-101749524D01*
X90218000Y-101689048D01*
X90290571Y-101628571D01*
X90363143Y-101507619D01*
X90363143Y-101386667D01*
X90290571Y-101265714D01*
X90218000Y-101205238D01*
X90072857Y-101144762D01*
X89782571Y-101084286D01*
X89637429Y-101023810D01*
X89564857Y-100963333D01*
X89492286Y-100842381D01*
X89492286Y-100721429D01*
X89564857Y-100600476D01*
X89637429Y-100540000D01*
X89782571Y-100479524D01*
X90145429Y-100479524D01*
X90363143Y-100540000D01*
X90871143Y-100479524D02*
X91234000Y-101749524D01*
X91524286Y-100842381D01*
X91814572Y-101749524D01*
X92177429Y-100479524D01*
X92612857Y-100479524D02*
X93556286Y-100479524D01*
X93048286Y-100963333D01*
X93266000Y-100963333D01*
X93411143Y-101023810D01*
X93483714Y-101084286D01*
X93556286Y-101205238D01*
X93556286Y-101507619D01*
X93483714Y-101628571D01*
X93411143Y-101689048D01*
X93266000Y-101749524D01*
X92830572Y-101749524D01*
X92685429Y-101689048D01*
X92612857Y-101628571D01*
X94064286Y-100479524D02*
X95007715Y-100479524D01*
X94499715Y-100963333D01*
X94717429Y-100963333D01*
X94862572Y-101023810D01*
X94935143Y-101084286D01*
X95007715Y-101205238D01*
X95007715Y-101507619D01*
X94935143Y-101628571D01*
X94862572Y-101689048D01*
X94717429Y-101749524D01*
X94282001Y-101749524D01*
X94136858Y-101689048D01*
X94064286Y-101628571D01*
X108492286Y-101689048D02*
X108710000Y-101749524D01*
X109072857Y-101749524D01*
X109218000Y-101689048D01*
X109290571Y-101628571D01*
X109363143Y-101507619D01*
X109363143Y-101386667D01*
X109290571Y-101265714D01*
X109218000Y-101205238D01*
X109072857Y-101144762D01*
X108782571Y-101084286D01*
X108637429Y-101023810D01*
X108564857Y-100963333D01*
X108492286Y-100842381D01*
X108492286Y-100721429D01*
X108564857Y-100600476D01*
X108637429Y-100540000D01*
X108782571Y-100479524D01*
X109145429Y-100479524D01*
X109363143Y-100540000D01*
X109871143Y-100479524D02*
X110234000Y-101749524D01*
X110524286Y-100842381D01*
X110814572Y-101749524D01*
X111177429Y-100479524D01*
X111612857Y-100479524D02*
X112556286Y-100479524D01*
X112048286Y-100963333D01*
X112266000Y-100963333D01*
X112411143Y-101023810D01*
X112483714Y-101084286D01*
X112556286Y-101205238D01*
X112556286Y-101507619D01*
X112483714Y-101628571D01*
X112411143Y-101689048D01*
X112266000Y-101749524D01*
X111830572Y-101749524D01*
X111685429Y-101689048D01*
X111612857Y-101628571D01*
X113862572Y-100902857D02*
X113862572Y-101749524D01*
X113499715Y-100419048D02*
X113136858Y-101326190D01*
X114080286Y-101326190D01*
X127492286Y-101689048D02*
X127710000Y-101749524D01*
X128072857Y-101749524D01*
X128218000Y-101689048D01*
X128290571Y-101628571D01*
X128363143Y-101507619D01*
X128363143Y-101386667D01*
X128290571Y-101265714D01*
X128218000Y-101205238D01*
X128072857Y-101144762D01*
X127782571Y-101084286D01*
X127637429Y-101023810D01*
X127564857Y-100963333D01*
X127492286Y-100842381D01*
X127492286Y-100721429D01*
X127564857Y-100600476D01*
X127637429Y-100540000D01*
X127782571Y-100479524D01*
X128145429Y-100479524D01*
X128363143Y-100540000D01*
X128871143Y-100479524D02*
X129234000Y-101749524D01*
X129524286Y-100842381D01*
X129814572Y-101749524D01*
X130177429Y-100479524D01*
X130612857Y-100479524D02*
X131556286Y-100479524D01*
X131048286Y-100963333D01*
X131266000Y-100963333D01*
X131411143Y-101023810D01*
X131483714Y-101084286D01*
X131556286Y-101205238D01*
X131556286Y-101507619D01*
X131483714Y-101628571D01*
X131411143Y-101689048D01*
X131266000Y-101749524D01*
X130830572Y-101749524D01*
X130685429Y-101689048D01*
X130612857Y-101628571D01*
X132935143Y-100479524D02*
X132209429Y-100479524D01*
X132136858Y-101084286D01*
X132209429Y-101023810D01*
X132354572Y-100963333D01*
X132717429Y-100963333D01*
X132862572Y-101023810D01*
X132935143Y-101084286D01*
X133007715Y-101205238D01*
X133007715Y-101507619D01*
X132935143Y-101628571D01*
X132862572Y-101689048D01*
X132717429Y-101749524D01*
X132354572Y-101749524D01*
X132209429Y-101689048D01*
X132136858Y-101628571D01*
X146492286Y-101689048D02*
X146710000Y-101749524D01*
X147072857Y-101749524D01*
X147218000Y-101689048D01*
X147290571Y-101628571D01*
X147363143Y-101507619D01*
X147363143Y-101386667D01*
X147290571Y-101265714D01*
X147218000Y-101205238D01*
X147072857Y-101144762D01*
X146782571Y-101084286D01*
X146637429Y-101023810D01*
X146564857Y-100963333D01*
X146492286Y-100842381D01*
X146492286Y-100721429D01*
X146564857Y-100600476D01*
X146637429Y-100540000D01*
X146782571Y-100479524D01*
X147145429Y-100479524D01*
X147363143Y-100540000D01*
X147871143Y-100479524D02*
X148234000Y-101749524D01*
X148524286Y-100842381D01*
X148814572Y-101749524D01*
X149177429Y-100479524D01*
X149612857Y-100479524D02*
X150556286Y-100479524D01*
X150048286Y-100963333D01*
X150266000Y-100963333D01*
X150411143Y-101023810D01*
X150483714Y-101084286D01*
X150556286Y-101205238D01*
X150556286Y-101507619D01*
X150483714Y-101628571D01*
X150411143Y-101689048D01*
X150266000Y-101749524D01*
X149830572Y-101749524D01*
X149685429Y-101689048D01*
X149612857Y-101628571D01*
X151862572Y-100479524D02*
X151572286Y-100479524D01*
X151427143Y-100540000D01*
X151354572Y-100600476D01*
X151209429Y-100781905D01*
X151136858Y-101023810D01*
X151136858Y-101507619D01*
X151209429Y-101628571D01*
X151282001Y-101689048D01*
X151427143Y-101749524D01*
X151717429Y-101749524D01*
X151862572Y-101689048D01*
X151935143Y-101628571D01*
X152007715Y-101507619D01*
X152007715Y-101205238D01*
X151935143Y-101084286D01*
X151862572Y-101023810D01*
X151717429Y-100963333D01*
X151427143Y-100963333D01*
X151282001Y-101023810D01*
X151209429Y-101084286D01*
X151136858Y-101205238D01*
X49117286Y-120689048D02*
X49335000Y-120749524D01*
X49697857Y-120749524D01*
X49843000Y-120689048D01*
X49915571Y-120628571D01*
X49988143Y-120507619D01*
X49988143Y-120386667D01*
X49915571Y-120265714D01*
X49843000Y-120205238D01*
X49697857Y-120144762D01*
X49407571Y-120084286D01*
X49262429Y-120023810D01*
X49189857Y-119963333D01*
X49117286Y-119842381D01*
X49117286Y-119721429D01*
X49189857Y-119600476D01*
X49262429Y-119540000D01*
X49407571Y-119479524D01*
X49770429Y-119479524D01*
X49988143Y-119540000D01*
X50496143Y-119479524D02*
X50859000Y-120749524D01*
X51149286Y-119842381D01*
X51439572Y-120749524D01*
X51802429Y-119479524D01*
X53036143Y-119902857D02*
X53036143Y-120749524D01*
X52673286Y-119419048D02*
X52310429Y-120326190D01*
X53253857Y-120326190D01*
X54632715Y-120749524D02*
X53761858Y-120749524D01*
X54197286Y-120749524D02*
X54197286Y-119479524D01*
X54052143Y-119660952D01*
X53907001Y-119781905D01*
X53761858Y-119842381D01*
X79992286Y-120689048D02*
X80210000Y-120749524D01*
X80572857Y-120749524D01*
X80718000Y-120689048D01*
X80790571Y-120628571D01*
X80863143Y-120507619D01*
X80863143Y-120386667D01*
X80790571Y-120265714D01*
X80718000Y-120205238D01*
X80572857Y-120144762D01*
X80282571Y-120084286D01*
X80137429Y-120023810D01*
X80064857Y-119963333D01*
X79992286Y-119842381D01*
X79992286Y-119721429D01*
X80064857Y-119600476D01*
X80137429Y-119540000D01*
X80282571Y-119479524D01*
X80645429Y-119479524D01*
X80863143Y-119540000D01*
X81371143Y-119479524D02*
X81734000Y-120749524D01*
X82024286Y-119842381D01*
X82314572Y-120749524D01*
X82677429Y-119479524D01*
X83911143Y-119902857D02*
X83911143Y-120749524D01*
X83548286Y-119419048D02*
X83185429Y-120326190D01*
X84128857Y-120326190D01*
X84636858Y-119600476D02*
X84709429Y-119540000D01*
X84854572Y-119479524D01*
X85217429Y-119479524D01*
X85362572Y-119540000D01*
X85435143Y-119600476D01*
X85507715Y-119721429D01*
X85507715Y-119842381D01*
X85435143Y-120023810D01*
X84564286Y-120749524D01*
X85507715Y-120749524D01*
X98992286Y-120689048D02*
X99210000Y-120749524D01*
X99572857Y-120749524D01*
X99718000Y-120689048D01*
X99790571Y-120628571D01*
X99863143Y-120507619D01*
X99863143Y-120386667D01*
X99790571Y-120265714D01*
X99718000Y-120205238D01*
X99572857Y-120144762D01*
X99282571Y-120084286D01*
X99137429Y-120023810D01*
X99064857Y-119963333D01*
X98992286Y-119842381D01*
X98992286Y-119721429D01*
X99064857Y-119600476D01*
X99137429Y-119540000D01*
X99282571Y-119479524D01*
X99645429Y-119479524D01*
X99863143Y-119540000D01*
X100371143Y-119479524D02*
X100734000Y-120749524D01*
X101024286Y-119842381D01*
X101314572Y-120749524D01*
X101677429Y-119479524D01*
X102911143Y-119902857D02*
X102911143Y-120749524D01*
X102548286Y-119419048D02*
X102185429Y-120326190D01*
X103128857Y-120326190D01*
X103564286Y-119479524D02*
X104507715Y-119479524D01*
X103999715Y-119963333D01*
X104217429Y-119963333D01*
X104362572Y-120023810D01*
X104435143Y-120084286D01*
X104507715Y-120205238D01*
X104507715Y-120507619D01*
X104435143Y-120628571D01*
X104362572Y-120689048D01*
X104217429Y-120749524D01*
X103782001Y-120749524D01*
X103636858Y-120689048D01*
X103564286Y-120628571D01*
X117992286Y-120689048D02*
X118210000Y-120749524D01*
X118572857Y-120749524D01*
X118718000Y-120689048D01*
X118790571Y-120628571D01*
X118863143Y-120507619D01*
X118863143Y-120386667D01*
X118790571Y-120265714D01*
X118718000Y-120205238D01*
X118572857Y-120144762D01*
X118282571Y-120084286D01*
X118137429Y-120023810D01*
X118064857Y-119963333D01*
X117992286Y-119842381D01*
X117992286Y-119721429D01*
X118064857Y-119600476D01*
X118137429Y-119540000D01*
X118282571Y-119479524D01*
X118645429Y-119479524D01*
X118863143Y-119540000D01*
X119371143Y-119479524D02*
X119734000Y-120749524D01*
X120024286Y-119842381D01*
X120314572Y-120749524D01*
X120677429Y-119479524D01*
X121911143Y-119902857D02*
X121911143Y-120749524D01*
X121548286Y-119419048D02*
X121185429Y-120326190D01*
X122128857Y-120326190D01*
X123362572Y-119902857D02*
X123362572Y-120749524D01*
X122999715Y-119419048D02*
X122636858Y-120326190D01*
X123580286Y-120326190D01*
X136992286Y-120689048D02*
X137210000Y-120749524D01*
X137572857Y-120749524D01*
X137718000Y-120689048D01*
X137790571Y-120628571D01*
X137863143Y-120507619D01*
X137863143Y-120386667D01*
X137790571Y-120265714D01*
X137718000Y-120205238D01*
X137572857Y-120144762D01*
X137282571Y-120084286D01*
X137137429Y-120023810D01*
X137064857Y-119963333D01*
X136992286Y-119842381D01*
X136992286Y-119721429D01*
X137064857Y-119600476D01*
X137137429Y-119540000D01*
X137282571Y-119479524D01*
X137645429Y-119479524D01*
X137863143Y-119540000D01*
X138371143Y-119479524D02*
X138734000Y-120749524D01*
X139024286Y-119842381D01*
X139314572Y-120749524D01*
X139677429Y-119479524D01*
X140911143Y-119902857D02*
X140911143Y-120749524D01*
X140548286Y-119419048D02*
X140185429Y-120326190D01*
X141128857Y-120326190D01*
X142435143Y-119479524D02*
X141709429Y-119479524D01*
X141636858Y-120084286D01*
X141709429Y-120023810D01*
X141854572Y-119963333D01*
X142217429Y-119963333D01*
X142362572Y-120023810D01*
X142435143Y-120084286D01*
X142507715Y-120205238D01*
X142507715Y-120507619D01*
X142435143Y-120628571D01*
X142362572Y-120689048D01*
X142217429Y-120749524D01*
X141854572Y-120749524D01*
X141709429Y-120689048D01*
X141636858Y-120628571D01*
X155992286Y-120689048D02*
X156210000Y-120749524D01*
X156572857Y-120749524D01*
X156718000Y-120689048D01*
X156790571Y-120628571D01*
X156863143Y-120507619D01*
X156863143Y-120386667D01*
X156790571Y-120265714D01*
X156718000Y-120205238D01*
X156572857Y-120144762D01*
X156282571Y-120084286D01*
X156137429Y-120023810D01*
X156064857Y-119963333D01*
X155992286Y-119842381D01*
X155992286Y-119721429D01*
X156064857Y-119600476D01*
X156137429Y-119540000D01*
X156282571Y-119479524D01*
X156645429Y-119479524D01*
X156863143Y-119540000D01*
X157371143Y-119479524D02*
X157734000Y-120749524D01*
X158024286Y-119842381D01*
X158314572Y-120749524D01*
X158677429Y-119479524D01*
X159911143Y-119902857D02*
X159911143Y-120749524D01*
X159548286Y-119419048D02*
X159185429Y-120326190D01*
X160128857Y-120326190D01*
X161362572Y-119479524D02*
X161072286Y-119479524D01*
X160927143Y-119540000D01*
X160854572Y-119600476D01*
X160709429Y-119781905D01*
X160636858Y-120023810D01*
X160636858Y-120507619D01*
X160709429Y-120628571D01*
X160782001Y-120689048D01*
X160927143Y-120749524D01*
X161217429Y-120749524D01*
X161362572Y-120689048D01*
X161435143Y-120628571D01*
X161507715Y-120507619D01*
X161507715Y-120205238D01*
X161435143Y-120084286D01*
X161362572Y-120023810D01*
X161217429Y-119963333D01*
X160927143Y-119963333D01*
X160782001Y-120023810D01*
X160709429Y-120084286D01*
X160636858Y-120205238D01*
X60992286Y-139689048D02*
X61210000Y-139749524D01*
X61572857Y-139749524D01*
X61718000Y-139689048D01*
X61790571Y-139628571D01*
X61863143Y-139507619D01*
X61863143Y-139386667D01*
X61790571Y-139265714D01*
X61718000Y-139205238D01*
X61572857Y-139144762D01*
X61282571Y-139084286D01*
X61137429Y-139023810D01*
X61064857Y-138963333D01*
X60992286Y-138842381D01*
X60992286Y-138721429D01*
X61064857Y-138600476D01*
X61137429Y-138540000D01*
X61282571Y-138479524D01*
X61645429Y-138479524D01*
X61863143Y-138540000D01*
X62371143Y-138479524D02*
X62734000Y-139749524D01*
X63024286Y-138842381D01*
X63314572Y-139749524D01*
X63677429Y-138479524D01*
X64983714Y-138479524D02*
X64258000Y-138479524D01*
X64185429Y-139084286D01*
X64258000Y-139023810D01*
X64403143Y-138963333D01*
X64766000Y-138963333D01*
X64911143Y-139023810D01*
X64983714Y-139084286D01*
X65056286Y-139205238D01*
X65056286Y-139507619D01*
X64983714Y-139628571D01*
X64911143Y-139689048D01*
X64766000Y-139749524D01*
X64403143Y-139749524D01*
X64258000Y-139689048D01*
X64185429Y-139628571D01*
X65636858Y-138600476D02*
X65709429Y-138540000D01*
X65854572Y-138479524D01*
X66217429Y-138479524D01*
X66362572Y-138540000D01*
X66435143Y-138600476D01*
X66507715Y-138721429D01*
X66507715Y-138842381D01*
X66435143Y-139023810D01*
X65564286Y-139749524D01*
X66507715Y-139749524D01*
X79992286Y-139689048D02*
X80210000Y-139749524D01*
X80572857Y-139749524D01*
X80718000Y-139689048D01*
X80790571Y-139628571D01*
X80863143Y-139507619D01*
X80863143Y-139386667D01*
X80790571Y-139265714D01*
X80718000Y-139205238D01*
X80572857Y-139144762D01*
X80282571Y-139084286D01*
X80137429Y-139023810D01*
X80064857Y-138963333D01*
X79992286Y-138842381D01*
X79992286Y-138721429D01*
X80064857Y-138600476D01*
X80137429Y-138540000D01*
X80282571Y-138479524D01*
X80645429Y-138479524D01*
X80863143Y-138540000D01*
X81371143Y-138479524D02*
X81734000Y-139749524D01*
X82024286Y-138842381D01*
X82314572Y-139749524D01*
X82677429Y-138479524D01*
X83983714Y-138479524D02*
X83258000Y-138479524D01*
X83185429Y-139084286D01*
X83258000Y-139023810D01*
X83403143Y-138963333D01*
X83766000Y-138963333D01*
X83911143Y-139023810D01*
X83983714Y-139084286D01*
X84056286Y-139205238D01*
X84056286Y-139507619D01*
X83983714Y-139628571D01*
X83911143Y-139689048D01*
X83766000Y-139749524D01*
X83403143Y-139749524D01*
X83258000Y-139689048D01*
X83185429Y-139628571D01*
X84564286Y-138479524D02*
X85507715Y-138479524D01*
X84999715Y-138963333D01*
X85217429Y-138963333D01*
X85362572Y-139023810D01*
X85435143Y-139084286D01*
X85507715Y-139205238D01*
X85507715Y-139507619D01*
X85435143Y-139628571D01*
X85362572Y-139689048D01*
X85217429Y-139749524D01*
X84782001Y-139749524D01*
X84636858Y-139689048D01*
X84564286Y-139628571D01*
D16*
X163529333Y-44082667D02*
X164662667Y-44082667D01*
X164796000Y-44016000D01*
X164862667Y-43949333D01*
X164929333Y-43816000D01*
X164929333Y-43549333D01*
X164862667Y-43416000D01*
X164796000Y-43349333D01*
X164662667Y-43282667D01*
X163529333Y-43282667D01*
X164929333Y-41882666D02*
X164929333Y-42682666D01*
X164929333Y-42282666D02*
X163529333Y-42282666D01*
X163729333Y-42416000D01*
X163862667Y-42549333D01*
X163929333Y-42682666D01*
X151603001Y-42582533D02*
X151603001Y-41182533D01*
X152069668Y-42182533D01*
X152536335Y-41182533D01*
X152536335Y-42582533D01*
X154003001Y-42449200D02*
X153936335Y-42515867D01*
X153736335Y-42582533D01*
X153603001Y-42582533D01*
X153403001Y-42515867D01*
X153269668Y-42382533D01*
X153203001Y-42249200D01*
X153136335Y-41982533D01*
X153136335Y-41782533D01*
X153203001Y-41515867D01*
X153269668Y-41382533D01*
X153403001Y-41249200D01*
X153603001Y-41182533D01*
X153736335Y-41182533D01*
X153936335Y-41249200D01*
X154003001Y-41315867D01*
X154603001Y-42582533D02*
X154603001Y-41182533D01*
X155136335Y-41182533D01*
X155269668Y-41249200D01*
X155336335Y-41315867D01*
X155403001Y-41449200D01*
X155403001Y-41649200D01*
X155336335Y-41782533D01*
X155269668Y-41849200D01*
X155136335Y-41915867D01*
X154603001Y-41915867D01*
X155936335Y-41315867D02*
X156003001Y-41249200D01*
X156136335Y-41182533D01*
X156469668Y-41182533D01*
X156603001Y-41249200D01*
X156669668Y-41315867D01*
X156736335Y-41449200D01*
X156736335Y-41582533D01*
X156669668Y-41782533D01*
X155869668Y-42582533D01*
X156736335Y-42582533D01*
X157203001Y-41182533D02*
X158069668Y-41182533D01*
X157603001Y-41715867D01*
X157803001Y-41715867D01*
X157936334Y-41782533D01*
X158003001Y-41849200D01*
X158069668Y-41982533D01*
X158069668Y-42315867D01*
X158003001Y-42449200D01*
X157936334Y-42515867D01*
X157803001Y-42582533D01*
X157403001Y-42582533D01*
X157269668Y-42515867D01*
X157203001Y-42449200D01*
X158936334Y-41182533D02*
X159069667Y-41182533D01*
X159203001Y-41249200D01*
X159269667Y-41315867D01*
X159336334Y-41449200D01*
X159403001Y-41715867D01*
X159403001Y-42049200D01*
X159336334Y-42315867D01*
X159269667Y-42449200D01*
X159203001Y-42515867D01*
X159069667Y-42582533D01*
X158936334Y-42582533D01*
X158803001Y-42515867D01*
X158736334Y-42449200D01*
X158669667Y-42315867D01*
X158603001Y-42049200D01*
X158603001Y-41715867D01*
X158669667Y-41449200D01*
X158736334Y-41315867D01*
X158803001Y-41249200D01*
X158936334Y-41182533D01*
X160736334Y-42582533D02*
X159936334Y-42582533D01*
X160336334Y-42582533D02*
X160336334Y-41182533D01*
X160203000Y-41382533D01*
X160069667Y-41515867D01*
X159936334Y-41582533D01*
X161203000Y-41182533D02*
X162136333Y-41182533D01*
X161536333Y-42582533D01*
D11*
X113667143Y-36416666D02*
X113714762Y-36464285D01*
X113762381Y-36607142D01*
X113762381Y-36702380D01*
X113714762Y-36845238D01*
X113619524Y-36940476D01*
X113524286Y-36988095D01*
X113333810Y-37035714D01*
X113190952Y-37035714D01*
X113000476Y-36988095D01*
X112905238Y-36940476D01*
X112810000Y-36845238D01*
X112762381Y-36702380D01*
X112762381Y-36607142D01*
X112810000Y-36464285D01*
X112857619Y-36416666D01*
X113762381Y-35464285D02*
X113762381Y-36035714D01*
X113762381Y-35750000D02*
X112762381Y-35750000D01*
X112905238Y-35845238D01*
X113000476Y-35940476D01*
X113048095Y-36035714D01*
X53412381Y-34008095D02*
X52412381Y-34008095D01*
X52412381Y-33770000D01*
X52460000Y-33627142D01*
X52555238Y-33531904D01*
X52650476Y-33484285D01*
X52840952Y-33436666D01*
X52983810Y-33436666D01*
X53174286Y-33484285D01*
X53269524Y-33531904D01*
X53364762Y-33627142D01*
X53412381Y-33770000D01*
X53412381Y-34008095D01*
X53412381Y-32484285D02*
X53412381Y-33055714D01*
X53412381Y-32770000D02*
X52412381Y-32770000D01*
X52555238Y-32865238D01*
X52650476Y-32960476D01*
X52698095Y-33055714D01*
X61912381Y-34008095D02*
X60912381Y-34008095D01*
X60912381Y-33770000D01*
X60960000Y-33627142D01*
X61055238Y-33531904D01*
X61150476Y-33484285D01*
X61340952Y-33436666D01*
X61483810Y-33436666D01*
X61674286Y-33484285D01*
X61769524Y-33531904D01*
X61864762Y-33627142D01*
X61912381Y-33770000D01*
X61912381Y-34008095D01*
X61007619Y-33055714D02*
X60960000Y-33008095D01*
X60912381Y-32912857D01*
X60912381Y-32674761D01*
X60960000Y-32579523D01*
X61007619Y-32531904D01*
X61102857Y-32484285D01*
X61198095Y-32484285D01*
X61340952Y-32531904D01*
X61912381Y-33103333D01*
X61912381Y-32484285D01*
X70412381Y-34008095D02*
X69412381Y-34008095D01*
X69412381Y-33770000D01*
X69460000Y-33627142D01*
X69555238Y-33531904D01*
X69650476Y-33484285D01*
X69840952Y-33436666D01*
X69983810Y-33436666D01*
X70174286Y-33484285D01*
X70269524Y-33531904D01*
X70364762Y-33627142D01*
X70412381Y-33770000D01*
X70412381Y-34008095D01*
X69412381Y-33103333D02*
X69412381Y-32484285D01*
X69793333Y-32817619D01*
X69793333Y-32674761D01*
X69840952Y-32579523D01*
X69888571Y-32531904D01*
X69983810Y-32484285D01*
X70221905Y-32484285D01*
X70317143Y-32531904D01*
X70364762Y-32579523D01*
X70412381Y-32674761D01*
X70412381Y-32960476D01*
X70364762Y-33055714D01*
X70317143Y-33103333D01*
X41904762Y-39833333D02*
X41952381Y-39690476D01*
X41952381Y-39452380D01*
X41904762Y-39357142D01*
X41857143Y-39309523D01*
X41761905Y-39261904D01*
X41666667Y-39261904D01*
X41571429Y-39309523D01*
X41523810Y-39357142D01*
X41476190Y-39452380D01*
X41428571Y-39642857D01*
X41380952Y-39738095D01*
X41333333Y-39785714D01*
X41238095Y-39833333D01*
X41142857Y-39833333D01*
X41047619Y-39785714D01*
X41000000Y-39738095D01*
X40952381Y-39642857D01*
X40952381Y-39404761D01*
X41000000Y-39261904D01*
X40952381Y-38928571D02*
X41952381Y-38690476D01*
X41238095Y-38499999D01*
X41952381Y-38309523D01*
X40952381Y-38071428D01*
X41952381Y-37166666D02*
X41952381Y-37738095D01*
X41952381Y-37452381D02*
X40952381Y-37452381D01*
X41095238Y-37547619D01*
X41190476Y-37642857D01*
X41238095Y-37738095D01*
D15*
X39617286Y-139689048D02*
X39835000Y-139749524D01*
X40197857Y-139749524D01*
X40343000Y-139689048D01*
X40415571Y-139628571D01*
X40488143Y-139507619D01*
X40488143Y-139386667D01*
X40415571Y-139265714D01*
X40343000Y-139205238D01*
X40197857Y-139144762D01*
X39907571Y-139084286D01*
X39762429Y-139023810D01*
X39689857Y-138963333D01*
X39617286Y-138842381D01*
X39617286Y-138721429D01*
X39689857Y-138600476D01*
X39762429Y-138540000D01*
X39907571Y-138479524D01*
X40270429Y-138479524D01*
X40488143Y-138540000D01*
X40996143Y-138479524D02*
X41359000Y-139749524D01*
X41649286Y-138842381D01*
X41939572Y-139749524D01*
X42302429Y-138479524D01*
X43608714Y-138479524D02*
X42883000Y-138479524D01*
X42810429Y-139084286D01*
X42883000Y-139023810D01*
X43028143Y-138963333D01*
X43391000Y-138963333D01*
X43536143Y-139023810D01*
X43608714Y-139084286D01*
X43681286Y-139205238D01*
X43681286Y-139507619D01*
X43608714Y-139628571D01*
X43536143Y-139689048D01*
X43391000Y-139749524D01*
X43028143Y-139749524D01*
X42883000Y-139689048D01*
X42810429Y-139628571D01*
X45132715Y-139749524D02*
X44261858Y-139749524D01*
X44697286Y-139749524D02*
X44697286Y-138479524D01*
X44552143Y-138660952D01*
X44407001Y-138781905D01*
X44261858Y-138842381D01*
X98992286Y-139689048D02*
X99210000Y-139749524D01*
X99572857Y-139749524D01*
X99718000Y-139689048D01*
X99790571Y-139628571D01*
X99863143Y-139507619D01*
X99863143Y-139386667D01*
X99790571Y-139265714D01*
X99718000Y-139205238D01*
X99572857Y-139144762D01*
X99282571Y-139084286D01*
X99137429Y-139023810D01*
X99064857Y-138963333D01*
X98992286Y-138842381D01*
X98992286Y-138721429D01*
X99064857Y-138600476D01*
X99137429Y-138540000D01*
X99282571Y-138479524D01*
X99645429Y-138479524D01*
X99863143Y-138540000D01*
X100371143Y-138479524D02*
X100734000Y-139749524D01*
X101024286Y-138842381D01*
X101314572Y-139749524D01*
X101677429Y-138479524D01*
X102983714Y-138479524D02*
X102258000Y-138479524D01*
X102185429Y-139084286D01*
X102258000Y-139023810D01*
X102403143Y-138963333D01*
X102766000Y-138963333D01*
X102911143Y-139023810D01*
X102983714Y-139084286D01*
X103056286Y-139205238D01*
X103056286Y-139507619D01*
X102983714Y-139628571D01*
X102911143Y-139689048D01*
X102766000Y-139749524D01*
X102403143Y-139749524D01*
X102258000Y-139689048D01*
X102185429Y-139628571D01*
X104362572Y-138902857D02*
X104362572Y-139749524D01*
X103999715Y-138419048D02*
X103636858Y-139326190D01*
X104580286Y-139326190D01*
X122742286Y-139689048D02*
X122960000Y-139749524D01*
X123322857Y-139749524D01*
X123468000Y-139689048D01*
X123540571Y-139628571D01*
X123613143Y-139507619D01*
X123613143Y-139386667D01*
X123540571Y-139265714D01*
X123468000Y-139205238D01*
X123322857Y-139144762D01*
X123032571Y-139084286D01*
X122887429Y-139023810D01*
X122814857Y-138963333D01*
X122742286Y-138842381D01*
X122742286Y-138721429D01*
X122814857Y-138600476D01*
X122887429Y-138540000D01*
X123032571Y-138479524D01*
X123395429Y-138479524D01*
X123613143Y-138540000D01*
X124121143Y-138479524D02*
X124484000Y-139749524D01*
X124774286Y-138842381D01*
X125064572Y-139749524D01*
X125427429Y-138479524D01*
X126733714Y-138479524D02*
X126008000Y-138479524D01*
X125935429Y-139084286D01*
X126008000Y-139023810D01*
X126153143Y-138963333D01*
X126516000Y-138963333D01*
X126661143Y-139023810D01*
X126733714Y-139084286D01*
X126806286Y-139205238D01*
X126806286Y-139507619D01*
X126733714Y-139628571D01*
X126661143Y-139689048D01*
X126516000Y-139749524D01*
X126153143Y-139749524D01*
X126008000Y-139689048D01*
X125935429Y-139628571D01*
X128185143Y-138479524D02*
X127459429Y-138479524D01*
X127386858Y-139084286D01*
X127459429Y-139023810D01*
X127604572Y-138963333D01*
X127967429Y-138963333D01*
X128112572Y-139023810D01*
X128185143Y-139084286D01*
X128257715Y-139205238D01*
X128257715Y-139507619D01*
X128185143Y-139628571D01*
X128112572Y-139689048D01*
X127967429Y-139749524D01*
X127604572Y-139749524D01*
X127459429Y-139689048D01*
X127386858Y-139628571D01*
X151242286Y-139689048D02*
X151460000Y-139749524D01*
X151822857Y-139749524D01*
X151968000Y-139689048D01*
X152040571Y-139628571D01*
X152113143Y-139507619D01*
X152113143Y-139386667D01*
X152040571Y-139265714D01*
X151968000Y-139205238D01*
X151822857Y-139144762D01*
X151532571Y-139084286D01*
X151387429Y-139023810D01*
X151314857Y-138963333D01*
X151242286Y-138842381D01*
X151242286Y-138721429D01*
X151314857Y-138600476D01*
X151387429Y-138540000D01*
X151532571Y-138479524D01*
X151895429Y-138479524D01*
X152113143Y-138540000D01*
X152621143Y-138479524D02*
X152984000Y-139749524D01*
X153274286Y-138842381D01*
X153564572Y-139749524D01*
X153927429Y-138479524D01*
X155233714Y-138479524D02*
X154508000Y-138479524D01*
X154435429Y-139084286D01*
X154508000Y-139023810D01*
X154653143Y-138963333D01*
X155016000Y-138963333D01*
X155161143Y-139023810D01*
X155233714Y-139084286D01*
X155306286Y-139205238D01*
X155306286Y-139507619D01*
X155233714Y-139628571D01*
X155161143Y-139689048D01*
X155016000Y-139749524D01*
X154653143Y-139749524D01*
X154508000Y-139689048D01*
X154435429Y-139628571D01*
X156612572Y-138479524D02*
X156322286Y-138479524D01*
X156177143Y-138540000D01*
X156104572Y-138600476D01*
X155959429Y-138781905D01*
X155886858Y-139023810D01*
X155886858Y-139507619D01*
X155959429Y-139628571D01*
X156032001Y-139689048D01*
X156177143Y-139749524D01*
X156467429Y-139749524D01*
X156612572Y-139689048D01*
X156685143Y-139628571D01*
X156757715Y-139507619D01*
X156757715Y-139205238D01*
X156685143Y-139084286D01*
X156612572Y-139023810D01*
X156467429Y-138963333D01*
X156177143Y-138963333D01*
X156032001Y-139023810D01*
X155959429Y-139084286D01*
X155886858Y-139205238D01*
D11*
M02*
