G04 #@! TF.FileFunction,Soldermask,Bot*
%FSLAX46Y46*%
G04 Gerber Fmt 4.6, Leading zero omitted, Abs format (unit mm)*
G04 Created by KiCad (PCBNEW 4.0.1-stable) date 2017/04/05 22:22:28*
%MOMM*%
G01*
G04 APERTURE LIST*
%ADD10C,0.100000*%
%ADD11R,1.524000X1.524000*%
%ADD12C,1.524000*%
%ADD13C,2.500000*%
%ADD14C,1.397000*%
%ADD15C,2.286000*%
%ADD16C,3.987800*%
%ADD17C,1.701800*%
%ADD18O,1.720800X3.041600*%
%ADD19C,1.600000*%
%ADD20R,1.800000X1.800000*%
%ADD21C,1.800000*%
%ADD22C,3.500000*%
G04 APERTURE END LIST*
D10*
D11*
X31420000Y-50000000D03*
D12*
X41580000Y-50000000D03*
D11*
X50000000Y-65080000D03*
D12*
X50000000Y-54920000D03*
D11*
X69000000Y-65080000D03*
D12*
X69000000Y-54920000D03*
D11*
X88000000Y-65080000D03*
D12*
X88000000Y-54920000D03*
D11*
X107000000Y-65080000D03*
D12*
X107000000Y-54920000D03*
D11*
X126000000Y-65080000D03*
D12*
X126000000Y-54920000D03*
D11*
X145000000Y-65080000D03*
D12*
X145000000Y-54920000D03*
D11*
X34000000Y-82080000D03*
D12*
X34000000Y-71920000D03*
D11*
X59000000Y-82080000D03*
D12*
X59000000Y-71920000D03*
D11*
X78000000Y-82080000D03*
D12*
X78000000Y-71920000D03*
D11*
X97000000Y-82080000D03*
D12*
X97000000Y-71920000D03*
D11*
X116000000Y-82080000D03*
D12*
X116000000Y-71920000D03*
D11*
X135000000Y-82080000D03*
D12*
X135000000Y-71920000D03*
D11*
X37000000Y-101080000D03*
D12*
X37000000Y-90920000D03*
D11*
X64000000Y-101080000D03*
D12*
X64000000Y-90920000D03*
D11*
X83000000Y-101080000D03*
D12*
X83000000Y-90920000D03*
D11*
X102000000Y-101080000D03*
D12*
X102000000Y-90920000D03*
D11*
X121000000Y-101080000D03*
D12*
X121000000Y-90920000D03*
D11*
X140000000Y-101080000D03*
D12*
X140000000Y-90920000D03*
D11*
X33000000Y-120080000D03*
D12*
X33000000Y-109920000D03*
D11*
X73000000Y-120080000D03*
D12*
X73000000Y-109920000D03*
D11*
X92000000Y-120080000D03*
D12*
X92000000Y-109920000D03*
D11*
X111000000Y-120080000D03*
D12*
X111000000Y-109920000D03*
D11*
X130000000Y-120080000D03*
D12*
X130000000Y-109920000D03*
D11*
X149000000Y-120080000D03*
D12*
X149000000Y-109920000D03*
D11*
X33000000Y-139080000D03*
D12*
X33000000Y-128920000D03*
D11*
X55000000Y-139080000D03*
D12*
X55000000Y-128920000D03*
D11*
X74000000Y-139080000D03*
D12*
X74000000Y-128920000D03*
D11*
X93000000Y-139080000D03*
D12*
X93000000Y-128920000D03*
D11*
X117000000Y-139080000D03*
D12*
X117000000Y-128920000D03*
D11*
X143000000Y-139080000D03*
D12*
X143000000Y-128920000D03*
D13*
X117100000Y-32000000D03*
X117100000Y-35000000D03*
X112900000Y-40500000D03*
X117100000Y-39000000D03*
D14*
X95555000Y-43000000D03*
X104445000Y-43000000D03*
X49900000Y-46245000D03*
X49900000Y-37355000D03*
X58300000Y-46145000D03*
X58300000Y-37255000D03*
X67000000Y-46145000D03*
X67000000Y-37255000D03*
D15*
X61540000Y-54920000D03*
X55190000Y-57460000D03*
D16*
X59000000Y-60000000D03*
D17*
X53920000Y-60000000D03*
X64080000Y-60000000D03*
D15*
X80540000Y-54920000D03*
X74190000Y-57460000D03*
D16*
X78000000Y-60000000D03*
D17*
X72920000Y-60000000D03*
X83080000Y-60000000D03*
D15*
X99540000Y-54920000D03*
X93190000Y-57460000D03*
D16*
X97000000Y-60000000D03*
D17*
X91920000Y-60000000D03*
X102080000Y-60000000D03*
D15*
X118540000Y-54920000D03*
X112190000Y-57460000D03*
D16*
X116000000Y-60000000D03*
D17*
X110920000Y-60000000D03*
X121080000Y-60000000D03*
D15*
X137540000Y-54920000D03*
X131190000Y-57460000D03*
D16*
X135000000Y-60000000D03*
D17*
X129920000Y-60000000D03*
X140080000Y-60000000D03*
D15*
X156540000Y-54920000D03*
X150190000Y-57460000D03*
D16*
X154000000Y-60000000D03*
D17*
X148920000Y-60000000D03*
X159080000Y-60000000D03*
D15*
X47290000Y-73920000D03*
X40940000Y-76460000D03*
D16*
X44750000Y-79000000D03*
D17*
X39670000Y-79000000D03*
X49830000Y-79000000D03*
D15*
X71040000Y-73920000D03*
X64690000Y-76460000D03*
D16*
X68500000Y-79000000D03*
D17*
X63420000Y-79000000D03*
X73580000Y-79000000D03*
D15*
X90040000Y-73920000D03*
X83690000Y-76460000D03*
D16*
X87500000Y-79000000D03*
D17*
X82420000Y-79000000D03*
X92580000Y-79000000D03*
D15*
X109040000Y-73920000D03*
X102690000Y-76460000D03*
D16*
X106500000Y-79000000D03*
D17*
X101420000Y-79000000D03*
X111580000Y-79000000D03*
D15*
X128040000Y-73920000D03*
X121690000Y-76460000D03*
D16*
X125500000Y-79000000D03*
D17*
X120420000Y-79000000D03*
X130580000Y-79000000D03*
D15*
X147040000Y-73920000D03*
X140690000Y-76460000D03*
D16*
X144500000Y-79000000D03*
D17*
X139420000Y-79000000D03*
X149580000Y-79000000D03*
D15*
X49665000Y-92920000D03*
X43315000Y-95460000D03*
D16*
X47125000Y-98000000D03*
D17*
X42045000Y-98000000D03*
X52205000Y-98000000D03*
D15*
X75790000Y-92920000D03*
X69440000Y-95460000D03*
D16*
X73250000Y-98000000D03*
D17*
X68170000Y-98000000D03*
X78330000Y-98000000D03*
D15*
X94790000Y-92920000D03*
X88440000Y-95460000D03*
D16*
X92250000Y-98000000D03*
D17*
X87170000Y-98000000D03*
X97330000Y-98000000D03*
D15*
X113790000Y-92920000D03*
X107440000Y-95460000D03*
D16*
X111250000Y-98000000D03*
D17*
X106170000Y-98000000D03*
X116330000Y-98000000D03*
D15*
X132790000Y-92920000D03*
X126440000Y-95460000D03*
D16*
X130250000Y-98000000D03*
D17*
X125170000Y-98000000D03*
X135330000Y-98000000D03*
D15*
X151790000Y-92920000D03*
X145440000Y-95460000D03*
D16*
X149250000Y-98000000D03*
D17*
X144170000Y-98000000D03*
X154330000Y-98000000D03*
D15*
X54415000Y-111920000D03*
X48065000Y-114460000D03*
D16*
X51875000Y-117000000D03*
D17*
X46795000Y-117000000D03*
X56955000Y-117000000D03*
D15*
X85290000Y-111920000D03*
X78940000Y-114460000D03*
D16*
X82750000Y-117000000D03*
D17*
X77670000Y-117000000D03*
X87830000Y-117000000D03*
D15*
X104290000Y-111920000D03*
X97940000Y-114460000D03*
D16*
X101750000Y-117000000D03*
D17*
X96670000Y-117000000D03*
X106830000Y-117000000D03*
D15*
X123290000Y-111920000D03*
X116940000Y-114460000D03*
D16*
X120750000Y-117000000D03*
D17*
X115670000Y-117000000D03*
X125830000Y-117000000D03*
D15*
X142290000Y-111920000D03*
X135940000Y-114460000D03*
D16*
X139750000Y-117000000D03*
D17*
X134670000Y-117000000D03*
X144830000Y-117000000D03*
D15*
X161290000Y-111920000D03*
X154940000Y-114460000D03*
D16*
X158750000Y-117000000D03*
D17*
X153670000Y-117000000D03*
X163830000Y-117000000D03*
D15*
X66290000Y-130920000D03*
X59940000Y-133460000D03*
D16*
X63750000Y-136000000D03*
D17*
X58670000Y-136000000D03*
X68830000Y-136000000D03*
D15*
X85290000Y-130920000D03*
X78940000Y-133460000D03*
D16*
X82750000Y-136000000D03*
D17*
X77670000Y-136000000D03*
X87830000Y-136000000D03*
D18*
X157510000Y-38190000D03*
X154970000Y-38190000D03*
X152430000Y-38190000D03*
X149890000Y-38190000D03*
X147350000Y-38190000D03*
X144810000Y-38190000D03*
X142270000Y-38190000D03*
X139730000Y-38190000D03*
X137190000Y-38190000D03*
X134650000Y-38190000D03*
X132110000Y-38190000D03*
X129570000Y-38190000D03*
X127030000Y-38190000D03*
X124490000Y-38190000D03*
X124490000Y-45810000D03*
X127030000Y-45810000D03*
X129570000Y-45810000D03*
X132110000Y-45810000D03*
X134650000Y-45810000D03*
X137190000Y-45810000D03*
X139730000Y-45810000D03*
X142270000Y-45810000D03*
X144810000Y-45810000D03*
X147350000Y-45810000D03*
X149890000Y-45810000D03*
X152430000Y-45810000D03*
X154970000Y-45810000D03*
X157510000Y-45810000D03*
D19*
X135000000Y-34000000D03*
X132500000Y-34000000D03*
D20*
X50000000Y-32000000D03*
D21*
X50000000Y-34540000D03*
D20*
X58500000Y-32000000D03*
D21*
X58500000Y-34540000D03*
D20*
X67000000Y-32000000D03*
D21*
X67000000Y-34540000D03*
D12*
X39750000Y-41750000D03*
X35250000Y-41750000D03*
X35250000Y-35250000D03*
X39750000Y-35250000D03*
D15*
X44915000Y-130920000D03*
X38565000Y-133460000D03*
D16*
X42375000Y-136000000D03*
D17*
X37295000Y-136000000D03*
X47455000Y-136000000D03*
D15*
X104290000Y-130920000D03*
X97940000Y-133460000D03*
D16*
X101750000Y-136000000D03*
D17*
X96670000Y-136000000D03*
X106830000Y-136000000D03*
D15*
X128040000Y-130920000D03*
X121690000Y-133460000D03*
D16*
X125500000Y-136000000D03*
D17*
X120420000Y-136000000D03*
X130580000Y-136000000D03*
D15*
X156540000Y-130920000D03*
X150190000Y-133460000D03*
D16*
X154000000Y-136000000D03*
D17*
X148920000Y-136000000D03*
X159080000Y-136000000D03*
D15*
X42540000Y-54920000D03*
X36190000Y-57460000D03*
D16*
X40000000Y-60000000D03*
D17*
X34920000Y-60000000D03*
X45080000Y-60000000D03*
D22*
X33000000Y-143500000D03*
X73400000Y-143500000D03*
X112500000Y-143500000D03*
X166100000Y-143500000D03*
X37300000Y-107400000D03*
X79200000Y-107400000D03*
X115600000Y-107400000D03*
X164000000Y-107400000D03*
X37900000Y-69600000D03*
X82200000Y-69600000D03*
X121900000Y-69600000D03*
X156500000Y-69600000D03*
X32000000Y-32000000D03*
X90600000Y-32000000D03*
X108100000Y-35600000D03*
X143100000Y-32000000D03*
X166600000Y-32000000D03*
M02*
