M48
;DRILL file {KiCad 4.0.1-stable} date 2017/04/05 22:22:42
;FORMAT={-:-/ absolute / metric / decimal}
FMAT,2
METRIC,TZ
T1C0.400
T2C0.800
T3C0.813
T4C0.889
T5C0.900
T6C1.499
T7C1.702
T8C1.800
T9C2.500
T10C3.988
%
G90
G05
M71
T1
X83.Y-32.
X111.Y-47.
T2
X132.5Y-34.
X135.Y-34.
T3
X49.9Y-37.355
X49.9Y-46.245
X58.3Y-37.255
X58.3Y-46.145
X67.Y-37.255
X67.Y-46.145
X95.555Y-43.
X104.445Y-43.
X124.49Y-38.19
X124.49Y-45.81
X127.03Y-38.19
X127.03Y-45.81
X129.57Y-38.19
X129.57Y-45.81
X132.11Y-38.19
X132.11Y-45.81
X134.65Y-38.19
X134.65Y-45.81
X137.19Y-38.19
X137.19Y-45.81
X139.73Y-38.19
X139.73Y-45.81
X142.27Y-38.19
X142.27Y-45.81
X144.81Y-38.19
X144.81Y-45.81
X147.35Y-38.19
X147.35Y-45.81
X149.89Y-38.19
X149.89Y-45.81
X152.43Y-38.19
X152.43Y-45.81
X154.97Y-38.19
X154.97Y-45.81
X157.51Y-38.19
X157.51Y-45.81
T4
X31.42Y-50.
X33.Y-109.92
X33.Y-120.08
X33.Y-128.92
X33.Y-139.08
X34.Y-71.92
X34.Y-82.08
X37.Y-90.92
X37.Y-101.08
X41.58Y-50.
X50.Y-54.92
X50.Y-65.08
X55.Y-128.92
X55.Y-139.08
X59.Y-71.92
X59.Y-82.08
X64.Y-90.92
X64.Y-101.08
X69.Y-54.92
X69.Y-65.08
X73.Y-109.92
X73.Y-120.08
X74.Y-128.92
X74.Y-139.08
X78.Y-71.92
X78.Y-82.08
X83.Y-90.92
X83.Y-101.08
X88.Y-54.92
X88.Y-65.08
X92.Y-109.92
X92.Y-120.08
X93.Y-128.92
X93.Y-139.08
X97.Y-71.92
X97.Y-82.08
X102.Y-90.92
X102.Y-101.08
X107.Y-54.92
X107.Y-65.08
X111.Y-109.92
X111.Y-120.08
X116.Y-71.92
X116.Y-82.08
X117.Y-128.92
X117.Y-139.08
X121.Y-90.92
X121.Y-101.08
X126.Y-54.92
X126.Y-65.08
X130.Y-109.92
X130.Y-120.08
X135.Y-71.92
X135.Y-82.08
X140.Y-90.92
X140.Y-101.08
X143.Y-128.92
X143.Y-139.08
X145.Y-54.92
X145.Y-65.08
X149.Y-109.92
X149.Y-120.08
T5
X35.25Y-35.25
X35.25Y-41.75
X39.75Y-35.25
X39.75Y-41.75
X50.Y-32.
X50.Y-34.54
X58.5Y-32.
X58.5Y-34.54
X67.Y-32.
X67.Y-34.54
T6
X36.19Y-57.46
X38.565Y-133.46
X40.94Y-76.46
X42.54Y-54.92
X43.315Y-95.46
X44.915Y-130.92
X47.29Y-73.92
X48.065Y-114.46
X49.665Y-92.92
X54.415Y-111.92
X55.19Y-57.46
X59.94Y-133.46
X61.54Y-54.92
X64.69Y-76.46
X66.29Y-130.92
X69.44Y-95.46
X71.04Y-73.92
X74.19Y-57.46
X75.79Y-92.92
X78.94Y-114.46
X78.94Y-133.46
X80.54Y-54.92
X83.69Y-76.46
X85.29Y-111.92
X85.29Y-130.92
X88.44Y-95.46
X90.04Y-73.92
X93.19Y-57.46
X94.79Y-92.92
X97.94Y-114.46
X97.94Y-133.46
X99.54Y-54.92
X102.69Y-76.46
X104.29Y-111.92
X104.29Y-130.92
X107.44Y-95.46
X109.04Y-73.92
X112.19Y-57.46
X113.79Y-92.92
X116.94Y-114.46
X118.54Y-54.92
X121.69Y-76.46
X121.69Y-133.46
X123.29Y-111.92
X126.44Y-95.46
X128.04Y-73.92
X128.04Y-130.92
X131.19Y-57.46
X132.79Y-92.92
X135.94Y-114.46
X137.54Y-54.92
X140.69Y-76.46
X142.29Y-111.92
X145.44Y-95.46
X147.04Y-73.92
X150.19Y-57.46
X150.19Y-133.46
X151.79Y-92.92
X154.94Y-114.46
X156.54Y-54.92
X156.54Y-130.92
X161.29Y-111.92
T7
X34.92Y-60.
X37.295Y-136.
X39.67Y-79.
X42.045Y-98.
X45.08Y-60.
X46.795Y-117.
X47.455Y-136.
X49.83Y-79.
X52.205Y-98.
X53.92Y-60.
X56.955Y-117.
X58.67Y-136.
X63.42Y-79.
X64.08Y-60.
X68.17Y-98.
X68.83Y-136.
X72.92Y-60.
X73.58Y-79.
X77.67Y-117.
X77.67Y-136.
X78.33Y-98.
X82.42Y-79.
X83.08Y-60.
X87.17Y-98.
X87.83Y-117.
X87.83Y-136.
X91.92Y-60.
X92.58Y-79.
X96.67Y-117.
X96.67Y-136.
X97.33Y-98.
X101.42Y-79.
X102.08Y-60.
X106.17Y-98.
X106.83Y-117.
X106.83Y-136.
X110.92Y-60.
X111.58Y-79.
X115.67Y-117.
X116.33Y-98.
X120.42Y-79.
X120.42Y-136.
X121.08Y-60.
X125.17Y-98.
X125.83Y-117.
X129.92Y-60.
X130.58Y-79.
X130.58Y-136.
X134.67Y-117.
X135.33Y-98.
X139.42Y-79.
X140.08Y-60.
X144.17Y-98.
X144.83Y-117.
X148.92Y-60.
X148.92Y-136.
X149.58Y-79.
X153.67Y-117.
X154.33Y-98.
X159.08Y-60.
X159.08Y-136.
X163.83Y-117.
T8
X112.9Y-40.5
X117.1Y-32.
X117.1Y-35.
X117.1Y-39.
T9
X32.Y-32.
X33.Y-143.5
X37.3Y-107.4
X37.9Y-69.6
X73.4Y-143.5
X79.2Y-107.4
X82.2Y-69.6
X90.6Y-32.
X108.1Y-35.6
X112.5Y-143.5
X115.6Y-107.4
X121.9Y-69.6
X143.1Y-32.
X156.5Y-69.6
X164.Y-107.4
X166.1Y-143.5
X166.6Y-32.
T10
X40.Y-60.
X42.375Y-136.
X44.75Y-79.
X47.125Y-98.
X51.875Y-117.
X59.Y-60.
X63.75Y-136.
X68.5Y-79.
X73.25Y-98.
X78.Y-60.
X82.75Y-117.
X82.75Y-136.
X87.5Y-79.
X92.25Y-98.
X97.Y-60.
X101.75Y-117.
X101.75Y-136.
X106.5Y-79.
X111.25Y-98.
X116.Y-60.
X120.75Y-117.
X125.5Y-79.
X125.5Y-136.
X130.25Y-98.
X135.Y-60.
X139.75Y-117.
X144.5Y-79.
X149.25Y-98.
X154.Y-60.
X154.Y-136.
X158.75Y-117.
T0
M30
