G04 #@! TF.FileFunction,Other,ECO2*
%FSLAX46Y46*%
G04 Gerber Fmt 4.6, Leading zero omitted, Abs format (unit mm)*
G04 Created by KiCad (PCBNEW 4.0.1-stable) date 2017/02/05 23:11:59*
%MOMM*%
G01*
G04 APERTURE LIST*
%ADD10C,0.100000*%
G04 APERTURE END LIST*
D10*
X200700000Y-142750000D02*
G75*
G03X200700000Y-142750000I-1700000J0D01*
G01*
X40700000Y-142750000D02*
G75*
G03X40700000Y-142750000I-1700000J0D01*
G01*
X151700000Y-142750000D02*
G75*
G03X151700000Y-142750000I-1700000J0D01*
G01*
X94700000Y-142750000D02*
G75*
G03X94700000Y-142750000I-1700000J0D01*
G01*
X134700000Y-31500000D02*
G75*
G03X134700000Y-31500000I-1700000J0D01*
G01*
X101700000Y-31500000D02*
G75*
G03X101700000Y-31500000I-1700000J0D01*
G01*
X40450000Y-31500000D02*
G75*
G03X40450000Y-31500000I-1700000J0D01*
G01*
X45950000Y-107500000D02*
G75*
G03X45950000Y-107500000I-1700000J0D01*
G01*
X83200000Y-107500000D02*
G75*
G03X83200000Y-107500000I-1700000J0D01*
G01*
X120450000Y-107500000D02*
G75*
G03X120450000Y-107500000I-1700000J0D01*
G01*
X152700000Y-107500000D02*
G75*
G03X152700000Y-107500000I-1700000J0D01*
G01*
X193450000Y-107500000D02*
G75*
G03X193450000Y-107500000I-1700000J0D01*
G01*
X181450000Y-69500000D02*
G75*
G03X181450000Y-69500000I-1700000J0D01*
G01*
X144200000Y-69500000D02*
G75*
G03X144200000Y-69500000I-1700000J0D01*
G01*
X107450000Y-69500000D02*
G75*
G03X107450000Y-69500000I-1700000J0D01*
G01*
X69200000Y-69500000D02*
G75*
G03X69200000Y-69500000I-1700000J0D01*
G01*
X45950000Y-60750000D02*
G75*
G03X45950000Y-60750000I-1700000J0D01*
G01*
X198200000Y-39000000D02*
G75*
G03X198200000Y-39000000I-1700000J0D01*
G01*
X66450000Y-142750000D02*
G75*
G03X66450000Y-142750000I-1700000J0D01*
G01*
X134700000Y-44500000D02*
G75*
G03X134700000Y-44500000I-1700000J0D01*
G01*
X101700000Y-44500000D02*
G75*
G03X101700000Y-44500000I-1700000J0D01*
G01*
X60200000Y-44500000D02*
G75*
G03X60200000Y-44500000I-1700000J0D01*
G01*
X193200000Y-88500000D02*
G75*
G03X193200000Y-88500000I-1700000J0D01*
G01*
X158450000Y-88500000D02*
G75*
G03X158450000Y-88500000I-1700000J0D01*
G01*
X110950000Y-88500000D02*
G75*
G03X110950000Y-88500000I-1700000J0D01*
G01*
X70700000Y-88500000D02*
G75*
G03X70700000Y-88500000I-1700000J0D01*
G01*
X65950000Y-126500000D02*
G75*
G03X65950000Y-126500000I-1700000J0D01*
G01*
X119950000Y-126500000D02*
G75*
G03X119950000Y-126500000I-1700000J0D01*
G01*
M02*
