M48
;DRILL file {KiCad 4.0.1-stable} date 2017/02/05 23:12:08
;FORMAT={-:-/ absolute / metric / decimal}
FMAT,2
METRIC,TZ
T1C0.400
T2C0.800
T3C0.889
T4C1.499
T5C1.800
T6C2.500
%
G90
G05
M71
T1
X93.Y-36.5
X100.Y-36.5
X137.Y-40.25
X138.Y-32.
X145.Y-39.25
X161.5Y-39.25
T2
X158.Y-30.254
X158.Y-45.746
X160.54Y-30.254
X160.54Y-45.746
X163.08Y-30.254
X163.08Y-45.746
X165.62Y-30.254
X165.62Y-45.746
X168.16Y-30.254
X168.16Y-45.746
X170.7Y-30.254
X170.7Y-45.746
X173.24Y-30.254
X173.24Y-45.746
X175.78Y-30.254
X175.78Y-45.746
X178.32Y-30.254
X178.32Y-45.746
X180.86Y-30.254
X180.86Y-45.746
X183.4Y-30.254
X183.4Y-45.746
X185.94Y-30.254
X185.94Y-45.746
X188.48Y-30.254
X188.48Y-45.746
X191.02Y-30.254
X191.02Y-45.746
X193.56Y-30.254
X193.56Y-45.746
X196.1Y-30.254
X196.1Y-45.746
X198.64Y-30.254
X198.64Y-45.746
T3
X40.25Y-95.42
X40.25Y-105.58
X41.Y-71.92
X41.Y-82.08
X42.Y-128.92
X42.Y-139.08
X46.Y-90.92
X46.Y-101.08
X51.Y-54.92
X51.Y-65.08
X55.Y-109.92
X55.Y-120.08
X60.Y-71.92
X60.Y-82.08
X65.Y-90.92
X65.Y-101.08
X70.Y-54.92
X70.Y-65.08
X70.Y-128.92
X70.Y-139.08
X74.Y-109.92
X74.Y-120.08
X79.Y-71.92
X79.Y-82.08
X84.Y-90.92
X84.Y-101.08
X89.Y-54.92
X89.Y-65.08
X93.Y-109.92
X93.Y-120.08
X93.Y-128.92
X93.Y-139.08
X98.Y-71.92
X98.Y-82.08
X103.Y-90.92
X103.Y-101.08
X108.Y-54.92
X108.Y-65.08
X112.Y-109.92
X112.Y-120.08
X112.Y-128.92
X112.Y-139.08
X117.Y-71.92
X117.Y-82.08
X122.Y-90.92
X122.Y-101.08
X127.Y-54.92
X127.Y-65.08
X131.Y-109.92
X131.Y-120.08
X131.Y-128.92
X131.Y-139.08
X136.Y-71.92
X136.Y-82.08
X141.Y-90.92
X141.Y-101.08
X145.Y-54.92
X145.Y-65.08
X151.Y-128.92
X151.Y-139.08
X155.Y-71.92
X155.Y-82.08
X158.Y-109.92
X158.Y-120.08
X162.Y-90.92
X162.Y-101.08
X165.Y-54.92
X165.Y-65.08
X171.Y-128.92
X171.Y-139.08
X176.Y-71.92
X176.Y-82.08
X184.Y-56.92
X184.Y-67.08
X184.Y-109.92
X184.Y-120.08
T4
X41.94Y-114.46
X46.69Y-76.46
X46.69Y-133.46
X48.29Y-111.92
X51.44Y-95.46
X53.04Y-73.92
X53.04Y-130.92
X56.19Y-57.46
X57.79Y-92.92
X60.94Y-114.46
X62.54Y-54.92
X65.69Y-76.46
X67.29Y-111.92
X70.44Y-95.46
X72.04Y-73.92
X75.19Y-57.46
X75.19Y-133.46
X76.79Y-92.92
X79.94Y-114.46
X81.54Y-54.92
X81.54Y-130.92
X84.69Y-76.46
X86.29Y-111.92
X89.44Y-95.46
X91.04Y-73.92
X94.19Y-57.46
X95.79Y-92.92
X98.94Y-114.46
X98.94Y-133.46
X100.54Y-54.92
X103.69Y-76.46
X105.29Y-111.92
X105.29Y-130.92
X108.44Y-95.46
X110.04Y-73.92
X113.19Y-57.46
X114.79Y-92.92
X117.94Y-114.46
X117.94Y-133.46
X119.54Y-54.92
X122.69Y-76.46
X124.29Y-111.92
X124.29Y-130.92
X127.44Y-95.46
X129.04Y-73.92
X132.19Y-57.46
X133.79Y-92.92
X136.94Y-114.46
X136.94Y-133.46
X138.54Y-54.92
X141.69Y-76.46
X143.29Y-111.92
X143.29Y-130.92
X146.44Y-95.46
X148.04Y-73.92
X151.19Y-57.46
X152.79Y-92.92
X155.94Y-133.46
X157.54Y-54.92
X160.69Y-76.46
X162.29Y-130.92
X163.065Y-114.46
X167.04Y-73.92
X169.415Y-111.92
X170.19Y-57.46
X176.54Y-54.92
X177.315Y-95.46
X182.065Y-133.46
X183.665Y-92.92
X184.44Y-76.46
X188.415Y-130.92
X189.19Y-57.46
X189.19Y-114.46
X190.79Y-73.92
X195.54Y-54.92
X195.54Y-111.92
T5
X59.9Y-39.
X64.1Y-30.5
X64.1Y-33.5
X64.1Y-37.5
T6
X38.75Y-31.5
X39.Y-142.75
X44.25Y-60.75
X44.25Y-107.5
X58.5Y-44.5
X64.25Y-126.5
X64.75Y-142.75
X67.5Y-69.5
X69.Y-88.5
X81.5Y-107.5
X93.Y-142.75
X100.Y-31.5
X100.Y-44.5
X105.75Y-69.5
X109.25Y-88.5
X118.25Y-126.5
X118.75Y-107.5
X133.Y-31.5
X133.Y-44.5
X142.5Y-69.5
X150.Y-142.75
X151.Y-107.5
X156.75Y-88.5
X179.75Y-69.5
X191.5Y-88.5
X191.75Y-107.5
X196.5Y-39.
X199.Y-142.75
T0
M30
