M48
;DRILL file {KiCad 4.0.1-stable} date 2017/01/31 23:07:53
;FORMAT={-:-/ absolute / metric / decimal}
FMAT,2
METRIC,TZ
T1C0.400
T2C0.800
T3C0.889
T4C1.300
T5C1.499
T6C2.000
%
G90
G05
M71
T1
X93.Y-37.
X100.Y-37.
X137.Y-41.
X138.Y-32.
X145.Y-41.
X161.Y-41.5
T2
X158.Y-30.254
X158.Y-45.746
X160.54Y-30.254
X160.54Y-45.746
X163.08Y-30.254
X163.08Y-45.746
X165.62Y-30.254
X165.62Y-45.746
X168.16Y-30.254
X168.16Y-45.746
X170.7Y-30.254
X170.7Y-45.746
X173.24Y-30.254
X173.24Y-45.746
X175.78Y-30.254
X175.78Y-45.746
X178.32Y-30.254
X178.32Y-45.746
X180.86Y-30.254
X180.86Y-45.746
X183.4Y-30.254
X183.4Y-45.746
X185.94Y-30.254
X185.94Y-45.746
X188.48Y-30.254
X188.48Y-45.746
X191.02Y-30.254
X191.02Y-45.746
X193.56Y-30.254
X193.56Y-45.746
X196.1Y-30.254
X196.1Y-45.746
X198.64Y-30.254
X198.64Y-45.746
T3
X41.Y-71.92
X41.Y-82.08
X42.Y-95.42
X42.Y-105.58
X42.Y-128.92
X42.Y-139.08
X46.Y-90.92
X46.Y-101.08
X51.Y-54.92
X51.Y-65.08
X55.Y-109.92
X55.Y-120.08
X60.Y-71.92
X60.Y-82.08
X65.Y-90.92
X65.Y-101.08
X70.Y-54.92
X70.Y-65.08
X70.Y-128.92
X70.Y-139.08
X74.Y-109.92
X74.Y-120.08
X79.Y-71.92
X79.Y-82.08
X84.Y-90.92
X84.Y-101.08
X89.Y-54.92
X89.Y-65.08
X93.Y-109.92
X93.Y-120.08
X93.Y-128.92
X93.Y-139.08
X98.Y-71.92
X98.Y-82.08
X103.Y-90.92
X103.Y-101.08
X108.Y-54.92
X108.Y-65.08
X112.Y-109.92
X112.Y-120.08
X112.Y-128.92
X112.Y-139.08
X117.Y-71.92
X117.Y-82.08
X122.Y-90.92
X122.Y-101.08
X127.Y-54.92
X127.Y-65.08
X131.Y-109.92
X131.Y-120.08
X131.Y-128.92
X131.Y-139.08
X136.Y-71.92
X136.Y-82.08
X141.Y-90.92
X141.Y-101.08
X145.Y-54.92
X145.Y-65.08
X151.Y-128.92
X151.Y-139.08
X155.Y-71.92
X155.Y-82.08
X158.Y-109.92
X158.Y-120.08
X162.Y-90.92
X162.Y-101.08
X166.Y-54.92
X166.Y-65.08
X171.Y-128.92
X171.Y-139.08
X176.Y-71.92
X176.Y-82.08
X184.Y-109.92
X184.Y-120.08
T4
X59.7Y-38.6
X64.3Y-30.5
X64.3Y-33.5
X64.3Y-37.5
T5
X41.94Y-114.46
X46.69Y-76.46
X46.69Y-133.46
X48.29Y-111.92
X51.44Y-95.46
X53.04Y-73.92
X53.04Y-130.92
X56.19Y-57.46
X57.79Y-92.92
X60.94Y-114.46
X62.54Y-54.92
X65.69Y-76.46
X67.29Y-111.92
X70.44Y-95.46
X72.04Y-73.92
X75.19Y-57.46
X75.19Y-133.46
X76.79Y-92.92
X79.94Y-114.46
X81.54Y-54.92
X81.54Y-130.92
X84.69Y-76.46
X86.29Y-111.92
X89.44Y-95.46
X91.04Y-73.92
X94.19Y-57.46
X95.79Y-92.92
X98.94Y-114.46
X98.94Y-133.46
X100.54Y-54.92
X103.69Y-76.46
X105.29Y-111.92
X105.29Y-130.92
X108.44Y-95.46
X110.04Y-73.92
X113.19Y-57.46
X114.79Y-92.92
X117.94Y-114.46
X117.94Y-133.46
X119.54Y-54.92
X122.69Y-76.46
X124.29Y-111.92
X124.29Y-130.92
X127.44Y-95.46
X129.04Y-73.92
X132.19Y-57.46
X133.79Y-92.92
X136.94Y-114.46
X136.94Y-133.46
X138.54Y-54.92
X141.69Y-76.46
X143.29Y-111.92
X143.29Y-130.92
X146.44Y-95.46
X148.04Y-73.92
X151.19Y-57.46
X152.79Y-92.92
X155.94Y-133.46
X157.54Y-54.92
X160.69Y-76.46
X162.29Y-130.92
X163.065Y-114.46
X167.04Y-73.92
X169.415Y-111.92
X177.315Y-95.46
X179.69Y-57.46
X182.065Y-133.46
X183.665Y-92.92
X184.44Y-76.46
X186.04Y-54.92
X188.415Y-130.92
X189.19Y-114.46
X190.79Y-73.92
X195.54Y-111.92
T6
X0.Y0.
X38.Y-31.
X39.Y-143.
X46.Y-70.
X59.Y-108.
X93.Y-143.
X98.Y-108.
X101.Y-31.
X104.Y-70.
X131.Y-143.
X133.Y-31.
X137.Y-108.
X144.Y-70.
X179.Y-108.
X186.Y-70.
X200.Y-143.
T0
M30
