M48
;DRILL file {KiCad 4.0.1-stable} date 2017/01/31 23:07:53
;FORMAT={-:-/ absolute / metric / decimal}
FMAT,2
METRIC,TZ
T1C1.702
T2C3.988
%
G90
G05
M71
T1
X40.67Y-117.
X45.42Y-79.
X45.42Y-136.
X50.17Y-98.
X50.83Y-117.
X54.92Y-60.
X55.58Y-79.
X55.58Y-136.
X59.67Y-117.
X60.33Y-98.
X64.42Y-79.
X65.08Y-60.
X69.17Y-98.
X69.83Y-117.
X73.92Y-60.
X73.92Y-136.
X74.58Y-79.
X78.67Y-117.
X79.33Y-98.
X83.42Y-79.
X84.08Y-60.
X84.08Y-136.
X88.17Y-98.
X88.83Y-117.
X92.92Y-60.
X93.58Y-79.
X97.67Y-117.
X97.67Y-136.
X98.33Y-98.
X102.42Y-79.
X103.08Y-60.
X107.17Y-98.
X107.83Y-117.
X107.83Y-136.
X111.92Y-60.
X112.58Y-79.
X116.67Y-117.
X116.67Y-136.
X117.33Y-98.
X121.42Y-79.
X122.08Y-60.
X126.17Y-98.
X126.83Y-117.
X126.83Y-136.
X130.92Y-60.
X131.58Y-79.
X135.67Y-117.
X135.67Y-136.
X136.33Y-98.
X140.42Y-79.
X141.08Y-60.
X145.17Y-98.
X145.83Y-117.
X145.83Y-136.
X149.92Y-60.
X150.58Y-79.
X154.67Y-136.
X155.33Y-98.
X159.42Y-79.
X160.08Y-60.
X161.795Y-117.
X164.83Y-136.
X169.58Y-79.
X171.955Y-117.
X176.045Y-98.
X178.42Y-60.
X180.795Y-136.
X183.17Y-79.
X186.205Y-98.
X187.92Y-117.
X188.58Y-60.
X190.955Y-136.
X193.33Y-79.
X198.08Y-117.
T2
X45.75Y-117.
X50.5Y-79.
X50.5Y-136.
X55.25Y-98.
X60.Y-60.
X64.75Y-117.
X69.5Y-79.
X74.25Y-98.
X79.Y-60.
X79.Y-136.
X83.75Y-117.
X88.5Y-79.
X93.25Y-98.
X98.Y-60.
X102.75Y-117.
X102.75Y-136.
X107.5Y-79.
X112.25Y-98.
X117.Y-60.
X121.75Y-117.
X121.75Y-136.
X126.5Y-79.
X131.25Y-98.
X136.Y-60.
X140.75Y-117.
X140.75Y-136.
X145.5Y-79.
X150.25Y-98.
X155.Y-60.
X159.75Y-136.
X164.5Y-79.
X166.875Y-117.
X181.125Y-98.
X183.5Y-60.
X185.875Y-136.
X188.25Y-79.
X193.Y-117.
T0
M30
