G04 #@! TF.FileFunction,Legend,Top*
%FSLAX46Y46*%
G04 Gerber Fmt 4.6, Leading zero omitted, Abs format (unit mm)*
G04 Created by KiCad (PCBNEW 4.0.1-stable) date 2017/02/05 23:11:59*
%MOMM*%
G01*
G04 APERTURE LIST*
%ADD10C,0.100000*%
%ADD11C,0.381000*%
%ADD12C,0.150000*%
%ADD13C,0.203200*%
G04 APERTURE END LIST*
D10*
D11*
X179525000Y-129650000D02*
X181303000Y-129650000D01*
X190447000Y-129650000D02*
X192225000Y-129650000D01*
X192225000Y-129650000D02*
X192225000Y-131428000D01*
X192225000Y-140572000D02*
X192225000Y-142350000D01*
X192225000Y-142350000D02*
X190447000Y-142350000D01*
X181303000Y-142350000D02*
X179525000Y-142350000D01*
X179525000Y-142350000D02*
X179525000Y-140572000D01*
X179525000Y-131428000D02*
X179525000Y-129650000D01*
D12*
X51000000Y-56190000D02*
X51000000Y-54920000D01*
X51000000Y-63810000D02*
X51000000Y-65080000D01*
X51000000Y-63810000D02*
X51000000Y-63048000D01*
X51000000Y-63048000D02*
X52016000Y-63048000D01*
X52016000Y-63048000D02*
X52016000Y-56952000D01*
X52016000Y-56952000D02*
X51000000Y-56952000D01*
X51000000Y-56952000D02*
X51000000Y-56190000D01*
X51000000Y-56952000D02*
X49984000Y-56952000D01*
X49984000Y-56952000D02*
X49984000Y-63048000D01*
X49984000Y-63048000D02*
X51000000Y-63048000D01*
X52016000Y-62540000D02*
X49984000Y-62540000D01*
X49984000Y-62286000D02*
X52016000Y-62286000D01*
X70000000Y-56190000D02*
X70000000Y-54920000D01*
X70000000Y-63810000D02*
X70000000Y-65080000D01*
X70000000Y-63810000D02*
X70000000Y-63048000D01*
X70000000Y-63048000D02*
X71016000Y-63048000D01*
X71016000Y-63048000D02*
X71016000Y-56952000D01*
X71016000Y-56952000D02*
X70000000Y-56952000D01*
X70000000Y-56952000D02*
X70000000Y-56190000D01*
X70000000Y-56952000D02*
X68984000Y-56952000D01*
X68984000Y-56952000D02*
X68984000Y-63048000D01*
X68984000Y-63048000D02*
X70000000Y-63048000D01*
X71016000Y-62540000D02*
X68984000Y-62540000D01*
X68984000Y-62286000D02*
X71016000Y-62286000D01*
X89000000Y-56190000D02*
X89000000Y-54920000D01*
X89000000Y-63810000D02*
X89000000Y-65080000D01*
X89000000Y-63810000D02*
X89000000Y-63048000D01*
X89000000Y-63048000D02*
X90016000Y-63048000D01*
X90016000Y-63048000D02*
X90016000Y-56952000D01*
X90016000Y-56952000D02*
X89000000Y-56952000D01*
X89000000Y-56952000D02*
X89000000Y-56190000D01*
X89000000Y-56952000D02*
X87984000Y-56952000D01*
X87984000Y-56952000D02*
X87984000Y-63048000D01*
X87984000Y-63048000D02*
X89000000Y-63048000D01*
X90016000Y-62540000D02*
X87984000Y-62540000D01*
X87984000Y-62286000D02*
X90016000Y-62286000D01*
X108000000Y-56190000D02*
X108000000Y-54920000D01*
X108000000Y-63810000D02*
X108000000Y-65080000D01*
X108000000Y-63810000D02*
X108000000Y-63048000D01*
X108000000Y-63048000D02*
X109016000Y-63048000D01*
X109016000Y-63048000D02*
X109016000Y-56952000D01*
X109016000Y-56952000D02*
X108000000Y-56952000D01*
X108000000Y-56952000D02*
X108000000Y-56190000D01*
X108000000Y-56952000D02*
X106984000Y-56952000D01*
X106984000Y-56952000D02*
X106984000Y-63048000D01*
X106984000Y-63048000D02*
X108000000Y-63048000D01*
X109016000Y-62540000D02*
X106984000Y-62540000D01*
X106984000Y-62286000D02*
X109016000Y-62286000D01*
X127000000Y-56190000D02*
X127000000Y-54920000D01*
X127000000Y-63810000D02*
X127000000Y-65080000D01*
X127000000Y-63810000D02*
X127000000Y-63048000D01*
X127000000Y-63048000D02*
X128016000Y-63048000D01*
X128016000Y-63048000D02*
X128016000Y-56952000D01*
X128016000Y-56952000D02*
X127000000Y-56952000D01*
X127000000Y-56952000D02*
X127000000Y-56190000D01*
X127000000Y-56952000D02*
X125984000Y-56952000D01*
X125984000Y-56952000D02*
X125984000Y-63048000D01*
X125984000Y-63048000D02*
X127000000Y-63048000D01*
X128016000Y-62540000D02*
X125984000Y-62540000D01*
X125984000Y-62286000D02*
X128016000Y-62286000D01*
X145000000Y-56190000D02*
X145000000Y-54920000D01*
X145000000Y-63810000D02*
X145000000Y-65080000D01*
X145000000Y-63810000D02*
X145000000Y-63048000D01*
X145000000Y-63048000D02*
X146016000Y-63048000D01*
X146016000Y-63048000D02*
X146016000Y-56952000D01*
X146016000Y-56952000D02*
X145000000Y-56952000D01*
X145000000Y-56952000D02*
X145000000Y-56190000D01*
X145000000Y-56952000D02*
X143984000Y-56952000D01*
X143984000Y-56952000D02*
X143984000Y-63048000D01*
X143984000Y-63048000D02*
X145000000Y-63048000D01*
X146016000Y-62540000D02*
X143984000Y-62540000D01*
X143984000Y-62286000D02*
X146016000Y-62286000D01*
X165000000Y-56190000D02*
X165000000Y-54920000D01*
X165000000Y-63810000D02*
X165000000Y-65080000D01*
X165000000Y-63810000D02*
X165000000Y-63048000D01*
X165000000Y-63048000D02*
X166016000Y-63048000D01*
X166016000Y-63048000D02*
X166016000Y-56952000D01*
X166016000Y-56952000D02*
X165000000Y-56952000D01*
X165000000Y-56952000D02*
X165000000Y-56190000D01*
X165000000Y-56952000D02*
X163984000Y-56952000D01*
X163984000Y-56952000D02*
X163984000Y-63048000D01*
X163984000Y-63048000D02*
X165000000Y-63048000D01*
X166016000Y-62540000D02*
X163984000Y-62540000D01*
X163984000Y-62286000D02*
X166016000Y-62286000D01*
X41000000Y-73190000D02*
X41000000Y-71920000D01*
X41000000Y-80810000D02*
X41000000Y-82080000D01*
X41000000Y-80810000D02*
X41000000Y-80048000D01*
X41000000Y-80048000D02*
X42016000Y-80048000D01*
X42016000Y-80048000D02*
X42016000Y-73952000D01*
X42016000Y-73952000D02*
X41000000Y-73952000D01*
X41000000Y-73952000D02*
X41000000Y-73190000D01*
X41000000Y-73952000D02*
X39984000Y-73952000D01*
X39984000Y-73952000D02*
X39984000Y-80048000D01*
X39984000Y-80048000D02*
X41000000Y-80048000D01*
X42016000Y-79540000D02*
X39984000Y-79540000D01*
X39984000Y-79286000D02*
X42016000Y-79286000D01*
X60000000Y-73190000D02*
X60000000Y-71920000D01*
X60000000Y-80810000D02*
X60000000Y-82080000D01*
X60000000Y-80810000D02*
X60000000Y-80048000D01*
X60000000Y-80048000D02*
X61016000Y-80048000D01*
X61016000Y-80048000D02*
X61016000Y-73952000D01*
X61016000Y-73952000D02*
X60000000Y-73952000D01*
X60000000Y-73952000D02*
X60000000Y-73190000D01*
X60000000Y-73952000D02*
X58984000Y-73952000D01*
X58984000Y-73952000D02*
X58984000Y-80048000D01*
X58984000Y-80048000D02*
X60000000Y-80048000D01*
X61016000Y-79540000D02*
X58984000Y-79540000D01*
X58984000Y-79286000D02*
X61016000Y-79286000D01*
X79000000Y-73190000D02*
X79000000Y-71920000D01*
X79000000Y-80810000D02*
X79000000Y-82080000D01*
X79000000Y-80810000D02*
X79000000Y-80048000D01*
X79000000Y-80048000D02*
X80016000Y-80048000D01*
X80016000Y-80048000D02*
X80016000Y-73952000D01*
X80016000Y-73952000D02*
X79000000Y-73952000D01*
X79000000Y-73952000D02*
X79000000Y-73190000D01*
X79000000Y-73952000D02*
X77984000Y-73952000D01*
X77984000Y-73952000D02*
X77984000Y-80048000D01*
X77984000Y-80048000D02*
X79000000Y-80048000D01*
X80016000Y-79540000D02*
X77984000Y-79540000D01*
X77984000Y-79286000D02*
X80016000Y-79286000D01*
X98000000Y-73190000D02*
X98000000Y-71920000D01*
X98000000Y-80810000D02*
X98000000Y-82080000D01*
X98000000Y-80810000D02*
X98000000Y-80048000D01*
X98000000Y-80048000D02*
X99016000Y-80048000D01*
X99016000Y-80048000D02*
X99016000Y-73952000D01*
X99016000Y-73952000D02*
X98000000Y-73952000D01*
X98000000Y-73952000D02*
X98000000Y-73190000D01*
X98000000Y-73952000D02*
X96984000Y-73952000D01*
X96984000Y-73952000D02*
X96984000Y-80048000D01*
X96984000Y-80048000D02*
X98000000Y-80048000D01*
X99016000Y-79540000D02*
X96984000Y-79540000D01*
X96984000Y-79286000D02*
X99016000Y-79286000D01*
X117000000Y-73190000D02*
X117000000Y-71920000D01*
X117000000Y-80810000D02*
X117000000Y-82080000D01*
X117000000Y-80810000D02*
X117000000Y-80048000D01*
X117000000Y-80048000D02*
X118016000Y-80048000D01*
X118016000Y-80048000D02*
X118016000Y-73952000D01*
X118016000Y-73952000D02*
X117000000Y-73952000D01*
X117000000Y-73952000D02*
X117000000Y-73190000D01*
X117000000Y-73952000D02*
X115984000Y-73952000D01*
X115984000Y-73952000D02*
X115984000Y-80048000D01*
X115984000Y-80048000D02*
X117000000Y-80048000D01*
X118016000Y-79540000D02*
X115984000Y-79540000D01*
X115984000Y-79286000D02*
X118016000Y-79286000D01*
X136000000Y-73190000D02*
X136000000Y-71920000D01*
X136000000Y-80810000D02*
X136000000Y-82080000D01*
X136000000Y-80810000D02*
X136000000Y-80048000D01*
X136000000Y-80048000D02*
X137016000Y-80048000D01*
X137016000Y-80048000D02*
X137016000Y-73952000D01*
X137016000Y-73952000D02*
X136000000Y-73952000D01*
X136000000Y-73952000D02*
X136000000Y-73190000D01*
X136000000Y-73952000D02*
X134984000Y-73952000D01*
X134984000Y-73952000D02*
X134984000Y-80048000D01*
X134984000Y-80048000D02*
X136000000Y-80048000D01*
X137016000Y-79540000D02*
X134984000Y-79540000D01*
X134984000Y-79286000D02*
X137016000Y-79286000D01*
X155000000Y-73190000D02*
X155000000Y-71920000D01*
X155000000Y-80810000D02*
X155000000Y-82080000D01*
X155000000Y-80810000D02*
X155000000Y-80048000D01*
X155000000Y-80048000D02*
X156016000Y-80048000D01*
X156016000Y-80048000D02*
X156016000Y-73952000D01*
X156016000Y-73952000D02*
X155000000Y-73952000D01*
X155000000Y-73952000D02*
X155000000Y-73190000D01*
X155000000Y-73952000D02*
X153984000Y-73952000D01*
X153984000Y-73952000D02*
X153984000Y-80048000D01*
X153984000Y-80048000D02*
X155000000Y-80048000D01*
X156016000Y-79540000D02*
X153984000Y-79540000D01*
X153984000Y-79286000D02*
X156016000Y-79286000D01*
X176000000Y-73190000D02*
X176000000Y-71920000D01*
X176000000Y-80810000D02*
X176000000Y-82080000D01*
X176000000Y-80810000D02*
X176000000Y-80048000D01*
X176000000Y-80048000D02*
X177016000Y-80048000D01*
X177016000Y-80048000D02*
X177016000Y-73952000D01*
X177016000Y-73952000D02*
X176000000Y-73952000D01*
X176000000Y-73952000D02*
X176000000Y-73190000D01*
X176000000Y-73952000D02*
X174984000Y-73952000D01*
X174984000Y-73952000D02*
X174984000Y-80048000D01*
X174984000Y-80048000D02*
X176000000Y-80048000D01*
X177016000Y-79540000D02*
X174984000Y-79540000D01*
X174984000Y-79286000D02*
X177016000Y-79286000D01*
X46000000Y-92190000D02*
X46000000Y-90920000D01*
X46000000Y-99810000D02*
X46000000Y-101080000D01*
X46000000Y-99810000D02*
X46000000Y-99048000D01*
X46000000Y-99048000D02*
X47016000Y-99048000D01*
X47016000Y-99048000D02*
X47016000Y-92952000D01*
X47016000Y-92952000D02*
X46000000Y-92952000D01*
X46000000Y-92952000D02*
X46000000Y-92190000D01*
X46000000Y-92952000D02*
X44984000Y-92952000D01*
X44984000Y-92952000D02*
X44984000Y-99048000D01*
X44984000Y-99048000D02*
X46000000Y-99048000D01*
X47016000Y-98540000D02*
X44984000Y-98540000D01*
X44984000Y-98286000D02*
X47016000Y-98286000D01*
X65000000Y-92190000D02*
X65000000Y-90920000D01*
X65000000Y-99810000D02*
X65000000Y-101080000D01*
X65000000Y-99810000D02*
X65000000Y-99048000D01*
X65000000Y-99048000D02*
X66016000Y-99048000D01*
X66016000Y-99048000D02*
X66016000Y-92952000D01*
X66016000Y-92952000D02*
X65000000Y-92952000D01*
X65000000Y-92952000D02*
X65000000Y-92190000D01*
X65000000Y-92952000D02*
X63984000Y-92952000D01*
X63984000Y-92952000D02*
X63984000Y-99048000D01*
X63984000Y-99048000D02*
X65000000Y-99048000D01*
X66016000Y-98540000D02*
X63984000Y-98540000D01*
X63984000Y-98286000D02*
X66016000Y-98286000D01*
X84000000Y-92190000D02*
X84000000Y-90920000D01*
X84000000Y-99810000D02*
X84000000Y-101080000D01*
X84000000Y-99810000D02*
X84000000Y-99048000D01*
X84000000Y-99048000D02*
X85016000Y-99048000D01*
X85016000Y-99048000D02*
X85016000Y-92952000D01*
X85016000Y-92952000D02*
X84000000Y-92952000D01*
X84000000Y-92952000D02*
X84000000Y-92190000D01*
X84000000Y-92952000D02*
X82984000Y-92952000D01*
X82984000Y-92952000D02*
X82984000Y-99048000D01*
X82984000Y-99048000D02*
X84000000Y-99048000D01*
X85016000Y-98540000D02*
X82984000Y-98540000D01*
X82984000Y-98286000D02*
X85016000Y-98286000D01*
X103000000Y-92190000D02*
X103000000Y-90920000D01*
X103000000Y-99810000D02*
X103000000Y-101080000D01*
X103000000Y-99810000D02*
X103000000Y-99048000D01*
X103000000Y-99048000D02*
X104016000Y-99048000D01*
X104016000Y-99048000D02*
X104016000Y-92952000D01*
X104016000Y-92952000D02*
X103000000Y-92952000D01*
X103000000Y-92952000D02*
X103000000Y-92190000D01*
X103000000Y-92952000D02*
X101984000Y-92952000D01*
X101984000Y-92952000D02*
X101984000Y-99048000D01*
X101984000Y-99048000D02*
X103000000Y-99048000D01*
X104016000Y-98540000D02*
X101984000Y-98540000D01*
X101984000Y-98286000D02*
X104016000Y-98286000D01*
X122000000Y-92190000D02*
X122000000Y-90920000D01*
X122000000Y-99810000D02*
X122000000Y-101080000D01*
X122000000Y-99810000D02*
X122000000Y-99048000D01*
X122000000Y-99048000D02*
X123016000Y-99048000D01*
X123016000Y-99048000D02*
X123016000Y-92952000D01*
X123016000Y-92952000D02*
X122000000Y-92952000D01*
X122000000Y-92952000D02*
X122000000Y-92190000D01*
X122000000Y-92952000D02*
X120984000Y-92952000D01*
X120984000Y-92952000D02*
X120984000Y-99048000D01*
X120984000Y-99048000D02*
X122000000Y-99048000D01*
X123016000Y-98540000D02*
X120984000Y-98540000D01*
X120984000Y-98286000D02*
X123016000Y-98286000D01*
X141000000Y-92190000D02*
X141000000Y-90920000D01*
X141000000Y-99810000D02*
X141000000Y-101080000D01*
X141000000Y-99810000D02*
X141000000Y-99048000D01*
X141000000Y-99048000D02*
X142016000Y-99048000D01*
X142016000Y-99048000D02*
X142016000Y-92952000D01*
X142016000Y-92952000D02*
X141000000Y-92952000D01*
X141000000Y-92952000D02*
X141000000Y-92190000D01*
X141000000Y-92952000D02*
X139984000Y-92952000D01*
X139984000Y-92952000D02*
X139984000Y-99048000D01*
X139984000Y-99048000D02*
X141000000Y-99048000D01*
X142016000Y-98540000D02*
X139984000Y-98540000D01*
X139984000Y-98286000D02*
X142016000Y-98286000D01*
X162000000Y-92190000D02*
X162000000Y-90920000D01*
X162000000Y-99810000D02*
X162000000Y-101080000D01*
X162000000Y-99810000D02*
X162000000Y-99048000D01*
X162000000Y-99048000D02*
X163016000Y-99048000D01*
X163016000Y-99048000D02*
X163016000Y-92952000D01*
X163016000Y-92952000D02*
X162000000Y-92952000D01*
X162000000Y-92952000D02*
X162000000Y-92190000D01*
X162000000Y-92952000D02*
X160984000Y-92952000D01*
X160984000Y-92952000D02*
X160984000Y-99048000D01*
X160984000Y-99048000D02*
X162000000Y-99048000D01*
X163016000Y-98540000D02*
X160984000Y-98540000D01*
X160984000Y-98286000D02*
X163016000Y-98286000D01*
X40250000Y-104310000D02*
X40250000Y-105580000D01*
X40250000Y-96690000D02*
X40250000Y-95420000D01*
X40250000Y-96690000D02*
X40250000Y-97452000D01*
X40250000Y-97452000D02*
X39234000Y-97452000D01*
X39234000Y-97452000D02*
X39234000Y-103548000D01*
X39234000Y-103548000D02*
X40250000Y-103548000D01*
X40250000Y-103548000D02*
X40250000Y-104310000D01*
X40250000Y-103548000D02*
X41266000Y-103548000D01*
X41266000Y-103548000D02*
X41266000Y-97452000D01*
X41266000Y-97452000D02*
X40250000Y-97452000D01*
X39234000Y-97960000D02*
X41266000Y-97960000D01*
X41266000Y-98214000D02*
X39234000Y-98214000D01*
X55000000Y-111190000D02*
X55000000Y-109920000D01*
X55000000Y-118810000D02*
X55000000Y-120080000D01*
X55000000Y-118810000D02*
X55000000Y-118048000D01*
X55000000Y-118048000D02*
X56016000Y-118048000D01*
X56016000Y-118048000D02*
X56016000Y-111952000D01*
X56016000Y-111952000D02*
X55000000Y-111952000D01*
X55000000Y-111952000D02*
X55000000Y-111190000D01*
X55000000Y-111952000D02*
X53984000Y-111952000D01*
X53984000Y-111952000D02*
X53984000Y-118048000D01*
X53984000Y-118048000D02*
X55000000Y-118048000D01*
X56016000Y-117540000D02*
X53984000Y-117540000D01*
X53984000Y-117286000D02*
X56016000Y-117286000D01*
X74000000Y-111190000D02*
X74000000Y-109920000D01*
X74000000Y-118810000D02*
X74000000Y-120080000D01*
X74000000Y-118810000D02*
X74000000Y-118048000D01*
X74000000Y-118048000D02*
X75016000Y-118048000D01*
X75016000Y-118048000D02*
X75016000Y-111952000D01*
X75016000Y-111952000D02*
X74000000Y-111952000D01*
X74000000Y-111952000D02*
X74000000Y-111190000D01*
X74000000Y-111952000D02*
X72984000Y-111952000D01*
X72984000Y-111952000D02*
X72984000Y-118048000D01*
X72984000Y-118048000D02*
X74000000Y-118048000D01*
X75016000Y-117540000D02*
X72984000Y-117540000D01*
X72984000Y-117286000D02*
X75016000Y-117286000D01*
X93000000Y-111190000D02*
X93000000Y-109920000D01*
X93000000Y-118810000D02*
X93000000Y-120080000D01*
X93000000Y-118810000D02*
X93000000Y-118048000D01*
X93000000Y-118048000D02*
X94016000Y-118048000D01*
X94016000Y-118048000D02*
X94016000Y-111952000D01*
X94016000Y-111952000D02*
X93000000Y-111952000D01*
X93000000Y-111952000D02*
X93000000Y-111190000D01*
X93000000Y-111952000D02*
X91984000Y-111952000D01*
X91984000Y-111952000D02*
X91984000Y-118048000D01*
X91984000Y-118048000D02*
X93000000Y-118048000D01*
X94016000Y-117540000D02*
X91984000Y-117540000D01*
X91984000Y-117286000D02*
X94016000Y-117286000D01*
X112000000Y-111190000D02*
X112000000Y-109920000D01*
X112000000Y-118810000D02*
X112000000Y-120080000D01*
X112000000Y-118810000D02*
X112000000Y-118048000D01*
X112000000Y-118048000D02*
X113016000Y-118048000D01*
X113016000Y-118048000D02*
X113016000Y-111952000D01*
X113016000Y-111952000D02*
X112000000Y-111952000D01*
X112000000Y-111952000D02*
X112000000Y-111190000D01*
X112000000Y-111952000D02*
X110984000Y-111952000D01*
X110984000Y-111952000D02*
X110984000Y-118048000D01*
X110984000Y-118048000D02*
X112000000Y-118048000D01*
X113016000Y-117540000D02*
X110984000Y-117540000D01*
X110984000Y-117286000D02*
X113016000Y-117286000D01*
X131000000Y-111190000D02*
X131000000Y-109920000D01*
X131000000Y-118810000D02*
X131000000Y-120080000D01*
X131000000Y-118810000D02*
X131000000Y-118048000D01*
X131000000Y-118048000D02*
X132016000Y-118048000D01*
X132016000Y-118048000D02*
X132016000Y-111952000D01*
X132016000Y-111952000D02*
X131000000Y-111952000D01*
X131000000Y-111952000D02*
X131000000Y-111190000D01*
X131000000Y-111952000D02*
X129984000Y-111952000D01*
X129984000Y-111952000D02*
X129984000Y-118048000D01*
X129984000Y-118048000D02*
X131000000Y-118048000D01*
X132016000Y-117540000D02*
X129984000Y-117540000D01*
X129984000Y-117286000D02*
X132016000Y-117286000D01*
X158000000Y-111190000D02*
X158000000Y-109920000D01*
X158000000Y-118810000D02*
X158000000Y-120080000D01*
X158000000Y-118810000D02*
X158000000Y-118048000D01*
X158000000Y-118048000D02*
X159016000Y-118048000D01*
X159016000Y-118048000D02*
X159016000Y-111952000D01*
X159016000Y-111952000D02*
X158000000Y-111952000D01*
X158000000Y-111952000D02*
X158000000Y-111190000D01*
X158000000Y-111952000D02*
X156984000Y-111952000D01*
X156984000Y-111952000D02*
X156984000Y-118048000D01*
X156984000Y-118048000D02*
X158000000Y-118048000D01*
X159016000Y-117540000D02*
X156984000Y-117540000D01*
X156984000Y-117286000D02*
X159016000Y-117286000D01*
X184000000Y-111190000D02*
X184000000Y-109920000D01*
X184000000Y-118810000D02*
X184000000Y-120080000D01*
X184000000Y-118810000D02*
X184000000Y-118048000D01*
X184000000Y-118048000D02*
X185016000Y-118048000D01*
X185016000Y-118048000D02*
X185016000Y-111952000D01*
X185016000Y-111952000D02*
X184000000Y-111952000D01*
X184000000Y-111952000D02*
X184000000Y-111190000D01*
X184000000Y-111952000D02*
X182984000Y-111952000D01*
X182984000Y-111952000D02*
X182984000Y-118048000D01*
X182984000Y-118048000D02*
X184000000Y-118048000D01*
X185016000Y-117540000D02*
X182984000Y-117540000D01*
X182984000Y-117286000D02*
X185016000Y-117286000D01*
X42000000Y-130190000D02*
X42000000Y-128920000D01*
X42000000Y-137810000D02*
X42000000Y-139080000D01*
X42000000Y-137810000D02*
X42000000Y-137048000D01*
X42000000Y-137048000D02*
X43016000Y-137048000D01*
X43016000Y-137048000D02*
X43016000Y-130952000D01*
X43016000Y-130952000D02*
X42000000Y-130952000D01*
X42000000Y-130952000D02*
X42000000Y-130190000D01*
X42000000Y-130952000D02*
X40984000Y-130952000D01*
X40984000Y-130952000D02*
X40984000Y-137048000D01*
X40984000Y-137048000D02*
X42000000Y-137048000D01*
X43016000Y-136540000D02*
X40984000Y-136540000D01*
X40984000Y-136286000D02*
X43016000Y-136286000D01*
X70000000Y-130190000D02*
X70000000Y-128920000D01*
X70000000Y-137810000D02*
X70000000Y-139080000D01*
X70000000Y-137810000D02*
X70000000Y-137048000D01*
X70000000Y-137048000D02*
X71016000Y-137048000D01*
X71016000Y-137048000D02*
X71016000Y-130952000D01*
X71016000Y-130952000D02*
X70000000Y-130952000D01*
X70000000Y-130952000D02*
X70000000Y-130190000D01*
X70000000Y-130952000D02*
X68984000Y-130952000D01*
X68984000Y-130952000D02*
X68984000Y-137048000D01*
X68984000Y-137048000D02*
X70000000Y-137048000D01*
X71016000Y-136540000D02*
X68984000Y-136540000D01*
X68984000Y-136286000D02*
X71016000Y-136286000D01*
X112000000Y-130190000D02*
X112000000Y-128920000D01*
X112000000Y-137810000D02*
X112000000Y-139080000D01*
X112000000Y-137810000D02*
X112000000Y-137048000D01*
X112000000Y-137048000D02*
X113016000Y-137048000D01*
X113016000Y-137048000D02*
X113016000Y-130952000D01*
X113016000Y-130952000D02*
X112000000Y-130952000D01*
X112000000Y-130952000D02*
X112000000Y-130190000D01*
X112000000Y-130952000D02*
X110984000Y-130952000D01*
X110984000Y-130952000D02*
X110984000Y-137048000D01*
X110984000Y-137048000D02*
X112000000Y-137048000D01*
X113016000Y-136540000D02*
X110984000Y-136540000D01*
X110984000Y-136286000D02*
X113016000Y-136286000D01*
D11*
X53650000Y-53650000D02*
X55428000Y-53650000D01*
X64572000Y-53650000D02*
X66350000Y-53650000D01*
X66350000Y-53650000D02*
X66350000Y-55428000D01*
X66350000Y-64572000D02*
X66350000Y-66350000D01*
X66350000Y-66350000D02*
X64572000Y-66350000D01*
X55428000Y-66350000D02*
X53650000Y-66350000D01*
X53650000Y-66350000D02*
X53650000Y-64572000D01*
X53650000Y-55428000D02*
X53650000Y-53650000D01*
X72650000Y-53650000D02*
X74428000Y-53650000D01*
X83572000Y-53650000D02*
X85350000Y-53650000D01*
X85350000Y-53650000D02*
X85350000Y-55428000D01*
X85350000Y-64572000D02*
X85350000Y-66350000D01*
X85350000Y-66350000D02*
X83572000Y-66350000D01*
X74428000Y-66350000D02*
X72650000Y-66350000D01*
X72650000Y-66350000D02*
X72650000Y-64572000D01*
X72650000Y-55428000D02*
X72650000Y-53650000D01*
X91650000Y-53650000D02*
X93428000Y-53650000D01*
X102572000Y-53650000D02*
X104350000Y-53650000D01*
X104350000Y-53650000D02*
X104350000Y-55428000D01*
X104350000Y-64572000D02*
X104350000Y-66350000D01*
X104350000Y-66350000D02*
X102572000Y-66350000D01*
X93428000Y-66350000D02*
X91650000Y-66350000D01*
X91650000Y-66350000D02*
X91650000Y-64572000D01*
X91650000Y-55428000D02*
X91650000Y-53650000D01*
X110650000Y-53650000D02*
X112428000Y-53650000D01*
X121572000Y-53650000D02*
X123350000Y-53650000D01*
X123350000Y-53650000D02*
X123350000Y-55428000D01*
X123350000Y-64572000D02*
X123350000Y-66350000D01*
X123350000Y-66350000D02*
X121572000Y-66350000D01*
X112428000Y-66350000D02*
X110650000Y-66350000D01*
X110650000Y-66350000D02*
X110650000Y-64572000D01*
X110650000Y-55428000D02*
X110650000Y-53650000D01*
X129650000Y-53650000D02*
X131428000Y-53650000D01*
X140572000Y-53650000D02*
X142350000Y-53650000D01*
X142350000Y-53650000D02*
X142350000Y-55428000D01*
X142350000Y-64572000D02*
X142350000Y-66350000D01*
X142350000Y-66350000D02*
X140572000Y-66350000D01*
X131428000Y-66350000D02*
X129650000Y-66350000D01*
X129650000Y-66350000D02*
X129650000Y-64572000D01*
X129650000Y-55428000D02*
X129650000Y-53650000D01*
X148650000Y-53650000D02*
X150428000Y-53650000D01*
X159572000Y-53650000D02*
X161350000Y-53650000D01*
X161350000Y-53650000D02*
X161350000Y-55428000D01*
X161350000Y-64572000D02*
X161350000Y-66350000D01*
X161350000Y-66350000D02*
X159572000Y-66350000D01*
X150428000Y-66350000D02*
X148650000Y-66350000D01*
X148650000Y-66350000D02*
X148650000Y-64572000D01*
X148650000Y-55428000D02*
X148650000Y-53650000D01*
X44150000Y-72650000D02*
X45928000Y-72650000D01*
X55072000Y-72650000D02*
X56850000Y-72650000D01*
X56850000Y-72650000D02*
X56850000Y-74428000D01*
X56850000Y-83572000D02*
X56850000Y-85350000D01*
X56850000Y-85350000D02*
X55072000Y-85350000D01*
X45928000Y-85350000D02*
X44150000Y-85350000D01*
X44150000Y-85350000D02*
X44150000Y-83572000D01*
X44150000Y-74428000D02*
X44150000Y-72650000D01*
X63150000Y-72650000D02*
X64928000Y-72650000D01*
X74072000Y-72650000D02*
X75850000Y-72650000D01*
X75850000Y-72650000D02*
X75850000Y-74428000D01*
X75850000Y-83572000D02*
X75850000Y-85350000D01*
X75850000Y-85350000D02*
X74072000Y-85350000D01*
X64928000Y-85350000D02*
X63150000Y-85350000D01*
X63150000Y-85350000D02*
X63150000Y-83572000D01*
X63150000Y-74428000D02*
X63150000Y-72650000D01*
X82150000Y-72650000D02*
X83928000Y-72650000D01*
X93072000Y-72650000D02*
X94850000Y-72650000D01*
X94850000Y-72650000D02*
X94850000Y-74428000D01*
X94850000Y-83572000D02*
X94850000Y-85350000D01*
X94850000Y-85350000D02*
X93072000Y-85350000D01*
X83928000Y-85350000D02*
X82150000Y-85350000D01*
X82150000Y-85350000D02*
X82150000Y-83572000D01*
X82150000Y-74428000D02*
X82150000Y-72650000D01*
X101150000Y-72650000D02*
X102928000Y-72650000D01*
X112072000Y-72650000D02*
X113850000Y-72650000D01*
X113850000Y-72650000D02*
X113850000Y-74428000D01*
X113850000Y-83572000D02*
X113850000Y-85350000D01*
X113850000Y-85350000D02*
X112072000Y-85350000D01*
X102928000Y-85350000D02*
X101150000Y-85350000D01*
X101150000Y-85350000D02*
X101150000Y-83572000D01*
X101150000Y-74428000D02*
X101150000Y-72650000D01*
X120150000Y-72650000D02*
X121928000Y-72650000D01*
X131072000Y-72650000D02*
X132850000Y-72650000D01*
X132850000Y-72650000D02*
X132850000Y-74428000D01*
X132850000Y-83572000D02*
X132850000Y-85350000D01*
X132850000Y-85350000D02*
X131072000Y-85350000D01*
X121928000Y-85350000D02*
X120150000Y-85350000D01*
X120150000Y-85350000D02*
X120150000Y-83572000D01*
X120150000Y-74428000D02*
X120150000Y-72650000D01*
X139150000Y-72650000D02*
X140928000Y-72650000D01*
X150072000Y-72650000D02*
X151850000Y-72650000D01*
X151850000Y-72650000D02*
X151850000Y-74428000D01*
X151850000Y-83572000D02*
X151850000Y-85350000D01*
X151850000Y-85350000D02*
X150072000Y-85350000D01*
X140928000Y-85350000D02*
X139150000Y-85350000D01*
X139150000Y-85350000D02*
X139150000Y-83572000D01*
X139150000Y-74428000D02*
X139150000Y-72650000D01*
X158150000Y-72650000D02*
X159928000Y-72650000D01*
X169072000Y-72650000D02*
X170850000Y-72650000D01*
X170850000Y-72650000D02*
X170850000Y-74428000D01*
X170850000Y-83572000D02*
X170850000Y-85350000D01*
X170850000Y-85350000D02*
X169072000Y-85350000D01*
X159928000Y-85350000D02*
X158150000Y-85350000D01*
X158150000Y-85350000D02*
X158150000Y-83572000D01*
X158150000Y-74428000D02*
X158150000Y-72650000D01*
X181900000Y-72650000D02*
X183678000Y-72650000D01*
X192822000Y-72650000D02*
X194600000Y-72650000D01*
X194600000Y-72650000D02*
X194600000Y-74428000D01*
X194600000Y-83572000D02*
X194600000Y-85350000D01*
X194600000Y-85350000D02*
X192822000Y-85350000D01*
X183678000Y-85350000D02*
X181900000Y-85350000D01*
X181900000Y-85350000D02*
X181900000Y-83572000D01*
X181900000Y-74428000D02*
X181900000Y-72650000D01*
X48900000Y-91650000D02*
X50678000Y-91650000D01*
X59822000Y-91650000D02*
X61600000Y-91650000D01*
X61600000Y-91650000D02*
X61600000Y-93428000D01*
X61600000Y-102572000D02*
X61600000Y-104350000D01*
X61600000Y-104350000D02*
X59822000Y-104350000D01*
X50678000Y-104350000D02*
X48900000Y-104350000D01*
X48900000Y-104350000D02*
X48900000Y-102572000D01*
X48900000Y-93428000D02*
X48900000Y-91650000D01*
X67900000Y-91650000D02*
X69678000Y-91650000D01*
X78822000Y-91650000D02*
X80600000Y-91650000D01*
X80600000Y-91650000D02*
X80600000Y-93428000D01*
X80600000Y-102572000D02*
X80600000Y-104350000D01*
X80600000Y-104350000D02*
X78822000Y-104350000D01*
X69678000Y-104350000D02*
X67900000Y-104350000D01*
X67900000Y-104350000D02*
X67900000Y-102572000D01*
X67900000Y-93428000D02*
X67900000Y-91650000D01*
X86900000Y-91650000D02*
X88678000Y-91650000D01*
X97822000Y-91650000D02*
X99600000Y-91650000D01*
X99600000Y-91650000D02*
X99600000Y-93428000D01*
X99600000Y-102572000D02*
X99600000Y-104350000D01*
X99600000Y-104350000D02*
X97822000Y-104350000D01*
X88678000Y-104350000D02*
X86900000Y-104350000D01*
X86900000Y-104350000D02*
X86900000Y-102572000D01*
X86900000Y-93428000D02*
X86900000Y-91650000D01*
X105900000Y-91650000D02*
X107678000Y-91650000D01*
X116822000Y-91650000D02*
X118600000Y-91650000D01*
X118600000Y-91650000D02*
X118600000Y-93428000D01*
X118600000Y-102572000D02*
X118600000Y-104350000D01*
X118600000Y-104350000D02*
X116822000Y-104350000D01*
X107678000Y-104350000D02*
X105900000Y-104350000D01*
X105900000Y-104350000D02*
X105900000Y-102572000D01*
X105900000Y-93428000D02*
X105900000Y-91650000D01*
X124900000Y-91650000D02*
X126678000Y-91650000D01*
X135822000Y-91650000D02*
X137600000Y-91650000D01*
X137600000Y-91650000D02*
X137600000Y-93428000D01*
X137600000Y-102572000D02*
X137600000Y-104350000D01*
X137600000Y-104350000D02*
X135822000Y-104350000D01*
X126678000Y-104350000D02*
X124900000Y-104350000D01*
X124900000Y-104350000D02*
X124900000Y-102572000D01*
X124900000Y-93428000D02*
X124900000Y-91650000D01*
X143900000Y-91650000D02*
X145678000Y-91650000D01*
X154822000Y-91650000D02*
X156600000Y-91650000D01*
X156600000Y-91650000D02*
X156600000Y-93428000D01*
X156600000Y-102572000D02*
X156600000Y-104350000D01*
X156600000Y-104350000D02*
X154822000Y-104350000D01*
X145678000Y-104350000D02*
X143900000Y-104350000D01*
X143900000Y-104350000D02*
X143900000Y-102572000D01*
X143900000Y-93428000D02*
X143900000Y-91650000D01*
X174775000Y-91650000D02*
X176553000Y-91650000D01*
X185697000Y-91650000D02*
X187475000Y-91650000D01*
X187475000Y-91650000D02*
X187475000Y-93428000D01*
X187475000Y-102572000D02*
X187475000Y-104350000D01*
X187475000Y-104350000D02*
X185697000Y-104350000D01*
X176553000Y-104350000D02*
X174775000Y-104350000D01*
X174775000Y-104350000D02*
X174775000Y-102572000D01*
X174775000Y-93428000D02*
X174775000Y-91650000D01*
X39400000Y-110650000D02*
X41178000Y-110650000D01*
X50322000Y-110650000D02*
X52100000Y-110650000D01*
X52100000Y-110650000D02*
X52100000Y-112428000D01*
X52100000Y-121572000D02*
X52100000Y-123350000D01*
X52100000Y-123350000D02*
X50322000Y-123350000D01*
X41178000Y-123350000D02*
X39400000Y-123350000D01*
X39400000Y-123350000D02*
X39400000Y-121572000D01*
X39400000Y-112428000D02*
X39400000Y-110650000D01*
X58400000Y-110650000D02*
X60178000Y-110650000D01*
X69322000Y-110650000D02*
X71100000Y-110650000D01*
X71100000Y-110650000D02*
X71100000Y-112428000D01*
X71100000Y-121572000D02*
X71100000Y-123350000D01*
X71100000Y-123350000D02*
X69322000Y-123350000D01*
X60178000Y-123350000D02*
X58400000Y-123350000D01*
X58400000Y-123350000D02*
X58400000Y-121572000D01*
X58400000Y-112428000D02*
X58400000Y-110650000D01*
X77400000Y-110650000D02*
X79178000Y-110650000D01*
X88322000Y-110650000D02*
X90100000Y-110650000D01*
X90100000Y-110650000D02*
X90100000Y-112428000D01*
X90100000Y-121572000D02*
X90100000Y-123350000D01*
X90100000Y-123350000D02*
X88322000Y-123350000D01*
X79178000Y-123350000D02*
X77400000Y-123350000D01*
X77400000Y-123350000D02*
X77400000Y-121572000D01*
X77400000Y-112428000D02*
X77400000Y-110650000D01*
X96400000Y-110650000D02*
X98178000Y-110650000D01*
X107322000Y-110650000D02*
X109100000Y-110650000D01*
X109100000Y-110650000D02*
X109100000Y-112428000D01*
X109100000Y-121572000D02*
X109100000Y-123350000D01*
X109100000Y-123350000D02*
X107322000Y-123350000D01*
X98178000Y-123350000D02*
X96400000Y-123350000D01*
X96400000Y-123350000D02*
X96400000Y-121572000D01*
X96400000Y-112428000D02*
X96400000Y-110650000D01*
X115400000Y-110650000D02*
X117178000Y-110650000D01*
X126322000Y-110650000D02*
X128100000Y-110650000D01*
X128100000Y-110650000D02*
X128100000Y-112428000D01*
X128100000Y-121572000D02*
X128100000Y-123350000D01*
X128100000Y-123350000D02*
X126322000Y-123350000D01*
X117178000Y-123350000D02*
X115400000Y-123350000D01*
X115400000Y-123350000D02*
X115400000Y-121572000D01*
X115400000Y-112428000D02*
X115400000Y-110650000D01*
X134400000Y-110650000D02*
X136178000Y-110650000D01*
X145322000Y-110650000D02*
X147100000Y-110650000D01*
X147100000Y-110650000D02*
X147100000Y-112428000D01*
X147100000Y-121572000D02*
X147100000Y-123350000D01*
X147100000Y-123350000D02*
X145322000Y-123350000D01*
X136178000Y-123350000D02*
X134400000Y-123350000D01*
X134400000Y-123350000D02*
X134400000Y-121572000D01*
X134400000Y-112428000D02*
X134400000Y-110650000D01*
X160525000Y-110650000D02*
X162303000Y-110650000D01*
X171447000Y-110650000D02*
X173225000Y-110650000D01*
X173225000Y-110650000D02*
X173225000Y-112428000D01*
X173225000Y-121572000D02*
X173225000Y-123350000D01*
X173225000Y-123350000D02*
X171447000Y-123350000D01*
X162303000Y-123350000D02*
X160525000Y-123350000D01*
X160525000Y-123350000D02*
X160525000Y-121572000D01*
X160525000Y-112428000D02*
X160525000Y-110650000D01*
X186650000Y-110650000D02*
X188428000Y-110650000D01*
X197572000Y-110650000D02*
X199350000Y-110650000D01*
X199350000Y-110650000D02*
X199350000Y-112428000D01*
X199350000Y-121572000D02*
X199350000Y-123350000D01*
X199350000Y-123350000D02*
X197572000Y-123350000D01*
X188428000Y-123350000D02*
X186650000Y-123350000D01*
X186650000Y-123350000D02*
X186650000Y-121572000D01*
X186650000Y-112428000D02*
X186650000Y-110650000D01*
X44150000Y-129650000D02*
X45928000Y-129650000D01*
X55072000Y-129650000D02*
X56850000Y-129650000D01*
X56850000Y-129650000D02*
X56850000Y-131428000D01*
X56850000Y-140572000D02*
X56850000Y-142350000D01*
X56850000Y-142350000D02*
X55072000Y-142350000D01*
X45928000Y-142350000D02*
X44150000Y-142350000D01*
X44150000Y-142350000D02*
X44150000Y-140572000D01*
X44150000Y-131428000D02*
X44150000Y-129650000D01*
X72650000Y-129650000D02*
X74428000Y-129650000D01*
X83572000Y-129650000D02*
X85350000Y-129650000D01*
X85350000Y-129650000D02*
X85350000Y-131428000D01*
X85350000Y-140572000D02*
X85350000Y-142350000D01*
X85350000Y-142350000D02*
X83572000Y-142350000D01*
X74428000Y-142350000D02*
X72650000Y-142350000D01*
X72650000Y-142350000D02*
X72650000Y-140572000D01*
X72650000Y-131428000D02*
X72650000Y-129650000D01*
X115400000Y-129650000D02*
X117178000Y-129650000D01*
X126322000Y-129650000D02*
X128100000Y-129650000D01*
X128100000Y-129650000D02*
X128100000Y-131428000D01*
X128100000Y-140572000D02*
X128100000Y-142350000D01*
X128100000Y-142350000D02*
X126322000Y-142350000D01*
X117178000Y-142350000D02*
X115400000Y-142350000D01*
X115400000Y-142350000D02*
X115400000Y-140572000D01*
X115400000Y-131428000D02*
X115400000Y-129650000D01*
D12*
X156000000Y-45746000D02*
G75*
G03X156000000Y-45746000I-500000J0D01*
G01*
X156000000Y-30254000D02*
G75*
G03X156000000Y-30254000I-500000J0D01*
G01*
X202000000Y-45746000D02*
G75*
G03X202000000Y-45746000I-500000J0D01*
G01*
X202000000Y-30254000D02*
G75*
G03X202000000Y-30254000I-500000J0D01*
G01*
X154500000Y-29000000D02*
X202500000Y-29000000D01*
X202500000Y-29000000D02*
X202500000Y-47000000D01*
X202500000Y-47000000D02*
X154500000Y-47000000D01*
X154500000Y-47000000D02*
X154500000Y-29000000D01*
X93000000Y-130190000D02*
X93000000Y-128920000D01*
X93000000Y-137810000D02*
X93000000Y-139080000D01*
X93000000Y-137810000D02*
X93000000Y-137048000D01*
X93000000Y-137048000D02*
X94016000Y-137048000D01*
X94016000Y-137048000D02*
X94016000Y-130952000D01*
X94016000Y-130952000D02*
X93000000Y-130952000D01*
X93000000Y-130952000D02*
X93000000Y-130190000D01*
X93000000Y-130952000D02*
X91984000Y-130952000D01*
X91984000Y-130952000D02*
X91984000Y-137048000D01*
X91984000Y-137048000D02*
X93000000Y-137048000D01*
X94016000Y-136540000D02*
X91984000Y-136540000D01*
X91984000Y-136286000D02*
X94016000Y-136286000D01*
X131000000Y-130190000D02*
X131000000Y-128920000D01*
X131000000Y-137810000D02*
X131000000Y-139080000D01*
X131000000Y-137810000D02*
X131000000Y-137048000D01*
X131000000Y-137048000D02*
X132016000Y-137048000D01*
X132016000Y-137048000D02*
X132016000Y-130952000D01*
X132016000Y-130952000D02*
X131000000Y-130952000D01*
X131000000Y-130952000D02*
X131000000Y-130190000D01*
X131000000Y-130952000D02*
X129984000Y-130952000D01*
X129984000Y-130952000D02*
X129984000Y-137048000D01*
X129984000Y-137048000D02*
X131000000Y-137048000D01*
X132016000Y-136540000D02*
X129984000Y-136540000D01*
X129984000Y-136286000D02*
X132016000Y-136286000D01*
X151000000Y-130190000D02*
X151000000Y-128920000D01*
X151000000Y-137810000D02*
X151000000Y-139080000D01*
X151000000Y-137810000D02*
X151000000Y-137048000D01*
X151000000Y-137048000D02*
X152016000Y-137048000D01*
X152016000Y-137048000D02*
X152016000Y-130952000D01*
X152016000Y-130952000D02*
X151000000Y-130952000D01*
X151000000Y-130952000D02*
X151000000Y-130190000D01*
X151000000Y-130952000D02*
X149984000Y-130952000D01*
X149984000Y-130952000D02*
X149984000Y-137048000D01*
X149984000Y-137048000D02*
X151000000Y-137048000D01*
X152016000Y-136540000D02*
X149984000Y-136540000D01*
X149984000Y-136286000D02*
X152016000Y-136286000D01*
X171000000Y-130190000D02*
X171000000Y-128920000D01*
X171000000Y-137810000D02*
X171000000Y-139080000D01*
X171000000Y-137810000D02*
X171000000Y-137048000D01*
X171000000Y-137048000D02*
X172016000Y-137048000D01*
X172016000Y-137048000D02*
X172016000Y-130952000D01*
X172016000Y-130952000D02*
X171000000Y-130952000D01*
X171000000Y-130952000D02*
X171000000Y-130190000D01*
X171000000Y-130952000D02*
X169984000Y-130952000D01*
X169984000Y-130952000D02*
X169984000Y-137048000D01*
X169984000Y-137048000D02*
X171000000Y-137048000D01*
X172016000Y-136540000D02*
X169984000Y-136540000D01*
X169984000Y-136286000D02*
X172016000Y-136286000D01*
D11*
X96400000Y-129650000D02*
X98178000Y-129650000D01*
X107322000Y-129650000D02*
X109100000Y-129650000D01*
X109100000Y-129650000D02*
X109100000Y-131428000D01*
X109100000Y-140572000D02*
X109100000Y-142350000D01*
X109100000Y-142350000D02*
X107322000Y-142350000D01*
X98178000Y-142350000D02*
X96400000Y-142350000D01*
X96400000Y-142350000D02*
X96400000Y-140572000D01*
X96400000Y-131428000D02*
X96400000Y-129650000D01*
X134400000Y-129650000D02*
X136178000Y-129650000D01*
X145322000Y-129650000D02*
X147100000Y-129650000D01*
X147100000Y-129650000D02*
X147100000Y-131428000D01*
X147100000Y-140572000D02*
X147100000Y-142350000D01*
X147100000Y-142350000D02*
X145322000Y-142350000D01*
X136178000Y-142350000D02*
X134400000Y-142350000D01*
X134400000Y-142350000D02*
X134400000Y-140572000D01*
X134400000Y-131428000D02*
X134400000Y-129650000D01*
X153400000Y-129650000D02*
X155178000Y-129650000D01*
X164322000Y-129650000D02*
X166100000Y-129650000D01*
X166100000Y-129650000D02*
X166100000Y-131428000D01*
X166100000Y-140572000D02*
X166100000Y-142350000D01*
X166100000Y-142350000D02*
X164322000Y-142350000D01*
X155178000Y-142350000D02*
X153400000Y-142350000D01*
X153400000Y-142350000D02*
X153400000Y-140572000D01*
X153400000Y-131428000D02*
X153400000Y-129650000D01*
D12*
X184000000Y-58190000D02*
X184000000Y-56920000D01*
X184000000Y-65810000D02*
X184000000Y-67080000D01*
X184000000Y-65810000D02*
X184000000Y-65048000D01*
X184000000Y-65048000D02*
X185016000Y-65048000D01*
X185016000Y-65048000D02*
X185016000Y-58952000D01*
X185016000Y-58952000D02*
X184000000Y-58952000D01*
X184000000Y-58952000D02*
X184000000Y-58190000D01*
X184000000Y-58952000D02*
X182984000Y-58952000D01*
X182984000Y-58952000D02*
X182984000Y-65048000D01*
X182984000Y-65048000D02*
X184000000Y-65048000D01*
X185016000Y-64540000D02*
X182984000Y-64540000D01*
X182984000Y-64286000D02*
X185016000Y-64286000D01*
D11*
X167650000Y-53650000D02*
X169428000Y-53650000D01*
X178572000Y-53650000D02*
X180350000Y-53650000D01*
X180350000Y-53650000D02*
X180350000Y-55428000D01*
X180350000Y-64572000D02*
X180350000Y-66350000D01*
X180350000Y-66350000D02*
X178572000Y-66350000D01*
X169428000Y-66350000D02*
X167650000Y-66350000D01*
X167650000Y-66350000D02*
X167650000Y-64572000D01*
X167650000Y-55428000D02*
X167650000Y-53650000D01*
X186650000Y-53650000D02*
X188428000Y-53650000D01*
X197572000Y-53650000D02*
X199350000Y-53650000D01*
X199350000Y-53650000D02*
X199350000Y-55428000D01*
X199350000Y-64572000D02*
X199350000Y-66350000D01*
X199350000Y-66350000D02*
X197572000Y-66350000D01*
X188428000Y-66350000D02*
X186650000Y-66350000D01*
X186650000Y-66350000D02*
X186650000Y-64572000D01*
X186650000Y-55428000D02*
X186650000Y-53650000D01*
D12*
X58950000Y-26250000D02*
X58950000Y-25200000D01*
X65050000Y-26250000D02*
X65050000Y-25200000D01*
X65050000Y-27300000D02*
X65050000Y-26300000D01*
X65050000Y-25200000D02*
X58950000Y-25200000D01*
X58950000Y-26300000D02*
X58950000Y-27300000D01*
X58950000Y-27300000D02*
X58950000Y-39400000D01*
X65050000Y-27300000D02*
X65050000Y-39400000D01*
X65050000Y-27200000D02*
X58950000Y-27200000D01*
X58950000Y-39400000D02*
X65050000Y-39400000D01*
D13*
X183117286Y-139689048D02*
X183335000Y-139749524D01*
X183697857Y-139749524D01*
X183843000Y-139689048D01*
X183915571Y-139628571D01*
X183988143Y-139507619D01*
X183988143Y-139386667D01*
X183915571Y-139265714D01*
X183843000Y-139205238D01*
X183697857Y-139144762D01*
X183407571Y-139084286D01*
X183262429Y-139023810D01*
X183189857Y-138963333D01*
X183117286Y-138842381D01*
X183117286Y-138721429D01*
X183189857Y-138600476D01*
X183262429Y-138540000D01*
X183407571Y-138479524D01*
X183770429Y-138479524D01*
X183988143Y-138540000D01*
X184496143Y-138479524D02*
X184859000Y-139749524D01*
X185149286Y-138842381D01*
X185439572Y-139749524D01*
X185802429Y-138479524D01*
X187108714Y-138479524D02*
X186383000Y-138479524D01*
X186310429Y-139084286D01*
X186383000Y-139023810D01*
X186528143Y-138963333D01*
X186891000Y-138963333D01*
X187036143Y-139023810D01*
X187108714Y-139084286D01*
X187181286Y-139205238D01*
X187181286Y-139507619D01*
X187108714Y-139628571D01*
X187036143Y-139689048D01*
X186891000Y-139749524D01*
X186528143Y-139749524D01*
X186383000Y-139689048D01*
X186310429Y-139628571D01*
X187689286Y-138479524D02*
X188705286Y-138479524D01*
X188052143Y-139749524D01*
D12*
X51452381Y-61214286D02*
X50452381Y-61214286D01*
X50452381Y-60976191D01*
X50500000Y-60833333D01*
X50595238Y-60738095D01*
X50690476Y-60690476D01*
X50880952Y-60642857D01*
X51023810Y-60642857D01*
X51214286Y-60690476D01*
X51309524Y-60738095D01*
X51404762Y-60833333D01*
X51452381Y-60976191D01*
X51452381Y-61214286D01*
X51452381Y-59690476D02*
X51452381Y-60261905D01*
X51452381Y-59976191D02*
X50452381Y-59976191D01*
X50595238Y-60071429D01*
X50690476Y-60166667D01*
X50738095Y-60261905D01*
X51452381Y-58738095D02*
X51452381Y-59309524D01*
X51452381Y-59023810D02*
X50452381Y-59023810D01*
X50595238Y-59119048D01*
X50690476Y-59214286D01*
X50738095Y-59309524D01*
X70452381Y-61214286D02*
X69452381Y-61214286D01*
X69452381Y-60976191D01*
X69500000Y-60833333D01*
X69595238Y-60738095D01*
X69690476Y-60690476D01*
X69880952Y-60642857D01*
X70023810Y-60642857D01*
X70214286Y-60690476D01*
X70309524Y-60738095D01*
X70404762Y-60833333D01*
X70452381Y-60976191D01*
X70452381Y-61214286D01*
X70452381Y-59690476D02*
X70452381Y-60261905D01*
X70452381Y-59976191D02*
X69452381Y-59976191D01*
X69595238Y-60071429D01*
X69690476Y-60166667D01*
X69738095Y-60261905D01*
X69547619Y-59309524D02*
X69500000Y-59261905D01*
X69452381Y-59166667D01*
X69452381Y-58928571D01*
X69500000Y-58833333D01*
X69547619Y-58785714D01*
X69642857Y-58738095D01*
X69738095Y-58738095D01*
X69880952Y-58785714D01*
X70452381Y-59357143D01*
X70452381Y-58738095D01*
X89452381Y-61214286D02*
X88452381Y-61214286D01*
X88452381Y-60976191D01*
X88500000Y-60833333D01*
X88595238Y-60738095D01*
X88690476Y-60690476D01*
X88880952Y-60642857D01*
X89023810Y-60642857D01*
X89214286Y-60690476D01*
X89309524Y-60738095D01*
X89404762Y-60833333D01*
X89452381Y-60976191D01*
X89452381Y-61214286D01*
X89452381Y-59690476D02*
X89452381Y-60261905D01*
X89452381Y-59976191D02*
X88452381Y-59976191D01*
X88595238Y-60071429D01*
X88690476Y-60166667D01*
X88738095Y-60261905D01*
X88452381Y-59357143D02*
X88452381Y-58738095D01*
X88833333Y-59071429D01*
X88833333Y-58928571D01*
X88880952Y-58833333D01*
X88928571Y-58785714D01*
X89023810Y-58738095D01*
X89261905Y-58738095D01*
X89357143Y-58785714D01*
X89404762Y-58833333D01*
X89452381Y-58928571D01*
X89452381Y-59214286D01*
X89404762Y-59309524D01*
X89357143Y-59357143D01*
X108452381Y-61214286D02*
X107452381Y-61214286D01*
X107452381Y-60976191D01*
X107500000Y-60833333D01*
X107595238Y-60738095D01*
X107690476Y-60690476D01*
X107880952Y-60642857D01*
X108023810Y-60642857D01*
X108214286Y-60690476D01*
X108309524Y-60738095D01*
X108404762Y-60833333D01*
X108452381Y-60976191D01*
X108452381Y-61214286D01*
X108452381Y-59690476D02*
X108452381Y-60261905D01*
X108452381Y-59976191D02*
X107452381Y-59976191D01*
X107595238Y-60071429D01*
X107690476Y-60166667D01*
X107738095Y-60261905D01*
X107785714Y-58833333D02*
X108452381Y-58833333D01*
X107404762Y-59071429D02*
X108119048Y-59309524D01*
X108119048Y-58690476D01*
X127452381Y-61214286D02*
X126452381Y-61214286D01*
X126452381Y-60976191D01*
X126500000Y-60833333D01*
X126595238Y-60738095D01*
X126690476Y-60690476D01*
X126880952Y-60642857D01*
X127023810Y-60642857D01*
X127214286Y-60690476D01*
X127309524Y-60738095D01*
X127404762Y-60833333D01*
X127452381Y-60976191D01*
X127452381Y-61214286D01*
X127452381Y-59690476D02*
X127452381Y-60261905D01*
X127452381Y-59976191D02*
X126452381Y-59976191D01*
X126595238Y-60071429D01*
X126690476Y-60166667D01*
X126738095Y-60261905D01*
X126452381Y-58785714D02*
X126452381Y-59261905D01*
X126928571Y-59309524D01*
X126880952Y-59261905D01*
X126833333Y-59166667D01*
X126833333Y-58928571D01*
X126880952Y-58833333D01*
X126928571Y-58785714D01*
X127023810Y-58738095D01*
X127261905Y-58738095D01*
X127357143Y-58785714D01*
X127404762Y-58833333D01*
X127452381Y-58928571D01*
X127452381Y-59166667D01*
X127404762Y-59261905D01*
X127357143Y-59309524D01*
X145452381Y-61214286D02*
X144452381Y-61214286D01*
X144452381Y-60976191D01*
X144500000Y-60833333D01*
X144595238Y-60738095D01*
X144690476Y-60690476D01*
X144880952Y-60642857D01*
X145023810Y-60642857D01*
X145214286Y-60690476D01*
X145309524Y-60738095D01*
X145404762Y-60833333D01*
X145452381Y-60976191D01*
X145452381Y-61214286D01*
X145452381Y-59690476D02*
X145452381Y-60261905D01*
X145452381Y-59976191D02*
X144452381Y-59976191D01*
X144595238Y-60071429D01*
X144690476Y-60166667D01*
X144738095Y-60261905D01*
X144452381Y-58833333D02*
X144452381Y-59023810D01*
X144500000Y-59119048D01*
X144547619Y-59166667D01*
X144690476Y-59261905D01*
X144880952Y-59309524D01*
X145261905Y-59309524D01*
X145357143Y-59261905D01*
X145404762Y-59214286D01*
X145452381Y-59119048D01*
X145452381Y-58928571D01*
X145404762Y-58833333D01*
X145357143Y-58785714D01*
X145261905Y-58738095D01*
X145023810Y-58738095D01*
X144928571Y-58785714D01*
X144880952Y-58833333D01*
X144833333Y-58928571D01*
X144833333Y-59119048D01*
X144880952Y-59214286D01*
X144928571Y-59261905D01*
X145023810Y-59309524D01*
X165452381Y-61214286D02*
X164452381Y-61214286D01*
X164452381Y-60976191D01*
X164500000Y-60833333D01*
X164595238Y-60738095D01*
X164690476Y-60690476D01*
X164880952Y-60642857D01*
X165023810Y-60642857D01*
X165214286Y-60690476D01*
X165309524Y-60738095D01*
X165404762Y-60833333D01*
X165452381Y-60976191D01*
X165452381Y-61214286D01*
X165452381Y-59690476D02*
X165452381Y-60261905D01*
X165452381Y-59976191D02*
X164452381Y-59976191D01*
X164595238Y-60071429D01*
X164690476Y-60166667D01*
X164738095Y-60261905D01*
X164452381Y-59357143D02*
X164452381Y-58690476D01*
X165452381Y-59119048D01*
X41452381Y-78214286D02*
X40452381Y-78214286D01*
X40452381Y-77976191D01*
X40500000Y-77833333D01*
X40595238Y-77738095D01*
X40690476Y-77690476D01*
X40880952Y-77642857D01*
X41023810Y-77642857D01*
X41214286Y-77690476D01*
X41309524Y-77738095D01*
X41404762Y-77833333D01*
X41452381Y-77976191D01*
X41452381Y-78214286D01*
X40547619Y-77261905D02*
X40500000Y-77214286D01*
X40452381Y-77119048D01*
X40452381Y-76880952D01*
X40500000Y-76785714D01*
X40547619Y-76738095D01*
X40642857Y-76690476D01*
X40738095Y-76690476D01*
X40880952Y-76738095D01*
X41452381Y-77309524D01*
X41452381Y-76690476D01*
X41452381Y-75738095D02*
X41452381Y-76309524D01*
X41452381Y-76023810D02*
X40452381Y-76023810D01*
X40595238Y-76119048D01*
X40690476Y-76214286D01*
X40738095Y-76309524D01*
X60452381Y-78214286D02*
X59452381Y-78214286D01*
X59452381Y-77976191D01*
X59500000Y-77833333D01*
X59595238Y-77738095D01*
X59690476Y-77690476D01*
X59880952Y-77642857D01*
X60023810Y-77642857D01*
X60214286Y-77690476D01*
X60309524Y-77738095D01*
X60404762Y-77833333D01*
X60452381Y-77976191D01*
X60452381Y-78214286D01*
X59547619Y-77261905D02*
X59500000Y-77214286D01*
X59452381Y-77119048D01*
X59452381Y-76880952D01*
X59500000Y-76785714D01*
X59547619Y-76738095D01*
X59642857Y-76690476D01*
X59738095Y-76690476D01*
X59880952Y-76738095D01*
X60452381Y-77309524D01*
X60452381Y-76690476D01*
X59547619Y-76309524D02*
X59500000Y-76261905D01*
X59452381Y-76166667D01*
X59452381Y-75928571D01*
X59500000Y-75833333D01*
X59547619Y-75785714D01*
X59642857Y-75738095D01*
X59738095Y-75738095D01*
X59880952Y-75785714D01*
X60452381Y-76357143D01*
X60452381Y-75738095D01*
X79452381Y-78214286D02*
X78452381Y-78214286D01*
X78452381Y-77976191D01*
X78500000Y-77833333D01*
X78595238Y-77738095D01*
X78690476Y-77690476D01*
X78880952Y-77642857D01*
X79023810Y-77642857D01*
X79214286Y-77690476D01*
X79309524Y-77738095D01*
X79404762Y-77833333D01*
X79452381Y-77976191D01*
X79452381Y-78214286D01*
X78547619Y-77261905D02*
X78500000Y-77214286D01*
X78452381Y-77119048D01*
X78452381Y-76880952D01*
X78500000Y-76785714D01*
X78547619Y-76738095D01*
X78642857Y-76690476D01*
X78738095Y-76690476D01*
X78880952Y-76738095D01*
X79452381Y-77309524D01*
X79452381Y-76690476D01*
X78452381Y-76357143D02*
X78452381Y-75738095D01*
X78833333Y-76071429D01*
X78833333Y-75928571D01*
X78880952Y-75833333D01*
X78928571Y-75785714D01*
X79023810Y-75738095D01*
X79261905Y-75738095D01*
X79357143Y-75785714D01*
X79404762Y-75833333D01*
X79452381Y-75928571D01*
X79452381Y-76214286D01*
X79404762Y-76309524D01*
X79357143Y-76357143D01*
X98452381Y-78214286D02*
X97452381Y-78214286D01*
X97452381Y-77976191D01*
X97500000Y-77833333D01*
X97595238Y-77738095D01*
X97690476Y-77690476D01*
X97880952Y-77642857D01*
X98023810Y-77642857D01*
X98214286Y-77690476D01*
X98309524Y-77738095D01*
X98404762Y-77833333D01*
X98452381Y-77976191D01*
X98452381Y-78214286D01*
X97547619Y-77261905D02*
X97500000Y-77214286D01*
X97452381Y-77119048D01*
X97452381Y-76880952D01*
X97500000Y-76785714D01*
X97547619Y-76738095D01*
X97642857Y-76690476D01*
X97738095Y-76690476D01*
X97880952Y-76738095D01*
X98452381Y-77309524D01*
X98452381Y-76690476D01*
X97785714Y-75833333D02*
X98452381Y-75833333D01*
X97404762Y-76071429D02*
X98119048Y-76309524D01*
X98119048Y-75690476D01*
X117452381Y-78214286D02*
X116452381Y-78214286D01*
X116452381Y-77976191D01*
X116500000Y-77833333D01*
X116595238Y-77738095D01*
X116690476Y-77690476D01*
X116880952Y-77642857D01*
X117023810Y-77642857D01*
X117214286Y-77690476D01*
X117309524Y-77738095D01*
X117404762Y-77833333D01*
X117452381Y-77976191D01*
X117452381Y-78214286D01*
X116547619Y-77261905D02*
X116500000Y-77214286D01*
X116452381Y-77119048D01*
X116452381Y-76880952D01*
X116500000Y-76785714D01*
X116547619Y-76738095D01*
X116642857Y-76690476D01*
X116738095Y-76690476D01*
X116880952Y-76738095D01*
X117452381Y-77309524D01*
X117452381Y-76690476D01*
X116452381Y-75785714D02*
X116452381Y-76261905D01*
X116928571Y-76309524D01*
X116880952Y-76261905D01*
X116833333Y-76166667D01*
X116833333Y-75928571D01*
X116880952Y-75833333D01*
X116928571Y-75785714D01*
X117023810Y-75738095D01*
X117261905Y-75738095D01*
X117357143Y-75785714D01*
X117404762Y-75833333D01*
X117452381Y-75928571D01*
X117452381Y-76166667D01*
X117404762Y-76261905D01*
X117357143Y-76309524D01*
X136452381Y-78214286D02*
X135452381Y-78214286D01*
X135452381Y-77976191D01*
X135500000Y-77833333D01*
X135595238Y-77738095D01*
X135690476Y-77690476D01*
X135880952Y-77642857D01*
X136023810Y-77642857D01*
X136214286Y-77690476D01*
X136309524Y-77738095D01*
X136404762Y-77833333D01*
X136452381Y-77976191D01*
X136452381Y-78214286D01*
X135547619Y-77261905D02*
X135500000Y-77214286D01*
X135452381Y-77119048D01*
X135452381Y-76880952D01*
X135500000Y-76785714D01*
X135547619Y-76738095D01*
X135642857Y-76690476D01*
X135738095Y-76690476D01*
X135880952Y-76738095D01*
X136452381Y-77309524D01*
X136452381Y-76690476D01*
X135452381Y-75833333D02*
X135452381Y-76023810D01*
X135500000Y-76119048D01*
X135547619Y-76166667D01*
X135690476Y-76261905D01*
X135880952Y-76309524D01*
X136261905Y-76309524D01*
X136357143Y-76261905D01*
X136404762Y-76214286D01*
X136452381Y-76119048D01*
X136452381Y-75928571D01*
X136404762Y-75833333D01*
X136357143Y-75785714D01*
X136261905Y-75738095D01*
X136023810Y-75738095D01*
X135928571Y-75785714D01*
X135880952Y-75833333D01*
X135833333Y-75928571D01*
X135833333Y-76119048D01*
X135880952Y-76214286D01*
X135928571Y-76261905D01*
X136023810Y-76309524D01*
X155452381Y-78214286D02*
X154452381Y-78214286D01*
X154452381Y-77976191D01*
X154500000Y-77833333D01*
X154595238Y-77738095D01*
X154690476Y-77690476D01*
X154880952Y-77642857D01*
X155023810Y-77642857D01*
X155214286Y-77690476D01*
X155309524Y-77738095D01*
X155404762Y-77833333D01*
X155452381Y-77976191D01*
X155452381Y-78214286D01*
X154547619Y-77261905D02*
X154500000Y-77214286D01*
X154452381Y-77119048D01*
X154452381Y-76880952D01*
X154500000Y-76785714D01*
X154547619Y-76738095D01*
X154642857Y-76690476D01*
X154738095Y-76690476D01*
X154880952Y-76738095D01*
X155452381Y-77309524D01*
X155452381Y-76690476D01*
X154452381Y-76357143D02*
X154452381Y-75690476D01*
X155452381Y-76119048D01*
X176452381Y-78214286D02*
X175452381Y-78214286D01*
X175452381Y-77976191D01*
X175500000Y-77833333D01*
X175595238Y-77738095D01*
X175690476Y-77690476D01*
X175880952Y-77642857D01*
X176023810Y-77642857D01*
X176214286Y-77690476D01*
X176309524Y-77738095D01*
X176404762Y-77833333D01*
X176452381Y-77976191D01*
X176452381Y-78214286D01*
X175547619Y-77261905D02*
X175500000Y-77214286D01*
X175452381Y-77119048D01*
X175452381Y-76880952D01*
X175500000Y-76785714D01*
X175547619Y-76738095D01*
X175642857Y-76690476D01*
X175738095Y-76690476D01*
X175880952Y-76738095D01*
X176452381Y-77309524D01*
X176452381Y-76690476D01*
X175880952Y-76119048D02*
X175833333Y-76214286D01*
X175785714Y-76261905D01*
X175690476Y-76309524D01*
X175642857Y-76309524D01*
X175547619Y-76261905D01*
X175500000Y-76214286D01*
X175452381Y-76119048D01*
X175452381Y-75928571D01*
X175500000Y-75833333D01*
X175547619Y-75785714D01*
X175642857Y-75738095D01*
X175690476Y-75738095D01*
X175785714Y-75785714D01*
X175833333Y-75833333D01*
X175880952Y-75928571D01*
X175880952Y-76119048D01*
X175928571Y-76214286D01*
X175976190Y-76261905D01*
X176071429Y-76309524D01*
X176261905Y-76309524D01*
X176357143Y-76261905D01*
X176404762Y-76214286D01*
X176452381Y-76119048D01*
X176452381Y-75928571D01*
X176404762Y-75833333D01*
X176357143Y-75785714D01*
X176261905Y-75738095D01*
X176071429Y-75738095D01*
X175976190Y-75785714D01*
X175928571Y-75833333D01*
X175880952Y-75928571D01*
X46452381Y-97214286D02*
X45452381Y-97214286D01*
X45452381Y-96976191D01*
X45500000Y-96833333D01*
X45595238Y-96738095D01*
X45690476Y-96690476D01*
X45880952Y-96642857D01*
X46023810Y-96642857D01*
X46214286Y-96690476D01*
X46309524Y-96738095D01*
X46404762Y-96833333D01*
X46452381Y-96976191D01*
X46452381Y-97214286D01*
X45452381Y-96309524D02*
X45452381Y-95690476D01*
X45833333Y-96023810D01*
X45833333Y-95880952D01*
X45880952Y-95785714D01*
X45928571Y-95738095D01*
X46023810Y-95690476D01*
X46261905Y-95690476D01*
X46357143Y-95738095D01*
X46404762Y-95785714D01*
X46452381Y-95880952D01*
X46452381Y-96166667D01*
X46404762Y-96261905D01*
X46357143Y-96309524D01*
X46452381Y-94738095D02*
X46452381Y-95309524D01*
X46452381Y-95023810D02*
X45452381Y-95023810D01*
X45595238Y-95119048D01*
X45690476Y-95214286D01*
X45738095Y-95309524D01*
X65452381Y-97214286D02*
X64452381Y-97214286D01*
X64452381Y-96976191D01*
X64500000Y-96833333D01*
X64595238Y-96738095D01*
X64690476Y-96690476D01*
X64880952Y-96642857D01*
X65023810Y-96642857D01*
X65214286Y-96690476D01*
X65309524Y-96738095D01*
X65404762Y-96833333D01*
X65452381Y-96976191D01*
X65452381Y-97214286D01*
X64452381Y-96309524D02*
X64452381Y-95690476D01*
X64833333Y-96023810D01*
X64833333Y-95880952D01*
X64880952Y-95785714D01*
X64928571Y-95738095D01*
X65023810Y-95690476D01*
X65261905Y-95690476D01*
X65357143Y-95738095D01*
X65404762Y-95785714D01*
X65452381Y-95880952D01*
X65452381Y-96166667D01*
X65404762Y-96261905D01*
X65357143Y-96309524D01*
X64547619Y-95309524D02*
X64500000Y-95261905D01*
X64452381Y-95166667D01*
X64452381Y-94928571D01*
X64500000Y-94833333D01*
X64547619Y-94785714D01*
X64642857Y-94738095D01*
X64738095Y-94738095D01*
X64880952Y-94785714D01*
X65452381Y-95357143D01*
X65452381Y-94738095D01*
X84452381Y-97214286D02*
X83452381Y-97214286D01*
X83452381Y-96976191D01*
X83500000Y-96833333D01*
X83595238Y-96738095D01*
X83690476Y-96690476D01*
X83880952Y-96642857D01*
X84023810Y-96642857D01*
X84214286Y-96690476D01*
X84309524Y-96738095D01*
X84404762Y-96833333D01*
X84452381Y-96976191D01*
X84452381Y-97214286D01*
X83452381Y-96309524D02*
X83452381Y-95690476D01*
X83833333Y-96023810D01*
X83833333Y-95880952D01*
X83880952Y-95785714D01*
X83928571Y-95738095D01*
X84023810Y-95690476D01*
X84261905Y-95690476D01*
X84357143Y-95738095D01*
X84404762Y-95785714D01*
X84452381Y-95880952D01*
X84452381Y-96166667D01*
X84404762Y-96261905D01*
X84357143Y-96309524D01*
X83452381Y-95357143D02*
X83452381Y-94738095D01*
X83833333Y-95071429D01*
X83833333Y-94928571D01*
X83880952Y-94833333D01*
X83928571Y-94785714D01*
X84023810Y-94738095D01*
X84261905Y-94738095D01*
X84357143Y-94785714D01*
X84404762Y-94833333D01*
X84452381Y-94928571D01*
X84452381Y-95214286D01*
X84404762Y-95309524D01*
X84357143Y-95357143D01*
X103452381Y-97214286D02*
X102452381Y-97214286D01*
X102452381Y-96976191D01*
X102500000Y-96833333D01*
X102595238Y-96738095D01*
X102690476Y-96690476D01*
X102880952Y-96642857D01*
X103023810Y-96642857D01*
X103214286Y-96690476D01*
X103309524Y-96738095D01*
X103404762Y-96833333D01*
X103452381Y-96976191D01*
X103452381Y-97214286D01*
X102452381Y-96309524D02*
X102452381Y-95690476D01*
X102833333Y-96023810D01*
X102833333Y-95880952D01*
X102880952Y-95785714D01*
X102928571Y-95738095D01*
X103023810Y-95690476D01*
X103261905Y-95690476D01*
X103357143Y-95738095D01*
X103404762Y-95785714D01*
X103452381Y-95880952D01*
X103452381Y-96166667D01*
X103404762Y-96261905D01*
X103357143Y-96309524D01*
X102785714Y-94833333D02*
X103452381Y-94833333D01*
X102404762Y-95071429D02*
X103119048Y-95309524D01*
X103119048Y-94690476D01*
X122452381Y-97214286D02*
X121452381Y-97214286D01*
X121452381Y-96976191D01*
X121500000Y-96833333D01*
X121595238Y-96738095D01*
X121690476Y-96690476D01*
X121880952Y-96642857D01*
X122023810Y-96642857D01*
X122214286Y-96690476D01*
X122309524Y-96738095D01*
X122404762Y-96833333D01*
X122452381Y-96976191D01*
X122452381Y-97214286D01*
X121452381Y-96309524D02*
X121452381Y-95690476D01*
X121833333Y-96023810D01*
X121833333Y-95880952D01*
X121880952Y-95785714D01*
X121928571Y-95738095D01*
X122023810Y-95690476D01*
X122261905Y-95690476D01*
X122357143Y-95738095D01*
X122404762Y-95785714D01*
X122452381Y-95880952D01*
X122452381Y-96166667D01*
X122404762Y-96261905D01*
X122357143Y-96309524D01*
X121452381Y-94785714D02*
X121452381Y-95261905D01*
X121928571Y-95309524D01*
X121880952Y-95261905D01*
X121833333Y-95166667D01*
X121833333Y-94928571D01*
X121880952Y-94833333D01*
X121928571Y-94785714D01*
X122023810Y-94738095D01*
X122261905Y-94738095D01*
X122357143Y-94785714D01*
X122404762Y-94833333D01*
X122452381Y-94928571D01*
X122452381Y-95166667D01*
X122404762Y-95261905D01*
X122357143Y-95309524D01*
X141452381Y-97214286D02*
X140452381Y-97214286D01*
X140452381Y-96976191D01*
X140500000Y-96833333D01*
X140595238Y-96738095D01*
X140690476Y-96690476D01*
X140880952Y-96642857D01*
X141023810Y-96642857D01*
X141214286Y-96690476D01*
X141309524Y-96738095D01*
X141404762Y-96833333D01*
X141452381Y-96976191D01*
X141452381Y-97214286D01*
X140452381Y-96309524D02*
X140452381Y-95690476D01*
X140833333Y-96023810D01*
X140833333Y-95880952D01*
X140880952Y-95785714D01*
X140928571Y-95738095D01*
X141023810Y-95690476D01*
X141261905Y-95690476D01*
X141357143Y-95738095D01*
X141404762Y-95785714D01*
X141452381Y-95880952D01*
X141452381Y-96166667D01*
X141404762Y-96261905D01*
X141357143Y-96309524D01*
X140452381Y-94833333D02*
X140452381Y-95023810D01*
X140500000Y-95119048D01*
X140547619Y-95166667D01*
X140690476Y-95261905D01*
X140880952Y-95309524D01*
X141261905Y-95309524D01*
X141357143Y-95261905D01*
X141404762Y-95214286D01*
X141452381Y-95119048D01*
X141452381Y-94928571D01*
X141404762Y-94833333D01*
X141357143Y-94785714D01*
X141261905Y-94738095D01*
X141023810Y-94738095D01*
X140928571Y-94785714D01*
X140880952Y-94833333D01*
X140833333Y-94928571D01*
X140833333Y-95119048D01*
X140880952Y-95214286D01*
X140928571Y-95261905D01*
X141023810Y-95309524D01*
X162452381Y-97214286D02*
X161452381Y-97214286D01*
X161452381Y-96976191D01*
X161500000Y-96833333D01*
X161595238Y-96738095D01*
X161690476Y-96690476D01*
X161880952Y-96642857D01*
X162023810Y-96642857D01*
X162214286Y-96690476D01*
X162309524Y-96738095D01*
X162404762Y-96833333D01*
X162452381Y-96976191D01*
X162452381Y-97214286D01*
X161452381Y-96309524D02*
X161452381Y-95690476D01*
X161833333Y-96023810D01*
X161833333Y-95880952D01*
X161880952Y-95785714D01*
X161928571Y-95738095D01*
X162023810Y-95690476D01*
X162261905Y-95690476D01*
X162357143Y-95738095D01*
X162404762Y-95785714D01*
X162452381Y-95880952D01*
X162452381Y-96166667D01*
X162404762Y-96261905D01*
X162357143Y-96309524D01*
X161452381Y-95357143D02*
X161452381Y-94690476D01*
X162452381Y-95119048D01*
X40702381Y-101714286D02*
X39702381Y-101714286D01*
X39702381Y-101476191D01*
X39750000Y-101333333D01*
X39845238Y-101238095D01*
X39940476Y-101190476D01*
X40130952Y-101142857D01*
X40273810Y-101142857D01*
X40464286Y-101190476D01*
X40559524Y-101238095D01*
X40654762Y-101333333D01*
X40702381Y-101476191D01*
X40702381Y-101714286D01*
X40035714Y-100285714D02*
X40702381Y-100285714D01*
X39654762Y-100523810D02*
X40369048Y-100761905D01*
X40369048Y-100142857D01*
X40702381Y-99238095D02*
X40702381Y-99809524D01*
X40702381Y-99523810D02*
X39702381Y-99523810D01*
X39845238Y-99619048D01*
X39940476Y-99714286D01*
X39988095Y-99809524D01*
X55452381Y-116214286D02*
X54452381Y-116214286D01*
X54452381Y-115976191D01*
X54500000Y-115833333D01*
X54595238Y-115738095D01*
X54690476Y-115690476D01*
X54880952Y-115642857D01*
X55023810Y-115642857D01*
X55214286Y-115690476D01*
X55309524Y-115738095D01*
X55404762Y-115833333D01*
X55452381Y-115976191D01*
X55452381Y-116214286D01*
X54785714Y-114785714D02*
X55452381Y-114785714D01*
X54404762Y-115023810D02*
X55119048Y-115261905D01*
X55119048Y-114642857D01*
X54547619Y-114309524D02*
X54500000Y-114261905D01*
X54452381Y-114166667D01*
X54452381Y-113928571D01*
X54500000Y-113833333D01*
X54547619Y-113785714D01*
X54642857Y-113738095D01*
X54738095Y-113738095D01*
X54880952Y-113785714D01*
X55452381Y-114357143D01*
X55452381Y-113738095D01*
X74452381Y-116214286D02*
X73452381Y-116214286D01*
X73452381Y-115976191D01*
X73500000Y-115833333D01*
X73595238Y-115738095D01*
X73690476Y-115690476D01*
X73880952Y-115642857D01*
X74023810Y-115642857D01*
X74214286Y-115690476D01*
X74309524Y-115738095D01*
X74404762Y-115833333D01*
X74452381Y-115976191D01*
X74452381Y-116214286D01*
X73785714Y-114785714D02*
X74452381Y-114785714D01*
X73404762Y-115023810D02*
X74119048Y-115261905D01*
X74119048Y-114642857D01*
X73452381Y-114357143D02*
X73452381Y-113738095D01*
X73833333Y-114071429D01*
X73833333Y-113928571D01*
X73880952Y-113833333D01*
X73928571Y-113785714D01*
X74023810Y-113738095D01*
X74261905Y-113738095D01*
X74357143Y-113785714D01*
X74404762Y-113833333D01*
X74452381Y-113928571D01*
X74452381Y-114214286D01*
X74404762Y-114309524D01*
X74357143Y-114357143D01*
X93452381Y-116214286D02*
X92452381Y-116214286D01*
X92452381Y-115976191D01*
X92500000Y-115833333D01*
X92595238Y-115738095D01*
X92690476Y-115690476D01*
X92880952Y-115642857D01*
X93023810Y-115642857D01*
X93214286Y-115690476D01*
X93309524Y-115738095D01*
X93404762Y-115833333D01*
X93452381Y-115976191D01*
X93452381Y-116214286D01*
X92785714Y-114785714D02*
X93452381Y-114785714D01*
X92404762Y-115023810D02*
X93119048Y-115261905D01*
X93119048Y-114642857D01*
X92785714Y-113833333D02*
X93452381Y-113833333D01*
X92404762Y-114071429D02*
X93119048Y-114309524D01*
X93119048Y-113690476D01*
X112452381Y-116214286D02*
X111452381Y-116214286D01*
X111452381Y-115976191D01*
X111500000Y-115833333D01*
X111595238Y-115738095D01*
X111690476Y-115690476D01*
X111880952Y-115642857D01*
X112023810Y-115642857D01*
X112214286Y-115690476D01*
X112309524Y-115738095D01*
X112404762Y-115833333D01*
X112452381Y-115976191D01*
X112452381Y-116214286D01*
X111785714Y-114785714D02*
X112452381Y-114785714D01*
X111404762Y-115023810D02*
X112119048Y-115261905D01*
X112119048Y-114642857D01*
X111452381Y-113785714D02*
X111452381Y-114261905D01*
X111928571Y-114309524D01*
X111880952Y-114261905D01*
X111833333Y-114166667D01*
X111833333Y-113928571D01*
X111880952Y-113833333D01*
X111928571Y-113785714D01*
X112023810Y-113738095D01*
X112261905Y-113738095D01*
X112357143Y-113785714D01*
X112404762Y-113833333D01*
X112452381Y-113928571D01*
X112452381Y-114166667D01*
X112404762Y-114261905D01*
X112357143Y-114309524D01*
X131452381Y-116214286D02*
X130452381Y-116214286D01*
X130452381Y-115976191D01*
X130500000Y-115833333D01*
X130595238Y-115738095D01*
X130690476Y-115690476D01*
X130880952Y-115642857D01*
X131023810Y-115642857D01*
X131214286Y-115690476D01*
X131309524Y-115738095D01*
X131404762Y-115833333D01*
X131452381Y-115976191D01*
X131452381Y-116214286D01*
X130785714Y-114785714D02*
X131452381Y-114785714D01*
X130404762Y-115023810D02*
X131119048Y-115261905D01*
X131119048Y-114642857D01*
X130452381Y-113833333D02*
X130452381Y-114023810D01*
X130500000Y-114119048D01*
X130547619Y-114166667D01*
X130690476Y-114261905D01*
X130880952Y-114309524D01*
X131261905Y-114309524D01*
X131357143Y-114261905D01*
X131404762Y-114214286D01*
X131452381Y-114119048D01*
X131452381Y-113928571D01*
X131404762Y-113833333D01*
X131357143Y-113785714D01*
X131261905Y-113738095D01*
X131023810Y-113738095D01*
X130928571Y-113785714D01*
X130880952Y-113833333D01*
X130833333Y-113928571D01*
X130833333Y-114119048D01*
X130880952Y-114214286D01*
X130928571Y-114261905D01*
X131023810Y-114309524D01*
X158452381Y-116214286D02*
X157452381Y-116214286D01*
X157452381Y-115976191D01*
X157500000Y-115833333D01*
X157595238Y-115738095D01*
X157690476Y-115690476D01*
X157880952Y-115642857D01*
X158023810Y-115642857D01*
X158214286Y-115690476D01*
X158309524Y-115738095D01*
X158404762Y-115833333D01*
X158452381Y-115976191D01*
X158452381Y-116214286D01*
X157785714Y-114785714D02*
X158452381Y-114785714D01*
X157404762Y-115023810D02*
X158119048Y-115261905D01*
X158119048Y-114642857D01*
X157452381Y-114357143D02*
X157452381Y-113690476D01*
X158452381Y-114119048D01*
X184452381Y-116214286D02*
X183452381Y-116214286D01*
X183452381Y-115976191D01*
X183500000Y-115833333D01*
X183595238Y-115738095D01*
X183690476Y-115690476D01*
X183880952Y-115642857D01*
X184023810Y-115642857D01*
X184214286Y-115690476D01*
X184309524Y-115738095D01*
X184404762Y-115833333D01*
X184452381Y-115976191D01*
X184452381Y-116214286D01*
X183785714Y-114785714D02*
X184452381Y-114785714D01*
X183404762Y-115023810D02*
X184119048Y-115261905D01*
X184119048Y-114642857D01*
X183880952Y-114119048D02*
X183833333Y-114214286D01*
X183785714Y-114261905D01*
X183690476Y-114309524D01*
X183642857Y-114309524D01*
X183547619Y-114261905D01*
X183500000Y-114214286D01*
X183452381Y-114119048D01*
X183452381Y-113928571D01*
X183500000Y-113833333D01*
X183547619Y-113785714D01*
X183642857Y-113738095D01*
X183690476Y-113738095D01*
X183785714Y-113785714D01*
X183833333Y-113833333D01*
X183880952Y-113928571D01*
X183880952Y-114119048D01*
X183928571Y-114214286D01*
X183976190Y-114261905D01*
X184071429Y-114309524D01*
X184261905Y-114309524D01*
X184357143Y-114261905D01*
X184404762Y-114214286D01*
X184452381Y-114119048D01*
X184452381Y-113928571D01*
X184404762Y-113833333D01*
X184357143Y-113785714D01*
X184261905Y-113738095D01*
X184071429Y-113738095D01*
X183976190Y-113785714D01*
X183928571Y-113833333D01*
X183880952Y-113928571D01*
X42452381Y-135214286D02*
X41452381Y-135214286D01*
X41452381Y-134976191D01*
X41500000Y-134833333D01*
X41595238Y-134738095D01*
X41690476Y-134690476D01*
X41880952Y-134642857D01*
X42023810Y-134642857D01*
X42214286Y-134690476D01*
X42309524Y-134738095D01*
X42404762Y-134833333D01*
X42452381Y-134976191D01*
X42452381Y-135214286D01*
X41452381Y-133738095D02*
X41452381Y-134214286D01*
X41928571Y-134261905D01*
X41880952Y-134214286D01*
X41833333Y-134119048D01*
X41833333Y-133880952D01*
X41880952Y-133785714D01*
X41928571Y-133738095D01*
X42023810Y-133690476D01*
X42261905Y-133690476D01*
X42357143Y-133738095D01*
X42404762Y-133785714D01*
X42452381Y-133880952D01*
X42452381Y-134119048D01*
X42404762Y-134214286D01*
X42357143Y-134261905D01*
X42452381Y-132738095D02*
X42452381Y-133309524D01*
X42452381Y-133023810D02*
X41452381Y-133023810D01*
X41595238Y-133119048D01*
X41690476Y-133214286D01*
X41738095Y-133309524D01*
X70452381Y-135214286D02*
X69452381Y-135214286D01*
X69452381Y-134976191D01*
X69500000Y-134833333D01*
X69595238Y-134738095D01*
X69690476Y-134690476D01*
X69880952Y-134642857D01*
X70023810Y-134642857D01*
X70214286Y-134690476D01*
X70309524Y-134738095D01*
X70404762Y-134833333D01*
X70452381Y-134976191D01*
X70452381Y-135214286D01*
X69452381Y-133738095D02*
X69452381Y-134214286D01*
X69928571Y-134261905D01*
X69880952Y-134214286D01*
X69833333Y-134119048D01*
X69833333Y-133880952D01*
X69880952Y-133785714D01*
X69928571Y-133738095D01*
X70023810Y-133690476D01*
X70261905Y-133690476D01*
X70357143Y-133738095D01*
X70404762Y-133785714D01*
X70452381Y-133880952D01*
X70452381Y-134119048D01*
X70404762Y-134214286D01*
X70357143Y-134261905D01*
X69547619Y-133309524D02*
X69500000Y-133261905D01*
X69452381Y-133166667D01*
X69452381Y-132928571D01*
X69500000Y-132833333D01*
X69547619Y-132785714D01*
X69642857Y-132738095D01*
X69738095Y-132738095D01*
X69880952Y-132785714D01*
X70452381Y-133357143D01*
X70452381Y-132738095D01*
X112452381Y-135214286D02*
X111452381Y-135214286D01*
X111452381Y-134976191D01*
X111500000Y-134833333D01*
X111595238Y-134738095D01*
X111690476Y-134690476D01*
X111880952Y-134642857D01*
X112023810Y-134642857D01*
X112214286Y-134690476D01*
X112309524Y-134738095D01*
X112404762Y-134833333D01*
X112452381Y-134976191D01*
X112452381Y-135214286D01*
X111452381Y-133738095D02*
X111452381Y-134214286D01*
X111928571Y-134261905D01*
X111880952Y-134214286D01*
X111833333Y-134119048D01*
X111833333Y-133880952D01*
X111880952Y-133785714D01*
X111928571Y-133738095D01*
X112023810Y-133690476D01*
X112261905Y-133690476D01*
X112357143Y-133738095D01*
X112404762Y-133785714D01*
X112452381Y-133880952D01*
X112452381Y-134119048D01*
X112404762Y-134214286D01*
X112357143Y-134261905D01*
X111785714Y-132833333D02*
X112452381Y-132833333D01*
X111404762Y-133071429D02*
X112119048Y-133309524D01*
X112119048Y-132690476D01*
D13*
X57242286Y-63689048D02*
X57460000Y-63749524D01*
X57822857Y-63749524D01*
X57968000Y-63689048D01*
X58040571Y-63628571D01*
X58113143Y-63507619D01*
X58113143Y-63386667D01*
X58040571Y-63265714D01*
X57968000Y-63205238D01*
X57822857Y-63144762D01*
X57532571Y-63084286D01*
X57387429Y-63023810D01*
X57314857Y-62963333D01*
X57242286Y-62842381D01*
X57242286Y-62721429D01*
X57314857Y-62600476D01*
X57387429Y-62540000D01*
X57532571Y-62479524D01*
X57895429Y-62479524D01*
X58113143Y-62540000D01*
X58621143Y-62479524D02*
X58984000Y-63749524D01*
X59274286Y-62842381D01*
X59564572Y-63749524D01*
X59927429Y-62479524D01*
X61306286Y-63749524D02*
X60435429Y-63749524D01*
X60870857Y-63749524D02*
X60870857Y-62479524D01*
X60725714Y-62660952D01*
X60580572Y-62781905D01*
X60435429Y-62842381D01*
X62757715Y-63749524D02*
X61886858Y-63749524D01*
X62322286Y-63749524D02*
X62322286Y-62479524D01*
X62177143Y-62660952D01*
X62032001Y-62781905D01*
X61886858Y-62842381D01*
X76242286Y-63689048D02*
X76460000Y-63749524D01*
X76822857Y-63749524D01*
X76968000Y-63689048D01*
X77040571Y-63628571D01*
X77113143Y-63507619D01*
X77113143Y-63386667D01*
X77040571Y-63265714D01*
X76968000Y-63205238D01*
X76822857Y-63144762D01*
X76532571Y-63084286D01*
X76387429Y-63023810D01*
X76314857Y-62963333D01*
X76242286Y-62842381D01*
X76242286Y-62721429D01*
X76314857Y-62600476D01*
X76387429Y-62540000D01*
X76532571Y-62479524D01*
X76895429Y-62479524D01*
X77113143Y-62540000D01*
X77621143Y-62479524D02*
X77984000Y-63749524D01*
X78274286Y-62842381D01*
X78564572Y-63749524D01*
X78927429Y-62479524D01*
X80306286Y-63749524D02*
X79435429Y-63749524D01*
X79870857Y-63749524D02*
X79870857Y-62479524D01*
X79725714Y-62660952D01*
X79580572Y-62781905D01*
X79435429Y-62842381D01*
X80886858Y-62600476D02*
X80959429Y-62540000D01*
X81104572Y-62479524D01*
X81467429Y-62479524D01*
X81612572Y-62540000D01*
X81685143Y-62600476D01*
X81757715Y-62721429D01*
X81757715Y-62842381D01*
X81685143Y-63023810D01*
X80814286Y-63749524D01*
X81757715Y-63749524D01*
X95242286Y-63689048D02*
X95460000Y-63749524D01*
X95822857Y-63749524D01*
X95968000Y-63689048D01*
X96040571Y-63628571D01*
X96113143Y-63507619D01*
X96113143Y-63386667D01*
X96040571Y-63265714D01*
X95968000Y-63205238D01*
X95822857Y-63144762D01*
X95532571Y-63084286D01*
X95387429Y-63023810D01*
X95314857Y-62963333D01*
X95242286Y-62842381D01*
X95242286Y-62721429D01*
X95314857Y-62600476D01*
X95387429Y-62540000D01*
X95532571Y-62479524D01*
X95895429Y-62479524D01*
X96113143Y-62540000D01*
X96621143Y-62479524D02*
X96984000Y-63749524D01*
X97274286Y-62842381D01*
X97564572Y-63749524D01*
X97927429Y-62479524D01*
X99306286Y-63749524D02*
X98435429Y-63749524D01*
X98870857Y-63749524D02*
X98870857Y-62479524D01*
X98725714Y-62660952D01*
X98580572Y-62781905D01*
X98435429Y-62842381D01*
X99814286Y-62479524D02*
X100757715Y-62479524D01*
X100249715Y-62963333D01*
X100467429Y-62963333D01*
X100612572Y-63023810D01*
X100685143Y-63084286D01*
X100757715Y-63205238D01*
X100757715Y-63507619D01*
X100685143Y-63628571D01*
X100612572Y-63689048D01*
X100467429Y-63749524D01*
X100032001Y-63749524D01*
X99886858Y-63689048D01*
X99814286Y-63628571D01*
X114242286Y-63689048D02*
X114460000Y-63749524D01*
X114822857Y-63749524D01*
X114968000Y-63689048D01*
X115040571Y-63628571D01*
X115113143Y-63507619D01*
X115113143Y-63386667D01*
X115040571Y-63265714D01*
X114968000Y-63205238D01*
X114822857Y-63144762D01*
X114532571Y-63084286D01*
X114387429Y-63023810D01*
X114314857Y-62963333D01*
X114242286Y-62842381D01*
X114242286Y-62721429D01*
X114314857Y-62600476D01*
X114387429Y-62540000D01*
X114532571Y-62479524D01*
X114895429Y-62479524D01*
X115113143Y-62540000D01*
X115621143Y-62479524D02*
X115984000Y-63749524D01*
X116274286Y-62842381D01*
X116564572Y-63749524D01*
X116927429Y-62479524D01*
X118306286Y-63749524D02*
X117435429Y-63749524D01*
X117870857Y-63749524D02*
X117870857Y-62479524D01*
X117725714Y-62660952D01*
X117580572Y-62781905D01*
X117435429Y-62842381D01*
X119612572Y-62902857D02*
X119612572Y-63749524D01*
X119249715Y-62419048D02*
X118886858Y-63326190D01*
X119830286Y-63326190D01*
X133242286Y-63689048D02*
X133460000Y-63749524D01*
X133822857Y-63749524D01*
X133968000Y-63689048D01*
X134040571Y-63628571D01*
X134113143Y-63507619D01*
X134113143Y-63386667D01*
X134040571Y-63265714D01*
X133968000Y-63205238D01*
X133822857Y-63144762D01*
X133532571Y-63084286D01*
X133387429Y-63023810D01*
X133314857Y-62963333D01*
X133242286Y-62842381D01*
X133242286Y-62721429D01*
X133314857Y-62600476D01*
X133387429Y-62540000D01*
X133532571Y-62479524D01*
X133895429Y-62479524D01*
X134113143Y-62540000D01*
X134621143Y-62479524D02*
X134984000Y-63749524D01*
X135274286Y-62842381D01*
X135564572Y-63749524D01*
X135927429Y-62479524D01*
X137306286Y-63749524D02*
X136435429Y-63749524D01*
X136870857Y-63749524D02*
X136870857Y-62479524D01*
X136725714Y-62660952D01*
X136580572Y-62781905D01*
X136435429Y-62842381D01*
X138685143Y-62479524D02*
X137959429Y-62479524D01*
X137886858Y-63084286D01*
X137959429Y-63023810D01*
X138104572Y-62963333D01*
X138467429Y-62963333D01*
X138612572Y-63023810D01*
X138685143Y-63084286D01*
X138757715Y-63205238D01*
X138757715Y-63507619D01*
X138685143Y-63628571D01*
X138612572Y-63689048D01*
X138467429Y-63749524D01*
X138104572Y-63749524D01*
X137959429Y-63689048D01*
X137886858Y-63628571D01*
X152242286Y-63689048D02*
X152460000Y-63749524D01*
X152822857Y-63749524D01*
X152968000Y-63689048D01*
X153040571Y-63628571D01*
X153113143Y-63507619D01*
X153113143Y-63386667D01*
X153040571Y-63265714D01*
X152968000Y-63205238D01*
X152822857Y-63144762D01*
X152532571Y-63084286D01*
X152387429Y-63023810D01*
X152314857Y-62963333D01*
X152242286Y-62842381D01*
X152242286Y-62721429D01*
X152314857Y-62600476D01*
X152387429Y-62540000D01*
X152532571Y-62479524D01*
X152895429Y-62479524D01*
X153113143Y-62540000D01*
X153621143Y-62479524D02*
X153984000Y-63749524D01*
X154274286Y-62842381D01*
X154564572Y-63749524D01*
X154927429Y-62479524D01*
X156306286Y-63749524D02*
X155435429Y-63749524D01*
X155870857Y-63749524D02*
X155870857Y-62479524D01*
X155725714Y-62660952D01*
X155580572Y-62781905D01*
X155435429Y-62842381D01*
X157612572Y-62479524D02*
X157322286Y-62479524D01*
X157177143Y-62540000D01*
X157104572Y-62600476D01*
X156959429Y-62781905D01*
X156886858Y-63023810D01*
X156886858Y-63507619D01*
X156959429Y-63628571D01*
X157032001Y-63689048D01*
X157177143Y-63749524D01*
X157467429Y-63749524D01*
X157612572Y-63689048D01*
X157685143Y-63628571D01*
X157757715Y-63507619D01*
X157757715Y-63205238D01*
X157685143Y-63084286D01*
X157612572Y-63023810D01*
X157467429Y-62963333D01*
X157177143Y-62963333D01*
X157032001Y-63023810D01*
X156959429Y-63084286D01*
X156886858Y-63205238D01*
X47742286Y-82689048D02*
X47960000Y-82749524D01*
X48322857Y-82749524D01*
X48468000Y-82689048D01*
X48540571Y-82628571D01*
X48613143Y-82507619D01*
X48613143Y-82386667D01*
X48540571Y-82265714D01*
X48468000Y-82205238D01*
X48322857Y-82144762D01*
X48032571Y-82084286D01*
X47887429Y-82023810D01*
X47814857Y-81963333D01*
X47742286Y-81842381D01*
X47742286Y-81721429D01*
X47814857Y-81600476D01*
X47887429Y-81540000D01*
X48032571Y-81479524D01*
X48395429Y-81479524D01*
X48613143Y-81540000D01*
X49121143Y-81479524D02*
X49484000Y-82749524D01*
X49774286Y-81842381D01*
X50064572Y-82749524D01*
X50427429Y-81479524D01*
X50935429Y-81600476D02*
X51008000Y-81540000D01*
X51153143Y-81479524D01*
X51516000Y-81479524D01*
X51661143Y-81540000D01*
X51733714Y-81600476D01*
X51806286Y-81721429D01*
X51806286Y-81842381D01*
X51733714Y-82023810D01*
X50862857Y-82749524D01*
X51806286Y-82749524D01*
X53257715Y-82749524D02*
X52386858Y-82749524D01*
X52822286Y-82749524D02*
X52822286Y-81479524D01*
X52677143Y-81660952D01*
X52532001Y-81781905D01*
X52386858Y-81842381D01*
X66742286Y-82689048D02*
X66960000Y-82749524D01*
X67322857Y-82749524D01*
X67468000Y-82689048D01*
X67540571Y-82628571D01*
X67613143Y-82507619D01*
X67613143Y-82386667D01*
X67540571Y-82265714D01*
X67468000Y-82205238D01*
X67322857Y-82144762D01*
X67032571Y-82084286D01*
X66887429Y-82023810D01*
X66814857Y-81963333D01*
X66742286Y-81842381D01*
X66742286Y-81721429D01*
X66814857Y-81600476D01*
X66887429Y-81540000D01*
X67032571Y-81479524D01*
X67395429Y-81479524D01*
X67613143Y-81540000D01*
X68121143Y-81479524D02*
X68484000Y-82749524D01*
X68774286Y-81842381D01*
X69064572Y-82749524D01*
X69427429Y-81479524D01*
X69935429Y-81600476D02*
X70008000Y-81540000D01*
X70153143Y-81479524D01*
X70516000Y-81479524D01*
X70661143Y-81540000D01*
X70733714Y-81600476D01*
X70806286Y-81721429D01*
X70806286Y-81842381D01*
X70733714Y-82023810D01*
X69862857Y-82749524D01*
X70806286Y-82749524D01*
X71386858Y-81600476D02*
X71459429Y-81540000D01*
X71604572Y-81479524D01*
X71967429Y-81479524D01*
X72112572Y-81540000D01*
X72185143Y-81600476D01*
X72257715Y-81721429D01*
X72257715Y-81842381D01*
X72185143Y-82023810D01*
X71314286Y-82749524D01*
X72257715Y-82749524D01*
X85742286Y-82689048D02*
X85960000Y-82749524D01*
X86322857Y-82749524D01*
X86468000Y-82689048D01*
X86540571Y-82628571D01*
X86613143Y-82507619D01*
X86613143Y-82386667D01*
X86540571Y-82265714D01*
X86468000Y-82205238D01*
X86322857Y-82144762D01*
X86032571Y-82084286D01*
X85887429Y-82023810D01*
X85814857Y-81963333D01*
X85742286Y-81842381D01*
X85742286Y-81721429D01*
X85814857Y-81600476D01*
X85887429Y-81540000D01*
X86032571Y-81479524D01*
X86395429Y-81479524D01*
X86613143Y-81540000D01*
X87121143Y-81479524D02*
X87484000Y-82749524D01*
X87774286Y-81842381D01*
X88064572Y-82749524D01*
X88427429Y-81479524D01*
X88935429Y-81600476D02*
X89008000Y-81540000D01*
X89153143Y-81479524D01*
X89516000Y-81479524D01*
X89661143Y-81540000D01*
X89733714Y-81600476D01*
X89806286Y-81721429D01*
X89806286Y-81842381D01*
X89733714Y-82023810D01*
X88862857Y-82749524D01*
X89806286Y-82749524D01*
X90314286Y-81479524D02*
X91257715Y-81479524D01*
X90749715Y-81963333D01*
X90967429Y-81963333D01*
X91112572Y-82023810D01*
X91185143Y-82084286D01*
X91257715Y-82205238D01*
X91257715Y-82507619D01*
X91185143Y-82628571D01*
X91112572Y-82689048D01*
X90967429Y-82749524D01*
X90532001Y-82749524D01*
X90386858Y-82689048D01*
X90314286Y-82628571D01*
X104742286Y-82689048D02*
X104960000Y-82749524D01*
X105322857Y-82749524D01*
X105468000Y-82689048D01*
X105540571Y-82628571D01*
X105613143Y-82507619D01*
X105613143Y-82386667D01*
X105540571Y-82265714D01*
X105468000Y-82205238D01*
X105322857Y-82144762D01*
X105032571Y-82084286D01*
X104887429Y-82023810D01*
X104814857Y-81963333D01*
X104742286Y-81842381D01*
X104742286Y-81721429D01*
X104814857Y-81600476D01*
X104887429Y-81540000D01*
X105032571Y-81479524D01*
X105395429Y-81479524D01*
X105613143Y-81540000D01*
X106121143Y-81479524D02*
X106484000Y-82749524D01*
X106774286Y-81842381D01*
X107064572Y-82749524D01*
X107427429Y-81479524D01*
X107935429Y-81600476D02*
X108008000Y-81540000D01*
X108153143Y-81479524D01*
X108516000Y-81479524D01*
X108661143Y-81540000D01*
X108733714Y-81600476D01*
X108806286Y-81721429D01*
X108806286Y-81842381D01*
X108733714Y-82023810D01*
X107862857Y-82749524D01*
X108806286Y-82749524D01*
X110112572Y-81902857D02*
X110112572Y-82749524D01*
X109749715Y-81419048D02*
X109386858Y-82326190D01*
X110330286Y-82326190D01*
X123742286Y-82689048D02*
X123960000Y-82749524D01*
X124322857Y-82749524D01*
X124468000Y-82689048D01*
X124540571Y-82628571D01*
X124613143Y-82507619D01*
X124613143Y-82386667D01*
X124540571Y-82265714D01*
X124468000Y-82205238D01*
X124322857Y-82144762D01*
X124032571Y-82084286D01*
X123887429Y-82023810D01*
X123814857Y-81963333D01*
X123742286Y-81842381D01*
X123742286Y-81721429D01*
X123814857Y-81600476D01*
X123887429Y-81540000D01*
X124032571Y-81479524D01*
X124395429Y-81479524D01*
X124613143Y-81540000D01*
X125121143Y-81479524D02*
X125484000Y-82749524D01*
X125774286Y-81842381D01*
X126064572Y-82749524D01*
X126427429Y-81479524D01*
X126935429Y-81600476D02*
X127008000Y-81540000D01*
X127153143Y-81479524D01*
X127516000Y-81479524D01*
X127661143Y-81540000D01*
X127733714Y-81600476D01*
X127806286Y-81721429D01*
X127806286Y-81842381D01*
X127733714Y-82023810D01*
X126862857Y-82749524D01*
X127806286Y-82749524D01*
X129185143Y-81479524D02*
X128459429Y-81479524D01*
X128386858Y-82084286D01*
X128459429Y-82023810D01*
X128604572Y-81963333D01*
X128967429Y-81963333D01*
X129112572Y-82023810D01*
X129185143Y-82084286D01*
X129257715Y-82205238D01*
X129257715Y-82507619D01*
X129185143Y-82628571D01*
X129112572Y-82689048D01*
X128967429Y-82749524D01*
X128604572Y-82749524D01*
X128459429Y-82689048D01*
X128386858Y-82628571D01*
X142742286Y-82689048D02*
X142960000Y-82749524D01*
X143322857Y-82749524D01*
X143468000Y-82689048D01*
X143540571Y-82628571D01*
X143613143Y-82507619D01*
X143613143Y-82386667D01*
X143540571Y-82265714D01*
X143468000Y-82205238D01*
X143322857Y-82144762D01*
X143032571Y-82084286D01*
X142887429Y-82023810D01*
X142814857Y-81963333D01*
X142742286Y-81842381D01*
X142742286Y-81721429D01*
X142814857Y-81600476D01*
X142887429Y-81540000D01*
X143032571Y-81479524D01*
X143395429Y-81479524D01*
X143613143Y-81540000D01*
X144121143Y-81479524D02*
X144484000Y-82749524D01*
X144774286Y-81842381D01*
X145064572Y-82749524D01*
X145427429Y-81479524D01*
X145935429Y-81600476D02*
X146008000Y-81540000D01*
X146153143Y-81479524D01*
X146516000Y-81479524D01*
X146661143Y-81540000D01*
X146733714Y-81600476D01*
X146806286Y-81721429D01*
X146806286Y-81842381D01*
X146733714Y-82023810D01*
X145862857Y-82749524D01*
X146806286Y-82749524D01*
X148112572Y-81479524D02*
X147822286Y-81479524D01*
X147677143Y-81540000D01*
X147604572Y-81600476D01*
X147459429Y-81781905D01*
X147386858Y-82023810D01*
X147386858Y-82507619D01*
X147459429Y-82628571D01*
X147532001Y-82689048D01*
X147677143Y-82749524D01*
X147967429Y-82749524D01*
X148112572Y-82689048D01*
X148185143Y-82628571D01*
X148257715Y-82507619D01*
X148257715Y-82205238D01*
X148185143Y-82084286D01*
X148112572Y-82023810D01*
X147967429Y-81963333D01*
X147677143Y-81963333D01*
X147532001Y-82023810D01*
X147459429Y-82084286D01*
X147386858Y-82205238D01*
X161742286Y-82689048D02*
X161960000Y-82749524D01*
X162322857Y-82749524D01*
X162468000Y-82689048D01*
X162540571Y-82628571D01*
X162613143Y-82507619D01*
X162613143Y-82386667D01*
X162540571Y-82265714D01*
X162468000Y-82205238D01*
X162322857Y-82144762D01*
X162032571Y-82084286D01*
X161887429Y-82023810D01*
X161814857Y-81963333D01*
X161742286Y-81842381D01*
X161742286Y-81721429D01*
X161814857Y-81600476D01*
X161887429Y-81540000D01*
X162032571Y-81479524D01*
X162395429Y-81479524D01*
X162613143Y-81540000D01*
X163121143Y-81479524D02*
X163484000Y-82749524D01*
X163774286Y-81842381D01*
X164064572Y-82749524D01*
X164427429Y-81479524D01*
X164935429Y-81600476D02*
X165008000Y-81540000D01*
X165153143Y-81479524D01*
X165516000Y-81479524D01*
X165661143Y-81540000D01*
X165733714Y-81600476D01*
X165806286Y-81721429D01*
X165806286Y-81842381D01*
X165733714Y-82023810D01*
X164862857Y-82749524D01*
X165806286Y-82749524D01*
X166314286Y-81479524D02*
X167330286Y-81479524D01*
X166677143Y-82749524D01*
X185492286Y-82689048D02*
X185710000Y-82749524D01*
X186072857Y-82749524D01*
X186218000Y-82689048D01*
X186290571Y-82628571D01*
X186363143Y-82507619D01*
X186363143Y-82386667D01*
X186290571Y-82265714D01*
X186218000Y-82205238D01*
X186072857Y-82144762D01*
X185782571Y-82084286D01*
X185637429Y-82023810D01*
X185564857Y-81963333D01*
X185492286Y-81842381D01*
X185492286Y-81721429D01*
X185564857Y-81600476D01*
X185637429Y-81540000D01*
X185782571Y-81479524D01*
X186145429Y-81479524D01*
X186363143Y-81540000D01*
X186871143Y-81479524D02*
X187234000Y-82749524D01*
X187524286Y-81842381D01*
X187814572Y-82749524D01*
X188177429Y-81479524D01*
X188685429Y-81600476D02*
X188758000Y-81540000D01*
X188903143Y-81479524D01*
X189266000Y-81479524D01*
X189411143Y-81540000D01*
X189483714Y-81600476D01*
X189556286Y-81721429D01*
X189556286Y-81842381D01*
X189483714Y-82023810D01*
X188612857Y-82749524D01*
X189556286Y-82749524D01*
X190427143Y-82023810D02*
X190282001Y-81963333D01*
X190209429Y-81902857D01*
X190136858Y-81781905D01*
X190136858Y-81721429D01*
X190209429Y-81600476D01*
X190282001Y-81540000D01*
X190427143Y-81479524D01*
X190717429Y-81479524D01*
X190862572Y-81540000D01*
X190935143Y-81600476D01*
X191007715Y-81721429D01*
X191007715Y-81781905D01*
X190935143Y-81902857D01*
X190862572Y-81963333D01*
X190717429Y-82023810D01*
X190427143Y-82023810D01*
X190282001Y-82084286D01*
X190209429Y-82144762D01*
X190136858Y-82265714D01*
X190136858Y-82507619D01*
X190209429Y-82628571D01*
X190282001Y-82689048D01*
X190427143Y-82749524D01*
X190717429Y-82749524D01*
X190862572Y-82689048D01*
X190935143Y-82628571D01*
X191007715Y-82507619D01*
X191007715Y-82265714D01*
X190935143Y-82144762D01*
X190862572Y-82084286D01*
X190717429Y-82023810D01*
X52492286Y-101689048D02*
X52710000Y-101749524D01*
X53072857Y-101749524D01*
X53218000Y-101689048D01*
X53290571Y-101628571D01*
X53363143Y-101507619D01*
X53363143Y-101386667D01*
X53290571Y-101265714D01*
X53218000Y-101205238D01*
X53072857Y-101144762D01*
X52782571Y-101084286D01*
X52637429Y-101023810D01*
X52564857Y-100963333D01*
X52492286Y-100842381D01*
X52492286Y-100721429D01*
X52564857Y-100600476D01*
X52637429Y-100540000D01*
X52782571Y-100479524D01*
X53145429Y-100479524D01*
X53363143Y-100540000D01*
X53871143Y-100479524D02*
X54234000Y-101749524D01*
X54524286Y-100842381D01*
X54814572Y-101749524D01*
X55177429Y-100479524D01*
X55612857Y-100479524D02*
X56556286Y-100479524D01*
X56048286Y-100963333D01*
X56266000Y-100963333D01*
X56411143Y-101023810D01*
X56483714Y-101084286D01*
X56556286Y-101205238D01*
X56556286Y-101507619D01*
X56483714Y-101628571D01*
X56411143Y-101689048D01*
X56266000Y-101749524D01*
X55830572Y-101749524D01*
X55685429Y-101689048D01*
X55612857Y-101628571D01*
X58007715Y-101749524D02*
X57136858Y-101749524D01*
X57572286Y-101749524D02*
X57572286Y-100479524D01*
X57427143Y-100660952D01*
X57282001Y-100781905D01*
X57136858Y-100842381D01*
X71492286Y-101689048D02*
X71710000Y-101749524D01*
X72072857Y-101749524D01*
X72218000Y-101689048D01*
X72290571Y-101628571D01*
X72363143Y-101507619D01*
X72363143Y-101386667D01*
X72290571Y-101265714D01*
X72218000Y-101205238D01*
X72072857Y-101144762D01*
X71782571Y-101084286D01*
X71637429Y-101023810D01*
X71564857Y-100963333D01*
X71492286Y-100842381D01*
X71492286Y-100721429D01*
X71564857Y-100600476D01*
X71637429Y-100540000D01*
X71782571Y-100479524D01*
X72145429Y-100479524D01*
X72363143Y-100540000D01*
X72871143Y-100479524D02*
X73234000Y-101749524D01*
X73524286Y-100842381D01*
X73814572Y-101749524D01*
X74177429Y-100479524D01*
X74612857Y-100479524D02*
X75556286Y-100479524D01*
X75048286Y-100963333D01*
X75266000Y-100963333D01*
X75411143Y-101023810D01*
X75483714Y-101084286D01*
X75556286Y-101205238D01*
X75556286Y-101507619D01*
X75483714Y-101628571D01*
X75411143Y-101689048D01*
X75266000Y-101749524D01*
X74830572Y-101749524D01*
X74685429Y-101689048D01*
X74612857Y-101628571D01*
X76136858Y-100600476D02*
X76209429Y-100540000D01*
X76354572Y-100479524D01*
X76717429Y-100479524D01*
X76862572Y-100540000D01*
X76935143Y-100600476D01*
X77007715Y-100721429D01*
X77007715Y-100842381D01*
X76935143Y-101023810D01*
X76064286Y-101749524D01*
X77007715Y-101749524D01*
X90492286Y-101689048D02*
X90710000Y-101749524D01*
X91072857Y-101749524D01*
X91218000Y-101689048D01*
X91290571Y-101628571D01*
X91363143Y-101507619D01*
X91363143Y-101386667D01*
X91290571Y-101265714D01*
X91218000Y-101205238D01*
X91072857Y-101144762D01*
X90782571Y-101084286D01*
X90637429Y-101023810D01*
X90564857Y-100963333D01*
X90492286Y-100842381D01*
X90492286Y-100721429D01*
X90564857Y-100600476D01*
X90637429Y-100540000D01*
X90782571Y-100479524D01*
X91145429Y-100479524D01*
X91363143Y-100540000D01*
X91871143Y-100479524D02*
X92234000Y-101749524D01*
X92524286Y-100842381D01*
X92814572Y-101749524D01*
X93177429Y-100479524D01*
X93612857Y-100479524D02*
X94556286Y-100479524D01*
X94048286Y-100963333D01*
X94266000Y-100963333D01*
X94411143Y-101023810D01*
X94483714Y-101084286D01*
X94556286Y-101205238D01*
X94556286Y-101507619D01*
X94483714Y-101628571D01*
X94411143Y-101689048D01*
X94266000Y-101749524D01*
X93830572Y-101749524D01*
X93685429Y-101689048D01*
X93612857Y-101628571D01*
X95064286Y-100479524D02*
X96007715Y-100479524D01*
X95499715Y-100963333D01*
X95717429Y-100963333D01*
X95862572Y-101023810D01*
X95935143Y-101084286D01*
X96007715Y-101205238D01*
X96007715Y-101507619D01*
X95935143Y-101628571D01*
X95862572Y-101689048D01*
X95717429Y-101749524D01*
X95282001Y-101749524D01*
X95136858Y-101689048D01*
X95064286Y-101628571D01*
X109492286Y-101689048D02*
X109710000Y-101749524D01*
X110072857Y-101749524D01*
X110218000Y-101689048D01*
X110290571Y-101628571D01*
X110363143Y-101507619D01*
X110363143Y-101386667D01*
X110290571Y-101265714D01*
X110218000Y-101205238D01*
X110072857Y-101144762D01*
X109782571Y-101084286D01*
X109637429Y-101023810D01*
X109564857Y-100963333D01*
X109492286Y-100842381D01*
X109492286Y-100721429D01*
X109564857Y-100600476D01*
X109637429Y-100540000D01*
X109782571Y-100479524D01*
X110145429Y-100479524D01*
X110363143Y-100540000D01*
X110871143Y-100479524D02*
X111234000Y-101749524D01*
X111524286Y-100842381D01*
X111814572Y-101749524D01*
X112177429Y-100479524D01*
X112612857Y-100479524D02*
X113556286Y-100479524D01*
X113048286Y-100963333D01*
X113266000Y-100963333D01*
X113411143Y-101023810D01*
X113483714Y-101084286D01*
X113556286Y-101205238D01*
X113556286Y-101507619D01*
X113483714Y-101628571D01*
X113411143Y-101689048D01*
X113266000Y-101749524D01*
X112830572Y-101749524D01*
X112685429Y-101689048D01*
X112612857Y-101628571D01*
X114862572Y-100902857D02*
X114862572Y-101749524D01*
X114499715Y-100419048D02*
X114136858Y-101326190D01*
X115080286Y-101326190D01*
X128492286Y-101689048D02*
X128710000Y-101749524D01*
X129072857Y-101749524D01*
X129218000Y-101689048D01*
X129290571Y-101628571D01*
X129363143Y-101507619D01*
X129363143Y-101386667D01*
X129290571Y-101265714D01*
X129218000Y-101205238D01*
X129072857Y-101144762D01*
X128782571Y-101084286D01*
X128637429Y-101023810D01*
X128564857Y-100963333D01*
X128492286Y-100842381D01*
X128492286Y-100721429D01*
X128564857Y-100600476D01*
X128637429Y-100540000D01*
X128782571Y-100479524D01*
X129145429Y-100479524D01*
X129363143Y-100540000D01*
X129871143Y-100479524D02*
X130234000Y-101749524D01*
X130524286Y-100842381D01*
X130814572Y-101749524D01*
X131177429Y-100479524D01*
X131612857Y-100479524D02*
X132556286Y-100479524D01*
X132048286Y-100963333D01*
X132266000Y-100963333D01*
X132411143Y-101023810D01*
X132483714Y-101084286D01*
X132556286Y-101205238D01*
X132556286Y-101507619D01*
X132483714Y-101628571D01*
X132411143Y-101689048D01*
X132266000Y-101749524D01*
X131830572Y-101749524D01*
X131685429Y-101689048D01*
X131612857Y-101628571D01*
X133935143Y-100479524D02*
X133209429Y-100479524D01*
X133136858Y-101084286D01*
X133209429Y-101023810D01*
X133354572Y-100963333D01*
X133717429Y-100963333D01*
X133862572Y-101023810D01*
X133935143Y-101084286D01*
X134007715Y-101205238D01*
X134007715Y-101507619D01*
X133935143Y-101628571D01*
X133862572Y-101689048D01*
X133717429Y-101749524D01*
X133354572Y-101749524D01*
X133209429Y-101689048D01*
X133136858Y-101628571D01*
X147492286Y-101689048D02*
X147710000Y-101749524D01*
X148072857Y-101749524D01*
X148218000Y-101689048D01*
X148290571Y-101628571D01*
X148363143Y-101507619D01*
X148363143Y-101386667D01*
X148290571Y-101265714D01*
X148218000Y-101205238D01*
X148072857Y-101144762D01*
X147782571Y-101084286D01*
X147637429Y-101023810D01*
X147564857Y-100963333D01*
X147492286Y-100842381D01*
X147492286Y-100721429D01*
X147564857Y-100600476D01*
X147637429Y-100540000D01*
X147782571Y-100479524D01*
X148145429Y-100479524D01*
X148363143Y-100540000D01*
X148871143Y-100479524D02*
X149234000Y-101749524D01*
X149524286Y-100842381D01*
X149814572Y-101749524D01*
X150177429Y-100479524D01*
X150612857Y-100479524D02*
X151556286Y-100479524D01*
X151048286Y-100963333D01*
X151266000Y-100963333D01*
X151411143Y-101023810D01*
X151483714Y-101084286D01*
X151556286Y-101205238D01*
X151556286Y-101507619D01*
X151483714Y-101628571D01*
X151411143Y-101689048D01*
X151266000Y-101749524D01*
X150830572Y-101749524D01*
X150685429Y-101689048D01*
X150612857Y-101628571D01*
X152862572Y-100479524D02*
X152572286Y-100479524D01*
X152427143Y-100540000D01*
X152354572Y-100600476D01*
X152209429Y-100781905D01*
X152136858Y-101023810D01*
X152136858Y-101507619D01*
X152209429Y-101628571D01*
X152282001Y-101689048D01*
X152427143Y-101749524D01*
X152717429Y-101749524D01*
X152862572Y-101689048D01*
X152935143Y-101628571D01*
X153007715Y-101507619D01*
X153007715Y-101205238D01*
X152935143Y-101084286D01*
X152862572Y-101023810D01*
X152717429Y-100963333D01*
X152427143Y-100963333D01*
X152282001Y-101023810D01*
X152209429Y-101084286D01*
X152136858Y-101205238D01*
X178367286Y-101689048D02*
X178585000Y-101749524D01*
X178947857Y-101749524D01*
X179093000Y-101689048D01*
X179165571Y-101628571D01*
X179238143Y-101507619D01*
X179238143Y-101386667D01*
X179165571Y-101265714D01*
X179093000Y-101205238D01*
X178947857Y-101144762D01*
X178657571Y-101084286D01*
X178512429Y-101023810D01*
X178439857Y-100963333D01*
X178367286Y-100842381D01*
X178367286Y-100721429D01*
X178439857Y-100600476D01*
X178512429Y-100540000D01*
X178657571Y-100479524D01*
X179020429Y-100479524D01*
X179238143Y-100540000D01*
X179746143Y-100479524D02*
X180109000Y-101749524D01*
X180399286Y-100842381D01*
X180689572Y-101749524D01*
X181052429Y-100479524D01*
X181487857Y-100479524D02*
X182431286Y-100479524D01*
X181923286Y-100963333D01*
X182141000Y-100963333D01*
X182286143Y-101023810D01*
X182358714Y-101084286D01*
X182431286Y-101205238D01*
X182431286Y-101507619D01*
X182358714Y-101628571D01*
X182286143Y-101689048D01*
X182141000Y-101749524D01*
X181705572Y-101749524D01*
X181560429Y-101689048D01*
X181487857Y-101628571D01*
X182939286Y-100479524D02*
X183955286Y-100479524D01*
X183302143Y-101749524D01*
X42992286Y-120689048D02*
X43210000Y-120749524D01*
X43572857Y-120749524D01*
X43718000Y-120689048D01*
X43790571Y-120628571D01*
X43863143Y-120507619D01*
X43863143Y-120386667D01*
X43790571Y-120265714D01*
X43718000Y-120205238D01*
X43572857Y-120144762D01*
X43282571Y-120084286D01*
X43137429Y-120023810D01*
X43064857Y-119963333D01*
X42992286Y-119842381D01*
X42992286Y-119721429D01*
X43064857Y-119600476D01*
X43137429Y-119540000D01*
X43282571Y-119479524D01*
X43645429Y-119479524D01*
X43863143Y-119540000D01*
X44371143Y-119479524D02*
X44734000Y-120749524D01*
X45024286Y-119842381D01*
X45314572Y-120749524D01*
X45677429Y-119479524D01*
X46911143Y-119902857D02*
X46911143Y-120749524D01*
X46548286Y-119419048D02*
X46185429Y-120326190D01*
X47128857Y-120326190D01*
X48507715Y-120749524D02*
X47636858Y-120749524D01*
X48072286Y-120749524D02*
X48072286Y-119479524D01*
X47927143Y-119660952D01*
X47782001Y-119781905D01*
X47636858Y-119842381D01*
X61992286Y-120689048D02*
X62210000Y-120749524D01*
X62572857Y-120749524D01*
X62718000Y-120689048D01*
X62790571Y-120628571D01*
X62863143Y-120507619D01*
X62863143Y-120386667D01*
X62790571Y-120265714D01*
X62718000Y-120205238D01*
X62572857Y-120144762D01*
X62282571Y-120084286D01*
X62137429Y-120023810D01*
X62064857Y-119963333D01*
X61992286Y-119842381D01*
X61992286Y-119721429D01*
X62064857Y-119600476D01*
X62137429Y-119540000D01*
X62282571Y-119479524D01*
X62645429Y-119479524D01*
X62863143Y-119540000D01*
X63371143Y-119479524D02*
X63734000Y-120749524D01*
X64024286Y-119842381D01*
X64314572Y-120749524D01*
X64677429Y-119479524D01*
X65911143Y-119902857D02*
X65911143Y-120749524D01*
X65548286Y-119419048D02*
X65185429Y-120326190D01*
X66128857Y-120326190D01*
X66636858Y-119600476D02*
X66709429Y-119540000D01*
X66854572Y-119479524D01*
X67217429Y-119479524D01*
X67362572Y-119540000D01*
X67435143Y-119600476D01*
X67507715Y-119721429D01*
X67507715Y-119842381D01*
X67435143Y-120023810D01*
X66564286Y-120749524D01*
X67507715Y-120749524D01*
X80992286Y-120689048D02*
X81210000Y-120749524D01*
X81572857Y-120749524D01*
X81718000Y-120689048D01*
X81790571Y-120628571D01*
X81863143Y-120507619D01*
X81863143Y-120386667D01*
X81790571Y-120265714D01*
X81718000Y-120205238D01*
X81572857Y-120144762D01*
X81282571Y-120084286D01*
X81137429Y-120023810D01*
X81064857Y-119963333D01*
X80992286Y-119842381D01*
X80992286Y-119721429D01*
X81064857Y-119600476D01*
X81137429Y-119540000D01*
X81282571Y-119479524D01*
X81645429Y-119479524D01*
X81863143Y-119540000D01*
X82371143Y-119479524D02*
X82734000Y-120749524D01*
X83024286Y-119842381D01*
X83314572Y-120749524D01*
X83677429Y-119479524D01*
X84911143Y-119902857D02*
X84911143Y-120749524D01*
X84548286Y-119419048D02*
X84185429Y-120326190D01*
X85128857Y-120326190D01*
X85564286Y-119479524D02*
X86507715Y-119479524D01*
X85999715Y-119963333D01*
X86217429Y-119963333D01*
X86362572Y-120023810D01*
X86435143Y-120084286D01*
X86507715Y-120205238D01*
X86507715Y-120507619D01*
X86435143Y-120628571D01*
X86362572Y-120689048D01*
X86217429Y-120749524D01*
X85782001Y-120749524D01*
X85636858Y-120689048D01*
X85564286Y-120628571D01*
X99992286Y-120689048D02*
X100210000Y-120749524D01*
X100572857Y-120749524D01*
X100718000Y-120689048D01*
X100790571Y-120628571D01*
X100863143Y-120507619D01*
X100863143Y-120386667D01*
X100790571Y-120265714D01*
X100718000Y-120205238D01*
X100572857Y-120144762D01*
X100282571Y-120084286D01*
X100137429Y-120023810D01*
X100064857Y-119963333D01*
X99992286Y-119842381D01*
X99992286Y-119721429D01*
X100064857Y-119600476D01*
X100137429Y-119540000D01*
X100282571Y-119479524D01*
X100645429Y-119479524D01*
X100863143Y-119540000D01*
X101371143Y-119479524D02*
X101734000Y-120749524D01*
X102024286Y-119842381D01*
X102314572Y-120749524D01*
X102677429Y-119479524D01*
X103911143Y-119902857D02*
X103911143Y-120749524D01*
X103548286Y-119419048D02*
X103185429Y-120326190D01*
X104128857Y-120326190D01*
X105362572Y-119902857D02*
X105362572Y-120749524D01*
X104999715Y-119419048D02*
X104636858Y-120326190D01*
X105580286Y-120326190D01*
X118992286Y-120689048D02*
X119210000Y-120749524D01*
X119572857Y-120749524D01*
X119718000Y-120689048D01*
X119790571Y-120628571D01*
X119863143Y-120507619D01*
X119863143Y-120386667D01*
X119790571Y-120265714D01*
X119718000Y-120205238D01*
X119572857Y-120144762D01*
X119282571Y-120084286D01*
X119137429Y-120023810D01*
X119064857Y-119963333D01*
X118992286Y-119842381D01*
X118992286Y-119721429D01*
X119064857Y-119600476D01*
X119137429Y-119540000D01*
X119282571Y-119479524D01*
X119645429Y-119479524D01*
X119863143Y-119540000D01*
X120371143Y-119479524D02*
X120734000Y-120749524D01*
X121024286Y-119842381D01*
X121314572Y-120749524D01*
X121677429Y-119479524D01*
X122911143Y-119902857D02*
X122911143Y-120749524D01*
X122548286Y-119419048D02*
X122185429Y-120326190D01*
X123128857Y-120326190D01*
X124435143Y-119479524D02*
X123709429Y-119479524D01*
X123636858Y-120084286D01*
X123709429Y-120023810D01*
X123854572Y-119963333D01*
X124217429Y-119963333D01*
X124362572Y-120023810D01*
X124435143Y-120084286D01*
X124507715Y-120205238D01*
X124507715Y-120507619D01*
X124435143Y-120628571D01*
X124362572Y-120689048D01*
X124217429Y-120749524D01*
X123854572Y-120749524D01*
X123709429Y-120689048D01*
X123636858Y-120628571D01*
X137992286Y-120689048D02*
X138210000Y-120749524D01*
X138572857Y-120749524D01*
X138718000Y-120689048D01*
X138790571Y-120628571D01*
X138863143Y-120507619D01*
X138863143Y-120386667D01*
X138790571Y-120265714D01*
X138718000Y-120205238D01*
X138572857Y-120144762D01*
X138282571Y-120084286D01*
X138137429Y-120023810D01*
X138064857Y-119963333D01*
X137992286Y-119842381D01*
X137992286Y-119721429D01*
X138064857Y-119600476D01*
X138137429Y-119540000D01*
X138282571Y-119479524D01*
X138645429Y-119479524D01*
X138863143Y-119540000D01*
X139371143Y-119479524D02*
X139734000Y-120749524D01*
X140024286Y-119842381D01*
X140314572Y-120749524D01*
X140677429Y-119479524D01*
X141911143Y-119902857D02*
X141911143Y-120749524D01*
X141548286Y-119419048D02*
X141185429Y-120326190D01*
X142128857Y-120326190D01*
X143362572Y-119479524D02*
X143072286Y-119479524D01*
X142927143Y-119540000D01*
X142854572Y-119600476D01*
X142709429Y-119781905D01*
X142636858Y-120023810D01*
X142636858Y-120507619D01*
X142709429Y-120628571D01*
X142782001Y-120689048D01*
X142927143Y-120749524D01*
X143217429Y-120749524D01*
X143362572Y-120689048D01*
X143435143Y-120628571D01*
X143507715Y-120507619D01*
X143507715Y-120205238D01*
X143435143Y-120084286D01*
X143362572Y-120023810D01*
X143217429Y-119963333D01*
X142927143Y-119963333D01*
X142782001Y-120023810D01*
X142709429Y-120084286D01*
X142636858Y-120205238D01*
X164117286Y-120689048D02*
X164335000Y-120749524D01*
X164697857Y-120749524D01*
X164843000Y-120689048D01*
X164915571Y-120628571D01*
X164988143Y-120507619D01*
X164988143Y-120386667D01*
X164915571Y-120265714D01*
X164843000Y-120205238D01*
X164697857Y-120144762D01*
X164407571Y-120084286D01*
X164262429Y-120023810D01*
X164189857Y-119963333D01*
X164117286Y-119842381D01*
X164117286Y-119721429D01*
X164189857Y-119600476D01*
X164262429Y-119540000D01*
X164407571Y-119479524D01*
X164770429Y-119479524D01*
X164988143Y-119540000D01*
X165496143Y-119479524D02*
X165859000Y-120749524D01*
X166149286Y-119842381D01*
X166439572Y-120749524D01*
X166802429Y-119479524D01*
X168036143Y-119902857D02*
X168036143Y-120749524D01*
X167673286Y-119419048D02*
X167310429Y-120326190D01*
X168253857Y-120326190D01*
X168689286Y-119479524D02*
X169705286Y-119479524D01*
X169052143Y-120749524D01*
X190242286Y-120689048D02*
X190460000Y-120749524D01*
X190822857Y-120749524D01*
X190968000Y-120689048D01*
X191040571Y-120628571D01*
X191113143Y-120507619D01*
X191113143Y-120386667D01*
X191040571Y-120265714D01*
X190968000Y-120205238D01*
X190822857Y-120144762D01*
X190532571Y-120084286D01*
X190387429Y-120023810D01*
X190314857Y-119963333D01*
X190242286Y-119842381D01*
X190242286Y-119721429D01*
X190314857Y-119600476D01*
X190387429Y-119540000D01*
X190532571Y-119479524D01*
X190895429Y-119479524D01*
X191113143Y-119540000D01*
X191621143Y-119479524D02*
X191984000Y-120749524D01*
X192274286Y-119842381D01*
X192564572Y-120749524D01*
X192927429Y-119479524D01*
X194161143Y-119902857D02*
X194161143Y-120749524D01*
X193798286Y-119419048D02*
X193435429Y-120326190D01*
X194378857Y-120326190D01*
X195177143Y-120023810D02*
X195032001Y-119963333D01*
X194959429Y-119902857D01*
X194886858Y-119781905D01*
X194886858Y-119721429D01*
X194959429Y-119600476D01*
X195032001Y-119540000D01*
X195177143Y-119479524D01*
X195467429Y-119479524D01*
X195612572Y-119540000D01*
X195685143Y-119600476D01*
X195757715Y-119721429D01*
X195757715Y-119781905D01*
X195685143Y-119902857D01*
X195612572Y-119963333D01*
X195467429Y-120023810D01*
X195177143Y-120023810D01*
X195032001Y-120084286D01*
X194959429Y-120144762D01*
X194886858Y-120265714D01*
X194886858Y-120507619D01*
X194959429Y-120628571D01*
X195032001Y-120689048D01*
X195177143Y-120749524D01*
X195467429Y-120749524D01*
X195612572Y-120689048D01*
X195685143Y-120628571D01*
X195757715Y-120507619D01*
X195757715Y-120265714D01*
X195685143Y-120144762D01*
X195612572Y-120084286D01*
X195467429Y-120023810D01*
X47742286Y-139689048D02*
X47960000Y-139749524D01*
X48322857Y-139749524D01*
X48468000Y-139689048D01*
X48540571Y-139628571D01*
X48613143Y-139507619D01*
X48613143Y-139386667D01*
X48540571Y-139265714D01*
X48468000Y-139205238D01*
X48322857Y-139144762D01*
X48032571Y-139084286D01*
X47887429Y-139023810D01*
X47814857Y-138963333D01*
X47742286Y-138842381D01*
X47742286Y-138721429D01*
X47814857Y-138600476D01*
X47887429Y-138540000D01*
X48032571Y-138479524D01*
X48395429Y-138479524D01*
X48613143Y-138540000D01*
X49121143Y-138479524D02*
X49484000Y-139749524D01*
X49774286Y-138842381D01*
X50064572Y-139749524D01*
X50427429Y-138479524D01*
X51733714Y-138479524D02*
X51008000Y-138479524D01*
X50935429Y-139084286D01*
X51008000Y-139023810D01*
X51153143Y-138963333D01*
X51516000Y-138963333D01*
X51661143Y-139023810D01*
X51733714Y-139084286D01*
X51806286Y-139205238D01*
X51806286Y-139507619D01*
X51733714Y-139628571D01*
X51661143Y-139689048D01*
X51516000Y-139749524D01*
X51153143Y-139749524D01*
X51008000Y-139689048D01*
X50935429Y-139628571D01*
X53257715Y-139749524D02*
X52386858Y-139749524D01*
X52822286Y-139749524D02*
X52822286Y-138479524D01*
X52677143Y-138660952D01*
X52532001Y-138781905D01*
X52386858Y-138842381D01*
X76242286Y-139689048D02*
X76460000Y-139749524D01*
X76822857Y-139749524D01*
X76968000Y-139689048D01*
X77040571Y-139628571D01*
X77113143Y-139507619D01*
X77113143Y-139386667D01*
X77040571Y-139265714D01*
X76968000Y-139205238D01*
X76822857Y-139144762D01*
X76532571Y-139084286D01*
X76387429Y-139023810D01*
X76314857Y-138963333D01*
X76242286Y-138842381D01*
X76242286Y-138721429D01*
X76314857Y-138600476D01*
X76387429Y-138540000D01*
X76532571Y-138479524D01*
X76895429Y-138479524D01*
X77113143Y-138540000D01*
X77621143Y-138479524D02*
X77984000Y-139749524D01*
X78274286Y-138842381D01*
X78564572Y-139749524D01*
X78927429Y-138479524D01*
X80233714Y-138479524D02*
X79508000Y-138479524D01*
X79435429Y-139084286D01*
X79508000Y-139023810D01*
X79653143Y-138963333D01*
X80016000Y-138963333D01*
X80161143Y-139023810D01*
X80233714Y-139084286D01*
X80306286Y-139205238D01*
X80306286Y-139507619D01*
X80233714Y-139628571D01*
X80161143Y-139689048D01*
X80016000Y-139749524D01*
X79653143Y-139749524D01*
X79508000Y-139689048D01*
X79435429Y-139628571D01*
X80886858Y-138600476D02*
X80959429Y-138540000D01*
X81104572Y-138479524D01*
X81467429Y-138479524D01*
X81612572Y-138540000D01*
X81685143Y-138600476D01*
X81757715Y-138721429D01*
X81757715Y-138842381D01*
X81685143Y-139023810D01*
X80814286Y-139749524D01*
X81757715Y-139749524D01*
X118992286Y-139689048D02*
X119210000Y-139749524D01*
X119572857Y-139749524D01*
X119718000Y-139689048D01*
X119790571Y-139628571D01*
X119863143Y-139507619D01*
X119863143Y-139386667D01*
X119790571Y-139265714D01*
X119718000Y-139205238D01*
X119572857Y-139144762D01*
X119282571Y-139084286D01*
X119137429Y-139023810D01*
X119064857Y-138963333D01*
X118992286Y-138842381D01*
X118992286Y-138721429D01*
X119064857Y-138600476D01*
X119137429Y-138540000D01*
X119282571Y-138479524D01*
X119645429Y-138479524D01*
X119863143Y-138540000D01*
X120371143Y-138479524D02*
X120734000Y-139749524D01*
X121024286Y-138842381D01*
X121314572Y-139749524D01*
X121677429Y-138479524D01*
X122983714Y-138479524D02*
X122258000Y-138479524D01*
X122185429Y-139084286D01*
X122258000Y-139023810D01*
X122403143Y-138963333D01*
X122766000Y-138963333D01*
X122911143Y-139023810D01*
X122983714Y-139084286D01*
X123056286Y-139205238D01*
X123056286Y-139507619D01*
X122983714Y-139628571D01*
X122911143Y-139689048D01*
X122766000Y-139749524D01*
X122403143Y-139749524D01*
X122258000Y-139689048D01*
X122185429Y-139628571D01*
X124362572Y-138902857D02*
X124362572Y-139749524D01*
X123999715Y-138419048D02*
X123636858Y-139326190D01*
X124580286Y-139326190D01*
D12*
X180255714Y-36182857D02*
X180255714Y-37154286D01*
X180312857Y-37268571D01*
X180370000Y-37325714D01*
X180484286Y-37382857D01*
X180712857Y-37382857D01*
X180827143Y-37325714D01*
X180884286Y-37268571D01*
X180941429Y-37154286D01*
X180941429Y-36182857D01*
X182141429Y-37382857D02*
X181455714Y-37382857D01*
X181798572Y-37382857D02*
X181798572Y-36182857D01*
X181684286Y-36354286D01*
X181570000Y-36468571D01*
X181455714Y-36525714D01*
X170684284Y-39580000D02*
X171255713Y-39580000D01*
X170569999Y-39922857D02*
X170969999Y-38722857D01*
X171369999Y-39922857D01*
X172455713Y-39922857D02*
X172055713Y-39351429D01*
X171769998Y-39922857D02*
X171769998Y-38722857D01*
X172227141Y-38722857D01*
X172341427Y-38780000D01*
X172398570Y-38837143D01*
X172455713Y-38951429D01*
X172455713Y-39122857D01*
X172398570Y-39237143D01*
X172341427Y-39294286D01*
X172227141Y-39351429D01*
X171769998Y-39351429D01*
X172969998Y-39922857D02*
X172969998Y-38722857D01*
X173255713Y-38722857D01*
X173427141Y-38780000D01*
X173541427Y-38894286D01*
X173598570Y-39008571D01*
X173655713Y-39237143D01*
X173655713Y-39408571D01*
X173598570Y-39637143D01*
X173541427Y-39751429D01*
X173427141Y-39865714D01*
X173255713Y-39922857D01*
X172969998Y-39922857D01*
X174169998Y-38722857D02*
X174169998Y-39694286D01*
X174227141Y-39808571D01*
X174284284Y-39865714D01*
X174398570Y-39922857D01*
X174627141Y-39922857D01*
X174741427Y-39865714D01*
X174798570Y-39808571D01*
X174855713Y-39694286D01*
X174855713Y-38722857D01*
X175427141Y-39922857D02*
X175427141Y-38722857D01*
X175998570Y-39922857D02*
X175998570Y-38722857D01*
X176684285Y-39922857D01*
X176684285Y-38722857D01*
X177484285Y-38722857D02*
X177712856Y-38722857D01*
X177827142Y-38780000D01*
X177941428Y-38894286D01*
X177998570Y-39122857D01*
X177998570Y-39522857D01*
X177941428Y-39751429D01*
X177827142Y-39865714D01*
X177712856Y-39922857D01*
X177484285Y-39922857D01*
X177369999Y-39865714D01*
X177255713Y-39751429D01*
X177198570Y-39522857D01*
X177198570Y-39122857D01*
X177255713Y-38894286D01*
X177369999Y-38780000D01*
X177484285Y-38722857D01*
X178227142Y-40037143D02*
X179141428Y-40037143D01*
X179427142Y-39922857D02*
X179427142Y-38722857D01*
X179827142Y-39580000D01*
X180227142Y-38722857D01*
X180227142Y-39922857D01*
X180798571Y-39922857D02*
X180798571Y-38722857D01*
X182055715Y-39808571D02*
X181998572Y-39865714D01*
X181827143Y-39922857D01*
X181712857Y-39922857D01*
X181541429Y-39865714D01*
X181427143Y-39751429D01*
X181370000Y-39637143D01*
X181312857Y-39408571D01*
X181312857Y-39237143D01*
X181370000Y-39008571D01*
X181427143Y-38894286D01*
X181541429Y-38780000D01*
X181712857Y-38722857D01*
X181827143Y-38722857D01*
X181998572Y-38780000D01*
X182055715Y-38837143D01*
X183255715Y-39922857D02*
X182855715Y-39351429D01*
X182570000Y-39922857D02*
X182570000Y-38722857D01*
X183027143Y-38722857D01*
X183141429Y-38780000D01*
X183198572Y-38837143D01*
X183255715Y-38951429D01*
X183255715Y-39122857D01*
X183198572Y-39237143D01*
X183141429Y-39294286D01*
X183027143Y-39351429D01*
X182570000Y-39351429D01*
X183998572Y-38722857D02*
X184227143Y-38722857D01*
X184341429Y-38780000D01*
X184455715Y-38894286D01*
X184512857Y-39122857D01*
X184512857Y-39522857D01*
X184455715Y-39751429D01*
X184341429Y-39865714D01*
X184227143Y-39922857D01*
X183998572Y-39922857D01*
X183884286Y-39865714D01*
X183770000Y-39751429D01*
X183712857Y-39522857D01*
X183712857Y-39122857D01*
X183770000Y-38894286D01*
X183884286Y-38780000D01*
X183998572Y-38722857D01*
X184741429Y-40037143D02*
X185655715Y-40037143D01*
X185884286Y-39865714D02*
X186055715Y-39922857D01*
X186341429Y-39922857D01*
X186455715Y-39865714D01*
X186512858Y-39808571D01*
X186570001Y-39694286D01*
X186570001Y-39580000D01*
X186512858Y-39465714D01*
X186455715Y-39408571D01*
X186341429Y-39351429D01*
X186112858Y-39294286D01*
X185998572Y-39237143D01*
X185941429Y-39180000D01*
X185884286Y-39065714D01*
X185884286Y-38951429D01*
X185941429Y-38837143D01*
X185998572Y-38780000D01*
X186112858Y-38722857D01*
X186398572Y-38722857D01*
X186570001Y-38780000D01*
X187084286Y-39922857D02*
X187084286Y-38722857D01*
X187084286Y-39294286D02*
X187770001Y-39294286D01*
X187770001Y-39922857D02*
X187770001Y-38722857D01*
X188341429Y-39922857D02*
X188341429Y-38722857D01*
X188912858Y-39294286D02*
X189312858Y-39294286D01*
X189484287Y-39922857D02*
X188912858Y-39922857D01*
X188912858Y-38722857D01*
X189484287Y-38722857D01*
X190570001Y-39922857D02*
X189998572Y-39922857D01*
X189998572Y-38722857D01*
X190970001Y-39922857D02*
X190970001Y-38722857D01*
X191255716Y-38722857D01*
X191427144Y-38780000D01*
X191541430Y-38894286D01*
X191598573Y-39008571D01*
X191655716Y-39237143D01*
X191655716Y-39408571D01*
X191598573Y-39637143D01*
X191541430Y-39751429D01*
X191427144Y-39865714D01*
X191255716Y-39922857D01*
X190970001Y-39922857D01*
X93452381Y-135214286D02*
X92452381Y-135214286D01*
X92452381Y-134976191D01*
X92500000Y-134833333D01*
X92595238Y-134738095D01*
X92690476Y-134690476D01*
X92880952Y-134642857D01*
X93023810Y-134642857D01*
X93214286Y-134690476D01*
X93309524Y-134738095D01*
X93404762Y-134833333D01*
X93452381Y-134976191D01*
X93452381Y-135214286D01*
X92452381Y-133738095D02*
X92452381Y-134214286D01*
X92928571Y-134261905D01*
X92880952Y-134214286D01*
X92833333Y-134119048D01*
X92833333Y-133880952D01*
X92880952Y-133785714D01*
X92928571Y-133738095D01*
X93023810Y-133690476D01*
X93261905Y-133690476D01*
X93357143Y-133738095D01*
X93404762Y-133785714D01*
X93452381Y-133880952D01*
X93452381Y-134119048D01*
X93404762Y-134214286D01*
X93357143Y-134261905D01*
X92452381Y-133357143D02*
X92452381Y-132738095D01*
X92833333Y-133071429D01*
X92833333Y-132928571D01*
X92880952Y-132833333D01*
X92928571Y-132785714D01*
X93023810Y-132738095D01*
X93261905Y-132738095D01*
X93357143Y-132785714D01*
X93404762Y-132833333D01*
X93452381Y-132928571D01*
X93452381Y-133214286D01*
X93404762Y-133309524D01*
X93357143Y-133357143D01*
X131452381Y-135214286D02*
X130452381Y-135214286D01*
X130452381Y-134976191D01*
X130500000Y-134833333D01*
X130595238Y-134738095D01*
X130690476Y-134690476D01*
X130880952Y-134642857D01*
X131023810Y-134642857D01*
X131214286Y-134690476D01*
X131309524Y-134738095D01*
X131404762Y-134833333D01*
X131452381Y-134976191D01*
X131452381Y-135214286D01*
X130452381Y-133738095D02*
X130452381Y-134214286D01*
X130928571Y-134261905D01*
X130880952Y-134214286D01*
X130833333Y-134119048D01*
X130833333Y-133880952D01*
X130880952Y-133785714D01*
X130928571Y-133738095D01*
X131023810Y-133690476D01*
X131261905Y-133690476D01*
X131357143Y-133738095D01*
X131404762Y-133785714D01*
X131452381Y-133880952D01*
X131452381Y-134119048D01*
X131404762Y-134214286D01*
X131357143Y-134261905D01*
X130452381Y-132785714D02*
X130452381Y-133261905D01*
X130928571Y-133309524D01*
X130880952Y-133261905D01*
X130833333Y-133166667D01*
X130833333Y-132928571D01*
X130880952Y-132833333D01*
X130928571Y-132785714D01*
X131023810Y-132738095D01*
X131261905Y-132738095D01*
X131357143Y-132785714D01*
X131404762Y-132833333D01*
X131452381Y-132928571D01*
X131452381Y-133166667D01*
X131404762Y-133261905D01*
X131357143Y-133309524D01*
X151452381Y-135214286D02*
X150452381Y-135214286D01*
X150452381Y-134976191D01*
X150500000Y-134833333D01*
X150595238Y-134738095D01*
X150690476Y-134690476D01*
X150880952Y-134642857D01*
X151023810Y-134642857D01*
X151214286Y-134690476D01*
X151309524Y-134738095D01*
X151404762Y-134833333D01*
X151452381Y-134976191D01*
X151452381Y-135214286D01*
X150452381Y-133738095D02*
X150452381Y-134214286D01*
X150928571Y-134261905D01*
X150880952Y-134214286D01*
X150833333Y-134119048D01*
X150833333Y-133880952D01*
X150880952Y-133785714D01*
X150928571Y-133738095D01*
X151023810Y-133690476D01*
X151261905Y-133690476D01*
X151357143Y-133738095D01*
X151404762Y-133785714D01*
X151452381Y-133880952D01*
X151452381Y-134119048D01*
X151404762Y-134214286D01*
X151357143Y-134261905D01*
X150452381Y-132833333D02*
X150452381Y-133023810D01*
X150500000Y-133119048D01*
X150547619Y-133166667D01*
X150690476Y-133261905D01*
X150880952Y-133309524D01*
X151261905Y-133309524D01*
X151357143Y-133261905D01*
X151404762Y-133214286D01*
X151452381Y-133119048D01*
X151452381Y-132928571D01*
X151404762Y-132833333D01*
X151357143Y-132785714D01*
X151261905Y-132738095D01*
X151023810Y-132738095D01*
X150928571Y-132785714D01*
X150880952Y-132833333D01*
X150833333Y-132928571D01*
X150833333Y-133119048D01*
X150880952Y-133214286D01*
X150928571Y-133261905D01*
X151023810Y-133309524D01*
X171452381Y-135214286D02*
X170452381Y-135214286D01*
X170452381Y-134976191D01*
X170500000Y-134833333D01*
X170595238Y-134738095D01*
X170690476Y-134690476D01*
X170880952Y-134642857D01*
X171023810Y-134642857D01*
X171214286Y-134690476D01*
X171309524Y-134738095D01*
X171404762Y-134833333D01*
X171452381Y-134976191D01*
X171452381Y-135214286D01*
X170452381Y-133738095D02*
X170452381Y-134214286D01*
X170928571Y-134261905D01*
X170880952Y-134214286D01*
X170833333Y-134119048D01*
X170833333Y-133880952D01*
X170880952Y-133785714D01*
X170928571Y-133738095D01*
X171023810Y-133690476D01*
X171261905Y-133690476D01*
X171357143Y-133738095D01*
X171404762Y-133785714D01*
X171452381Y-133880952D01*
X171452381Y-134119048D01*
X171404762Y-134214286D01*
X171357143Y-134261905D01*
X170452381Y-133357143D02*
X170452381Y-132690476D01*
X171452381Y-133119048D01*
D13*
X99992286Y-139689048D02*
X100210000Y-139749524D01*
X100572857Y-139749524D01*
X100718000Y-139689048D01*
X100790571Y-139628571D01*
X100863143Y-139507619D01*
X100863143Y-139386667D01*
X100790571Y-139265714D01*
X100718000Y-139205238D01*
X100572857Y-139144762D01*
X100282571Y-139084286D01*
X100137429Y-139023810D01*
X100064857Y-138963333D01*
X99992286Y-138842381D01*
X99992286Y-138721429D01*
X100064857Y-138600476D01*
X100137429Y-138540000D01*
X100282571Y-138479524D01*
X100645429Y-138479524D01*
X100863143Y-138540000D01*
X101371143Y-138479524D02*
X101734000Y-139749524D01*
X102024286Y-138842381D01*
X102314572Y-139749524D01*
X102677429Y-138479524D01*
X103983714Y-138479524D02*
X103258000Y-138479524D01*
X103185429Y-139084286D01*
X103258000Y-139023810D01*
X103403143Y-138963333D01*
X103766000Y-138963333D01*
X103911143Y-139023810D01*
X103983714Y-139084286D01*
X104056286Y-139205238D01*
X104056286Y-139507619D01*
X103983714Y-139628571D01*
X103911143Y-139689048D01*
X103766000Y-139749524D01*
X103403143Y-139749524D01*
X103258000Y-139689048D01*
X103185429Y-139628571D01*
X104564286Y-138479524D02*
X105507715Y-138479524D01*
X104999715Y-138963333D01*
X105217429Y-138963333D01*
X105362572Y-139023810D01*
X105435143Y-139084286D01*
X105507715Y-139205238D01*
X105507715Y-139507619D01*
X105435143Y-139628571D01*
X105362572Y-139689048D01*
X105217429Y-139749524D01*
X104782001Y-139749524D01*
X104636858Y-139689048D01*
X104564286Y-139628571D01*
X137992286Y-139689048D02*
X138210000Y-139749524D01*
X138572857Y-139749524D01*
X138718000Y-139689048D01*
X138790571Y-139628571D01*
X138863143Y-139507619D01*
X138863143Y-139386667D01*
X138790571Y-139265714D01*
X138718000Y-139205238D01*
X138572857Y-139144762D01*
X138282571Y-139084286D01*
X138137429Y-139023810D01*
X138064857Y-138963333D01*
X137992286Y-138842381D01*
X137992286Y-138721429D01*
X138064857Y-138600476D01*
X138137429Y-138540000D01*
X138282571Y-138479524D01*
X138645429Y-138479524D01*
X138863143Y-138540000D01*
X139371143Y-138479524D02*
X139734000Y-139749524D01*
X140024286Y-138842381D01*
X140314572Y-139749524D01*
X140677429Y-138479524D01*
X141983714Y-138479524D02*
X141258000Y-138479524D01*
X141185429Y-139084286D01*
X141258000Y-139023810D01*
X141403143Y-138963333D01*
X141766000Y-138963333D01*
X141911143Y-139023810D01*
X141983714Y-139084286D01*
X142056286Y-139205238D01*
X142056286Y-139507619D01*
X141983714Y-139628571D01*
X141911143Y-139689048D01*
X141766000Y-139749524D01*
X141403143Y-139749524D01*
X141258000Y-139689048D01*
X141185429Y-139628571D01*
X143435143Y-138479524D02*
X142709429Y-138479524D01*
X142636858Y-139084286D01*
X142709429Y-139023810D01*
X142854572Y-138963333D01*
X143217429Y-138963333D01*
X143362572Y-139023810D01*
X143435143Y-139084286D01*
X143507715Y-139205238D01*
X143507715Y-139507619D01*
X143435143Y-139628571D01*
X143362572Y-139689048D01*
X143217429Y-139749524D01*
X142854572Y-139749524D01*
X142709429Y-139689048D01*
X142636858Y-139628571D01*
X156992286Y-139689048D02*
X157210000Y-139749524D01*
X157572857Y-139749524D01*
X157718000Y-139689048D01*
X157790571Y-139628571D01*
X157863143Y-139507619D01*
X157863143Y-139386667D01*
X157790571Y-139265714D01*
X157718000Y-139205238D01*
X157572857Y-139144762D01*
X157282571Y-139084286D01*
X157137429Y-139023810D01*
X157064857Y-138963333D01*
X156992286Y-138842381D01*
X156992286Y-138721429D01*
X157064857Y-138600476D01*
X157137429Y-138540000D01*
X157282571Y-138479524D01*
X157645429Y-138479524D01*
X157863143Y-138540000D01*
X158371143Y-138479524D02*
X158734000Y-139749524D01*
X159024286Y-138842381D01*
X159314572Y-139749524D01*
X159677429Y-138479524D01*
X160983714Y-138479524D02*
X160258000Y-138479524D01*
X160185429Y-139084286D01*
X160258000Y-139023810D01*
X160403143Y-138963333D01*
X160766000Y-138963333D01*
X160911143Y-139023810D01*
X160983714Y-139084286D01*
X161056286Y-139205238D01*
X161056286Y-139507619D01*
X160983714Y-139628571D01*
X160911143Y-139689048D01*
X160766000Y-139749524D01*
X160403143Y-139749524D01*
X160258000Y-139689048D01*
X160185429Y-139628571D01*
X162362572Y-138479524D02*
X162072286Y-138479524D01*
X161927143Y-138540000D01*
X161854572Y-138600476D01*
X161709429Y-138781905D01*
X161636858Y-139023810D01*
X161636858Y-139507619D01*
X161709429Y-139628571D01*
X161782001Y-139689048D01*
X161927143Y-139749524D01*
X162217429Y-139749524D01*
X162362572Y-139689048D01*
X162435143Y-139628571D01*
X162507715Y-139507619D01*
X162507715Y-139205238D01*
X162435143Y-139084286D01*
X162362572Y-139023810D01*
X162217429Y-138963333D01*
X161927143Y-138963333D01*
X161782001Y-139023810D01*
X161709429Y-139084286D01*
X161636858Y-139205238D01*
D12*
X184452381Y-63214286D02*
X183452381Y-63214286D01*
X183452381Y-62976191D01*
X183500000Y-62833333D01*
X183595238Y-62738095D01*
X183690476Y-62690476D01*
X183880952Y-62642857D01*
X184023810Y-62642857D01*
X184214286Y-62690476D01*
X184309524Y-62738095D01*
X184404762Y-62833333D01*
X184452381Y-62976191D01*
X184452381Y-63214286D01*
X184452381Y-61690476D02*
X184452381Y-62261905D01*
X184452381Y-61976191D02*
X183452381Y-61976191D01*
X183595238Y-62071429D01*
X183690476Y-62166667D01*
X183738095Y-62261905D01*
X183880952Y-61119048D02*
X183833333Y-61214286D01*
X183785714Y-61261905D01*
X183690476Y-61309524D01*
X183642857Y-61309524D01*
X183547619Y-61261905D01*
X183500000Y-61214286D01*
X183452381Y-61119048D01*
X183452381Y-60928571D01*
X183500000Y-60833333D01*
X183547619Y-60785714D01*
X183642857Y-60738095D01*
X183690476Y-60738095D01*
X183785714Y-60785714D01*
X183833333Y-60833333D01*
X183880952Y-60928571D01*
X183880952Y-61119048D01*
X183928571Y-61214286D01*
X183976190Y-61261905D01*
X184071429Y-61309524D01*
X184261905Y-61309524D01*
X184357143Y-61261905D01*
X184404762Y-61214286D01*
X184452381Y-61119048D01*
X184452381Y-60928571D01*
X184404762Y-60833333D01*
X184357143Y-60785714D01*
X184261905Y-60738095D01*
X184071429Y-60738095D01*
X183976190Y-60785714D01*
X183928571Y-60833333D01*
X183880952Y-60928571D01*
D13*
X171242286Y-63689048D02*
X171460000Y-63749524D01*
X171822857Y-63749524D01*
X171968000Y-63689048D01*
X172040571Y-63628571D01*
X172113143Y-63507619D01*
X172113143Y-63386667D01*
X172040571Y-63265714D01*
X171968000Y-63205238D01*
X171822857Y-63144762D01*
X171532571Y-63084286D01*
X171387429Y-63023810D01*
X171314857Y-62963333D01*
X171242286Y-62842381D01*
X171242286Y-62721429D01*
X171314857Y-62600476D01*
X171387429Y-62540000D01*
X171532571Y-62479524D01*
X171895429Y-62479524D01*
X172113143Y-62540000D01*
X172621143Y-62479524D02*
X172984000Y-63749524D01*
X173274286Y-62842381D01*
X173564572Y-63749524D01*
X173927429Y-62479524D01*
X175306286Y-63749524D02*
X174435429Y-63749524D01*
X174870857Y-63749524D02*
X174870857Y-62479524D01*
X174725714Y-62660952D01*
X174580572Y-62781905D01*
X174435429Y-62842381D01*
X175814286Y-62479524D02*
X176830286Y-62479524D01*
X176177143Y-63749524D01*
X190242286Y-63689048D02*
X190460000Y-63749524D01*
X190822857Y-63749524D01*
X190968000Y-63689048D01*
X191040571Y-63628571D01*
X191113143Y-63507619D01*
X191113143Y-63386667D01*
X191040571Y-63265714D01*
X190968000Y-63205238D01*
X190822857Y-63144762D01*
X190532571Y-63084286D01*
X190387429Y-63023810D01*
X190314857Y-62963333D01*
X190242286Y-62842381D01*
X190242286Y-62721429D01*
X190314857Y-62600476D01*
X190387429Y-62540000D01*
X190532571Y-62479524D01*
X190895429Y-62479524D01*
X191113143Y-62540000D01*
X191621143Y-62479524D02*
X191984000Y-63749524D01*
X192274286Y-62842381D01*
X192564572Y-63749524D01*
X192927429Y-62479524D01*
X194306286Y-63749524D02*
X193435429Y-63749524D01*
X193870857Y-63749524D02*
X193870857Y-62479524D01*
X193725714Y-62660952D01*
X193580572Y-62781905D01*
X193435429Y-62842381D01*
X195177143Y-63023810D02*
X195032001Y-62963333D01*
X194959429Y-62902857D01*
X194886858Y-62781905D01*
X194886858Y-62721429D01*
X194959429Y-62600476D01*
X195032001Y-62540000D01*
X195177143Y-62479524D01*
X195467429Y-62479524D01*
X195612572Y-62540000D01*
X195685143Y-62600476D01*
X195757715Y-62721429D01*
X195757715Y-62781905D01*
X195685143Y-62902857D01*
X195612572Y-62963333D01*
X195467429Y-63023810D01*
X195177143Y-63023810D01*
X195032001Y-63084286D01*
X194959429Y-63144762D01*
X194886858Y-63265714D01*
X194886858Y-63507619D01*
X194959429Y-63628571D01*
X195032001Y-63689048D01*
X195177143Y-63749524D01*
X195467429Y-63749524D01*
X195612572Y-63689048D01*
X195685143Y-63628571D01*
X195757715Y-63507619D01*
X195757715Y-63265714D01*
X195685143Y-63144762D01*
X195612572Y-63084286D01*
X195467429Y-63023810D01*
D12*
X57642381Y-33833333D02*
X58356667Y-33833333D01*
X58499524Y-33880953D01*
X58594762Y-33976191D01*
X58642381Y-34119048D01*
X58642381Y-34214286D01*
X58642381Y-32833333D02*
X58642381Y-33404762D01*
X58642381Y-33119048D02*
X57642381Y-33119048D01*
X57785238Y-33214286D01*
X57880476Y-33309524D01*
X57928095Y-33404762D01*
M02*
