G04 #@! TF.FileFunction,Soldermask,Top*
%FSLAX46Y46*%
G04 Gerber Fmt 4.6, Leading zero omitted, Abs format (unit mm)*
G04 Created by KiCad (PCBNEW 4.0.1-stable) date 2017/02/06 23:13:23*
%MOMM*%
G01*
G04 APERTURE LIST*
%ADD10C,0.100000*%
%ADD11C,2.686000*%
%ADD12C,4.387800*%
%ADD13C,2.101800*%
%ADD14C,2.900000*%
%ADD15C,3.900000*%
%ADD16R,1.924000X1.924000*%
%ADD17C,1.924000*%
%ADD18C,1.600000*%
%ADD19R,1.600000X1.600000*%
G04 APERTURE END LIST*
D10*
D11*
X110040000Y-73920000D03*
X103690000Y-76460000D03*
D12*
X107500000Y-79000000D03*
D13*
X102420000Y-79000000D03*
X112580000Y-79000000D03*
D11*
X129040000Y-73920000D03*
X122690000Y-76460000D03*
D12*
X126500000Y-79000000D03*
D13*
X121420000Y-79000000D03*
X131580000Y-79000000D03*
D11*
X138540000Y-54920000D03*
X132190000Y-57460000D03*
D12*
X136000000Y-60000000D03*
D13*
X130920000Y-60000000D03*
X141080000Y-60000000D03*
D11*
X119540000Y-54920000D03*
X113190000Y-57460000D03*
D12*
X117000000Y-60000000D03*
D13*
X111920000Y-60000000D03*
X122080000Y-60000000D03*
D11*
X100540000Y-54920000D03*
X94190000Y-57460000D03*
D12*
X98000000Y-60000000D03*
D13*
X92920000Y-60000000D03*
X103080000Y-60000000D03*
D11*
X81540000Y-54920000D03*
X75190000Y-57460000D03*
D12*
X79000000Y-60000000D03*
D13*
X73920000Y-60000000D03*
X84080000Y-60000000D03*
D11*
X62540000Y-54920000D03*
X56190000Y-57460000D03*
D12*
X60000000Y-60000000D03*
D13*
X54920000Y-60000000D03*
X65080000Y-60000000D03*
D14*
X64100000Y-30500000D03*
X64100000Y-33500000D03*
X59900000Y-39000000D03*
X64100000Y-37500000D03*
D15*
X118250000Y-126750000D03*
X64250000Y-127500000D03*
X69000000Y-88250000D03*
X109250000Y-88500000D03*
X156750000Y-88750000D03*
X191500000Y-89000000D03*
X58500000Y-44250000D03*
X100000000Y-44250000D03*
X133750000Y-44500000D03*
X64750000Y-143000000D03*
X196500000Y-39000000D03*
X44250000Y-60750000D03*
X67500000Y-69500000D03*
X105750000Y-69500000D03*
X142500000Y-69750000D03*
X179750000Y-69500000D03*
X191750000Y-107500000D03*
X151000000Y-107750000D03*
X118750000Y-107500000D03*
X81500000Y-107500000D03*
X44250000Y-107500000D03*
X38750000Y-31500000D03*
X99500000Y-31750000D03*
X133250000Y-31750000D03*
X93000000Y-143000000D03*
X150000000Y-142750000D03*
X39000000Y-142500000D03*
X199000000Y-142250000D03*
D11*
X195540000Y-54920000D03*
X189190000Y-57460000D03*
D12*
X193000000Y-60000000D03*
D13*
X187920000Y-60000000D03*
X198080000Y-60000000D03*
D11*
X176540000Y-54920000D03*
X170190000Y-57460000D03*
D12*
X174000000Y-60000000D03*
D13*
X168920000Y-60000000D03*
X179080000Y-60000000D03*
D16*
X184000000Y-67080000D03*
D17*
X184000000Y-56920000D03*
D11*
X162290000Y-130920000D03*
X155940000Y-133460000D03*
D12*
X159750000Y-136000000D03*
D13*
X154670000Y-136000000D03*
X164830000Y-136000000D03*
D11*
X143290000Y-130920000D03*
X136940000Y-133460000D03*
D12*
X140750000Y-136000000D03*
D13*
X135670000Y-136000000D03*
X145830000Y-136000000D03*
D11*
X105290000Y-130920000D03*
X98940000Y-133460000D03*
D12*
X102750000Y-136000000D03*
D13*
X97670000Y-136000000D03*
X107830000Y-136000000D03*
D16*
X171000000Y-139080000D03*
D17*
X171000000Y-128920000D03*
D16*
X151000000Y-139080000D03*
D17*
X151000000Y-128920000D03*
D16*
X131000000Y-139080000D03*
D17*
X131000000Y-128920000D03*
D16*
X93000000Y-139080000D03*
D17*
X93000000Y-128920000D03*
D18*
X158000000Y-30254000D03*
X160540000Y-30254000D03*
X163080000Y-30254000D03*
X165620000Y-30254000D03*
X168160000Y-30254000D03*
X170700000Y-30254000D03*
X173240000Y-30254000D03*
X175780000Y-30254000D03*
X178320000Y-30254000D03*
X180860000Y-30254000D03*
X183400000Y-30254000D03*
X185940000Y-30254000D03*
X188480000Y-30254000D03*
X191020000Y-30254000D03*
X193560000Y-30254000D03*
X196100000Y-30254000D03*
X198640000Y-30254000D03*
D19*
X158000000Y-45746000D03*
D18*
X160540000Y-45746000D03*
X163080000Y-45746000D03*
X165620000Y-45746000D03*
X168160000Y-45746000D03*
X170700000Y-45746000D03*
X173240000Y-45746000D03*
X175780000Y-45746000D03*
X178320000Y-45746000D03*
X180860000Y-45746000D03*
X183400000Y-45746000D03*
X185940000Y-45746000D03*
X188480000Y-45746000D03*
X191020000Y-45746000D03*
X193560000Y-45746000D03*
X196100000Y-45746000D03*
X198640000Y-45746000D03*
D11*
X124290000Y-130920000D03*
X117940000Y-133460000D03*
D12*
X121750000Y-136000000D03*
D13*
X116670000Y-136000000D03*
X126830000Y-136000000D03*
D11*
X81540000Y-130920000D03*
X75190000Y-133460000D03*
D12*
X79000000Y-136000000D03*
D13*
X73920000Y-136000000D03*
X84080000Y-136000000D03*
D11*
X53040000Y-130920000D03*
X46690000Y-133460000D03*
D12*
X50500000Y-136000000D03*
D13*
X45420000Y-136000000D03*
X55580000Y-136000000D03*
D11*
X195540000Y-111920000D03*
X189190000Y-114460000D03*
D12*
X193000000Y-117000000D03*
D13*
X187920000Y-117000000D03*
X198080000Y-117000000D03*
D11*
X169415000Y-111920000D03*
X163065000Y-114460000D03*
D12*
X166875000Y-117000000D03*
D13*
X161795000Y-117000000D03*
X171955000Y-117000000D03*
D11*
X143290000Y-111920000D03*
X136940000Y-114460000D03*
D12*
X140750000Y-117000000D03*
D13*
X135670000Y-117000000D03*
X145830000Y-117000000D03*
D11*
X124290000Y-111920000D03*
X117940000Y-114460000D03*
D12*
X121750000Y-117000000D03*
D13*
X116670000Y-117000000D03*
X126830000Y-117000000D03*
D11*
X105290000Y-111920000D03*
X98940000Y-114460000D03*
D12*
X102750000Y-117000000D03*
D13*
X97670000Y-117000000D03*
X107830000Y-117000000D03*
D11*
X86290000Y-111920000D03*
X79940000Y-114460000D03*
D12*
X83750000Y-117000000D03*
D13*
X78670000Y-117000000D03*
X88830000Y-117000000D03*
D11*
X67290000Y-111920000D03*
X60940000Y-114460000D03*
D12*
X64750000Y-117000000D03*
D13*
X59670000Y-117000000D03*
X69830000Y-117000000D03*
D11*
X48290000Y-111920000D03*
X41940000Y-114460000D03*
D12*
X45750000Y-117000000D03*
D13*
X40670000Y-117000000D03*
X50830000Y-117000000D03*
D11*
X183665000Y-92920000D03*
X177315000Y-95460000D03*
D12*
X181125000Y-98000000D03*
D13*
X176045000Y-98000000D03*
X186205000Y-98000000D03*
D11*
X152790000Y-92920000D03*
X146440000Y-95460000D03*
D12*
X150250000Y-98000000D03*
D13*
X145170000Y-98000000D03*
X155330000Y-98000000D03*
D11*
X133790000Y-92920000D03*
X127440000Y-95460000D03*
D12*
X131250000Y-98000000D03*
D13*
X126170000Y-98000000D03*
X136330000Y-98000000D03*
D11*
X114790000Y-92920000D03*
X108440000Y-95460000D03*
D12*
X112250000Y-98000000D03*
D13*
X107170000Y-98000000D03*
X117330000Y-98000000D03*
D11*
X95790000Y-92920000D03*
X89440000Y-95460000D03*
D12*
X93250000Y-98000000D03*
D13*
X88170000Y-98000000D03*
X98330000Y-98000000D03*
D11*
X76790000Y-92920000D03*
X70440000Y-95460000D03*
D12*
X74250000Y-98000000D03*
D13*
X69170000Y-98000000D03*
X79330000Y-98000000D03*
D11*
X57790000Y-92920000D03*
X51440000Y-95460000D03*
D12*
X55250000Y-98000000D03*
D13*
X50170000Y-98000000D03*
X60330000Y-98000000D03*
D11*
X190790000Y-73920000D03*
X184440000Y-76460000D03*
D12*
X188250000Y-79000000D03*
D13*
X183170000Y-79000000D03*
X193330000Y-79000000D03*
D11*
X167040000Y-73920000D03*
X160690000Y-76460000D03*
D12*
X164500000Y-79000000D03*
D13*
X159420000Y-79000000D03*
X169580000Y-79000000D03*
D11*
X148040000Y-73920000D03*
X141690000Y-76460000D03*
D12*
X145500000Y-79000000D03*
D13*
X140420000Y-79000000D03*
X150580000Y-79000000D03*
D11*
X91040000Y-73920000D03*
X84690000Y-76460000D03*
D12*
X88500000Y-79000000D03*
D13*
X83420000Y-79000000D03*
X93580000Y-79000000D03*
D11*
X72040000Y-73920000D03*
X65690000Y-76460000D03*
D12*
X69500000Y-79000000D03*
D13*
X64420000Y-79000000D03*
X74580000Y-79000000D03*
D11*
X53040000Y-73920000D03*
X46690000Y-76460000D03*
D12*
X50500000Y-79000000D03*
D13*
X45420000Y-79000000D03*
X55580000Y-79000000D03*
D11*
X157540000Y-54920000D03*
X151190000Y-57460000D03*
D12*
X155000000Y-60000000D03*
D13*
X149920000Y-60000000D03*
X160080000Y-60000000D03*
D16*
X112000000Y-139080000D03*
D17*
X112000000Y-128920000D03*
D16*
X70000000Y-139080000D03*
D17*
X70000000Y-128920000D03*
D16*
X42000000Y-139080000D03*
D17*
X42000000Y-128920000D03*
D16*
X184000000Y-120080000D03*
D17*
X184000000Y-109920000D03*
D16*
X158000000Y-120080000D03*
D17*
X158000000Y-109920000D03*
D16*
X131000000Y-120080000D03*
D17*
X131000000Y-109920000D03*
D16*
X112000000Y-120080000D03*
D17*
X112000000Y-109920000D03*
D16*
X93000000Y-120080000D03*
D17*
X93000000Y-109920000D03*
D16*
X74000000Y-120080000D03*
D17*
X74000000Y-109920000D03*
D16*
X55000000Y-120080000D03*
D17*
X55000000Y-109920000D03*
D16*
X40250000Y-95420000D03*
D17*
X40250000Y-105580000D03*
D16*
X162000000Y-101080000D03*
D17*
X162000000Y-90920000D03*
D16*
X141000000Y-101080000D03*
D17*
X141000000Y-90920000D03*
D16*
X122000000Y-101080000D03*
D17*
X122000000Y-90920000D03*
D16*
X103000000Y-101080000D03*
D17*
X103000000Y-90920000D03*
D16*
X84000000Y-101080000D03*
D17*
X84000000Y-90920000D03*
D16*
X65000000Y-101080000D03*
D17*
X65000000Y-90920000D03*
D16*
X46000000Y-101080000D03*
D17*
X46000000Y-90920000D03*
D16*
X176000000Y-82080000D03*
D17*
X176000000Y-71920000D03*
D16*
X155000000Y-82080000D03*
D17*
X155000000Y-71920000D03*
D16*
X136000000Y-82080000D03*
D17*
X136000000Y-71920000D03*
D16*
X117000000Y-82080000D03*
D17*
X117000000Y-71920000D03*
D16*
X98000000Y-82080000D03*
D17*
X98000000Y-71920000D03*
D16*
X79000000Y-82080000D03*
D17*
X79000000Y-71920000D03*
D16*
X60000000Y-82080000D03*
D17*
X60000000Y-71920000D03*
D16*
X41000000Y-82080000D03*
D17*
X41000000Y-71920000D03*
D16*
X165000000Y-65080000D03*
D17*
X165000000Y-54920000D03*
D16*
X145000000Y-65080000D03*
D17*
X145000000Y-54920000D03*
D16*
X127000000Y-65080000D03*
D17*
X127000000Y-54920000D03*
D16*
X108000000Y-65080000D03*
D17*
X108000000Y-54920000D03*
D16*
X89000000Y-65080000D03*
D17*
X89000000Y-54920000D03*
D16*
X70000000Y-65080000D03*
D17*
X70000000Y-54920000D03*
D16*
X51000000Y-65080000D03*
D17*
X51000000Y-54920000D03*
D11*
X188415000Y-130920000D03*
X182065000Y-133460000D03*
D12*
X185875000Y-136000000D03*
D13*
X180795000Y-136000000D03*
X190955000Y-136000000D03*
M02*
