G04 #@! TF.FileFunction,Other,ECO1*
%FSLAX46Y46*%
G04 Gerber Fmt 4.6, Leading zero omitted, Abs format (unit mm)*
G04 Created by KiCad (PCBNEW 4.0.1-stable) date 2017/02/05 23:11:59*
%MOMM*%
G01*
G04 APERTURE LIST*
%ADD10C,0.100000*%
%ADD11C,0.300000*%
G04 APERTURE END LIST*
D10*
D11*
X209028571Y-93071427D02*
X209028571Y-93928570D01*
X209028571Y-93499998D02*
X207528571Y-93499998D01*
X207742857Y-93642855D01*
X207885714Y-93785713D01*
X207957143Y-93928570D01*
X209028571Y-91642856D02*
X209028571Y-92499999D01*
X209028571Y-92071427D02*
X207528571Y-92071427D01*
X207742857Y-92214284D01*
X207885714Y-92357142D01*
X207957143Y-92499999D01*
X208171429Y-90785713D02*
X208100000Y-90928571D01*
X208028571Y-90999999D01*
X207885714Y-91071428D01*
X207814286Y-91071428D01*
X207671429Y-90999999D01*
X207600000Y-90928571D01*
X207528571Y-90785713D01*
X207528571Y-90499999D01*
X207600000Y-90357142D01*
X207671429Y-90285713D01*
X207814286Y-90214285D01*
X207885714Y-90214285D01*
X208028571Y-90285713D01*
X208100000Y-90357142D01*
X208171429Y-90499999D01*
X208171429Y-90785713D01*
X208242857Y-90928571D01*
X208314286Y-90999999D01*
X208457143Y-91071428D01*
X208742857Y-91071428D01*
X208885714Y-90999999D01*
X208957143Y-90928571D01*
X209028571Y-90785713D01*
X209028571Y-90499999D01*
X208957143Y-90357142D01*
X208885714Y-90285713D01*
X208742857Y-90214285D01*
X208457143Y-90214285D01*
X208314286Y-90285713D01*
X208242857Y-90357142D01*
X208171429Y-90499999D01*
X208885714Y-89571428D02*
X208957143Y-89500000D01*
X209028571Y-89571428D01*
X208957143Y-89642857D01*
X208885714Y-89571428D01*
X209028571Y-89571428D01*
X207528571Y-88571428D02*
X207528571Y-88428571D01*
X207600000Y-88285714D01*
X207671429Y-88214285D01*
X207814286Y-88142856D01*
X208100000Y-88071428D01*
X208457143Y-88071428D01*
X208742857Y-88142856D01*
X208885714Y-88214285D01*
X208957143Y-88285714D01*
X209028571Y-88428571D01*
X209028571Y-88571428D01*
X208957143Y-88714285D01*
X208885714Y-88785714D01*
X208742857Y-88857142D01*
X208457143Y-88928571D01*
X208100000Y-88928571D01*
X207814286Y-88857142D01*
X207671429Y-88785714D01*
X207600000Y-88714285D01*
X207528571Y-88571428D01*
X207528571Y-87142857D02*
X207528571Y-87000000D01*
X207600000Y-86857143D01*
X207671429Y-86785714D01*
X207814286Y-86714285D01*
X208100000Y-86642857D01*
X208457143Y-86642857D01*
X208742857Y-86714285D01*
X208885714Y-86785714D01*
X208957143Y-86857143D01*
X209028571Y-87000000D01*
X209028571Y-87142857D01*
X208957143Y-87285714D01*
X208885714Y-87357143D01*
X208742857Y-87428571D01*
X208457143Y-87500000D01*
X208100000Y-87500000D01*
X207814286Y-87428571D01*
X207671429Y-87357143D01*
X207600000Y-87285714D01*
X207528571Y-87142857D01*
X207528571Y-85714286D02*
X207528571Y-85571429D01*
X207600000Y-85428572D01*
X207671429Y-85357143D01*
X207814286Y-85285714D01*
X208100000Y-85214286D01*
X208457143Y-85214286D01*
X208742857Y-85285714D01*
X208885714Y-85357143D01*
X208957143Y-85428572D01*
X209028571Y-85571429D01*
X209028571Y-85714286D01*
X208957143Y-85857143D01*
X208885714Y-85928572D01*
X208742857Y-86000000D01*
X208457143Y-86071429D01*
X208100000Y-86071429D01*
X207814286Y-86000000D01*
X207671429Y-85928572D01*
X207600000Y-85857143D01*
X207528571Y-85714286D01*
X209028571Y-83428572D02*
X208028571Y-83428572D01*
X208171429Y-83428572D02*
X208100000Y-83357144D01*
X208028571Y-83214286D01*
X208028571Y-83000001D01*
X208100000Y-82857144D01*
X208242857Y-82785715D01*
X209028571Y-82785715D01*
X208242857Y-82785715D02*
X208100000Y-82714286D01*
X208028571Y-82571429D01*
X208028571Y-82357144D01*
X208100000Y-82214286D01*
X208242857Y-82142858D01*
X209028571Y-82142858D01*
X209028571Y-81428572D02*
X208028571Y-81428572D01*
X208171429Y-81428572D02*
X208100000Y-81357144D01*
X208028571Y-81214286D01*
X208028571Y-81000001D01*
X208100000Y-80857144D01*
X208242857Y-80785715D01*
X209028571Y-80785715D01*
X208242857Y-80785715D02*
X208100000Y-80714286D01*
X208028571Y-80571429D01*
X208028571Y-80357144D01*
X208100000Y-80214286D01*
X208242857Y-80142858D01*
X209028571Y-80142858D01*
X207000000Y-146000000D02*
X207000000Y-28000000D01*
X205000000Y-146000000D02*
X209700000Y-146000000D01*
X205000000Y-28000000D02*
X209700000Y-28000000D01*
X207000000Y-28000000D02*
X207586421Y-29126504D01*
X207000000Y-28000000D02*
X206413579Y-29126504D01*
X207000000Y-146000000D02*
X207586421Y-144873496D01*
X207000000Y-146000000D02*
X206413579Y-144873496D01*
X112928573Y-152028571D02*
X112071430Y-152028571D01*
X112500002Y-152028571D02*
X112500002Y-150528571D01*
X112357145Y-150742857D01*
X112214287Y-150885714D01*
X112071430Y-150957143D01*
X114214287Y-150528571D02*
X113928573Y-150528571D01*
X113785716Y-150600000D01*
X113714287Y-150671429D01*
X113571430Y-150885714D01*
X113500001Y-151171429D01*
X113500001Y-151742857D01*
X113571430Y-151885714D01*
X113642858Y-151957143D01*
X113785716Y-152028571D01*
X114071430Y-152028571D01*
X114214287Y-151957143D01*
X114285716Y-151885714D01*
X114357144Y-151742857D01*
X114357144Y-151385714D01*
X114285716Y-151242857D01*
X114214287Y-151171429D01*
X114071430Y-151100000D01*
X113785716Y-151100000D01*
X113642858Y-151171429D01*
X113571430Y-151242857D01*
X113500001Y-151385714D01*
X115214287Y-151171429D02*
X115071429Y-151100000D01*
X115000001Y-151028571D01*
X114928572Y-150885714D01*
X114928572Y-150814286D01*
X115000001Y-150671429D01*
X115071429Y-150600000D01*
X115214287Y-150528571D01*
X115500001Y-150528571D01*
X115642858Y-150600000D01*
X115714287Y-150671429D01*
X115785715Y-150814286D01*
X115785715Y-150885714D01*
X115714287Y-151028571D01*
X115642858Y-151100000D01*
X115500001Y-151171429D01*
X115214287Y-151171429D01*
X115071429Y-151242857D01*
X115000001Y-151314286D01*
X114928572Y-151457143D01*
X114928572Y-151742857D01*
X115000001Y-151885714D01*
X115071429Y-151957143D01*
X115214287Y-152028571D01*
X115500001Y-152028571D01*
X115642858Y-151957143D01*
X115714287Y-151885714D01*
X115785715Y-151742857D01*
X115785715Y-151457143D01*
X115714287Y-151314286D01*
X115642858Y-151242857D01*
X115500001Y-151171429D01*
X116428572Y-151885714D02*
X116500000Y-151957143D01*
X116428572Y-152028571D01*
X116357143Y-151957143D01*
X116428572Y-151885714D01*
X116428572Y-152028571D01*
X117428572Y-150528571D02*
X117571429Y-150528571D01*
X117714286Y-150600000D01*
X117785715Y-150671429D01*
X117857144Y-150814286D01*
X117928572Y-151100000D01*
X117928572Y-151457143D01*
X117857144Y-151742857D01*
X117785715Y-151885714D01*
X117714286Y-151957143D01*
X117571429Y-152028571D01*
X117428572Y-152028571D01*
X117285715Y-151957143D01*
X117214286Y-151885714D01*
X117142858Y-151742857D01*
X117071429Y-151457143D01*
X117071429Y-151100000D01*
X117142858Y-150814286D01*
X117214286Y-150671429D01*
X117285715Y-150600000D01*
X117428572Y-150528571D01*
X118857143Y-150528571D02*
X119000000Y-150528571D01*
X119142857Y-150600000D01*
X119214286Y-150671429D01*
X119285715Y-150814286D01*
X119357143Y-151100000D01*
X119357143Y-151457143D01*
X119285715Y-151742857D01*
X119214286Y-151885714D01*
X119142857Y-151957143D01*
X119000000Y-152028571D01*
X118857143Y-152028571D01*
X118714286Y-151957143D01*
X118642857Y-151885714D01*
X118571429Y-151742857D01*
X118500000Y-151457143D01*
X118500000Y-151100000D01*
X118571429Y-150814286D01*
X118642857Y-150671429D01*
X118714286Y-150600000D01*
X118857143Y-150528571D01*
X120285714Y-150528571D02*
X120428571Y-150528571D01*
X120571428Y-150600000D01*
X120642857Y-150671429D01*
X120714286Y-150814286D01*
X120785714Y-151100000D01*
X120785714Y-151457143D01*
X120714286Y-151742857D01*
X120642857Y-151885714D01*
X120571428Y-151957143D01*
X120428571Y-152028571D01*
X120285714Y-152028571D01*
X120142857Y-151957143D01*
X120071428Y-151885714D01*
X120000000Y-151742857D01*
X119928571Y-151457143D01*
X119928571Y-151100000D01*
X120000000Y-150814286D01*
X120071428Y-150671429D01*
X120142857Y-150600000D01*
X120285714Y-150528571D01*
X122571428Y-152028571D02*
X122571428Y-151028571D01*
X122571428Y-151171429D02*
X122642856Y-151100000D01*
X122785714Y-151028571D01*
X122999999Y-151028571D01*
X123142856Y-151100000D01*
X123214285Y-151242857D01*
X123214285Y-152028571D01*
X123214285Y-151242857D02*
X123285714Y-151100000D01*
X123428571Y-151028571D01*
X123642856Y-151028571D01*
X123785714Y-151100000D01*
X123857142Y-151242857D01*
X123857142Y-152028571D01*
X124571428Y-152028571D02*
X124571428Y-151028571D01*
X124571428Y-151171429D02*
X124642856Y-151100000D01*
X124785714Y-151028571D01*
X124999999Y-151028571D01*
X125142856Y-151100000D01*
X125214285Y-151242857D01*
X125214285Y-152028571D01*
X125214285Y-151242857D02*
X125285714Y-151100000D01*
X125428571Y-151028571D01*
X125642856Y-151028571D01*
X125785714Y-151100000D01*
X125857142Y-151242857D01*
X125857142Y-152028571D01*
X203000000Y-150000000D02*
X35000000Y-150000000D01*
X203000000Y-148000000D02*
X203000000Y-152700000D01*
X35000000Y-148000000D02*
X35000000Y-152700000D01*
X35000000Y-150000000D02*
X36126504Y-149413579D01*
X35000000Y-150000000D02*
X36126504Y-150586421D01*
X203000000Y-150000000D02*
X201873496Y-149413579D01*
X203000000Y-150000000D02*
X201873496Y-150586421D01*
D10*
X200700000Y-142750000D02*
G75*
G03X200700000Y-142750000I-1700000J0D01*
G01*
X40700000Y-142750000D02*
G75*
G03X40700000Y-142750000I-1700000J0D01*
G01*
X151700000Y-142750000D02*
G75*
G03X151700000Y-142750000I-1700000J0D01*
G01*
X94700000Y-142750000D02*
G75*
G03X94700000Y-142750000I-1700000J0D01*
G01*
X134700000Y-31500000D02*
G75*
G03X134700000Y-31500000I-1700000J0D01*
G01*
X101700000Y-31500000D02*
G75*
G03X101700000Y-31500000I-1700000J0D01*
G01*
X40450000Y-31500000D02*
G75*
G03X40450000Y-31500000I-1700000J0D01*
G01*
X45950000Y-107500000D02*
G75*
G03X45950000Y-107500000I-1700000J0D01*
G01*
X83200000Y-107500000D02*
G75*
G03X83200000Y-107500000I-1700000J0D01*
G01*
X120450000Y-107500000D02*
G75*
G03X120450000Y-107500000I-1700000J0D01*
G01*
X152700000Y-107500000D02*
G75*
G03X152700000Y-107500000I-1700000J0D01*
G01*
X193450000Y-107500000D02*
G75*
G03X193450000Y-107500000I-1700000J0D01*
G01*
X181450000Y-69500000D02*
G75*
G03X181450000Y-69500000I-1700000J0D01*
G01*
X144200000Y-69500000D02*
G75*
G03X144200000Y-69500000I-1700000J0D01*
G01*
X107450000Y-69500000D02*
G75*
G03X107450000Y-69500000I-1700000J0D01*
G01*
X69200000Y-69500000D02*
G75*
G03X69200000Y-69500000I-1700000J0D01*
G01*
X45950000Y-60750000D02*
G75*
G03X45950000Y-60750000I-1700000J0D01*
G01*
X198200000Y-39000000D02*
G75*
G03X198200000Y-39000000I-1700000J0D01*
G01*
X66450000Y-142750000D02*
G75*
G03X66450000Y-142750000I-1700000J0D01*
G01*
X134700000Y-44500000D02*
G75*
G03X134700000Y-44500000I-1700000J0D01*
G01*
X101700000Y-44500000D02*
G75*
G03X101700000Y-44500000I-1700000J0D01*
G01*
X60200000Y-44500000D02*
G75*
G03X60200000Y-44500000I-1700000J0D01*
G01*
X193200000Y-88500000D02*
G75*
G03X193200000Y-88500000I-1700000J0D01*
G01*
X158450000Y-88500000D02*
G75*
G03X158450000Y-88500000I-1700000J0D01*
G01*
X110950000Y-88500000D02*
G75*
G03X110950000Y-88500000I-1700000J0D01*
G01*
X70700000Y-88500000D02*
G75*
G03X70700000Y-88500000I-1700000J0D01*
G01*
X65950000Y-126500000D02*
G75*
G03X65950000Y-126500000I-1700000J0D01*
G01*
X119950000Y-126500000D02*
G75*
G03X119950000Y-126500000I-1700000J0D01*
G01*
M02*
