  0
SECTION
  2
HEADER
  9
$ACADVER
  1
AC1014
  9
$HANDSEED
  5
FFFF
  9
$MEASUREMENT
 70
     1
  0
ENDSEC
  0
SECTION
  2
TABLES
  0
TABLE
  2
VPORT
  5
8
330
0
100
AcDbSymbolTable
 70
     4
  0
VPORT
  5
2E
330
8
100
AcDbSymbolTableRecord
100
AcDbViewportTableRecord
  2
*ACTIVE
 70
     0
 10
0.0
 20
0.0
 11
1.0
 21
1.0
 12
210.0
 22
148.5
 13
0.0
 23
0.0
 14
10.0
 24
10.0
 15
10.0
 25
10.0
 16
0.0
 26
0.0
 36
1.0
 17
0.0
 27
0.0
 37
0.0
 40
341.0
 41
1.24
 42
50.0
 43
0.0
 44
0.0
 50
0.0
 51
0.0
 71
     0
 72
   100
 73
     1
 74
     3
 75
     0
 76
     0
 77
     0
 78
     0
  0
ENDTAB
  0
TABLE
  2
LTYPE
  5
5
330
0
100
AcDbSymbolTable
 70
     1
  0
LTYPE
  5
14
330
5
100
AcDbSymbolTableRecord
100
AcDbLinetypeTableRecord
  2
BYBLOCK
 70
     0
  3

 72
    65
 73
     0
 40
0.0
  0
LTYPE
  5
15
330
5
100
AcDbSymbolTableRecord
100
AcDbLinetypeTableRecord
  2
BYLAYER
 70
     0
  3

 72
    65
 73
     0
 40
0.0
  0
LTYPE
  5
16
330
5
100
AcDbSymbolTableRecord
100
AcDbLinetypeTableRecord
  2
CONTINUOUS
 70
     0
  3
Solid line
 72
    65
 73
     0
 40
0.0
  0
ENDTAB
  0
TABLE
  2
LAYER
  5
2
100
AcDbSymbolTable
 70
2
  0
LAYER
  5
50
100
AcDbSymbolTableRecord
100
AcDbLayerTableRecord
  2
0
 70
0
  6
CONTINUOUS
  0
LAYER
  5
51
100
AcDbSymbolTableRecord
100
AcDbLayerTableRecord
  2
レイヤー_1
 70
0
  6
CONTINUOUS
  0
ENDTAB
  0
TABLE
  2
STYLE
  5
3
330
0
100
AcDbSymbolTable
 70
     1
  0
STYLE
  5
11
330
3
100
AcDbSymbolTableRecord
100
AcDbTextStyleTableRecord
  2
STANDARD
 70
     0
 40
0.0
 41
1.0
 50
0.0
 71
     0
 42
2.5
  3
txt
  4

  0
ENDTAB
  0
TABLE
  2
VIEW
  5
6
330
0
100
AcDbSymbolTable
 70
     0
  0
ENDTAB
  0
TABLE
  2
UCS
  5
7
330
0
100
AcDbSymbolTable
 70
     0
  0
ENDTAB
  0
TABLE
  2
APPID
  5
9
330
0
100
AcDbSymbolTable
 70
     2
  0
APPID
  5
12
330
9
100
AcDbSymbolTableRecord
100
AcDbRegAppTableRecord
  2
ACAD
 70
     0
  0
ENDTAB
  0
TABLE
  2
DIMSTYLE
  5
A
330
0
100
AcDbSymbolTable
 70
     1
  0
DIMSTYLE
105
27
330
A
100
AcDbSymbolTableRecord
100
AcDbDimStyleTableRecord
  2
ISO-25
 70
     0
  3

  4

  5

  6

  7

 40
1.0
 41
2.5
 42
0.625
 43
3.75
 44
1.25
 45
0.0
 46
0.0
 47
0.0
 48
0.0
140
2.5
141
2.5
142
0.0
143
0.03937007874016
144
1.0
145
0.0
146
1.0
147
0.625
 71
     0
 72
     0
 73
     0
 74
     0
 75
     0
 76
     0
 77
     1
 78
     8
170
     0
171
     3
172
     1
173
     0
174
     0
175
     0
176
     0
177
     0
178
     0
270
     2
271
     2
272
     2
273
     2
274
     3
340
11
275
     0
280
     0
281
     0
282
     0
283
     0
284
     8
285
     0
286
     0
287
     3
288
     0
  0
ENDTAB
  0
TABLE
  2
BLOCK_RECORD
  5
1
330
0
100
AcDbSymbolTable
 70
     1
  0
BLOCK_RECORD
  5
1F
330
1
100
AcDbSymbolTableRecord
100
AcDbBlockTableRecord
  2
*MODEL_SPACE
  0
BLOCK_RECORD
  5
1B
330
1
100
AcDbSymbolTableRecord
100
AcDbBlockTableRecord
  2
*PAPER_SPACE
  0
ENDTAB
  0
ENDSEC
  0
SECTION
  2
BLOCKS
  0
BLOCK
  5
20
330
1F
100
AcDbEntity
  8
0
100
AcDbBlockBegin
  2
*MODEL_SPACE
 70
     0
 10
0.0
 20
0.0
 30
0.0
  3
*MODEL_SPACE
  1

  0
ENDBLK
  5
21
330
1F
100
AcDbEntity
  8
0
100
AcDbBlockEnd
  0
BLOCK
  5
1C
330
1B
100
AcDbEntity
 67
     1
  8
0
100
AcDbBlockBegin
  2
*PAPER_SPACE
  1

  0
ENDBLK
  5
1D
330
1B
100
AcDbEntity
 67
     1
  8
0
100
AcDbBlockEnd
  0
ENDSEC
  0
SECTION
  2
ENTITIES
  0
LWPOLYLINE
  5
100
100
AcDbEntity
  8
レイヤー_1
 62
7
100
AcDbPolyline
 90
5
 70
1
 10
95.138934
 20
151.861070
 30
0.0
 10
112.861067
 20
151.861070
 30
0.0
 10
112.861067
 20
134.138936
 30
0.0
 10
95.138934
 20
134.138936
 30
0.0
 10
95.138934
 20
151.861070
 30
0.0
  0
LWPOLYLINE
  5
101
100
AcDbEntity
  8
レイヤー_1
 62
7
100
AcDbPolyline
 90
4
 70
0
 10
103.000000
 20
143.000001
 30
0.0
 10
105.000002
 20
143.000001
 30
0.0
 10
105.000002
 20
143.000001
 30
0.0
 10
105.000002
 20
143.000001
 30
0.0
  0
LWPOLYLINE
  5
102
100
AcDbEntity
  8
レイヤー_1
 62
7
100
AcDbPolyline
 90
2
 70
0
 10
104.000001
 20
144.000002
 30
0.0
 10
104.000001
 20
142.000000
 30
0.0
  0
LWPOLYLINE
  5
103
100
AcDbEntity
  8
レイヤー_1
 62
7
100
AcDbPolyline
 90
5
 70
1
 10
171.138935
 20
151.861070
 30
0.0
 10
188.861068
 20
151.861070
 30
0.0
 10
188.861068
 20
134.138936
 30
0.0
 10
171.138935
 20
134.138936
 30
0.0
 10
171.138935
 20
151.861070
 30
0.0
  0
LWPOLYLINE
  5
104
100
AcDbEntity
  8
レイヤー_1
 62
7
100
AcDbPolyline
 90
4
 70
0
 10
179.000001
 20
143.000001
 30
0.0
 10
181.000002
 20
143.000001
 30
0.0
 10
181.000002
 20
143.000001
 30
0.0
 10
181.000002
 20
143.000001
 30
0.0
  0
LWPOLYLINE
  5
105
100
AcDbEntity
  8
レイヤー_1
 62
7
100
AcDbPolyline
 90
2
 70
0
 10
180.000002
 20
144.000002
 30
0.0
 10
180.000002
 20
142.000000
 30
0.0
  0
LWPOLYLINE
  5
106
100
AcDbEntity
  8
レイヤー_1
 62
7
100
AcDbPolyline
 90
5
 70
1
 10
152.138933
 20
151.861070
 30
0.0
 10
169.861066
 20
151.861070
 30
0.0
 10
169.861066
 20
134.138936
 30
0.0
 10
152.138933
 20
134.138936
 30
0.0
 10
152.138933
 20
151.861070
 30
0.0
  0
LWPOLYLINE
  5
107
100
AcDbEntity
  8
レイヤー_1
 62
7
100
AcDbPolyline
 90
4
 70
0
 10
159.999999
 20
143.000001
 30
0.0
 10
162.000001
 20
143.000001
 30
0.0
 10
162.000001
 20
143.000001
 30
0.0
 10
162.000001
 20
143.000001
 30
0.0
  0
LWPOLYLINE
  5
108
100
AcDbEntity
  8
レイヤー_1
 62
7
100
AcDbPolyline
 90
2
 70
0
 10
161.000000
 20
144.000002
 30
0.0
 10
161.000000
 20
142.000000
 30
0.0
  0
LWPOLYLINE
  5
109
100
AcDbEntity
  8
レイヤー_1
 62
7
100
AcDbPolyline
 90
5
 70
1
 10
114.138933
 20
151.861070
 30
0.0
 10
131.861066
 20
151.861070
 30
0.0
 10
131.861066
 20
134.138936
 30
0.0
 10
114.138933
 20
134.138936
 30
0.0
 10
114.138933
 20
151.861070
 30
0.0
  0
LWPOLYLINE
  5
10a
100
AcDbEntity
  8
レイヤー_1
 62
7
100
AcDbPolyline
 90
4
 70
0
 10
121.999999
 20
143.000001
 30
0.0
 10
124.000001
 20
143.000001
 30
0.0
 10
124.000001
 20
143.000001
 30
0.0
 10
124.000001
 20
143.000001
 30
0.0
  0
LWPOLYLINE
  5
10b
100
AcDbEntity
  8
レイヤー_1
 62
7
100
AcDbPolyline
 90
2
 70
0
 10
123.000000
 20
144.000002
 30
0.0
 10
123.000000
 20
142.000000
 30
0.0
  0
LWPOLYLINE
  5
10c
100
AcDbEntity
  8
レイヤー_1
 62
7
100
AcDbPolyline
 90
5
 70
1
 10
133.138934
 20
151.861070
 30
0.0
 10
150.861068
 20
151.861070
 30
0.0
 10
150.861068
 20
134.138936
 30
0.0
 10
133.138934
 20
134.138936
 30
0.0
 10
133.138934
 20
151.861070
 30
0.0
  0
LWPOLYLINE
  5
10d
100
AcDbEntity
  8
レイヤー_1
 62
7
100
AcDbPolyline
 90
4
 70
0
 10
141.000001
 20
143.000001
 30
0.0
 10
143.000002
 20
143.000001
 30
0.0
 10
143.000002
 20
143.000001
 30
0.0
 10
143.000002
 20
143.000001
 30
0.0
  0
LWPOLYLINE
  5
10e
100
AcDbEntity
  8
レイヤー_1
 62
7
100
AcDbPolyline
 90
2
 70
0
 10
142.000001
 20
144.000002
 30
0.0
 10
142.000001
 20
142.000000
 30
0.0
  0
LWPOLYLINE
  5
10f
100
AcDbEntity
  8
レイヤー_1
 62
7
100
AcDbPolyline
 90
5
 70
1
 10
76.138933
 20
151.861070
 30
0.0
 10
93.861066
 20
151.861070
 30
0.0
 10
93.861066
 20
134.138936
 30
0.0
 10
76.138933
 20
134.138936
 30
0.0
 10
76.138933
 20
151.861070
 30
0.0
  0
LWPOLYLINE
  5
110
100
AcDbEntity
  8
レイヤー_1
 62
7
100
AcDbPolyline
 90
4
 70
0
 10
83.999999
 20
143.000001
 30
0.0
 10
86.000001
 20
143.000001
 30
0.0
 10
86.000001
 20
143.000001
 30
0.0
 10
86.000001
 20
143.000001
 30
0.0
  0
LWPOLYLINE
  5
111
100
AcDbEntity
  8
レイヤー_1
 62
7
100
AcDbPolyline
 90
2
 70
0
 10
85.000000
 20
144.000002
 30
0.0
 10
85.000000
 20
142.000000
 30
0.0
  0
LWPOLYLINE
  5
112
100
AcDbEntity
  8
レイヤー_1
 62
7
100
AcDbPolyline
 90
5
 70
1
 10
85.638936
 20
132.861069
 30
0.0
 10
103.361069
 20
132.861069
 30
0.0
 10
103.361069
 20
115.138935
 30
0.0
 10
85.638936
 20
115.138935
 30
0.0
 10
85.638936
 20
132.861069
 30
0.0
  0
LWPOLYLINE
  5
113
100
AcDbEntity
  8
レイヤー_1
 62
7
100
AcDbPolyline
 90
4
 70
0
 10
93.500002
 20
124.000000
 30
0.0
 10
95.500004
 20
124.000000
 30
0.0
 10
95.500004
 20
124.000000
 30
0.0
 10
95.500004
 20
124.000000
 30
0.0
  0
LWPOLYLINE
  5
114
100
AcDbEntity
  8
レイヤー_1
 62
7
100
AcDbPolyline
 90
2
 70
0
 10
94.500003
 20
125.000001
 30
0.0
 10
94.500003
 20
122.999999
 30
0.0
  0
LWPOLYLINE
  5
115
100
AcDbEntity
  8
レイヤー_1
 62
7
100
AcDbPolyline
 90
5
 70
1
 10
180.638935
 20
132.861069
 30
0.0
 10
198.361069
 20
132.861069
 30
0.0
 10
198.361069
 20
115.138935
 30
0.0
 10
180.638935
 20
115.138935
 30
0.0
 10
180.638935
 20
132.861069
 30
0.0
  0
LWPOLYLINE
  5
116
100
AcDbEntity
  8
レイヤー_1
 62
7
100
AcDbPolyline
 90
4
 70
0
 10
188.500001
 20
124.000000
 30
0.0
 10
190.500003
 20
124.000000
 30
0.0
 10
190.500003
 20
124.000000
 30
0.0
 10
190.500003
 20
124.000000
 30
0.0
  0
LWPOLYLINE
  5
117
100
AcDbEntity
  8
レイヤー_1
 62
7
100
AcDbPolyline
 90
2
 70
0
 10
189.500002
 20
125.000001
 30
0.0
 10
189.500002
 20
122.999999
 30
0.0
  0
LWPOLYLINE
  5
118
100
AcDbEntity
  8
レイヤー_1
 62
7
100
AcDbPolyline
 90
5
 70
1
 10
161.638937
 20
132.861069
 30
0.0
 10
179.361070
 20
132.861069
 30
0.0
 10
179.361070
 20
115.138935
 30
0.0
 10
161.638937
 20
115.138935
 30
0.0
 10
161.638937
 20
132.861069
 30
0.0
  0
LWPOLYLINE
  5
119
100
AcDbEntity
  8
レイヤー_1
 62
7
100
AcDbPolyline
 90
4
 70
0
 10
169.500003
 20
124.000000
 30
0.0
 10
171.500004
 20
124.000000
 30
0.0
 10
171.500004
 20
124.000000
 30
0.0
 10
171.500004
 20
124.000000
 30
0.0
  0
LWPOLYLINE
  5
11a
100
AcDbEntity
  8
レイヤー_1
 62
7
100
AcDbPolyline
 90
2
 70
0
 10
170.500004
 20
125.000001
 30
0.0
 10
170.500004
 20
122.999999
 30
0.0
  0
LWPOLYLINE
  5
11b
100
AcDbEntity
  8
レイヤー_1
 62
7
100
AcDbPolyline
 90
5
 70
1
 10
142.638935
 20
132.861069
 30
0.0
 10
160.361068
 20
132.861069
 30
0.0
 10
160.361068
 20
115.138935
 30
0.0
 10
142.638935
 20
115.138935
 30
0.0
 10
142.638935
 20
132.861069
 30
0.0
  0
LWPOLYLINE
  5
11c
100
AcDbEntity
  8
レイヤー_1
 62
7
100
AcDbPolyline
 90
4
 70
0
 10
150.500001
 20
124.000000
 30
0.0
 10
152.500003
 20
124.000000
 30
0.0
 10
152.500003
 20
124.000000
 30
0.0
 10
152.500003
 20
124.000000
 30
0.0
  0
LWPOLYLINE
  5
11d
100
AcDbEntity
  8
レイヤー_1
 62
7
100
AcDbPolyline
 90
2
 70
0
 10
151.500002
 20
125.000001
 30
0.0
 10
151.500002
 20
122.999999
 30
0.0
  0
LWPOLYLINE
  5
11e
100
AcDbEntity
  8
レイヤー_1
 62
7
100
AcDbPolyline
 90
5
 70
1
 10
104.638935
 20
132.861069
 30
0.0
 10
122.361068
 20
132.861069
 30
0.0
 10
122.361068
 20
115.138935
 30
0.0
 10
104.638935
 20
115.138935
 30
0.0
 10
104.638935
 20
132.861069
 30
0.0
  0
LWPOLYLINE
  5
11f
100
AcDbEntity
  8
レイヤー_1
 62
7
100
AcDbPolyline
 90
4
 70
0
 10
112.500001
 20
124.000000
 30
0.0
 10
114.500003
 20
124.000000
 30
0.0
 10
114.500003
 20
124.000000
 30
0.0
 10
114.500003
 20
124.000000
 30
0.0
  0
LWPOLYLINE
  5
120
100
AcDbEntity
  8
レイヤー_1
 62
7
100
AcDbPolyline
 90
2
 70
0
 10
113.500002
 20
125.000001
 30
0.0
 10
113.500002
 20
122.999999
 30
0.0
  0
LWPOLYLINE
  5
121
100
AcDbEntity
  8
レイヤー_1
 62
7
100
AcDbPolyline
 90
5
 70
1
 10
123.638937
 20
132.861069
 30
0.0
 10
141.361070
 20
132.861069
 30
0.0
 10
141.361070
 20
115.138935
 30
0.0
 10
123.638937
 20
115.138935
 30
0.0
 10
123.638937
 20
132.861069
 30
0.0
  0
LWPOLYLINE
  5
122
100
AcDbEntity
  8
レイヤー_1
 62
7
100
AcDbPolyline
 90
4
 70
0
 10
131.500003
 20
124.000000
 30
0.0
 10
133.500004
 20
124.000000
 30
0.0
 10
133.500004
 20
124.000000
 30
0.0
 10
133.500004
 20
124.000000
 30
0.0
  0
LWPOLYLINE
  5
123
100
AcDbEntity
  8
レイヤー_1
 62
7
100
AcDbPolyline
 90
2
 70
0
 10
132.500003
 20
125.000001
 30
0.0
 10
132.500003
 20
122.999999
 30
0.0
  0
LWPOLYLINE
  5
124
100
AcDbEntity
  8
レイヤー_1
 62
7
100
AcDbPolyline
 90
5
 70
1
 10
66.638933
 20
132.861069
 30
0.0
 10
84.361067
 20
132.861069
 30
0.0
 10
84.361067
 20
115.138935
 30
0.0
 10
66.638933
 20
115.138935
 30
0.0
 10
66.638933
 20
132.861069
 30
0.0
  0
LWPOLYLINE
  5
125
100
AcDbEntity
  8
レイヤー_1
 62
7
100
AcDbPolyline
 90
4
 70
0
 10
74.499999
 20
124.000000
 30
0.0
 10
76.500001
 20
124.000000
 30
0.0
 10
76.500001
 20
124.000000
 30
0.0
 10
76.500001
 20
124.000000
 30
0.0
  0
LWPOLYLINE
  5
126
100
AcDbEntity
  8
レイヤー_1
 62
7
100
AcDbPolyline
 90
2
 70
0
 10
75.500000
 20
125.000001
 30
0.0
 10
75.500000
 20
122.999999
 30
0.0
  0
LWPOLYLINE
  5
127
100
AcDbEntity
  8
レイヤー_1
 62
7
100
AcDbPolyline
 90
5
 70
1
 10
90.388934
 20
113.861071
 30
0.0
 10
108.111067
 20
113.861071
 30
0.0
 10
108.111067
 20
96.138936
 30
0.0
 10
90.388934
 20
96.138936
 30
0.0
 10
90.388934
 20
113.861071
 30
0.0
  0
LWPOLYLINE
  5
128
100
AcDbEntity
  8
レイヤー_1
 62
7
100
AcDbPolyline
 90
4
 70
0
 10
98.250000
 20
105.000001
 30
0.0
 10
100.250002
 20
105.000001
 30
0.0
 10
100.250002
 20
105.000001
 30
0.0
 10
100.250002
 20
105.000001
 30
0.0
  0
LWPOLYLINE
  5
129
100
AcDbEntity
  8
レイヤー_1
 62
7
100
AcDbPolyline
 90
2
 70
0
 10
99.250001
 20
106.000002
 30
0.0
 10
99.250001
 20
104.000000
 30
0.0
  0
LWPOLYLINE
  5
12a
100
AcDbEntity
  8
レイヤー_1
 62
7
100
AcDbPolyline
 90
5
 70
1
 10
166.388934
 20
113.861071
 30
0.0
 10
184.111067
 20
113.861071
 30
0.0
 10
184.111067
 20
96.138936
 30
0.0
 10
166.388934
 20
96.138936
 30
0.0
 10
166.388934
 20
113.861071
 30
0.0
  0
LWPOLYLINE
  5
12b
100
AcDbEntity
  8
レイヤー_1
 62
7
100
AcDbPolyline
 90
4
 70
0
 10
174.250000
 20
105.000001
 30
0.0
 10
176.250002
 20
105.000001
 30
0.0
 10
176.250002
 20
105.000001
 30
0.0
 10
176.250002
 20
105.000001
 30
0.0
  0
LWPOLYLINE
  5
12c
100
AcDbEntity
  8
レイヤー_1
 62
7
100
AcDbPolyline
 90
2
 70
0
 10
175.250001
 20
106.000002
 30
0.0
 10
175.250001
 20
104.000000
 30
0.0
  0
LWPOLYLINE
  5
12d
100
AcDbEntity
  8
レイヤー_1
 62
7
100
AcDbPolyline
 90
5
 70
1
 10
147.388936
 20
113.861071
 30
0.0
 10
165.111069
 20
113.861071
 30
0.0
 10
165.111069
 20
96.138936
 30
0.0
 10
147.388936
 20
96.138936
 30
0.0
 10
147.388936
 20
113.861071
 30
0.0
  0
LWPOLYLINE
  5
12e
100
AcDbEntity
  8
レイヤー_1
 62
7
100
AcDbPolyline
 90
4
 70
0
 10
155.250002
 20
105.000001
 30
0.0
 10
157.250003
 20
105.000001
 30
0.0
 10
157.250003
 20
105.000001
 30
0.0
 10
157.250003
 20
105.000001
 30
0.0
  0
LWPOLYLINE
  5
12f
100
AcDbEntity
  8
レイヤー_1
 62
7
100
AcDbPolyline
 90
2
 70
0
 10
156.250002
 20
106.000002
 30
0.0
 10
156.250002
 20
104.000000
 30
0.0
  0
LWPOLYLINE
  5
130
100
AcDbEntity
  8
レイヤー_1
 62
7
100
AcDbPolyline
 90
5
 70
1
 10
109.388935
 20
113.861071
 30
0.0
 10
127.111069
 20
113.861071
 30
0.0
 10
127.111069
 20
96.138936
 30
0.0
 10
109.388935
 20
96.138936
 30
0.0
 10
109.388935
 20
113.861071
 30
0.0
  0
LWPOLYLINE
  5
131
100
AcDbEntity
  8
レイヤー_1
 62
7
100
AcDbPolyline
 90
4
 70
0
 10
117.250001
 20
105.000001
 30
0.0
 10
119.250003
 20
105.000001
 30
0.0
 10
119.250003
 20
105.000001
 30
0.0
 10
119.250003
 20
105.000001
 30
0.0
  0
LWPOLYLINE
  5
132
100
AcDbEntity
  8
レイヤー_1
 62
7
100
AcDbPolyline
 90
2
 70
0
 10
118.250002
 20
106.000002
 30
0.0
 10
118.250002
 20
104.000000
 30
0.0
  0
LWPOLYLINE
  5
133
100
AcDbEntity
  8
レイヤー_1
 62
7
100
AcDbPolyline
 90
5
 70
1
 10
128.388937
 20
113.861071
 30
0.0
 10
146.111070
 20
113.861071
 30
0.0
 10
146.111070
 20
96.138936
 30
0.0
 10
128.388937
 20
96.138936
 30
0.0
 10
128.388937
 20
113.861071
 30
0.0
  0
LWPOLYLINE
  5
134
100
AcDbEntity
  8
レイヤー_1
 62
7
100
AcDbPolyline
 90
4
 70
0
 10
136.250003
 20
105.000001
 30
0.0
 10
138.250005
 20
105.000001
 30
0.0
 10
138.250005
 20
105.000001
 30
0.0
 10
138.250005
 20
105.000001
 30
0.0
  0
LWPOLYLINE
  5
135
100
AcDbEntity
  8
レイヤー_1
 62
7
100
AcDbPolyline
 90
2
 70
0
 10
137.250004
 20
106.000002
 30
0.0
 10
137.250004
 20
104.000000
 30
0.0
  0
LWPOLYLINE
  5
136
100
AcDbEntity
  8
レイヤー_1
 62
7
100
AcDbPolyline
 90
5
 70
1
 10
71.388934
 20
113.861071
 30
0.0
 10
89.111067
 20
113.861071
 30
0.0
 10
89.111067
 20
96.138936
 30
0.0
 10
71.388934
 20
96.138936
 30
0.0
 10
71.388934
 20
113.861071
 30
0.0
  0
LWPOLYLINE
  5
137
100
AcDbEntity
  8
レイヤー_1
 62
7
100
AcDbPolyline
 90
4
 70
0
 10
79.250000
 20
105.000001
 30
0.0
 10
81.250001
 20
105.000001
 30
0.0
 10
81.250001
 20
105.000001
 30
0.0
 10
81.250001
 20
105.000001
 30
0.0
  0
LWPOLYLINE
  5
138
100
AcDbEntity
  8
レイヤー_1
 62
7
100
AcDbPolyline
 90
2
 70
0
 10
80.250000
 20
106.000002
 30
0.0
 10
80.250000
 20
104.000000
 30
0.0
  0
LWPOLYLINE
  5
139
100
AcDbEntity
  8
レイヤー_1
 62
7
100
AcDbPolyline
 90
5
 70
1
 10
99.888935
 20
94.861069
 30
0.0
 10
117.611068
 20
94.861069
 30
0.0
 10
117.611068
 20
77.138935
 30
0.0
 10
99.888935
 20
77.138935
 30
0.0
 10
99.888935
 20
94.861069
 30
0.0
  0
LWPOLYLINE
  5
13a
100
AcDbEntity
  8
レイヤー_1
 62
7
100
AcDbPolyline
 90
4
 70
0
 10
107.750001
 20
86.000000
 30
0.0
 10
109.750002
 20
86.000000
 30
0.0
 10
109.750002
 20
86.000000
 30
0.0
 10
109.750002
 20
86.000000
 30
0.0
  0
LWPOLYLINE
  5
13b
100
AcDbEntity
  8
レイヤー_1
 62
7
100
AcDbPolyline
 90
2
 70
0
 10
108.750002
 20
87.000000
 30
0.0
 10
108.750002
 20
84.999999
 30
0.0
  0
LWPOLYLINE
  5
13c
100
AcDbEntity
  8
レイヤー_1
 62
7
100
AcDbPolyline
 90
5
 70
1
 10
209.138935
 20
94.861069
 30
0.0
 10
226.861068
 20
94.861069
 30
0.0
 10
226.861068
 20
77.138935
 30
0.0
 10
209.138935
 20
77.138935
 30
0.0
 10
209.138935
 20
94.861069
 30
0.0
  0
LWPOLYLINE
  5
13d
100
AcDbEntity
  8
レイヤー_1
 62
7
100
AcDbPolyline
 90
4
 70
0
 10
217.000001
 20
86.000000
 30
0.0
 10
219.000003
 20
86.000000
 30
0.0
 10
219.000003
 20
86.000000
 30
0.0
 10
219.000003
 20
86.000000
 30
0.0
  0
LWPOLYLINE
  5
13e
100
AcDbEntity
  8
レイヤー_1
 62
7
100
AcDbPolyline
 90
2
 70
0
 10
218.000002
 20
87.000000
 30
0.0
 10
218.000002
 20
84.999999
 30
0.0
  0
LWPOLYLINE
  5
13f
100
AcDbEntity
  8
レイヤー_1
 62
7
100
AcDbPolyline
 90
5
 70
1
 10
156.888934
 20
94.861069
 30
0.0
 10
174.611067
 20
94.861069
 30
0.0
 10
174.611067
 20
77.138935
 30
0.0
 10
156.888934
 20
77.138935
 30
0.0
 10
156.888934
 20
94.861069
 30
0.0
  0
LWPOLYLINE
  5
140
100
AcDbEntity
  8
レイヤー_1
 62
7
100
AcDbPolyline
 90
4
 70
0
 10
164.750000
 20
86.000000
 30
0.0
 10
166.750001
 20
86.000000
 30
0.0
 10
166.750001
 20
86.000000
 30
0.0
 10
166.750001
 20
86.000000
 30
0.0
  0
LWPOLYLINE
  5
141
100
AcDbEntity
  8
レイヤー_1
 62
7
100
AcDbPolyline
 90
2
 70
0
 10
165.750000
 20
87.000000
 30
0.0
 10
165.750000
 20
84.999999
 30
0.0
  0
LWPOLYLINE
  5
142
100
AcDbEntity
  8
レイヤー_1
 62
7
100
AcDbPolyline
 90
5
 70
1
 10
118.888933
 20
94.861069
 30
0.0
 10
136.611066
 20
94.861069
 30
0.0
 10
136.611066
 20
77.138935
 30
0.0
 10
118.888933
 20
77.138935
 30
0.0
 10
118.888933
 20
94.861069
 30
0.0
  0
LWPOLYLINE
  5
143
100
AcDbEntity
  8
レイヤー_1
 62
7
100
AcDbPolyline
 90
4
 70
0
 10
126.749999
 20
86.000000
 30
0.0
 10
128.750001
 20
86.000000
 30
0.0
 10
128.750001
 20
86.000000
 30
0.0
 10
128.750001
 20
86.000000
 30
0.0
  0
LWPOLYLINE
  5
144
100
AcDbEntity
  8
レイヤー_1
 62
7
100
AcDbPolyline
 90
2
 70
0
 10
127.750000
 20
87.000000
 30
0.0
 10
127.750000
 20
84.999999
 30
0.0
  0
LWPOLYLINE
  5
145
100
AcDbEntity
  8
レイヤー_1
 62
7
100
AcDbPolyline
 90
5
 70
1
 10
137.888935
 20
94.861069
 30
0.0
 10
155.611068
 20
94.861069
 30
0.0
 10
155.611068
 20
77.138935
 30
0.0
 10
137.888935
 20
77.138935
 30
0.0
 10
137.888935
 20
94.861069
 30
0.0
  0
LWPOLYLINE
  5
146
100
AcDbEntity
  8
レイヤー_1
 62
7
100
AcDbPolyline
 90
4
 70
0
 10
145.750001
 20
86.000000
 30
0.0
 10
147.750003
 20
86.000000
 30
0.0
 10
147.750003
 20
86.000000
 30
0.0
 10
147.750003
 20
86.000000
 30
0.0
  0
LWPOLYLINE
  5
147
100
AcDbEntity
  8
レイヤー_1
 62
7
100
AcDbPolyline
 90
2
 70
0
 10
146.750002
 20
87.000000
 30
0.0
 10
146.750002
 20
84.999999
 30
0.0
  0
LWPOLYLINE
  5
148
100
AcDbEntity
  8
レイヤー_1
 62
7
100
AcDbPolyline
 90
5
 70
1
 10
80.888933
 20
94.861069
 30
0.0
 10
98.611066
 20
94.861069
 30
0.0
 10
98.611066
 20
77.138935
 30
0.0
 10
80.888933
 20
77.138935
 30
0.0
 10
80.888933
 20
94.861069
 30
0.0
  0
LWPOLYLINE
  5
149
100
AcDbEntity
  8
レイヤー_1
 62
7
100
AcDbPolyline
 90
4
 70
0
 10
88.749999
 20
86.000000
 30
0.0
 10
90.750001
 20
86.000000
 30
0.0
 10
90.750001
 20
86.000000
 30
0.0
 10
90.750001
 20
86.000000
 30
0.0
  0
LWPOLYLINE
  5
14a
100
AcDbEntity
  8
レイヤー_1
 62
7
100
AcDbPolyline
 90
2
 70
0
 10
89.750000
 20
87.000000
 30
0.0
 10
89.750000
 20
84.999999
 30
0.0
  0
LWPOLYLINE
  5
14b
100
AcDbEntity
  8
レイヤー_1
 62
7
100
AcDbPolyline
 90
5
 70
1
 10
199.671666
 20
132.828339
 30
0.0
 10
226.828336
 20
132.828339
 30
0.0
 10
226.828336
 20
115.171669
 30
0.0
 10
199.671666
 20
115.171669
 30
0.0
 10
199.671666
 20
132.828339
 30
0.0
  0
LWPOLYLINE
  5
14c
100
AcDbEntity
  8
レイヤー_1
 62
7
100
AcDbPolyline
 90
4
 70
0
 10
212.250000
 20
124.000002
 30
0.0
 10
214.250002
 20
124.000002
 30
0.0
 10
214.250002
 20
124.000002
 30
0.0
 10
214.250002
 20
124.000002
 30
0.0
  0
LWPOLYLINE
  5
14d
100
AcDbEntity
  8
レイヤー_1
 62
7
100
AcDbPolyline
 90
2
 70
0
 10
213.250001
 20
125.000003
 30
0.0
 10
213.250001
 20
123.000001
 30
0.0
  0
LWPOLYLINE
  5
14e
100
AcDbEntity
  8
レイヤー_1
 62
7
100
AcDbPolyline
 90
5
 70
1
 10
185.461292
 20
113.788709
 30
0.0
 10
226.788703
 20
113.788709
 30
0.0
 10
226.788703
 20
96.211296
 30
0.0
 10
185.461292
 20
96.211296
 30
0.0
 10
185.461292
 20
113.788709
 30
0.0
  0
LWPOLYLINE
  5
14f
100
AcDbEntity
  8
レイヤー_1
 62
7
100
AcDbPolyline
 90
4
 70
0
 10
205.124998
 20
105.000004
 30
0.0
 10
207.125000
 20
105.000004
 30
0.0
 10
207.125000
 20
105.000004
 30
0.0
 10
207.125000
 20
105.000004
 30
0.0
  0
LWPOLYLINE
  5
150
100
AcDbEntity
  8
レイヤー_1
 62
7
100
AcDbPolyline
 90
2
 70
0
 10
206.124999
 20
106.000005
 30
0.0
 10
206.124999
 20
104.000003
 30
0.0
  0
LWPOLYLINE
  5
151
100
AcDbEntity
  8
レイヤー_1
 62
7
100
AcDbPolyline
 90
5
 70
1
 10
175.935840
 20
94.814160
 30
0.0
 10
207.814158
 20
94.814160
 30
0.0
 10
207.814158
 20
77.185842
 30
0.0
 10
175.935840
 20
77.185842
 30
0.0
 10
175.935840
 20
94.814160
 30
0.0
  0
LWPOLYLINE
  5
152
100
AcDbEntity
  8
レイヤー_1
 62
7
100
AcDbPolyline
 90
4
 70
0
 10
190.875000
 20
86.000002
 30
0.0
 10
192.875001
 20
86.000002
 30
0.0
 10
192.875001
 20
86.000002
 30
0.0
 10
192.875001
 20
86.000002
 30
0.0
  0
LWPOLYLINE
  5
153
100
AcDbEntity
  8
レイヤー_1
 62
7
100
AcDbPolyline
 90
2
 70
0
 10
191.875000
 20
87.000002
 30
0.0
 10
191.875000
 20
85.000001
 30
0.0
  0
LWPOLYLINE
  5
154
100
AcDbEntity
  8
レイヤー_1
 62
7
100
AcDbPolyline
 90
5
 70
1
 10
137.888935
 20
75.861068
 30
0.0
 10
155.611068
 20
75.861068
 30
0.0
 10
155.611068
 20
58.138933
 30
0.0
 10
137.888935
 20
58.138933
 30
0.0
 10
137.888935
 20
75.861068
 30
0.0
  0
LWPOLYLINE
  5
155
100
AcDbEntity
  8
レイヤー_1
 62
7
100
AcDbPolyline
 90
4
 70
0
 10
145.750001
 20
66.999998
 30
0.0
 10
147.750003
 20
66.999998
 30
0.0
 10
147.750003
 20
66.999998
 30
0.0
 10
147.750003
 20
66.999998
 30
0.0
  0
LWPOLYLINE
  5
156
100
AcDbEntity
  8
レイヤー_1
 62
7
100
AcDbPolyline
 90
2
 70
0
 10
146.750002
 20
67.999999
 30
0.0
 10
146.750002
 20
65.999997
 30
0.0
  0
LWPOLYLINE
  5
157
100
AcDbEntity
  8
レイヤー_1
 62
7
100
AcDbPolyline
 90
5
 70
1
 10
61.888933
 20
94.861069
 30
0.0
 10
79.611066
 20
94.861069
 30
0.0
 10
79.611066
 20
77.138935
 30
0.0
 10
61.888933
 20
77.138935
 30
0.0
 10
61.888933
 20
94.861069
 30
0.0
  0
LWPOLYLINE
  5
158
100
AcDbEntity
  8
レイヤー_1
 62
7
100
AcDbPolyline
 90
4
 70
0
 10
69.749999
 20
86.000000
 30
0.0
 10
71.750001
 20
86.000000
 30
0.0
 10
71.750001
 20
86.000000
 30
0.0
 10
71.750001
 20
86.000000
 30
0.0
  0
LWPOLYLINE
  5
159
100
AcDbEntity
  8
レイヤー_1
 62
7
100
AcDbPolyline
 90
2
 70
0
 10
70.750000
 20
87.000000
 30
0.0
 10
70.750000
 20
84.999999
 30
0.0
  0
LWPOLYLINE
  5
15a
100
AcDbEntity
  8
レイヤー_1
 62
7
100
AcDbPolyline
 90
5
 70
1
 10
90.421666
 20
75.828335
 30
0.0
 10
117.578335
 20
75.828335
 30
0.0
 10
117.578335
 20
58.171665
 30
0.0
 10
90.421666
 20
58.171665
 30
0.0
 10
90.421666
 20
75.828335
 30
0.0
  0
LWPOLYLINE
  5
15b
100
AcDbEntity
  8
レイヤー_1
 62
7
100
AcDbPolyline
 90
4
 70
0
 10
103.000001
 20
66.999998
 30
0.0
 10
105.000003
 20
66.999998
 30
0.0
 10
105.000003
 20
66.999998
 30
0.0
 10
105.000003
 20
66.999998
 30
0.0
  0
LWPOLYLINE
  5
15c
100
AcDbEntity
  8
レイヤー_1
 62
7
100
AcDbPolyline
 90
2
 70
0
 10
104.000002
 20
67.999999
 30
0.0
 10
104.000002
 20
65.999997
 30
0.0
  0
LWPOLYLINE
  5
15d
100
AcDbEntity
  8
レイヤー_1
 62
7
100
AcDbPolyline
 90
5
 70
1
 10
61.921665
 20
75.828335
 30
0.0
 10
89.078334
 20
75.828335
 30
0.0
 10
89.078334
 20
58.171665
 30
0.0
 10
61.921665
 20
58.171665
 30
0.0
 10
61.921665
 20
75.828335
 30
0.0
  0
LWPOLYLINE
  5
15e
100
AcDbEntity
  8
レイヤー_1
 62
7
100
AcDbPolyline
 90
4
 70
0
 10
74.500000
 20
66.999998
 30
0.0
 10
76.500002
 20
66.999998
 30
0.0
 10
76.500002
 20
66.999998
 30
0.0
 10
76.500002
 20
66.999998
 30
0.0
  0
LWPOLYLINE
  5
15f
100
AcDbEntity
  8
レイヤー_1
 62
7
100
AcDbPolyline
 90
2
 70
0
 10
75.500001
 20
67.999999
 30
0.0
 10
75.500001
 20
65.999997
 30
0.0
  0
LWPOLYLINE
  5
160
100
AcDbEntity
  8
レイヤー_1
 62
7
100
AcDbPolyline
 90
5
 70
1
 10
190.198987
 20
151.801017
 30
0.0
 10
226.801017
 20
151.801017
 30
0.0
 10
226.801017
 20
134.198989
 30
0.0
 10
190.198987
 20
134.198989
 30
0.0
 10
190.198987
 20
151.801017
 30
0.0
  0
LWPOLYLINE
  5
161
100
AcDbEntity
  8
レイヤー_1
 62
7
100
AcDbPolyline
 90
4
 70
0
 10
207.500002
 20
143.000004
 30
0.0
 10
209.500003
 20
143.000004
 30
0.0
 10
209.500003
 20
143.000004
 30
0.0
 10
209.500003
 20
143.000004
 30
0.0
  0
LWPOLYLINE
  5
162
100
AcDbEntity
  8
レイヤー_1
 62
7
100
AcDbPolyline
 90
2
 70
0
 10
208.500003
 20
144.000005
 30
0.0
 10
208.500003
 20
142.000003
 30
0.0
  0
ENDSEC
  0
SECTION
  2
OBJECTS
  0
DICTIONARY
  5
C
330
0
100
AcDbDictionary
  3
ACAD_GROUP
350
D
  3
ACAD_MLINESTYLE
350
17
  0
DICTIONARY
  5
D
330
C
100
AcDbDictionary
  0
DICTIONARY
  5
1A
330
C
100
AcDbDictionary
  0
DICTIONARY
  5
17
330
C
100
AcDbDictionary
  3
STANDARD
350
18
  0
DICTIONARY
  5
19
330
C
100
AcDbDictionary
  0
ENDSEC
  0
EOF
