  0
SECTION
  2
HEADER
  9
$ACADVER
  1
AC1014
  9
$HANDSEED
  5
FFFF
  9
$MEASUREMENT
 70
     1
  0
ENDSEC
  0
SECTION
  2
TABLES
  0
TABLE
  2
VPORT
  5
8
330
0
100
AcDbSymbolTable
 70
     4
  0
VPORT
  5
2E
330
8
100
AcDbSymbolTableRecord
100
AcDbViewportTableRecord
  2
*ACTIVE
 70
     0
 10
0.0
 20
0.0
 11
1.0
 21
1.0
 12
210.0
 22
148.5
 13
0.0
 23
0.0
 14
10.0
 24
10.0
 15
10.0
 25
10.0
 16
0.0
 26
0.0
 36
1.0
 17
0.0
 27
0.0
 37
0.0
 40
341.0
 41
1.24
 42
50.0
 43
0.0
 44
0.0
 50
0.0
 51
0.0
 71
     0
 72
   100
 73
     1
 74
     3
 75
     0
 76
     0
 77
     0
 78
     0
  0
ENDTAB
  0
TABLE
  2
LTYPE
  5
5
330
0
100
AcDbSymbolTable
 70
     1
  0
LTYPE
  5
14
330
5
100
AcDbSymbolTableRecord
100
AcDbLinetypeTableRecord
  2
BYBLOCK
 70
     0
  3

 72
    65
 73
     0
 40
0.0
  0
LTYPE
  5
15
330
5
100
AcDbSymbolTableRecord
100
AcDbLinetypeTableRecord
  2
BYLAYER
 70
     0
  3

 72
    65
 73
     0
 40
0.0
  0
LTYPE
  5
16
330
5
100
AcDbSymbolTableRecord
100
AcDbLinetypeTableRecord
  2
CONTINUOUS
 70
     0
  3
Solid line
 72
    65
 73
     0
 40
0.0
  0
ENDTAB
  0
TABLE
  2
LAYER
  5
2
100
AcDbSymbolTable
 70
2
  0
LAYER
  5
50
100
AcDbSymbolTableRecord
100
AcDbLayerTableRecord
  2
0
 70
0
  6
CONTINUOUS
  0
LAYER
  5
51
100
AcDbSymbolTableRecord
100
AcDbLayerTableRecord
  2
レイヤー_1
 70
0
  6
CONTINUOUS
  0
ENDTAB
  0
TABLE
  2
STYLE
  5
3
330
0
100
AcDbSymbolTable
 70
     1
  0
STYLE
  5
11
330
3
100
AcDbSymbolTableRecord
100
AcDbTextStyleTableRecord
  2
STANDARD
 70
     0
 40
0.0
 41
1.0
 50
0.0
 71
     0
 42
2.5
  3
txt
  4

  0
ENDTAB
  0
TABLE
  2
VIEW
  5
6
330
0
100
AcDbSymbolTable
 70
     0
  0
ENDTAB
  0
TABLE
  2
UCS
  5
7
330
0
100
AcDbSymbolTable
 70
     0
  0
ENDTAB
  0
TABLE
  2
APPID
  5
9
330
0
100
AcDbSymbolTable
 70
     2
  0
APPID
  5
12
330
9
100
AcDbSymbolTableRecord
100
AcDbRegAppTableRecord
  2
ACAD
 70
     0
  0
ENDTAB
  0
TABLE
  2
DIMSTYLE
  5
A
330
0
100
AcDbSymbolTable
 70
     1
  0
DIMSTYLE
105
27
330
A
100
AcDbSymbolTableRecord
100
AcDbDimStyleTableRecord
  2
ISO-25
 70
     0
  3

  4

  5

  6

  7

 40
1.0
 41
2.5
 42
0.625
 43
3.75
 44
1.25
 45
0.0
 46
0.0
 47
0.0
 48
0.0
140
2.5
141
2.5
142
0.0
143
0.03937007874016
144
1.0
145
0.0
146
1.0
147
0.625
 71
     0
 72
     0
 73
     0
 74
     0
 75
     0
 76
     0
 77
     1
 78
     8
170
     0
171
     3
172
     1
173
     0
174
     0
175
     0
176
     0
177
     0
178
     0
270
     2
271
     2
272
     2
273
     2
274
     3
340
11
275
     0
280
     0
281
     0
282
     0
283
     0
284
     8
285
     0
286
     0
287
     3
288
     0
  0
ENDTAB
  0
TABLE
  2
BLOCK_RECORD
  5
1
330
0
100
AcDbSymbolTable
 70
     1
  0
BLOCK_RECORD
  5
1F
330
1
100
AcDbSymbolTableRecord
100
AcDbBlockTableRecord
  2
*MODEL_SPACE
  0
BLOCK_RECORD
  5
1B
330
1
100
AcDbSymbolTableRecord
100
AcDbBlockTableRecord
  2
*PAPER_SPACE
  0
ENDTAB
  0
ENDSEC
  0
SECTION
  2
BLOCKS
  0
BLOCK
  5
20
330
1F
100
AcDbEntity
  8
0
100
AcDbBlockBegin
  2
*MODEL_SPACE
 70
     0
 10
0.0
 20
0.0
 30
0.0
  3
*MODEL_SPACE
  1

  0
ENDBLK
  5
21
330
1F
100
AcDbEntity
  8
0
100
AcDbBlockEnd
  0
BLOCK
  5
1C
330
1B
100
AcDbEntity
 67
     1
  8
0
100
AcDbBlockBegin
  2
*PAPER_SPACE
  1

  0
ENDBLK
  5
1D
330
1B
100
AcDbEntity
 67
     1
  8
0
100
AcDbBlockEnd
  0
ENDSEC
  0
SECTION
  2
ENTITIES
  0
LWPOLYLINE
  5
100
100
AcDbEntity
  8
レイヤー_1
 62
7
100
AcDbPolyline
 90
5
 70
1
 10
4.521008
 20
35.872694
 30
0.0
 10
8.707339
 20
35.872694
 30
0.0
 10
8.707339
 20
31.686363
 30
0.0
 10
4.521008
 20
31.686363
 30
0.0
 10
4.521008
 20
35.872694
 30
0.0
  0
LWPOLYLINE
  5
101
100
AcDbEntity
  8
レイヤー_1
 62
7
100
AcDbPolyline
 90
4
 70
0
 10
6.377953
 20
33.779528
 30
0.0
 10
6.850394
 20
33.779528
 30
0.0
 10
6.850394
 20
33.779528
 30
0.0
 10
6.850394
 20
33.779528
 30
0.0
  0
LWPOLYLINE
  5
102
100
AcDbEntity
  8
レイヤー_1
 62
7
100
AcDbPolyline
 90
2
 70
0
 10
6.614173
 20
34.015748
 30
0.0
 10
6.614173
 20
33.543307
 30
0.0
  0
LWPOLYLINE
  5
103
100
AcDbEntity
  8
レイヤー_1
 62
7
100
AcDbPolyline
 90
5
 70
1
 10
4.528740
 20
31.376773
 30
0.0
 10
10.943701
 20
31.376773
 30
0.0
 10
10.943701
 20
27.205906
 30
0.0
 10
4.528740
 20
27.205906
 30
0.0
 10
4.528740
 20
31.376773
 30
0.0
  0
LWPOLYLINE
  5
104
100
AcDbEntity
  8
レイヤー_1
 62
7
100
AcDbPolyline
 90
4
 70
0
 10
7.500000
 20
29.291339
 30
0.0
 10
7.972441
 20
29.291339
 30
0.0
 10
7.972441
 20
29.291339
 30
0.0
 10
7.972441
 20
29.291339
 30
0.0
  0
LWPOLYLINE
  5
105
100
AcDbEntity
  8
レイヤー_1
 62
7
100
AcDbPolyline
 90
2
 70
0
 10
7.736221
 20
29.527560
 30
0.0
 10
7.736221
 20
29.055118
 30
0.0
  0
LWPOLYLINE
  5
106
100
AcDbEntity
  8
レイヤー_1
 62
7
100
AcDbPolyline
 90
5
 70
1
 10
4.532088
 20
26.885235
 30
0.0
 10
12.062399
 20
26.885235
 30
0.0
 10
12.062399
 20
22.721065
 30
0.0
 10
4.532088
 20
22.721065
 30
0.0
 10
4.532088
 20
26.885235
 30
0.0
  0
LWPOLYLINE
  5
107
100
AcDbEntity
  8
レイヤー_1
 62
7
100
AcDbPolyline
 90
4
 70
0
 10
8.061023
 20
24.803150
 30
0.0
 10
8.533465
 20
24.803150
 30
0.0
 10
8.533465
 20
24.803150
 30
0.0
 10
8.533465
 20
24.803150
 30
0.0
  0
LWPOLYLINE
  5
108
100
AcDbEntity
  8
レイヤー_1
 62
7
100
AcDbPolyline
 90
2
 70
0
 10
8.297244
 20
25.039371
 30
0.0
 10
8.297244
 20
24.566929
 30
0.0
  0
LWPOLYLINE
  5
109
100
AcDbEntity
  8
レイヤー_1
 62
7
100
AcDbPolyline
 90
5
 70
1
 10
4.538101
 20
22.391033
 30
0.0
 10
14.300481
 20
22.391033
 30
0.0
 10
14.300481
 20
18.238888
 30
0.0
 10
4.538101
 20
18.238888
 30
0.0
 10
4.538101
 20
22.391033
 30
0.0
  0
LWPOLYLINE
  5
10a
100
AcDbEntity
  8
レイヤー_1
 62
7
100
AcDbPolyline
 90
4
 70
0
 10
9.183071
 20
20.314961
 30
0.0
 10
9.655512
 20
20.314961
 30
0.0
 10
9.655512
 20
20.314961
 30
0.0
 10
9.655512
 20
20.314961
 30
0.0
  0
LWPOLYLINE
  5
10b
100
AcDbEntity
  8
レイヤー_1
 62
7
100
AcDbPolyline
 90
2
 70
0
 10
9.419291
 20
20.551182
 30
0.0
 10
9.419291
 20
20.078741
 30
0.0
  0
LWPOLYLINE
  5
10c
100
AcDbEntity
  8
レイヤー_1
 62
7
100
AcDbPolyline
 90
5
 70
1
 10
23.603543
 20
17.912206
 30
0.0
 10
30.018504
 20
17.912206
 30
0.0
 10
30.018504
 20
13.741339
 30
0.0
 10
23.603543
 20
13.741339
 30
0.0
 10
23.603543
 20
17.912206
 30
0.0
  0
LWPOLYLINE
  5
10d
100
AcDbEntity
  8
レイヤー_1
 62
7
100
AcDbPolyline
 90
4
 70
0
 10
26.574803
 20
15.826772
 30
0.0
 10
27.047244
 20
15.826772
 30
0.0
 10
27.047244
 20
15.826772
 30
0.0
 10
27.047244
 20
15.826772
 30
0.0
  0
LWPOLYLINE
  5
10e
100
AcDbEntity
  8
レイヤー_1
 62
7
100
AcDbPolyline
 90
2
 70
0
 10
26.811023
 20
16.062993
 30
0.0
 10
26.811023
 20
15.590551
 30
0.0
  0
LWPOLYLINE
  5
10f
100
AcDbEntity
  8
レイヤー_1
 62
7
100
AcDbPolyline
 90
5
 70
1
 10
30.335827
 20
17.912206
 30
0.0
 10
36.750788
 20
17.912206
 30
0.0
 10
36.750788
 20
13.741339
 30
0.0
 10
30.335827
 20
13.741339
 30
0.0
 10
30.335827
 20
17.912206
 30
0.0
  0
LWPOLYLINE
  5
110
100
AcDbEntity
  8
レイヤー_1
 62
7
100
AcDbPolyline
 90
4
 70
0
 10
33.307087
 20
15.826772
 30
0.0
 10
33.779528
 20
15.826772
 30
0.0
 10
33.779528
 20
15.826772
 30
0.0
 10
33.779528
 20
15.826772
 30
0.0
  0
LWPOLYLINE
  5
111
100
AcDbEntity
  8
レイヤー_1
 62
7
100
AcDbPolyline
 90
2
 70
0
 10
33.543307
 20
16.062993
 30
0.0
 10
33.543307
 20
15.590551
 30
0.0
  0
LWPOLYLINE
  5
112
100
AcDbEntity
  8
レイヤー_1
 62
7
100
AcDbPolyline
 90
5
 70
1
 10
4.525081
 20
17.915865
 30
0.0
 10
9.825313
 20
17.915865
 30
0.0
 10
9.825313
 20
13.737680
 30
0.0
 10
4.525081
 20
13.737680
 30
0.0
 10
4.525081
 20
17.915865
 30
0.0
  0
LWPOLYLINE
  5
113
100
AcDbEntity
  8
レイヤー_1
 62
7
100
AcDbPolyline
 90
4
 70
0
 10
6.938976
 20
15.826772
 30
0.0
 10
7.411418
 20
15.826772
 30
0.0
 10
7.411418
 20
15.826772
 30
0.0
 10
7.411418
 20
15.826772
 30
0.0
  0
LWPOLYLINE
  5
114
100
AcDbEntity
  8
レイヤー_1
 62
7
100
AcDbPolyline
 90
2
 70
0
 10
7.175197
 20
16.062993
 30
0.0
 10
7.175197
 20
15.590551
 30
0.0
  0
LWPOLYLINE
  5
115
100
AcDbEntity
  8
レイヤー_1
 62
7
100
AcDbPolyline
 90
5
 70
1
 10
30.328095
 20
26.896316
 30
0.0
 10
34.514425
 20
26.896316
 30
0.0
 10
34.514425
 20
22.709985
 30
0.0
 10
30.328095
 20
22.709985
 30
0.0
 10
30.328095
 20
26.896316
 30
0.0
  0
LWPOLYLINE
  5
116
100
AcDbEntity
  8
レイヤー_1
 62
7
100
AcDbPolyline
 90
4
 70
0
 10
32.185039
 20
24.803150
 30
0.0
 10
32.657481
 20
24.803150
 30
0.0
 10
32.657481
 20
24.803150
 30
0.0
 10
32.657481
 20
24.803150
 30
0.0
  0
LWPOLYLINE
  5
117
100
AcDbEntity
  8
レイヤー_1
 62
7
100
AcDbPolyline
 90
2
 70
0
 10
32.421260
 20
25.039371
 30
0.0
 10
32.421260
 20
24.566929
 30
0.0
  0
LWPOLYLINE
  5
118
100
AcDbEntity
  8
レイヤー_1
 62
7
100
AcDbPolyline
 90
5
 70
1
 10
20.229669
 20
31.384505
 30
0.0
 10
24.416000
 20
31.384505
 30
0.0
 10
24.416000
 20
27.198174
 30
0.0
 10
20.229669
 20
27.198174
 30
0.0
 10
20.229669
 20
31.384505
 30
0.0
  0
LWPOLYLINE
  5
119
100
AcDbEntity
  8
レイヤー_1
 62
7
100
AcDbPolyline
 90
4
 70
0
 10
22.086614
 20
29.291339
 30
0.0
 10
22.559055
 20
29.291339
 30
0.0
 10
22.559055
 20
29.291339
 30
0.0
 10
22.559055
 20
29.291339
 30
0.0
  0
LWPOLYLINE
  5
11a
100
AcDbEntity
  8
レイヤー_1
 62
7
100
AcDbPolyline
 90
2
 70
0
 10
22.322835
 20
29.527559
 30
0.0
 10
22.322835
 20
29.055118
 30
0.0
  0
LWPOLYLINE
  5
11b
100
AcDbEntity
  8
レイヤー_1
 62
7
100
AcDbPolyline
 90
5
 70
1
 10
24.717858
 20
31.384505
 30
0.0
 10
28.904189
 20
31.384505
 30
0.0
 10
28.904189
 20
27.198174
 30
0.0
 10
24.717858
 20
27.198174
 30
0.0
 10
24.717858
 20
31.384505
 30
0.0
  0
LWPOLYLINE
  5
11c
100
AcDbEntity
  8
レイヤー_1
 62
7
100
AcDbPolyline
 90
4
 70
0
 10
26.574803
 20
29.291339
 30
0.0
 10
27.047244
 20
29.291339
 30
0.0
 10
27.047244
 20
29.291339
 30
0.0
 10
27.047244
 20
29.291339
 30
0.0
  0
LWPOLYLINE
  5
11d
100
AcDbEntity
  8
レイヤー_1
 62
7
100
AcDbPolyline
 90
2
 70
0
 10
26.811023
 20
29.527559
 30
0.0
 10
26.811023
 20
29.055118
 30
0.0
  0
LWPOLYLINE
  5
11e
100
AcDbEntity
  8
レイヤー_1
 62
7
100
AcDbPolyline
 90
5
 70
1
 10
29.206047
 20
31.384505
 30
0.0
 10
33.392378
 20
31.384505
 30
0.0
 10
33.392378
 20
27.198174
 30
0.0
 10
29.206047
 20
27.198174
 30
0.0
 10
29.206047
 20
31.384505
 30
0.0
  0
LWPOLYLINE
  5
11f
100
AcDbEntity
  8
レイヤー_1
 62
7
100
AcDbPolyline
 90
4
 70
0
 10
31.062992
 20
29.291339
 30
0.0
 10
31.535433
 20
29.291339
 30
0.0
 10
31.535433
 20
29.291339
 30
0.0
 10
31.535433
 20
29.291339
 30
0.0
  0
LWPOLYLINE
  5
120
100
AcDbEntity
  8
レイヤー_1
 62
7
100
AcDbPolyline
 90
2
 70
0
 10
31.299213
 20
29.527559
 30
0.0
 10
31.299213
 20
29.055118
 30
0.0
  0
LWPOLYLINE
  5
121
100
AcDbEntity
  8
レイヤー_1
 62
7
100
AcDbPolyline
 90
5
 70
1
 10
13.497386
 20
35.872694
 30
0.0
 10
17.683717
 20
35.872694
 30
0.0
 10
17.683717
 20
31.686363
 30
0.0
 10
13.497386
 20
31.686363
 30
0.0
 10
13.497386
 20
35.872694
 30
0.0
  0
LWPOLYLINE
  5
122
100
AcDbEntity
  8
レイヤー_1
 62
7
100
AcDbPolyline
 90
4
 70
0
 10
15.354331
 20
33.779528
 30
0.0
 10
15.826772
 20
33.779528
 30
0.0
 10
15.826772
 20
33.779528
 30
0.0
 10
15.826772
 20
33.779528
 30
0.0
  0
LWPOLYLINE
  5
123
100
AcDbEntity
  8
レイヤー_1
 62
7
100
AcDbPolyline
 90
2
 70
0
 10
15.590551
 20
34.015748
 30
0.0
 10
15.590551
 20
33.543307
 30
0.0
  0
LWPOLYLINE
  5
124
100
AcDbEntity
  8
レイヤー_1
 62
7
100
AcDbPolyline
 90
5
 70
1
 10
17.985575
 20
35.872694
 30
0.0
 10
22.171905
 20
35.872694
 30
0.0
 10
22.171905
 20
31.686363
 30
0.0
 10
17.985575
 20
31.686363
 30
0.0
 10
17.985575
 20
35.872694
 30
0.0
  0
LWPOLYLINE
  5
125
100
AcDbEntity
  8
レイヤー_1
 62
7
100
AcDbPolyline
 90
4
 70
0
 10
19.842520
 20
33.779528
 30
0.0
 10
20.314961
 20
33.779528
 30
0.0
 10
20.314961
 20
33.779528
 30
0.0
 10
20.314961
 20
33.779528
 30
0.0
  0
LWPOLYLINE
  5
126
100
AcDbEntity
  8
レイヤー_1
 62
7
100
AcDbPolyline
 90
2
 70
0
 10
20.078740
 20
34.015748
 30
0.0
 10
20.078740
 20
33.543307
 30
0.0
  0
LWPOLYLINE
  5
127
100
AcDbEntity
  8
レイヤー_1
 62
7
100
AcDbPolyline
 90
5
 70
1
 10
22.473764
 20
35.872694
 30
0.0
 10
26.660095
 20
35.872694
 30
0.0
 10
26.660095
 20
31.686363
 30
0.0
 10
22.473764
 20
31.686363
 30
0.0
 10
22.473764
 20
35.872694
 30
0.0
  0
LWPOLYLINE
  5
128
100
AcDbEntity
  8
レイヤー_1
 62
7
100
AcDbPolyline
 90
4
 70
0
 10
24.330709
 20
33.779528
 30
0.0
 10
24.803150
 20
33.779528
 30
0.0
 10
24.803150
 20
33.779528
 30
0.0
 10
24.803150
 20
33.779528
 30
0.0
  0
LWPOLYLINE
  5
129
100
AcDbEntity
  8
レイヤー_1
 62
7
100
AcDbPolyline
 90
2
 70
0
 10
24.566929
 20
34.015748
 30
0.0
 10
24.566929
 20
33.543307
 30
0.0
  0
LWPOLYLINE
  5
12a
100
AcDbEntity
  8
レイヤー_1
 62
7
100
AcDbPolyline
 90
5
 70
1
 10
26.961953
 20
35.872694
 30
0.0
 10
31.148283
 20
35.872694
 30
0.0
 10
31.148283
 20
31.686363
 30
0.0
 10
26.961953
 20
31.686363
 30
0.0
 10
26.961953
 20
35.872694
 30
0.0
  0
LWPOLYLINE
  5
12b
100
AcDbEntity
  8
レイヤー_1
 62
7
100
AcDbPolyline
 90
4
 70
0
 10
28.818897
 20
33.779528
 30
0.0
 10
29.291339
 20
33.779528
 30
0.0
 10
29.291339
 20
33.779528
 30
0.0
 10
29.291339
 20
33.779528
 30
0.0
  0
LWPOLYLINE
  5
12c
100
AcDbEntity
  8
レイヤー_1
 62
7
100
AcDbPolyline
 90
2
 70
0
 10
29.055118
 20
34.015748
 30
0.0
 10
29.055118
 20
33.543307
 30
0.0
  0
LWPOLYLINE
  5
12d
100
AcDbEntity
  8
レイヤー_1
 62
7
100
AcDbPolyline
 90
5
 70
1
 10
31.450142
 20
35.872694
 30
0.0
 10
35.636473
 20
35.872694
 30
0.0
 10
35.636473
 20
31.686363
 30
0.0
 10
31.450142
 20
31.686363
 30
0.0
 10
31.450142
 20
35.872694
 30
0.0
  0
LWPOLYLINE
  5
12e
100
AcDbEntity
  8
レイヤー_1
 62
7
100
AcDbPolyline
 90
4
 70
0
 10
33.307087
 20
33.779528
 30
0.0
 10
33.779528
 20
33.779528
 30
0.0
 10
33.779528
 20
33.779528
 30
0.0
 10
33.779528
 20
33.779528
 30
0.0
  0
LWPOLYLINE
  5
12f
100
AcDbEntity
  8
レイヤー_1
 62
7
100
AcDbPolyline
 90
2
 70
0
 10
33.543307
 20
34.015748
 30
0.0
 10
33.543307
 20
33.543307
 30
0.0
  0
LWPOLYLINE
  5
130
100
AcDbEntity
  8
レイヤー_1
 62
7
100
AcDbPolyline
 90
5
 70
1
 10
11.253291
 20
31.384505
 30
0.0
 10
15.439622
 20
31.384505
 30
0.0
 10
15.439622
 20
27.198174
 30
0.0
 10
11.253291
 20
27.198174
 30
0.0
 10
11.253291
 20
31.384505
 30
0.0
  0
LWPOLYLINE
  5
131
100
AcDbEntity
  8
レイヤー_1
 62
7
100
AcDbPolyline
 90
4
 70
0
 10
13.110236
 20
29.291339
 30
0.0
 10
13.582677
 20
29.291339
 30
0.0
 10
13.582677
 20
29.291339
 30
0.0
 10
13.582677
 20
29.291339
 30
0.0
  0
LWPOLYLINE
  5
132
100
AcDbEntity
  8
レイヤー_1
 62
7
100
AcDbPolyline
 90
2
 70
0
 10
13.346457
 20
29.527559
 30
0.0
 10
13.346457
 20
29.055118
 30
0.0
  0
LWPOLYLINE
  5
133
100
AcDbEntity
  8
レイヤー_1
 62
7
100
AcDbPolyline
 90
5
 70
1
 10
9.009197
 20
35.872694
 30
0.0
 10
13.195528
 20
35.872694
 30
0.0
 10
13.195528
 20
31.686363
 30
0.0
 10
9.009197
 20
31.686363
 30
0.0
 10
9.009197
 20
35.872694
 30
0.0
  0
LWPOLYLINE
  5
134
100
AcDbEntity
  8
レイヤー_1
 62
7
100
AcDbPolyline
 90
4
 70
0
 10
10.866142
 20
33.779528
 30
0.0
 10
11.338583
 20
33.779528
 30
0.0
 10
11.338583
 20
33.779528
 30
0.0
 10
11.338583
 20
33.779528
 30
0.0
  0
LWPOLYLINE
  5
135
100
AcDbEntity
  8
レイヤー_1
 62
7
100
AcDbPolyline
 90
2
 70
0
 10
11.102362
 20
34.015748
 30
0.0
 10
11.102362
 20
33.543307
 30
0.0
  0
LWPOLYLINE
  5
136
100
AcDbEntity
  8
レイヤー_1
 62
7
100
AcDbPolyline
 90
5
 70
1
 10
14.619433
 20
17.919937
 30
0.0
 10
18.805764
 20
17.919937
 30
0.0
 10
18.805764
 20
13.733606
 30
0.0
 10
14.619433
 20
13.733606
 30
0.0
 10
14.619433
 20
17.919937
 30
0.0
  0
LWPOLYLINE
  5
137
100
AcDbEntity
  8
レイヤー_1
 62
7
100
AcDbPolyline
 90
4
 70
0
 10
16.476378
 20
15.826771
 30
0.0
 10
16.948819
 20
15.826771
 30
0.0
 10
16.948819
 20
15.826771
 30
0.0
 10
16.948819
 20
15.826771
 30
0.0
  0
LWPOLYLINE
  5
138
100
AcDbEntity
  8
レイヤー_1
 62
7
100
AcDbPolyline
 90
2
 70
0
 10
16.712598
 20
16.062992
 30
0.0
 10
16.712598
 20
15.590551
 30
0.0
  0
LWPOLYLINE
  5
139
100
AcDbEntity
  8
レイヤー_1
 62
7
100
AcDbPolyline
 90
5
 70
1
 10
10.131244
 20
17.919937
 30
0.0
 10
14.317575
 20
17.919937
 30
0.0
 10
14.317575
 20
13.733606
 30
0.0
 10
10.131244
 20
13.733606
 30
0.0
 10
10.131244
 20
17.919937
 30
0.0
  0
LWPOLYLINE
  5
13a
100
AcDbEntity
  8
レイヤー_1
 62
7
100
AcDbPolyline
 90
4
 70
0
 10
11.988189
 20
15.826771
 30
0.0
 10
12.460630
 20
15.826771
 30
0.0
 10
12.460630
 20
15.826771
 30
0.0
 10
12.460630
 20
15.826771
 30
0.0
  0
LWPOLYLINE
  5
13b
100
AcDbEntity
  8
レイヤー_1
 62
7
100
AcDbPolyline
 90
2
 70
0
 10
12.224409
 20
16.062992
 30
0.0
 10
12.224409
 20
15.590551
 30
0.0
  0
LWPOLYLINE
  5
13c
100
AcDbEntity
  8
レイヤー_1
 62
7
100
AcDbPolyline
 90
5
 70
1
 10
32.572189
 20
22.408127
 30
0.0
 10
36.758520
 20
22.408127
 30
0.0
 10
36.758520
 20
18.221796
 30
0.0
 10
32.572189
 20
18.221796
 30
0.0
 10
32.572189
 20
22.408127
 30
0.0
  0
LWPOLYLINE
  5
13d
100
AcDbEntity
  8
レイヤー_1
 62
7
100
AcDbPolyline
 90
4
 70
0
 10
34.429134
 20
20.314961
 30
0.0
 10
34.901575
 20
20.314961
 30
0.0
 10
34.901575
 20
20.314961
 30
0.0
 10
34.901575
 20
20.314961
 30
0.0
  0
LWPOLYLINE
  5
13e
100
AcDbEntity
  8
レイヤー_1
 62
7
100
AcDbPolyline
 90
2
 70
0
 10
34.665355
 20
20.551181
 30
0.0
 10
34.665355
 20
20.078740
 30
0.0
  0
LWPOLYLINE
  5
13f
100
AcDbEntity
  8
レイヤー_1
 62
7
100
AcDbPolyline
 90
5
 70
1
 10
28.084000
 20
22.408127
 30
0.0
 10
32.270331
 20
22.408127
 30
0.0
 10
32.270331
 20
18.221796
 30
0.0
 10
28.084000
 20
18.221796
 30
0.0
 10
28.084000
 20
22.408127
 30
0.0
  0
LWPOLYLINE
  5
140
100
AcDbEntity
  8
レイヤー_1
 62
7
100
AcDbPolyline
 90
4
 70
0
 10
29.940945
 20
20.314961
 30
0.0
 10
30.413386
 20
20.314961
 30
0.0
 10
30.413386
 20
20.314961
 30
0.0
 10
30.413386
 20
20.314961
 30
0.0
  0
LWPOLYLINE
  5
141
100
AcDbEntity
  8
レイヤー_1
 62
7
100
AcDbPolyline
 90
2
 70
0
 10
30.177165
 20
20.551181
 30
0.0
 10
30.177165
 20
20.078740
 30
0.0
  0
LWPOLYLINE
  5
142
100
AcDbEntity
  8
レイヤー_1
 62
7
100
AcDbPolyline
 90
5
 70
1
 10
23.595811
 20
22.408127
 30
0.0
 10
27.782142
 20
22.408127
 30
0.0
 10
27.782142
 20
18.221796
 30
0.0
 10
23.595811
 20
18.221796
 30
0.0
 10
23.595811
 20
22.408127
 30
0.0
  0
LWPOLYLINE
  5
143
100
AcDbEntity
  8
レイヤー_1
 62
7
100
AcDbPolyline
 90
4
 70
0
 10
25.452756
 20
20.314961
 30
0.0
 10
25.925197
 20
20.314961
 30
0.0
 10
25.925197
 20
20.314961
 30
0.0
 10
25.925197
 20
20.314961
 30
0.0
  0
LWPOLYLINE
  5
144
100
AcDbEntity
  8
レイヤー_1
 62
7
100
AcDbPolyline
 90
2
 70
0
 10
25.688977
 20
20.551181
 30
0.0
 10
25.688977
 20
20.078740
 30
0.0
  0
LWPOLYLINE
  5
145
100
AcDbEntity
  8
レイヤー_1
 62
7
100
AcDbPolyline
 90
5
 70
1
 10
19.107622
 20
22.408127
 30
0.0
 10
23.293953
 20
22.408127
 30
0.0
 10
23.293953
 20
18.221796
 30
0.0
 10
19.107622
 20
18.221796
 30
0.0
 10
19.107622
 20
22.408127
 30
0.0
  0
LWPOLYLINE
  5
146
100
AcDbEntity
  8
レイヤー_1
 62
7
100
AcDbPolyline
 90
4
 70
0
 10
20.964567
 20
20.314961
 30
0.0
 10
21.437008
 20
20.314961
 30
0.0
 10
21.437008
 20
20.314961
 30
0.0
 10
21.437008
 20
20.314961
 30
0.0
  0
LWPOLYLINE
  5
147
100
AcDbEntity
  8
レイヤー_1
 62
7
100
AcDbPolyline
 90
2
 70
0
 10
21.200787
 20
20.551181
 30
0.0
 10
21.200787
 20
20.078740
 30
0.0
  0
LWPOLYLINE
  5
148
100
AcDbEntity
  8
レイヤー_1
 62
7
100
AcDbPolyline
 90
5
 70
1
 10
25.839905
 20
26.896316
 30
0.0
 10
30.026236
 20
26.896316
 30
0.0
 10
30.026236
 20
22.709985
 30
0.0
 10
25.839905
 20
22.709985
 30
0.0
 10
25.839905
 20
26.896316
 30
0.0
  0
LWPOLYLINE
  5
149
100
AcDbEntity
  8
レイヤー_1
 62
7
100
AcDbPolyline
 90
4
 70
0
 10
27.696850
 20
24.803150
 30
0.0
 10
28.169291
 20
24.803150
 30
0.0
 10
28.169291
 20
24.803150
 30
0.0
 10
28.169291
 20
24.803150
 30
0.0
  0
LWPOLYLINE
  5
14a
100
AcDbEntity
  8
レイヤー_1
 62
7
100
AcDbPolyline
 90
2
 70
0
 10
27.933071
 20
25.039371
 30
0.0
 10
27.933071
 20
24.566929
 30
0.0
  0
LWPOLYLINE
  5
14b
100
AcDbEntity
  8
レイヤー_1
 62
7
100
AcDbPolyline
 90
5
 70
1
 10
21.351717
 20
26.896316
 30
0.0
 10
25.538047
 20
26.896316
 30
0.0
 10
25.538047
 20
22.709985
 30
0.0
 10
21.351717
 20
22.709985
 30
0.0
 10
21.351717
 20
26.896316
 30
0.0
  0
LWPOLYLINE
  5
14c
100
AcDbEntity
  8
レイヤー_1
 62
7
100
AcDbPolyline
 90
4
 70
0
 10
23.208661
 20
24.803150
 30
0.0
 10
23.681103
 20
24.803150
 30
0.0
 10
23.681103
 20
24.803150
 30
0.0
 10
23.681103
 20
24.803150
 30
0.0
  0
LWPOLYLINE
  5
14d
100
AcDbEntity
  8
レイヤー_1
 62
7
100
AcDbPolyline
 90
2
 70
0
 10
23.444882
 20
25.039371
 30
0.0
 10
23.444882
 20
24.566929
 30
0.0
  0
LWPOLYLINE
  5
14e
100
AcDbEntity
  8
レイヤー_1
 62
7
100
AcDbPolyline
 90
5
 70
1
 10
16.863528
 20
26.896316
 30
0.0
 10
21.049858
 20
26.896316
 30
0.0
 10
21.049858
 20
22.709985
 30
0.0
 10
16.863528
 20
22.709985
 30
0.0
 10
16.863528
 20
26.896316
 30
0.0
  0
LWPOLYLINE
  5
14f
100
AcDbEntity
  8
レイヤー_1
 62
7
100
AcDbPolyline
 90
4
 70
0
 10
18.720472
 20
24.803150
 30
0.0
 10
19.192914
 20
24.803150
 30
0.0
 10
19.192914
 20
24.803150
 30
0.0
 10
19.192914
 20
24.803150
 30
0.0
  0
LWPOLYLINE
  5
150
100
AcDbEntity
  8
レイヤー_1
 62
7
100
AcDbPolyline
 90
2
 70
0
 10
18.956693
 20
25.039371
 30
0.0
 10
18.956693
 20
24.566929
 30
0.0
  0
LWPOLYLINE
  5
151
100
AcDbEntity
  8
レイヤー_1
 62
7
100
AcDbPolyline
 90
5
 70
1
 10
15.741480
 20
31.384505
 30
0.0
 10
19.927811
 20
31.384505
 30
0.0
 10
19.927811
 20
27.198174
 30
0.0
 10
15.741480
 20
27.198174
 30
0.0
 10
15.741480
 20
31.384505
 30
0.0
  0
LWPOLYLINE
  5
152
100
AcDbEntity
  8
レイヤー_1
 62
7
100
AcDbPolyline
 90
4
 70
0
 10
17.598425
 20
29.291339
 30
0.0
 10
18.070866
 20
29.291339
 30
0.0
 10
18.070866
 20
29.291339
 30
0.0
 10
18.070866
 20
29.291339
 30
0.0
  0
LWPOLYLINE
  5
153
100
AcDbEntity
  8
レイヤー_1
 62
7
100
AcDbPolyline
 90
2
 70
0
 10
17.834646
 20
29.527559
 30
0.0
 10
17.834646
 20
29.055118
 30
0.0
  0
LWPOLYLINE
  5
154
100
AcDbEntity
  8
レイヤー_1
 62
7
100
AcDbPolyline
 90
5
 70
1
 10
12.375339
 20
26.896316
 30
0.0
 10
16.561669
 20
26.896316
 30
0.0
 10
16.561669
 20
22.709985
 30
0.0
 10
12.375339
 20
22.709985
 30
0.0
 10
12.375339
 20
26.896316
 30
0.0
  0
LWPOLYLINE
  5
155
100
AcDbEntity
  8
レイヤー_1
 62
7
100
AcDbPolyline
 90
4
 70
0
 10
14.232283
 20
24.803150
 30
0.0
 10
14.704725
 20
24.803150
 30
0.0
 10
14.704725
 20
24.803150
 30
0.0
 10
14.704725
 20
24.803150
 30
0.0
  0
LWPOLYLINE
  5
156
100
AcDbEntity
  8
レイヤー_1
 62
7
100
AcDbPolyline
 90
2
 70
0
 10
14.468504
 20
25.039371
 30
0.0
 10
14.468504
 20
24.566929
 30
0.0
  0
LWPOLYLINE
  5
157
100
AcDbEntity
  8
レイヤー_1
 62
7
100
AcDbPolyline
 90
5
 70
1
 10
14.619433
 20
22.408127
 30
0.0
 10
18.805764
 20
22.408127
 30
0.0
 10
18.805764
 20
18.221796
 30
0.0
 10
14.619433
 20
18.221796
 30
0.0
 10
14.619433
 20
22.408127
 30
0.0
  0
LWPOLYLINE
  5
158
100
AcDbEntity
  8
レイヤー_1
 62
7
100
AcDbPolyline
 90
4
 70
0
 10
16.476378
 20
20.314961
 30
0.0
 10
16.948819
 20
20.314961
 30
0.0
 10
16.948819
 20
20.314961
 30
0.0
 10
16.948819
 20
20.314961
 30
0.0
  0
LWPOLYLINE
  5
159
100
AcDbEntity
  8
レイヤー_1
 62
7
100
AcDbPolyline
 90
2
 70
0
 10
16.712598
 20
20.551181
 30
0.0
 10
16.712598
 20
20.078740
 30
0.0
  0
ENDSEC
  0
SECTION
  2
OBJECTS
  0
DICTIONARY
  5
C
330
0
100
AcDbDictionary
  3
ACAD_GROUP
350
D
  3
ACAD_MLINESTYLE
350
17
  0
DICTIONARY
  5
D
330
C
100
AcDbDictionary
  0
DICTIONARY
  5
1A
330
C
100
AcDbDictionary
  0
DICTIONARY
  5
17
330
C
100
AcDbDictionary
  3
STANDARD
350
18
  0
DICTIONARY
  5
19
330
C
100
AcDbDictionary
  0
ENDSEC
  0
EOF
