  0
SECTION
  2
HEADER
  9
$ANGBASE
  50
0.0
  9
$ANGDIR
  70
  1
  9
$MEASUREMENT
  70
0
  0
ENDSEC
  0
SECTION
  2
TABLES
  0
TABLE
  2
LTYPE
  70
1
  0
LTYPE
  2
CONTINUOUS
  70
0
  3
Solid line
  72
65
  73
0
  40
0.0
  0
ENDTAB
  0
TABLE
  2
STYLE
  70
4
  0
STYLE
  2
KICAD
  70
0
  40
0
  41
1
  42
1
  50
0
  71
0
  3
isocp.shx
  0
STYLE
  2
KICADB
  70
0
  40
0
  41
1
  42
1
  50
0
  71
0
  3
isocp.shx
  0
STYLE
  2
KICADI
  70
0
  40
0
  41
1
  42
1
  50
15
  71
0
  3
isocp.shx
  0
STYLE
  2
KICADBI
  70
0
  40
0
  41
1
  42
1
  50
15
  71
0
  3
isocp.shx
  0
ENDTAB
  0
TABLE
  2
LAYER
  70
30
  0
LAYER
  2
BLACK
  70
0
  62
7
  6
CONTINUOUS
  0
LAYER
  2
GRAY1
  70
0
  62
251
  6
CONTINUOUS
  0
LAYER
  2
GRAY2
  70
0
  62
8
  6
CONTINUOUS
  0
LAYER
  2
GRAY3
  70
0
  62
9
  6
CONTINUOUS
  0
LAYER
  2
WHITE
  70
0
  62
7
  6
CONTINUOUS
  0
LAYER
  2
LYELLOW
  70
0
  62
51
  6
CONTINUOUS
  0
LAYER
  2
BLUE1
  70
0
  62
178
  6
CONTINUOUS
  0
LAYER
  2
GREEN1
  70
0
  62
98
  6
CONTINUOUS
  0
LAYER
  2
CYAN1
  70
0
  62
138
  6
CONTINUOUS
  0
LAYER
  2
RED1
  70
0
  62
18
  6
CONTINUOUS
  0
LAYER
  2
MAGENTA1
  70
0
  62
228
  6
CONTINUOUS
  0
LAYER
  2
BROWN1
  70
0
  62
58
  6
CONTINUOUS
  0
LAYER
  2
BLUE2
  70
0
  62
5
  6
CONTINUOUS
  0
LAYER
  2
GREEN2
  70
0
  62
3
  6
CONTINUOUS
  0
LAYER
  2
CYAN2
  70
0
  62
4
  6
CONTINUOUS
  0
LAYER
  2
RED2
  70
0
  62
1
  6
CONTINUOUS
  0
LAYER
  2
MAGENTA2
  70
0
  62
6
  6
CONTINUOUS
  0
LAYER
  2
BROWN2
  70
0
  62
54
  6
CONTINUOUS
  0
LAYER
  2
BLUE3
  70
0
  62
171
  6
CONTINUOUS
  0
LAYER
  2
GREEN3
  70
0
  62
91
  6
CONTINUOUS
  0
LAYER
  2
CYAN3
  70
0
  62
131
  6
CONTINUOUS
  0
LAYER
  2
RED3
  70
0
  62
11
  6
CONTINUOUS
  0
LAYER
  2
MAGENTA3
  70
0
  62
221
  6
CONTINUOUS
  0
LAYER
  2
YELLOW3
  70
0
  62
2
  6
CONTINUOUS
  0
LAYER
  2
BLUE4
  70
0
  62
5
  6
CONTINUOUS
  0
LAYER
  2
GREEN4
  70
0
  62
3
  6
CONTINUOUS
  0
LAYER
  2
CYAN4
  70
0
  62
4
  6
CONTINUOUS
  0
LAYER
  2
RED4
  70
0
  62
1
  6
CONTINUOUS
  0
LAYER
  2
MAGENTA4
  70
0
  62
6
  6
CONTINUOUS
  0
LAYER
  2
YELLOW4
  70
0
  62
2
  6
CONTINUOUS
  0
ENDTAB
  0
ENDSEC
  0
SECTION
  2
ENTITIES
0
LINE
8
Black
10
33.6008
20
-141.849
11
34.1292
21
-142.154
0
LINE
8
Black
10
34.1292
20
-142.154
11
34.5213
21
-142.622
0
LINE
8
Black
10
34.5213
20
-142.622
11
34.73
21
-143.195
0
LINE
8
Black
10
34.73
20
-143.195
11
34.73
21
-143.805
0
LINE
8
Black
10
34.73
20
-143.805
11
34.5213
21
-144.378
0
LINE
8
Black
10
34.5213
20
-144.378
11
34.1292
21
-144.846
0
LINE
8
Black
10
34.1292
20
-144.846
11
33.6008
21
-145.151
0
LINE
8
Black
10
33.6008
20
-145.151
11
33
21
-145.257
0
LINE
8
Black
10
33
20
-145.257
11
32.3992
21
-145.151
0
LINE
8
Black
10
32.3992
20
-145.151
11
31.8708
21
-144.846
0
LINE
8
Black
10
31.8708
20
-144.846
11
31.4787
21
-144.378
0
LINE
8
Black
10
31.4787
20
-144.378
11
31.27
21
-143.805
0
LINE
8
Black
10
31.27
20
-143.805
11
31.27
21
-143.195
0
LINE
8
Black
10
31.27
20
-143.195
11
31.4787
21
-142.622
0
LINE
8
Black
10
31.4787
20
-142.622
11
31.8708
21
-142.154
0
LINE
8
Black
10
31.8708
20
-142.154
11
32.3992
21
-141.849
0
LINE
8
Black
10
32.3992
20
-141.849
11
33
21
-141.743
0
LINE
8
Black
10
33
20
-141.743
11
33.6008
21
-141.849
0
LINE
8
Black
10
74.0008
20
-141.849
11
74.5292
21
-142.154
0
LINE
8
Black
10
74.5292
20
-142.154
11
74.9213
21
-142.622
0
LINE
8
Black
10
74.9213
20
-142.622
11
75.13
21
-143.195
0
LINE
8
Black
10
75.13
20
-143.195
11
75.13
21
-143.805
0
LINE
8
Black
10
75.13
20
-143.805
11
74.9213
21
-144.378
0
LINE
8
Black
10
74.9213
20
-144.378
11
74.5292
21
-144.846
0
LINE
8
Black
10
74.5292
20
-144.846
11
74.0008
21
-145.151
0
LINE
8
Black
10
74.0008
20
-145.151
11
73.4
21
-145.257
0
LINE
8
Black
10
73.4
20
-145.257
11
72.7992
21
-145.151
0
LINE
8
Black
10
72.7992
20
-145.151
11
72.2708
21
-144.846
0
LINE
8
Black
10
72.2708
20
-144.846
11
71.8787
21
-144.378
0
LINE
8
Black
10
71.8787
20
-144.378
11
71.67
21
-143.805
0
LINE
8
Black
10
71.67
20
-143.805
11
71.67
21
-143.195
0
LINE
8
Black
10
71.67
20
-143.195
11
71.8787
21
-142.622
0
LINE
8
Black
10
71.8787
20
-142.622
11
72.2708
21
-142.154
0
LINE
8
Black
10
72.2708
20
-142.154
11
72.7992
21
-141.849
0
LINE
8
Black
10
72.7992
20
-141.849
11
73.4
21
-141.743
0
LINE
8
Black
10
73.4
20
-141.743
11
74.0008
21
-141.849
0
LINE
8
Black
10
113.101
20
-141.849
11
113.629
21
-142.154
0
LINE
8
Black
10
113.629
20
-142.154
11
114.021
21
-142.622
0
LINE
8
Black
10
114.021
20
-142.622
11
114.23
21
-143.195
0
LINE
8
Black
10
114.23
20
-143.195
11
114.23
21
-143.805
0
LINE
8
Black
10
114.23
20
-143.805
11
114.021
21
-144.378
0
LINE
8
Black
10
114.021
20
-144.378
11
113.629
21
-144.846
0
LINE
8
Black
10
113.629
20
-144.846
11
113.101
21
-145.151
0
LINE
8
Black
10
113.101
20
-145.151
11
112.5
21
-145.257
0
LINE
8
Black
10
112.5
20
-145.257
11
111.899
21
-145.151
0
LINE
8
Black
10
111.899
20
-145.151
11
111.371
21
-144.846
0
LINE
8
Black
10
111.371
20
-144.846
11
110.979
21
-144.378
0
LINE
8
Black
10
110.979
20
-144.378
11
110.77
21
-143.805
0
LINE
8
Black
10
110.77
20
-143.805
11
110.77
21
-143.195
0
LINE
8
Black
10
110.77
20
-143.195
11
110.979
21
-142.622
0
LINE
8
Black
10
110.979
20
-142.622
11
111.371
21
-142.154
0
LINE
8
Black
10
111.371
20
-142.154
11
111.899
21
-141.849
0
LINE
8
Black
10
111.899
20
-141.849
11
112.5
21
-141.743
0
LINE
8
Black
10
112.5
20
-141.743
11
113.101
21
-141.849
0
LINE
8
Black
10
166.701
20
-141.849
11
167.229
21
-142.154
0
LINE
8
Black
10
167.229
20
-142.154
11
167.621
21
-142.622
0
LINE
8
Black
10
167.621
20
-142.622
11
167.83
21
-143.195
0
LINE
8
Black
10
167.83
20
-143.195
11
167.83
21
-143.805
0
LINE
8
Black
10
167.83
20
-143.805
11
167.621
21
-144.378
0
LINE
8
Black
10
167.621
20
-144.378
11
167.229
21
-144.846
0
LINE
8
Black
10
167.229
20
-144.846
11
166.701
21
-145.151
0
LINE
8
Black
10
166.701
20
-145.151
11
166.1
21
-145.257
0
LINE
8
Black
10
166.1
20
-145.257
11
165.499
21
-145.151
0
LINE
8
Black
10
165.499
20
-145.151
11
164.971
21
-144.846
0
LINE
8
Black
10
164.971
20
-144.846
11
164.579
21
-144.378
0
LINE
8
Black
10
164.579
20
-144.378
11
164.37
21
-143.805
0
LINE
8
Black
10
164.37
20
-143.805
11
164.37
21
-143.195
0
LINE
8
Black
10
164.37
20
-143.195
11
164.579
21
-142.622
0
LINE
8
Black
10
164.579
20
-142.622
11
164.971
21
-142.154
0
LINE
8
Black
10
164.971
20
-142.154
11
165.499
21
-141.849
0
LINE
8
Black
10
165.499
20
-141.849
11
166.1
21
-141.743
0
LINE
8
Black
10
166.1
20
-141.743
11
166.701
21
-141.849
0
LINE
8
Black
10
60.3324
20
-132.382
11
60.6775
21
-132.581
0
LINE
8
Black
10
60.6775
20
-132.581
11
60.9336
21
-132.886
0
LINE
8
Black
10
60.9336
20
-132.886
11
61.0699
21
-133.261
0
LINE
8
Black
10
61.0699
20
-133.261
11
61.0699
21
-133.659
0
LINE
8
Black
10
61.0699
20
-133.659
11
60.9336
21
-134.034
0
LINE
8
Black
10
60.9336
20
-134.034
11
60.6775
21
-134.339
0
LINE
8
Black
10
60.6775
20
-134.339
11
60.3324
21
-134.538
0
LINE
8
Black
10
60.3324
20
-134.538
11
59.94
21
-134.607
0
LINE
8
Black
10
59.94
20
-134.607
11
59.5476
21
-134.538
0
LINE
8
Black
10
59.5476
20
-134.538
11
59.2025
21
-134.339
0
LINE
8
Black
10
59.2025
20
-134.339
11
58.9464
21
-134.034
0
LINE
8
Black
10
58.9464
20
-134.034
11
58.8101
21
-133.659
0
LINE
8
Black
10
58.8101
20
-133.659
11
58.8101
21
-133.261
0
LINE
8
Black
10
58.8101
20
-133.261
11
58.9464
21
-132.886
0
LINE
8
Black
10
58.9464
20
-132.886
11
59.2025
21
-132.581
0
LINE
8
Black
10
59.2025
20
-132.581
11
59.5476
21
-132.382
0
LINE
8
Black
10
59.5476
20
-132.382
11
59.94
21
-132.313
0
LINE
8
Black
10
59.94
20
-132.313
11
60.3324
21
-132.382
0
LINE
8
Black
10
79.3324
20
-132.382
11
79.6775
21
-132.581
0
LINE
8
Black
10
79.6775
20
-132.581
11
79.9336
21
-132.886
0
LINE
8
Black
10
79.9336
20
-132.886
11
80.0699
21
-133.261
0
LINE
8
Black
10
80.0699
20
-133.261
11
80.0699
21
-133.659
0
LINE
8
Black
10
80.0699
20
-133.659
11
79.9336
21
-134.034
0
LINE
8
Black
10
79.9336
20
-134.034
11
79.6775
21
-134.339
0
LINE
8
Black
10
79.6775
20
-134.339
11
79.3324
21
-134.538
0
LINE
8
Black
10
79.3324
20
-134.538
11
78.94
21
-134.607
0
LINE
8
Black
10
78.94
20
-134.607
11
78.5476
21
-134.538
0
LINE
8
Black
10
78.5476
20
-134.538
11
78.2025
21
-134.339
0
LINE
8
Black
10
78.2025
20
-134.339
11
77.9464
21
-134.034
0
LINE
8
Black
10
77.9464
20
-134.034
11
77.8101
21
-133.659
0
LINE
8
Black
10
77.8101
20
-133.659
11
77.8101
21
-133.261
0
LINE
8
Black
10
77.8101
20
-133.261
11
77.9464
21
-132.886
0
LINE
8
Black
10
77.9464
20
-132.886
11
78.2025
21
-132.581
0
LINE
8
Black
10
78.2025
20
-132.581
11
78.5476
21
-132.382
0
LINE
8
Black
10
78.5476
20
-132.382
11
78.94
21
-132.313
0
LINE
8
Black
10
78.94
20
-132.313
11
79.3324
21
-132.382
0
LINE
8
Black
10
38.9574
20
-132.382
11
39.3025
21
-132.581
0
LINE
8
Black
10
39.3025
20
-132.581
11
39.5586
21
-132.886
0
LINE
8
Black
10
39.5586
20
-132.886
11
39.6949
21
-133.261
0
LINE
8
Black
10
39.6949
20
-133.261
11
39.6949
21
-133.659
0
LINE
8
Black
10
39.6949
20
-133.659
11
39.5586
21
-134.034
0
LINE
8
Black
10
39.5586
20
-134.034
11
39.3025
21
-134.339
0
LINE
8
Black
10
39.3025
20
-134.339
11
38.9574
21
-134.538
0
LINE
8
Black
10
38.9574
20
-134.538
11
38.565
21
-134.607
0
LINE
8
Black
10
38.565
20
-134.607
11
38.1726
21
-134.538
0
LINE
8
Black
10
38.1726
20
-134.538
11
37.8275
21
-134.339
0
LINE
8
Black
10
37.8275
20
-134.339
11
37.5714
21
-134.034
0
LINE
8
Black
10
37.5714
20
-134.034
11
37.4351
21
-133.659
0
LINE
8
Black
10
37.4351
20
-133.659
11
37.4351
21
-133.261
0
LINE
8
Black
10
37.4351
20
-133.261
11
37.5714
21
-132.886
0
LINE
8
Black
10
37.5714
20
-132.886
11
37.8275
21
-132.581
0
LINE
8
Black
10
37.8275
20
-132.581
11
38.1726
21
-132.382
0
LINE
8
Black
10
38.1726
20
-132.382
11
38.565
21
-132.313
0
LINE
8
Black
10
38.565
20
-132.313
11
38.9574
21
-132.382
0
LINE
8
Black
10
98.3324
20
-132.382
11
98.6775
21
-132.581
0
LINE
8
Black
10
98.6775
20
-132.581
11
98.9336
21
-132.886
0
LINE
8
Black
10
98.9336
20
-132.886
11
99.0699
21
-133.261
0
LINE
8
Black
10
99.0699
20
-133.261
11
99.0699
21
-133.659
0
LINE
8
Black
10
99.0699
20
-133.659
11
98.9336
21
-134.034
0
LINE
8
Black
10
98.9336
20
-134.034
11
98.6775
21
-134.339
0
LINE
8
Black
10
98.6775
20
-134.339
11
98.3324
21
-134.538
0
LINE
8
Black
10
98.3324
20
-134.538
11
97.94
21
-134.607
0
LINE
8
Black
10
97.94
20
-134.607
11
97.5476
21
-134.538
0
LINE
8
Black
10
97.5476
20
-134.538
11
97.2025
21
-134.339
0
LINE
8
Black
10
97.2025
20
-134.339
11
96.9464
21
-134.034
0
LINE
8
Black
10
96.9464
20
-134.034
11
96.8101
21
-133.659
0
LINE
8
Black
10
96.8101
20
-133.659
11
96.8101
21
-133.261
0
LINE
8
Black
10
96.8101
20
-133.261
11
96.9464
21
-132.886
0
LINE
8
Black
10
96.9464
20
-132.886
11
97.2025
21
-132.581
0
LINE
8
Black
10
97.2025
20
-132.581
11
97.5476
21
-132.382
0
LINE
8
Black
10
97.5476
20
-132.382
11
97.94
21
-132.313
0
LINE
8
Black
10
97.94
20
-132.313
11
98.3324
21
-132.382
0
LINE
8
Black
10
122.082
20
-132.382
11
122.428
21
-132.581
0
LINE
8
Black
10
122.428
20
-132.581
11
122.684
21
-132.886
0
LINE
8
Black
10
122.684
20
-132.886
11
122.82
21
-133.261
0
LINE
8
Black
10
122.82
20
-133.261
11
122.82
21
-133.659
0
LINE
8
Black
10
122.82
20
-133.659
11
122.684
21
-134.034
0
LINE
8
Black
10
122.684
20
-134.034
11
122.428
21
-134.339
0
LINE
8
Black
10
122.428
20
-134.339
11
122.082
21
-134.538
0
LINE
8
Black
10
122.082
20
-134.538
11
121.69
21
-134.607
0
LINE
8
Black
10
121.69
20
-134.607
11
121.298
21
-134.538
0
LINE
8
Black
10
121.298
20
-134.538
11
120.952
21
-134.339
0
LINE
8
Black
10
120.952
20
-134.339
11
120.696
21
-134.034
0
LINE
8
Black
10
120.696
20
-134.034
11
120.56
21
-133.659
0
LINE
8
Black
10
120.56
20
-133.659
11
120.56
21
-133.261
0
LINE
8
Black
10
120.56
20
-133.261
11
120.696
21
-132.886
0
LINE
8
Black
10
120.696
20
-132.886
11
120.952
21
-132.581
0
LINE
8
Black
10
120.952
20
-132.581
11
121.298
21
-132.382
0
LINE
8
Black
10
121.298
20
-132.382
11
121.69
21
-132.313
0
LINE
8
Black
10
121.69
20
-132.313
11
122.082
21
-132.382
0
LINE
8
Black
10
150.582
20
-132.382
11
150.928
21
-132.581
0
LINE
8
Black
10
150.928
20
-132.581
11
151.184
21
-132.886
0
LINE
8
Black
10
151.184
20
-132.886
11
151.32
21
-133.261
0
LINE
8
Black
10
151.32
20
-133.261
11
151.32
21
-133.659
0
LINE
8
Black
10
151.32
20
-133.659
11
151.184
21
-134.034
0
LINE
8
Black
10
151.184
20
-134.034
11
150.928
21
-134.339
0
LINE
8
Black
10
150.928
20
-134.339
11
150.582
21
-134.538
0
LINE
8
Black
10
150.582
20
-134.538
11
150.19
21
-134.607
0
LINE
8
Black
10
150.19
20
-134.607
11
149.798
21
-134.538
0
LINE
8
Black
10
149.798
20
-134.538
11
149.452
21
-134.339
0
LINE
8
Black
10
149.452
20
-134.339
11
149.196
21
-134.034
0
LINE
8
Black
10
149.196
20
-134.034
11
149.06
21
-133.659
0
LINE
8
Black
10
149.06
20
-133.659
11
149.06
21
-133.261
0
LINE
8
Black
10
149.06
20
-133.261
11
149.196
21
-132.886
0
LINE
8
Black
10
149.196
20
-132.886
11
149.452
21
-132.581
0
LINE
8
Black
10
149.452
20
-132.581
11
149.798
21
-132.382
0
LINE
8
Black
10
149.798
20
-132.382
11
150.19
21
-132.313
0
LINE
8
Black
10
150.19
20
-132.313
11
150.582
21
-132.382
0
LINE
8
Black
10
128.432
20
-129.842
11
128.778
21
-130.041
0
LINE
8
Black
10
128.778
20
-130.041
11
129.034
21
-130.346
0
LINE
8
Black
10
129.034
20
-130.346
11
129.17
21
-130.721
0
LINE
8
Black
10
129.17
20
-130.721
11
129.17
21
-131.119
0
LINE
8
Black
10
129.17
20
-131.119
11
129.034
21
-131.494
0
LINE
8
Black
10
129.034
20
-131.494
11
128.778
21
-131.799
0
LINE
8
Black
10
128.778
20
-131.799
11
128.432
21
-131.998
0
LINE
8
Black
10
128.432
20
-131.998
11
128.04
21
-132.067
0
LINE
8
Black
10
128.04
20
-132.067
11
127.648
21
-131.998
0
LINE
8
Black
10
127.648
20
-131.998
11
127.302
21
-131.799
0
LINE
8
Black
10
127.302
20
-131.799
11
127.046
21
-131.494
0
LINE
8
Black
10
127.046
20
-131.494
11
126.91
21
-131.119
0
LINE
8
Black
10
126.91
20
-131.119
11
126.91
21
-130.721
0
LINE
8
Black
10
126.91
20
-130.721
11
127.046
21
-130.346
0
LINE
8
Black
10
127.046
20
-130.346
11
127.302
21
-130.041
0
LINE
8
Black
10
127.302
20
-130.041
11
127.648
21
-129.842
0
LINE
8
Black
10
127.648
20
-129.842
11
128.04
21
-129.773
0
LINE
8
Black
10
128.04
20
-129.773
11
128.432
21
-129.842
0
LINE
8
Black
10
104.682
20
-129.842
11
105.028
21
-130.041
0
LINE
8
Black
10
105.028
20
-130.041
11
105.284
21
-130.346
0
LINE
8
Black
10
105.284
20
-130.346
11
105.42
21
-130.721
0
LINE
8
Black
10
105.42
20
-130.721
11
105.42
21
-131.119
0
LINE
8
Black
10
105.42
20
-131.119
11
105.284
21
-131.494
0
LINE
8
Black
10
105.284
20
-131.494
11
105.028
21
-131.799
0
LINE
8
Black
10
105.028
20
-131.799
11
104.682
21
-131.998
0
LINE
8
Black
10
104.682
20
-131.998
11
104.29
21
-132.067
0
LINE
8
Black
10
104.29
20
-132.067
11
103.898
21
-131.998
0
LINE
8
Black
10
103.898
20
-131.998
11
103.552
21
-131.799
0
LINE
8
Black
10
103.552
20
-131.799
11
103.296
21
-131.494
0
LINE
8
Black
10
103.296
20
-131.494
11
103.16
21
-131.119
0
LINE
8
Black
10
103.16
20
-131.119
11
103.16
21
-130.721
0
LINE
8
Black
10
103.16
20
-130.721
11
103.296
21
-130.346
0
LINE
8
Black
10
103.296
20
-130.346
11
103.552
21
-130.041
0
LINE
8
Black
10
103.552
20
-130.041
11
103.898
21
-129.842
0
LINE
8
Black
10
103.898
20
-129.842
11
104.29
21
-129.773
0
LINE
8
Black
10
104.29
20
-129.773
11
104.682
21
-129.842
0
LINE
8
Black
10
156.932
20
-129.842
11
157.278
21
-130.041
0
LINE
8
Black
10
157.278
20
-130.041
11
157.534
21
-130.346
0
LINE
8
Black
10
157.534
20
-130.346
11
157.67
21
-130.721
0
LINE
8
Black
10
157.67
20
-130.721
11
157.67
21
-131.119
0
LINE
8
Black
10
157.67
20
-131.119
11
157.534
21
-131.494
0
LINE
8
Black
10
157.534
20
-131.494
11
157.278
21
-131.799
0
LINE
8
Black
10
157.278
20
-131.799
11
156.932
21
-131.998
0
LINE
8
Black
10
156.932
20
-131.998
11
156.54
21
-132.067
0
LINE
8
Black
10
156.54
20
-132.067
11
156.148
21
-131.998
0
LINE
8
Black
10
156.148
20
-131.998
11
155.802
21
-131.799
0
LINE
8
Black
10
155.802
20
-131.799
11
155.546
21
-131.494
0
LINE
8
Black
10
155.546
20
-131.494
11
155.41
21
-131.119
0
LINE
8
Black
10
155.41
20
-131.119
11
155.41
21
-130.721
0
LINE
8
Black
10
155.41
20
-130.721
11
155.546
21
-130.346
0
LINE
8
Black
10
155.546
20
-130.346
11
155.802
21
-130.041
0
LINE
8
Black
10
155.802
20
-130.041
11
156.148
21
-129.842
0
LINE
8
Black
10
156.148
20
-129.842
11
156.54
21
-129.773
0
LINE
8
Black
10
156.54
20
-129.773
11
156.932
21
-129.842
0
LINE
8
Black
10
45.3074
20
-129.842
11
45.6525
21
-130.041
0
LINE
8
Black
10
45.6525
20
-130.041
11
45.9086
21
-130.346
0
LINE
8
Black
10
45.9086
20
-130.346
11
46.0449
21
-130.721
0
LINE
8
Black
10
46.0449
20
-130.721
11
46.0449
21
-131.119
0
LINE
8
Black
10
46.0449
20
-131.119
11
45.9086
21
-131.494
0
LINE
8
Black
10
45.9086
20
-131.494
11
45.6525
21
-131.799
0
LINE
8
Black
10
45.6525
20
-131.799
11
45.3074
21
-131.998
0
LINE
8
Black
10
45.3074
20
-131.998
11
44.915
21
-132.067
0
LINE
8
Black
10
44.915
20
-132.067
11
44.5226
21
-131.998
0
LINE
8
Black
10
44.5226
20
-131.998
11
44.1775
21
-131.799
0
LINE
8
Black
10
44.1775
20
-131.799
11
43.9214
21
-131.494
0
LINE
8
Black
10
43.9214
20
-131.494
11
43.7851
21
-131.119
0
LINE
8
Black
10
43.7851
20
-131.119
11
43.7851
21
-130.721
0
LINE
8
Black
10
43.7851
20
-130.721
11
43.9214
21
-130.346
0
LINE
8
Black
10
43.9214
20
-130.346
11
44.1775
21
-130.041
0
LINE
8
Black
10
44.1775
20
-130.041
11
44.5226
21
-129.842
0
LINE
8
Black
10
44.5226
20
-129.842
11
44.915
21
-129.773
0
LINE
8
Black
10
44.915
20
-129.773
11
45.3074
21
-129.842
0
LINE
8
Black
10
85.6824
20
-129.842
11
86.0275
21
-130.041
0
LINE
8
Black
10
86.0275
20
-130.041
11
86.2836
21
-130.346
0
LINE
8
Black
10
86.2836
20
-130.346
11
86.4199
21
-130.721
0
LINE
8
Black
10
86.4199
20
-130.721
11
86.4199
21
-131.119
0
LINE
8
Black
10
86.4199
20
-131.119
11
86.2836
21
-131.494
0
LINE
8
Black
10
86.2836
20
-131.494
11
86.0275
21
-131.799
0
LINE
8
Black
10
86.0275
20
-131.799
11
85.6824
21
-131.998
0
LINE
8
Black
10
85.6824
20
-131.998
11
85.29
21
-132.067
0
LINE
8
Black
10
85.29
20
-132.067
11
84.8976
21
-131.998
0
LINE
8
Black
10
84.8976
20
-131.998
11
84.5525
21
-131.799
0
LINE
8
Black
10
84.5525
20
-131.799
11
84.2964
21
-131.494
0
LINE
8
Black
10
84.2964
20
-131.494
11
84.1601
21
-131.119
0
LINE
8
Black
10
84.1601
20
-131.119
11
84.1601
21
-130.721
0
LINE
8
Black
10
84.1601
20
-130.721
11
84.2964
21
-130.346
0
LINE
8
Black
10
84.2964
20
-130.346
11
84.5525
21
-130.041
0
LINE
8
Black
10
84.5525
20
-130.041
11
84.8976
21
-129.842
0
LINE
8
Black
10
84.8976
20
-129.842
11
85.29
21
-129.773
0
LINE
8
Black
10
85.29
20
-129.773
11
85.6824
21
-129.842
0
LINE
8
Black
10
66.6824
20
-129.842
11
67.0275
21
-130.041
0
LINE
8
Black
10
67.0275
20
-130.041
11
67.2836
21
-130.346
0
LINE
8
Black
10
67.2836
20
-130.346
11
67.4199
21
-130.721
0
LINE
8
Black
10
67.4199
20
-130.721
11
67.4199
21
-131.119
0
LINE
8
Black
10
67.4199
20
-131.119
11
67.2836
21
-131.494
0
LINE
8
Black
10
67.2836
20
-131.494
11
67.0275
21
-131.799
0
LINE
8
Black
10
67.0275
20
-131.799
11
66.6824
21
-131.998
0
LINE
8
Black
10
66.6824
20
-131.998
11
66.29
21
-132.067
0
LINE
8
Black
10
66.29
20
-132.067
11
65.8976
21
-131.998
0
LINE
8
Black
10
65.8976
20
-131.998
11
65.5525
21
-131.799
0
LINE
8
Black
10
65.5525
20
-131.799
11
65.2964
21
-131.494
0
LINE
8
Black
10
65.2964
20
-131.494
11
65.1601
21
-131.119
0
LINE
8
Black
10
65.1601
20
-131.119
11
65.1601
21
-130.721
0
LINE
8
Black
10
65.1601
20
-130.721
11
65.2964
21
-130.346
0
LINE
8
Black
10
65.2964
20
-130.346
11
65.5525
21
-130.041
0
LINE
8
Black
10
65.5525
20
-130.041
11
65.8976
21
-129.842
0
LINE
8
Black
10
65.8976
20
-129.842
11
66.29
21
-129.773
0
LINE
8
Black
10
66.29
20
-129.773
11
66.6824
21
-129.842
0
LINE
8
Black
10
117.332
20
-113.382
11
117.678
21
-113.581
0
LINE
8
Black
10
117.678
20
-113.581
11
117.934
21
-113.886
0
LINE
8
Black
10
117.934
20
-113.886
11
118.07
21
-114.261
0
LINE
8
Black
10
118.07
20
-114.261
11
118.07
21
-114.659
0
LINE
8
Black
10
118.07
20
-114.659
11
117.934
21
-115.034
0
LINE
8
Black
10
117.934
20
-115.034
11
117.678
21
-115.339
0
LINE
8
Black
10
117.678
20
-115.339
11
117.332
21
-115.538
0
LINE
8
Black
10
117.332
20
-115.538
11
116.94
21
-115.607
0
LINE
8
Black
10
116.94
20
-115.607
11
116.548
21
-115.538
0
LINE
8
Black
10
116.548
20
-115.538
11
116.202
21
-115.339
0
LINE
8
Black
10
116.202
20
-115.339
11
115.946
21
-115.034
0
LINE
8
Black
10
115.946
20
-115.034
11
115.81
21
-114.659
0
LINE
8
Black
10
115.81
20
-114.659
11
115.81
21
-114.261
0
LINE
8
Black
10
115.81
20
-114.261
11
115.946
21
-113.886
0
LINE
8
Black
10
115.946
20
-113.886
11
116.202
21
-113.581
0
LINE
8
Black
10
116.202
20
-113.581
11
116.548
21
-113.382
0
LINE
8
Black
10
116.548
20
-113.382
11
116.94
21
-113.313
0
LINE
8
Black
10
116.94
20
-113.313
11
117.332
21
-113.382
0
LINE
8
Black
10
136.332
20
-113.382
11
136.678
21
-113.581
0
LINE
8
Black
10
136.678
20
-113.581
11
136.934
21
-113.886
0
LINE
8
Black
10
136.934
20
-113.886
11
137.07
21
-114.261
0
LINE
8
Black
10
137.07
20
-114.261
11
137.07
21
-114.659
0
LINE
8
Black
10
137.07
20
-114.659
11
136.934
21
-115.034
0
LINE
8
Black
10
136.934
20
-115.034
11
136.678
21
-115.339
0
LINE
8
Black
10
136.678
20
-115.339
11
136.332
21
-115.538
0
LINE
8
Black
10
136.332
20
-115.538
11
135.94
21
-115.607
0
LINE
8
Black
10
135.94
20
-115.607
11
135.548
21
-115.538
0
LINE
8
Black
10
135.548
20
-115.538
11
135.202
21
-115.339
0
LINE
8
Black
10
135.202
20
-115.339
11
134.946
21
-115.034
0
LINE
8
Black
10
134.946
20
-115.034
11
134.81
21
-114.659
0
LINE
8
Black
10
134.81
20
-114.659
11
134.81
21
-114.261
0
LINE
8
Black
10
134.81
20
-114.261
11
134.946
21
-113.886
0
LINE
8
Black
10
134.946
20
-113.886
11
135.202
21
-113.581
0
LINE
8
Black
10
135.202
20
-113.581
11
135.548
21
-113.382
0
LINE
8
Black
10
135.548
20
-113.382
11
135.94
21
-113.313
0
LINE
8
Black
10
135.94
20
-113.313
11
136.332
21
-113.382
0
LINE
8
Black
10
98.3324
20
-113.382
11
98.6775
21
-113.581
0
LINE
8
Black
10
98.6775
20
-113.581
11
98.9336
21
-113.886
0
LINE
8
Black
10
98.9336
20
-113.886
11
99.0699
21
-114.261
0
LINE
8
Black
10
99.0699
20
-114.261
11
99.0699
21
-114.659
0
LINE
8
Black
10
99.0699
20
-114.659
11
98.9336
21
-115.034
0
LINE
8
Black
10
98.9336
20
-115.034
11
98.6775
21
-115.339
0
LINE
8
Black
10
98.6775
20
-115.339
11
98.3324
21
-115.538
0
LINE
8
Black
10
98.3324
20
-115.538
11
97.94
21
-115.607
0
LINE
8
Black
10
97.94
20
-115.607
11
97.5476
21
-115.538
0
LINE
8
Black
10
97.5476
20
-115.538
11
97.2025
21
-115.339
0
LINE
8
Black
10
97.2025
20
-115.339
11
96.9464
21
-115.034
0
LINE
8
Black
10
96.9464
20
-115.034
11
96.8101
21
-114.659
0
LINE
8
Black
10
96.8101
20
-114.659
11
96.8101
21
-114.261
0
LINE
8
Black
10
96.8101
20
-114.261
11
96.9464
21
-113.886
0
LINE
8
Black
10
96.9464
20
-113.886
11
97.2025
21
-113.581
0
LINE
8
Black
10
97.2025
20
-113.581
11
97.5476
21
-113.382
0
LINE
8
Black
10
97.5476
20
-113.382
11
97.94
21
-113.313
0
LINE
8
Black
10
97.94
20
-113.313
11
98.3324
21
-113.382
0
LINE
8
Black
10
155.332
20
-113.382
11
155.678
21
-113.581
0
LINE
8
Black
10
155.678
20
-113.581
11
155.934
21
-113.886
0
LINE
8
Black
10
155.934
20
-113.886
11
156.07
21
-114.261
0
LINE
8
Black
10
156.07
20
-114.261
11
156.07
21
-114.659
0
LINE
8
Black
10
156.07
20
-114.659
11
155.934
21
-115.034
0
LINE
8
Black
10
155.934
20
-115.034
11
155.678
21
-115.339
0
LINE
8
Black
10
155.678
20
-115.339
11
155.332
21
-115.538
0
LINE
8
Black
10
155.332
20
-115.538
11
154.94
21
-115.607
0
LINE
8
Black
10
154.94
20
-115.607
11
154.548
21
-115.538
0
LINE
8
Black
10
154.548
20
-115.538
11
154.202
21
-115.339
0
LINE
8
Black
10
154.202
20
-115.339
11
153.946
21
-115.034
0
LINE
8
Black
10
153.946
20
-115.034
11
153.81
21
-114.659
0
LINE
8
Black
10
153.81
20
-114.659
11
153.81
21
-114.261
0
LINE
8
Black
10
153.81
20
-114.261
11
153.946
21
-113.886
0
LINE
8
Black
10
153.946
20
-113.886
11
154.202
21
-113.581
0
LINE
8
Black
10
154.202
20
-113.581
11
154.548
21
-113.382
0
LINE
8
Black
10
154.548
20
-113.382
11
154.94
21
-113.313
0
LINE
8
Black
10
154.94
20
-113.313
11
155.332
21
-113.382
0
LINE
8
Black
10
79.3324
20
-113.382
11
79.6775
21
-113.581
0
LINE
8
Black
10
79.6775
20
-113.581
11
79.9336
21
-113.886
0
LINE
8
Black
10
79.9336
20
-113.886
11
80.0699
21
-114.261
0
LINE
8
Black
10
80.0699
20
-114.261
11
80.0699
21
-114.659
0
LINE
8
Black
10
80.0699
20
-114.659
11
79.9336
21
-115.034
0
LINE
8
Black
10
79.9336
20
-115.034
11
79.6775
21
-115.339
0
LINE
8
Black
10
79.6775
20
-115.339
11
79.3324
21
-115.538
0
LINE
8
Black
10
79.3324
20
-115.538
11
78.94
21
-115.607
0
LINE
8
Black
10
78.94
20
-115.607
11
78.5476
21
-115.538
0
LINE
8
Black
10
78.5476
20
-115.538
11
78.2025
21
-115.339
0
LINE
8
Black
10
78.2025
20
-115.339
11
77.9464
21
-115.034
0
LINE
8
Black
10
77.9464
20
-115.034
11
77.8101
21
-114.659
0
LINE
8
Black
10
77.8101
20
-114.659
11
77.8101
21
-114.261
0
LINE
8
Black
10
77.8101
20
-114.261
11
77.9464
21
-113.886
0
LINE
8
Black
10
77.9464
20
-113.886
11
78.2025
21
-113.581
0
LINE
8
Black
10
78.2025
20
-113.581
11
78.5476
21
-113.382
0
LINE
8
Black
10
78.5476
20
-113.382
11
78.94
21
-113.313
0
LINE
8
Black
10
78.94
20
-113.313
11
79.3324
21
-113.382
0
LINE
8
Black
10
48.4574
20
-113.382
11
48.8025
21
-113.581
0
LINE
8
Black
10
48.8025
20
-113.581
11
49.0586
21
-113.886
0
LINE
8
Black
10
49.0586
20
-113.886
11
49.1949
21
-114.261
0
LINE
8
Black
10
49.1949
20
-114.261
11
49.1949
21
-114.659
0
LINE
8
Black
10
49.1949
20
-114.659
11
49.0586
21
-115.034
0
LINE
8
Black
10
49.0586
20
-115.034
11
48.8025
21
-115.339
0
LINE
8
Black
10
48.8025
20
-115.339
11
48.4574
21
-115.538
0
LINE
8
Black
10
48.4574
20
-115.538
11
48.065
21
-115.607
0
LINE
8
Black
10
48.065
20
-115.607
11
47.6726
21
-115.538
0
LINE
8
Black
10
47.6726
20
-115.538
11
47.3275
21
-115.339
0
LINE
8
Black
10
47.3275
20
-115.339
11
47.0714
21
-115.034
0
LINE
8
Black
10
47.0714
20
-115.034
11
46.9351
21
-114.659
0
LINE
8
Black
10
46.9351
20
-114.659
11
46.9351
21
-114.261
0
LINE
8
Black
10
46.9351
20
-114.261
11
47.0714
21
-113.886
0
LINE
8
Black
10
47.0714
20
-113.886
11
47.3275
21
-113.581
0
LINE
8
Black
10
47.3275
20
-113.581
11
47.6726
21
-113.382
0
LINE
8
Black
10
47.6726
20
-113.382
11
48.065
21
-113.313
0
LINE
8
Black
10
48.065
20
-113.313
11
48.4574
21
-113.382
0
LINE
8
Black
10
104.682
20
-110.842
11
105.028
21
-111.041
0
LINE
8
Black
10
105.028
20
-111.041
11
105.284
21
-111.346
0
LINE
8
Black
10
105.284
20
-111.346
11
105.42
21
-111.721
0
LINE
8
Black
10
105.42
20
-111.721
11
105.42
21
-112.119
0
LINE
8
Black
10
105.42
20
-112.119
11
105.284
21
-112.494
0
LINE
8
Black
10
105.284
20
-112.494
11
105.028
21
-112.799
0
LINE
8
Black
10
105.028
20
-112.799
11
104.682
21
-112.998
0
LINE
8
Black
10
104.682
20
-112.998
11
104.29
21
-113.067
0
LINE
8
Black
10
104.29
20
-113.067
11
103.898
21
-112.998
0
LINE
8
Black
10
103.898
20
-112.998
11
103.552
21
-112.799
0
LINE
8
Black
10
103.552
20
-112.799
11
103.296
21
-112.494
0
LINE
8
Black
10
103.296
20
-112.494
11
103.16
21
-112.119
0
LINE
8
Black
10
103.16
20
-112.119
11
103.16
21
-111.721
0
LINE
8
Black
10
103.16
20
-111.721
11
103.296
21
-111.346
0
LINE
8
Black
10
103.296
20
-111.346
11
103.552
21
-111.041
0
LINE
8
Black
10
103.552
20
-111.041
11
103.898
21
-110.842
0
LINE
8
Black
10
103.898
20
-110.842
11
104.29
21
-110.773
0
LINE
8
Black
10
104.29
20
-110.773
11
104.682
21
-110.842
0
LINE
8
Black
10
54.8074
20
-110.842
11
55.1525
21
-111.041
0
LINE
8
Black
10
55.1525
20
-111.041
11
55.4086
21
-111.346
0
LINE
8
Black
10
55.4086
20
-111.346
11
55.5449
21
-111.721
0
LINE
8
Black
10
55.5449
20
-111.721
11
55.5449
21
-112.119
0
LINE
8
Black
10
55.5449
20
-112.119
11
55.4086
21
-112.494
0
LINE
8
Black
10
55.4086
20
-112.494
11
55.1525
21
-112.799
0
LINE
8
Black
10
55.1525
20
-112.799
11
54.8074
21
-112.998
0
LINE
8
Black
10
54.8074
20
-112.998
11
54.415
21
-113.067
0
LINE
8
Black
10
54.415
20
-113.067
11
54.0226
21
-112.998
0
LINE
8
Black
10
54.0226
20
-112.998
11
53.6775
21
-112.799
0
LINE
8
Black
10
53.6775
20
-112.799
11
53.4214
21
-112.494
0
LINE
8
Black
10
53.4214
20
-112.494
11
53.2851
21
-112.119
0
LINE
8
Black
10
53.2851
20
-112.119
11
53.2851
21
-111.721
0
LINE
8
Black
10
53.2851
20
-111.721
11
53.4214
21
-111.346
0
LINE
8
Black
10
53.4214
20
-111.346
11
53.6775
21
-111.041
0
LINE
8
Black
10
53.6775
20
-111.041
11
54.0226
21
-110.842
0
LINE
8
Black
10
54.0226
20
-110.842
11
54.415
21
-110.773
0
LINE
8
Black
10
54.415
20
-110.773
11
54.8074
21
-110.842
0
LINE
8
Black
10
123.682
20
-110.842
11
124.028
21
-111.041
0
LINE
8
Black
10
124.028
20
-111.041
11
124.284
21
-111.346
0
LINE
8
Black
10
124.284
20
-111.346
11
124.42
21
-111.721
0
LINE
8
Black
10
124.42
20
-111.721
11
124.42
21
-112.119
0
LINE
8
Black
10
124.42
20
-112.119
11
124.284
21
-112.494
0
LINE
8
Black
10
124.284
20
-112.494
11
124.028
21
-112.799
0
LINE
8
Black
10
124.028
20
-112.799
11
123.682
21
-112.998
0
LINE
8
Black
10
123.682
20
-112.998
11
123.29
21
-113.067
0
LINE
8
Black
10
123.29
20
-113.067
11
122.898
21
-112.998
0
LINE
8
Black
10
122.898
20
-112.998
11
122.552
21
-112.799
0
LINE
8
Black
10
122.552
20
-112.799
11
122.296
21
-112.494
0
LINE
8
Black
10
122.296
20
-112.494
11
122.16
21
-112.119
0
LINE
8
Black
10
122.16
20
-112.119
11
122.16
21
-111.721
0
LINE
8
Black
10
122.16
20
-111.721
11
122.296
21
-111.346
0
LINE
8
Black
10
122.296
20
-111.346
11
122.552
21
-111.041
0
LINE
8
Black
10
122.552
20
-111.041
11
122.898
21
-110.842
0
LINE
8
Black
10
122.898
20
-110.842
11
123.29
21
-110.773
0
LINE
8
Black
10
123.29
20
-110.773
11
123.682
21
-110.842
0
LINE
8
Black
10
85.6824
20
-110.842
11
86.0275
21
-111.041
0
LINE
8
Black
10
86.0275
20
-111.041
11
86.2836
21
-111.346
0
LINE
8
Black
10
86.2836
20
-111.346
11
86.4199
21
-111.721
0
LINE
8
Black
10
86.4199
20
-111.721
11
86.4199
21
-112.119
0
LINE
8
Black
10
86.4199
20
-112.119
11
86.2836
21
-112.494
0
LINE
8
Black
10
86.2836
20
-112.494
11
86.0275
21
-112.799
0
LINE
8
Black
10
86.0275
20
-112.799
11
85.6824
21
-112.998
0
LINE
8
Black
10
85.6824
20
-112.998
11
85.29
21
-113.067
0
LINE
8
Black
10
85.29
20
-113.067
11
84.8976
21
-112.998
0
LINE
8
Black
10
84.8976
20
-112.998
11
84.5525
21
-112.799
0
LINE
8
Black
10
84.5525
20
-112.799
11
84.2964
21
-112.494
0
LINE
8
Black
10
84.2964
20
-112.494
11
84.1601
21
-112.119
0
LINE
8
Black
10
84.1601
20
-112.119
11
84.1601
21
-111.721
0
LINE
8
Black
10
84.1601
20
-111.721
11
84.2964
21
-111.346
0
LINE
8
Black
10
84.2964
20
-111.346
11
84.5525
21
-111.041
0
LINE
8
Black
10
84.5525
20
-111.041
11
84.8976
21
-110.842
0
LINE
8
Black
10
84.8976
20
-110.842
11
85.29
21
-110.773
0
LINE
8
Black
10
85.29
20
-110.773
11
85.6824
21
-110.842
0
LINE
8
Black
10
142.682
20
-110.842
11
143.028
21
-111.041
0
LINE
8
Black
10
143.028
20
-111.041
11
143.284
21
-111.346
0
LINE
8
Black
10
143.284
20
-111.346
11
143.42
21
-111.721
0
LINE
8
Black
10
143.42
20
-111.721
11
143.42
21
-112.119
0
LINE
8
Black
10
143.42
20
-112.119
11
143.284
21
-112.494
0
LINE
8
Black
10
143.284
20
-112.494
11
143.028
21
-112.799
0
LINE
8
Black
10
143.028
20
-112.799
11
142.682
21
-112.998
0
LINE
8
Black
10
142.682
20
-112.998
11
142.29
21
-113.067
0
LINE
8
Black
10
142.29
20
-113.067
11
141.898
21
-112.998
0
LINE
8
Black
10
141.898
20
-112.998
11
141.552
21
-112.799
0
LINE
8
Black
10
141.552
20
-112.799
11
141.296
21
-112.494
0
LINE
8
Black
10
141.296
20
-112.494
11
141.16
21
-112.119
0
LINE
8
Black
10
141.16
20
-112.119
11
141.16
21
-111.721
0
LINE
8
Black
10
141.16
20
-111.721
11
141.296
21
-111.346
0
LINE
8
Black
10
141.296
20
-111.346
11
141.552
21
-111.041
0
LINE
8
Black
10
141.552
20
-111.041
11
141.898
21
-110.842
0
LINE
8
Black
10
141.898
20
-110.842
11
142.29
21
-110.773
0
LINE
8
Black
10
142.29
20
-110.773
11
142.682
21
-110.842
0
LINE
8
Black
10
161.682
20
-110.842
11
162.028
21
-111.041
0
LINE
8
Black
10
162.028
20
-111.041
11
162.284
21
-111.346
0
LINE
8
Black
10
162.284
20
-111.346
11
162.42
21
-111.721
0
LINE
8
Black
10
162.42
20
-111.721
11
162.42
21
-112.119
0
LINE
8
Black
10
162.42
20
-112.119
11
162.284
21
-112.494
0
LINE
8
Black
10
162.284
20
-112.494
11
162.028
21
-112.799
0
LINE
8
Black
10
162.028
20
-112.799
11
161.682
21
-112.998
0
LINE
8
Black
10
161.682
20
-112.998
11
161.29
21
-113.067
0
LINE
8
Black
10
161.29
20
-113.067
11
160.898
21
-112.998
0
LINE
8
Black
10
160.898
20
-112.998
11
160.552
21
-112.799
0
LINE
8
Black
10
160.552
20
-112.799
11
160.296
21
-112.494
0
LINE
8
Black
10
160.296
20
-112.494
11
160.16
21
-112.119
0
LINE
8
Black
10
160.16
20
-112.119
11
160.16
21
-111.721
0
LINE
8
Black
10
160.16
20
-111.721
11
160.296
21
-111.346
0
LINE
8
Black
10
160.296
20
-111.346
11
160.552
21
-111.041
0
LINE
8
Black
10
160.552
20
-111.041
11
160.898
21
-110.842
0
LINE
8
Black
10
160.898
20
-110.842
11
161.29
21
-110.773
0
LINE
8
Black
10
161.29
20
-110.773
11
161.682
21
-110.842
0
LINE
8
Black
10
164.601
20
-105.749
11
165.129
21
-106.054
0
LINE
8
Black
10
165.129
20
-106.054
11
165.521
21
-106.522
0
LINE
8
Black
10
165.521
20
-106.522
11
165.73
21
-107.095
0
LINE
8
Black
10
165.73
20
-107.095
11
165.73
21
-107.705
0
LINE
8
Black
10
165.73
20
-107.705
11
165.521
21
-108.278
0
LINE
8
Black
10
165.521
20
-108.278
11
165.129
21
-108.746
0
LINE
8
Black
10
165.129
20
-108.746
11
164.601
21
-109.051
0
LINE
8
Black
10
164.601
20
-109.051
11
164
21
-109.157
0
LINE
8
Black
10
164
20
-109.157
11
163.399
21
-109.051
0
LINE
8
Black
10
163.399
20
-109.051
11
162.871
21
-108.746
0
LINE
8
Black
10
162.871
20
-108.746
11
162.479
21
-108.278
0
LINE
8
Black
10
162.479
20
-108.278
11
162.27
21
-107.705
0
LINE
8
Black
10
162.27
20
-107.705
11
162.27
21
-107.095
0
LINE
8
Black
10
162.27
20
-107.095
11
162.479
21
-106.522
0
LINE
8
Black
10
162.479
20
-106.522
11
162.871
21
-106.054
0
LINE
8
Black
10
162.871
20
-106.054
11
163.399
21
-105.749
0
LINE
8
Black
10
163.399
20
-105.749
11
164
21
-105.643
0
LINE
8
Black
10
164
20
-105.643
11
164.601
21
-105.749
0
LINE
8
Black
10
116.201
20
-105.749
11
116.729
21
-106.054
0
LINE
8
Black
10
116.729
20
-106.054
11
117.121
21
-106.522
0
LINE
8
Black
10
117.121
20
-106.522
11
117.33
21
-107.095
0
LINE
8
Black
10
117.33
20
-107.095
11
117.33
21
-107.705
0
LINE
8
Black
10
117.33
20
-107.705
11
117.121
21
-108.278
0
LINE
8
Black
10
117.121
20
-108.278
11
116.729
21
-108.746
0
LINE
8
Black
10
116.729
20
-108.746
11
116.201
21
-109.051
0
LINE
8
Black
10
116.201
20
-109.051
11
115.6
21
-109.157
0
LINE
8
Black
10
115.6
20
-109.157
11
114.999
21
-109.051
0
LINE
8
Black
10
114.999
20
-109.051
11
114.471
21
-108.746
0
LINE
8
Black
10
114.471
20
-108.746
11
114.079
21
-108.278
0
LINE
8
Black
10
114.079
20
-108.278
11
113.87
21
-107.705
0
LINE
8
Black
10
113.87
20
-107.705
11
113.87
21
-107.095
0
LINE
8
Black
10
113.87
20
-107.095
11
114.079
21
-106.522
0
LINE
8
Black
10
114.079
20
-106.522
11
114.471
21
-106.054
0
LINE
8
Black
10
114.471
20
-106.054
11
114.999
21
-105.749
0
LINE
8
Black
10
114.999
20
-105.749
11
115.6
21
-105.643
0
LINE
8
Black
10
115.6
20
-105.643
11
116.201
21
-105.749
0
LINE
8
Black
10
79.8008
20
-105.749
11
80.3292
21
-106.054
0
LINE
8
Black
10
80.3292
20
-106.054
11
80.7213
21
-106.522
0
LINE
8
Black
10
80.7213
20
-106.522
11
80.93
21
-107.095
0
LINE
8
Black
10
80.93
20
-107.095
11
80.93
21
-107.705
0
LINE
8
Black
10
80.93
20
-107.705
11
80.7213
21
-108.278
0
LINE
8
Black
10
80.7213
20
-108.278
11
80.3292
21
-108.746
0
LINE
8
Black
10
80.3292
20
-108.746
11
79.8008
21
-109.051
0
LINE
8
Black
10
79.8008
20
-109.051
11
79.2
21
-109.157
0
LINE
8
Black
10
79.2
20
-109.157
11
78.5992
21
-109.051
0
LINE
8
Black
10
78.5992
20
-109.051
11
78.0708
21
-108.746
0
LINE
8
Black
10
78.0708
20
-108.746
11
77.6787
21
-108.278
0
LINE
8
Black
10
77.6787
20
-108.278
11
77.47
21
-107.705
0
LINE
8
Black
10
77.47
20
-107.705
11
77.47
21
-107.095
0
LINE
8
Black
10
77.47
20
-107.095
11
77.6787
21
-106.522
0
LINE
8
Black
10
77.6787
20
-106.522
11
78.0708
21
-106.054
0
LINE
8
Black
10
78.0708
20
-106.054
11
78.5992
21
-105.749
0
LINE
8
Black
10
78.5992
20
-105.749
11
79.2
21
-105.643
0
LINE
8
Black
10
79.2
20
-105.643
11
79.8008
21
-105.749
0
LINE
8
Black
10
37.9008
20
-105.749
11
38.4292
21
-106.054
0
LINE
8
Black
10
38.4292
20
-106.054
11
38.8213
21
-106.522
0
LINE
8
Black
10
38.8213
20
-106.522
11
39.03
21
-107.095
0
LINE
8
Black
10
39.03
20
-107.095
11
39.03
21
-107.705
0
LINE
8
Black
10
39.03
20
-107.705
11
38.8213
21
-108.278
0
LINE
8
Black
10
38.8213
20
-108.278
11
38.4292
21
-108.746
0
LINE
8
Black
10
38.4292
20
-108.746
11
37.9008
21
-109.051
0
LINE
8
Black
10
37.9008
20
-109.051
11
37.3
21
-109.157
0
LINE
8
Black
10
37.3
20
-109.157
11
36.6992
21
-109.051
0
LINE
8
Black
10
36.6992
20
-109.051
11
36.1708
21
-108.746
0
LINE
8
Black
10
36.1708
20
-108.746
11
35.7787
21
-108.278
0
LINE
8
Black
10
35.7787
20
-108.278
11
35.57
21
-107.705
0
LINE
8
Black
10
35.57
20
-107.705
11
35.57
21
-107.095
0
LINE
8
Black
10
35.57
20
-107.095
11
35.7787
21
-106.522
0
LINE
8
Black
10
35.7787
20
-106.522
11
36.1708
21
-106.054
0
LINE
8
Black
10
36.1708
20
-106.054
11
36.6992
21
-105.749
0
LINE
8
Black
10
36.6992
20
-105.749
11
37.3
21
-105.643
0
LINE
8
Black
10
37.3
20
-105.643
11
37.9008
21
-105.749
0
LINE
8
Black
10
43.7074
20
-94.3818
11
44.0525
21
-94.5811
0
LINE
8
Black
10
44.0525
20
-94.5811
11
44.3086
21
-94.8863
0
LINE
8
Black
10
44.3086
20
-94.8863
11
44.4449
21
-95.2608
0
LINE
8
Black
10
44.4449
20
-95.2608
11
44.4449
21
-95.6592
0
LINE
8
Black
10
44.4449
20
-95.6592
11
44.3086
21
-96.0337
0
LINE
8
Black
10
44.3086
20
-96.0337
11
44.0525
21
-96.3389
0
LINE
8
Black
10
44.0525
20
-96.3389
11
43.7074
21
-96.5382
0
LINE
8
Black
10
43.7074
20
-96.5382
11
43.315
21
-96.6074
0
LINE
8
Black
10
43.315
20
-96.6074
11
42.9226
21
-96.5382
0
LINE
8
Black
10
42.9226
20
-96.5382
11
42.5775
21
-96.3389
0
LINE
8
Black
10
42.5775
20
-96.3389
11
42.3214
21
-96.0337
0
LINE
8
Black
10
42.3214
20
-96.0337
11
42.1851
21
-95.6592
0
LINE
8
Black
10
42.1851
20
-95.6592
11
42.1851
21
-95.2608
0
LINE
8
Black
10
42.1851
20
-95.2608
11
42.3214
21
-94.8863
0
LINE
8
Black
10
42.3214
20
-94.8863
11
42.5775
21
-94.5811
0
LINE
8
Black
10
42.5775
20
-94.5811
11
42.9226
21
-94.3818
0
LINE
8
Black
10
42.9226
20
-94.3818
11
43.315
21
-94.3126
0
LINE
8
Black
10
43.315
20
-94.3126
11
43.7074
21
-94.3818
0
LINE
8
Black
10
69.8324
20
-94.3818
11
70.1775
21
-94.5811
0
LINE
8
Black
10
70.1775
20
-94.5811
11
70.4336
21
-94.8863
0
LINE
8
Black
10
70.4336
20
-94.8863
11
70.5699
21
-95.2608
0
LINE
8
Black
10
70.5699
20
-95.2608
11
70.5699
21
-95.6592
0
LINE
8
Black
10
70.5699
20
-95.6592
11
70.4336
21
-96.0337
0
LINE
8
Black
10
70.4336
20
-96.0337
11
70.1775
21
-96.3389
0
LINE
8
Black
10
70.1775
20
-96.3389
11
69.8324
21
-96.5382
0
LINE
8
Black
10
69.8324
20
-96.5382
11
69.44
21
-96.6074
0
LINE
8
Black
10
69.44
20
-96.6074
11
69.0476
21
-96.5382
0
LINE
8
Black
10
69.0476
20
-96.5382
11
68.7025
21
-96.3389
0
LINE
8
Black
10
68.7025
20
-96.3389
11
68.4464
21
-96.0337
0
LINE
8
Black
10
68.4464
20
-96.0337
11
68.3101
21
-95.6592
0
LINE
8
Black
10
68.3101
20
-95.6592
11
68.3101
21
-95.2608
0
LINE
8
Black
10
68.3101
20
-95.2608
11
68.4464
21
-94.8863
0
LINE
8
Black
10
68.4464
20
-94.8863
11
68.7025
21
-94.5811
0
LINE
8
Black
10
68.7025
20
-94.5811
11
69.0476
21
-94.3818
0
LINE
8
Black
10
69.0476
20
-94.3818
11
69.44
21
-94.3126
0
LINE
8
Black
10
69.44
20
-94.3126
11
69.8324
21
-94.3818
0
LINE
8
Black
10
88.8324
20
-94.3818
11
89.1775
21
-94.5811
0
LINE
8
Black
10
89.1775
20
-94.5811
11
89.4336
21
-94.8863
0
LINE
8
Black
10
89.4336
20
-94.8863
11
89.5699
21
-95.2608
0
LINE
8
Black
10
89.5699
20
-95.2608
11
89.5699
21
-95.6592
0
LINE
8
Black
10
89.5699
20
-95.6592
11
89.4336
21
-96.0337
0
LINE
8
Black
10
89.4336
20
-96.0337
11
89.1775
21
-96.3389
0
LINE
8
Black
10
89.1775
20
-96.3389
11
88.8324
21
-96.5382
0
LINE
8
Black
10
88.8324
20
-96.5382
11
88.44
21
-96.6074
0
LINE
8
Black
10
88.44
20
-96.6074
11
88.0476
21
-96.5382
0
LINE
8
Black
10
88.0476
20
-96.5382
11
87.7025
21
-96.3389
0
LINE
8
Black
10
87.7025
20
-96.3389
11
87.4464
21
-96.0337
0
LINE
8
Black
10
87.4464
20
-96.0337
11
87.3101
21
-95.6592
0
LINE
8
Black
10
87.3101
20
-95.6592
11
87.3101
21
-95.2608
0
LINE
8
Black
10
87.3101
20
-95.2608
11
87.4464
21
-94.8863
0
LINE
8
Black
10
87.4464
20
-94.8863
11
87.7025
21
-94.5811
0
LINE
8
Black
10
87.7025
20
-94.5811
11
88.0476
21
-94.3818
0
LINE
8
Black
10
88.0476
20
-94.3818
11
88.44
21
-94.3126
0
LINE
8
Black
10
88.44
20
-94.3126
11
88.8324
21
-94.3818
0
LINE
8
Black
10
107.832
20
-94.3818
11
108.178
21
-94.5811
0
LINE
8
Black
10
108.178
20
-94.5811
11
108.434
21
-94.8863
0
LINE
8
Black
10
108.434
20
-94.8863
11
108.57
21
-95.2608
0
LINE
8
Black
10
108.57
20
-95.2608
11
108.57
21
-95.6592
0
LINE
8
Black
10
108.57
20
-95.6592
11
108.434
21
-96.0337
0
LINE
8
Black
10
108.434
20
-96.0337
11
108.178
21
-96.3389
0
LINE
8
Black
10
108.178
20
-96.3389
11
107.832
21
-96.5382
0
LINE
8
Black
10
107.832
20
-96.5382
11
107.44
21
-96.6074
0
LINE
8
Black
10
107.44
20
-96.6074
11
107.048
21
-96.5382
0
LINE
8
Black
10
107.048
20
-96.5382
11
106.702
21
-96.3389
0
LINE
8
Black
10
106.702
20
-96.3389
11
106.446
21
-96.0337
0
LINE
8
Black
10
106.446
20
-96.0337
11
106.31
21
-95.6592
0
LINE
8
Black
10
106.31
20
-95.6592
11
106.31
21
-95.2608
0
LINE
8
Black
10
106.31
20
-95.2608
11
106.446
21
-94.8863
0
LINE
8
Black
10
106.446
20
-94.8863
11
106.702
21
-94.5811
0
LINE
8
Black
10
106.702
20
-94.5811
11
107.048
21
-94.3818
0
LINE
8
Black
10
107.048
20
-94.3818
11
107.44
21
-94.3126
0
LINE
8
Black
10
107.44
20
-94.3126
11
107.832
21
-94.3818
0
LINE
8
Black
10
126.832
20
-94.3818
11
127.178
21
-94.5811
0
LINE
8
Black
10
127.178
20
-94.5811
11
127.434
21
-94.8863
0
LINE
8
Black
10
127.434
20
-94.8863
11
127.57
21
-95.2608
0
LINE
8
Black
10
127.57
20
-95.2608
11
127.57
21
-95.6592
0
LINE
8
Black
10
127.57
20
-95.6592
11
127.434
21
-96.0337
0
LINE
8
Black
10
127.434
20
-96.0337
11
127.178
21
-96.3389
0
LINE
8
Black
10
127.178
20
-96.3389
11
126.832
21
-96.5382
0
LINE
8
Black
10
126.832
20
-96.5382
11
126.44
21
-96.6074
0
LINE
8
Black
10
126.44
20
-96.6074
11
126.048
21
-96.5382
0
LINE
8
Black
10
126.048
20
-96.5382
11
125.702
21
-96.3389
0
LINE
8
Black
10
125.702
20
-96.3389
11
125.446
21
-96.0337
0
LINE
8
Black
10
125.446
20
-96.0337
11
125.31
21
-95.6592
0
LINE
8
Black
10
125.31
20
-95.6592
11
125.31
21
-95.2608
0
LINE
8
Black
10
125.31
20
-95.2608
11
125.446
21
-94.8863
0
LINE
8
Black
10
125.446
20
-94.8863
11
125.702
21
-94.5811
0
LINE
8
Black
10
125.702
20
-94.5811
11
126.048
21
-94.3818
0
LINE
8
Black
10
126.048
20
-94.3818
11
126.44
21
-94.3126
0
LINE
8
Black
10
126.44
20
-94.3126
11
126.832
21
-94.3818
0
LINE
8
Black
10
145.832
20
-94.3818
11
146.178
21
-94.5811
0
LINE
8
Black
10
146.178
20
-94.5811
11
146.434
21
-94.8863
0
LINE
8
Black
10
146.434
20
-94.8863
11
146.57
21
-95.2608
0
LINE
8
Black
10
146.57
20
-95.2608
11
146.57
21
-95.6592
0
LINE
8
Black
10
146.57
20
-95.6592
11
146.434
21
-96.0337
0
LINE
8
Black
10
146.434
20
-96.0337
11
146.178
21
-96.3389
0
LINE
8
Black
10
146.178
20
-96.3389
11
145.832
21
-96.5382
0
LINE
8
Black
10
145.832
20
-96.5382
11
145.44
21
-96.6074
0
LINE
8
Black
10
145.44
20
-96.6074
11
145.048
21
-96.5382
0
LINE
8
Black
10
145.048
20
-96.5382
11
144.702
21
-96.3389
0
LINE
8
Black
10
144.702
20
-96.3389
11
144.446
21
-96.0337
0
LINE
8
Black
10
144.446
20
-96.0337
11
144.31
21
-95.6592
0
LINE
8
Black
10
144.31
20
-95.6592
11
144.31
21
-95.2608
0
LINE
8
Black
10
144.31
20
-95.2608
11
144.446
21
-94.8863
0
LINE
8
Black
10
144.446
20
-94.8863
11
144.702
21
-94.5811
0
LINE
8
Black
10
144.702
20
-94.5811
11
145.048
21
-94.3818
0
LINE
8
Black
10
145.048
20
-94.3818
11
145.44
21
-94.3126
0
LINE
8
Black
10
145.44
20
-94.3126
11
145.832
21
-94.3818
0
LINE
8
Black
10
114.182
20
-91.8418
11
114.528
21
-92.0411
0
LINE
8
Black
10
114.528
20
-92.0411
11
114.784
21
-92.3463
0
LINE
8
Black
10
114.784
20
-92.3463
11
114.92
21
-92.7208
0
LINE
8
Black
10
114.92
20
-92.7208
11
114.92
21
-93.1192
0
LINE
8
Black
10
114.92
20
-93.1192
11
114.784
21
-93.4937
0
LINE
8
Black
10
114.784
20
-93.4937
11
114.528
21
-93.7989
0
LINE
8
Black
10
114.528
20
-93.7989
11
114.182
21
-93.9982
0
LINE
8
Black
10
114.182
20
-93.9982
11
113.79
21
-94.0674
0
LINE
8
Black
10
113.79
20
-94.0674
11
113.398
21
-93.9982
0
LINE
8
Black
10
113.398
20
-93.9982
11
113.052
21
-93.7989
0
LINE
8
Black
10
113.052
20
-93.7989
11
112.796
21
-93.4937
0
LINE
8
Black
10
112.796
20
-93.4937
11
112.66
21
-93.1192
0
LINE
8
Black
10
112.66
20
-93.1192
11
112.66
21
-92.7208
0
LINE
8
Black
10
112.66
20
-92.7208
11
112.796
21
-92.3463
0
LINE
8
Black
10
112.796
20
-92.3463
11
113.052
21
-92.0411
0
LINE
8
Black
10
113.052
20
-92.0411
11
113.398
21
-91.8418
0
LINE
8
Black
10
113.398
20
-91.8418
11
113.79
21
-91.7726
0
LINE
8
Black
10
113.79
20
-91.7726
11
114.182
21
-91.8418
0
LINE
8
Black
10
133.182
20
-91.8418
11
133.528
21
-92.0411
0
LINE
8
Black
10
133.528
20
-92.0411
11
133.784
21
-92.3463
0
LINE
8
Black
10
133.784
20
-92.3463
11
133.92
21
-92.7208
0
LINE
8
Black
10
133.92
20
-92.7208
11
133.92
21
-93.1192
0
LINE
8
Black
10
133.92
20
-93.1192
11
133.784
21
-93.4937
0
LINE
8
Black
10
133.784
20
-93.4937
11
133.528
21
-93.7989
0
LINE
8
Black
10
133.528
20
-93.7989
11
133.182
21
-93.9982
0
LINE
8
Black
10
133.182
20
-93.9982
11
132.79
21
-94.0674
0
LINE
8
Black
10
132.79
20
-94.0674
11
132.398
21
-93.9982
0
LINE
8
Black
10
132.398
20
-93.9982
11
132.052
21
-93.7989
0
LINE
8
Black
10
132.052
20
-93.7989
11
131.796
21
-93.4937
0
LINE
8
Black
10
131.796
20
-93.4937
11
131.66
21
-93.1192
0
LINE
8
Black
10
131.66
20
-93.1192
11
131.66
21
-92.7208
0
LINE
8
Black
10
131.66
20
-92.7208
11
131.796
21
-92.3463
0
LINE
8
Black
10
131.796
20
-92.3463
11
132.052
21
-92.0411
0
LINE
8
Black
10
132.052
20
-92.0411
11
132.398
21
-91.8418
0
LINE
8
Black
10
132.398
20
-91.8418
11
132.79
21
-91.7726
0
LINE
8
Black
10
132.79
20
-91.7726
11
133.182
21
-91.8418
0
LINE
8
Black
10
95.1824
20
-91.8418
11
95.5275
21
-92.0411
0
LINE
8
Black
10
95.5275
20
-92.0411
11
95.7836
21
-92.3463
0
LINE
8
Black
10
95.7836
20
-92.3463
11
95.9199
21
-92.7208
0
LINE
8
Black
10
95.9199
20
-92.7208
11
95.9199
21
-93.1192
0
LINE
8
Black
10
95.9199
20
-93.1192
11
95.7836
21
-93.4937
0
LINE
8
Black
10
95.7836
20
-93.4937
11
95.5275
21
-93.7989
0
LINE
8
Black
10
95.5275
20
-93.7989
11
95.1824
21
-93.9982
0
LINE
8
Black
10
95.1824
20
-93.9982
11
94.79
21
-94.0674
0
LINE
8
Black
10
94.79
20
-94.0674
11
94.3976
21
-93.9982
0
LINE
8
Black
10
94.3976
20
-93.9982
11
94.0525
21
-93.7989
0
LINE
8
Black
10
94.0525
20
-93.7989
11
93.7964
21
-93.4937
0
LINE
8
Black
10
93.7964
20
-93.4937
11
93.6601
21
-93.1192
0
LINE
8
Black
10
93.6601
20
-93.1192
11
93.6601
21
-92.7208
0
LINE
8
Black
10
93.6601
20
-92.7208
11
93.7964
21
-92.3463
0
LINE
8
Black
10
93.7964
20
-92.3463
11
94.0525
21
-92.0411
0
LINE
8
Black
10
94.0525
20
-92.0411
11
94.3976
21
-91.8418
0
LINE
8
Black
10
94.3976
20
-91.8418
11
94.79
21
-91.7726
0
LINE
8
Black
10
94.79
20
-91.7726
11
95.1824
21
-91.8418
0
LINE
8
Black
10
76.1824
20
-91.8418
11
76.5275
21
-92.0411
0
LINE
8
Black
10
76.5275
20
-92.0411
11
76.7836
21
-92.3463
0
LINE
8
Black
10
76.7836
20
-92.3463
11
76.9199
21
-92.7208
0
LINE
8
Black
10
76.9199
20
-92.7208
11
76.9199
21
-93.1192
0
LINE
8
Black
10
76.9199
20
-93.1192
11
76.7836
21
-93.4937
0
LINE
8
Black
10
76.7836
20
-93.4937
11
76.5275
21
-93.7989
0
LINE
8
Black
10
76.5275
20
-93.7989
11
76.1824
21
-93.9982
0
LINE
8
Black
10
76.1824
20
-93.9982
11
75.79
21
-94.0674
0
LINE
8
Black
10
75.79
20
-94.0674
11
75.3976
21
-93.9982
0
LINE
8
Black
10
75.3976
20
-93.9982
11
75.0525
21
-93.7989
0
LINE
8
Black
10
75.0525
20
-93.7989
11
74.7964
21
-93.4937
0
LINE
8
Black
10
74.7964
20
-93.4937
11
74.6601
21
-93.1192
0
LINE
8
Black
10
74.6601
20
-93.1192
11
74.6601
21
-92.7208
0
LINE
8
Black
10
74.6601
20
-92.7208
11
74.7964
21
-92.3463
0
LINE
8
Black
10
74.7964
20
-92.3463
11
75.0525
21
-92.0411
0
LINE
8
Black
10
75.0525
20
-92.0411
11
75.3976
21
-91.8418
0
LINE
8
Black
10
75.3976
20
-91.8418
11
75.79
21
-91.7726
0
LINE
8
Black
10
75.79
20
-91.7726
11
76.1824
21
-91.8418
0
LINE
8
Black
10
50.0574
20
-91.8418
11
50.4025
21
-92.0411
0
LINE
8
Black
10
50.4025
20
-92.0411
11
50.6586
21
-92.3463
0
LINE
8
Black
10
50.6586
20
-92.3463
11
50.7949
21
-92.7208
0
LINE
8
Black
10
50.7949
20
-92.7208
11
50.7949
21
-93.1192
0
LINE
8
Black
10
50.7949
20
-93.1192
11
50.6586
21
-93.4937
0
LINE
8
Black
10
50.6586
20
-93.4937
11
50.4025
21
-93.7989
0
LINE
8
Black
10
50.4025
20
-93.7989
11
50.0574
21
-93.9982
0
LINE
8
Black
10
50.0574
20
-93.9982
11
49.665
21
-94.0674
0
LINE
8
Black
10
49.665
20
-94.0674
11
49.2726
21
-93.9982
0
LINE
8
Black
10
49.2726
20
-93.9982
11
48.9275
21
-93.7989
0
LINE
8
Black
10
48.9275
20
-93.7989
11
48.6714
21
-93.4937
0
LINE
8
Black
10
48.6714
20
-93.4937
11
48.5351
21
-93.1192
0
LINE
8
Black
10
48.5351
20
-93.1192
11
48.5351
21
-92.7208
0
LINE
8
Black
10
48.5351
20
-92.7208
11
48.6714
21
-92.3463
0
LINE
8
Black
10
48.6714
20
-92.3463
11
48.9275
21
-92.0411
0
LINE
8
Black
10
48.9275
20
-92.0411
11
49.2726
21
-91.8418
0
LINE
8
Black
10
49.2726
20
-91.8418
11
49.665
21
-91.7726
0
LINE
8
Black
10
49.665
20
-91.7726
11
50.0574
21
-91.8418
0
LINE
8
Black
10
152.182
20
-91.8418
11
152.528
21
-92.0411
0
LINE
8
Black
10
152.528
20
-92.0411
11
152.784
21
-92.3463
0
LINE
8
Black
10
152.784
20
-92.3463
11
152.92
21
-92.7208
0
LINE
8
Black
10
152.92
20
-92.7208
11
152.92
21
-93.1192
0
LINE
8
Black
10
152.92
20
-93.1192
11
152.784
21
-93.4937
0
LINE
8
Black
10
152.784
20
-93.4937
11
152.528
21
-93.7989
0
LINE
8
Black
10
152.528
20
-93.7989
11
152.182
21
-93.9982
0
LINE
8
Black
10
152.182
20
-93.9982
11
151.79
21
-94.0674
0
LINE
8
Black
10
151.79
20
-94.0674
11
151.398
21
-93.9982
0
LINE
8
Black
10
151.398
20
-93.9982
11
151.052
21
-93.7989
0
LINE
8
Black
10
151.052
20
-93.7989
11
150.796
21
-93.4937
0
LINE
8
Black
10
150.796
20
-93.4937
11
150.66
21
-93.1192
0
LINE
8
Black
10
150.66
20
-93.1192
11
150.66
21
-92.7208
0
LINE
8
Black
10
150.66
20
-92.7208
11
150.796
21
-92.3463
0
LINE
8
Black
10
150.796
20
-92.3463
11
151.052
21
-92.0411
0
LINE
8
Black
10
151.052
20
-92.0411
11
151.398
21
-91.8418
0
LINE
8
Black
10
151.398
20
-91.8418
11
151.79
21
-91.7726
0
LINE
8
Black
10
151.79
20
-91.7726
11
152.182
21
-91.8418
0
LINE
8
Black
10
141.082
20
-75.3818
11
141.428
21
-75.5811
0
LINE
8
Black
10
141.428
20
-75.5811
11
141.684
21
-75.8863
0
LINE
8
Black
10
141.684
20
-75.8863
11
141.82
21
-76.2608
0
LINE
8
Black
10
141.82
20
-76.2608
11
141.82
21
-76.6592
0
LINE
8
Black
10
141.82
20
-76.6592
11
141.684
21
-77.0337
0
LINE
8
Black
10
141.684
20
-77.0337
11
141.428
21
-77.3389
0
LINE
8
Black
10
141.428
20
-77.3389
11
141.082
21
-77.5382
0
LINE
8
Black
10
141.082
20
-77.5382
11
140.69
21
-77.6074
0
LINE
8
Black
10
140.69
20
-77.6074
11
140.298
21
-77.5382
0
LINE
8
Black
10
140.298
20
-77.5382
11
139.952
21
-77.3389
0
LINE
8
Black
10
139.952
20
-77.3389
11
139.696
21
-77.0337
0
LINE
8
Black
10
139.696
20
-77.0337
11
139.56
21
-76.6592
0
LINE
8
Black
10
139.56
20
-76.6592
11
139.56
21
-76.2608
0
LINE
8
Black
10
139.56
20
-76.2608
11
139.696
21
-75.8863
0
LINE
8
Black
10
139.696
20
-75.8863
11
139.952
21
-75.5811
0
LINE
8
Black
10
139.952
20
-75.5811
11
140.298
21
-75.3818
0
LINE
8
Black
10
140.298
20
-75.3818
11
140.69
21
-75.3126
0
LINE
8
Black
10
140.69
20
-75.3126
11
141.082
21
-75.3818
0
LINE
8
Black
10
41.3324
20
-75.3818
11
41.6775
21
-75.5811
0
LINE
8
Black
10
41.6775
20
-75.5811
11
41.9336
21
-75.8863
0
LINE
8
Black
10
41.9336
20
-75.8863
11
42.0699
21
-76.2608
0
LINE
8
Black
10
42.0699
20
-76.2608
11
42.0699
21
-76.6592
0
LINE
8
Black
10
42.0699
20
-76.6592
11
41.9336
21
-77.0337
0
LINE
8
Black
10
41.9336
20
-77.0337
11
41.6775
21
-77.3389
0
LINE
8
Black
10
41.6775
20
-77.3389
11
41.3324
21
-77.5382
0
LINE
8
Black
10
41.3324
20
-77.5382
11
40.94
21
-77.6074
0
LINE
8
Black
10
40.94
20
-77.6074
11
40.5476
21
-77.5382
0
LINE
8
Black
10
40.5476
20
-77.5382
11
40.2025
21
-77.3389
0
LINE
8
Black
10
40.2025
20
-77.3389
11
39.9464
21
-77.0337
0
LINE
8
Black
10
39.9464
20
-77.0337
11
39.8101
21
-76.6592
0
LINE
8
Black
10
39.8101
20
-76.6592
11
39.8101
21
-76.2608
0
LINE
8
Black
10
39.8101
20
-76.2608
11
39.9464
21
-75.8863
0
LINE
8
Black
10
39.9464
20
-75.8863
11
40.2025
21
-75.5811
0
LINE
8
Black
10
40.2025
20
-75.5811
11
40.5476
21
-75.3818
0
LINE
8
Black
10
40.5476
20
-75.3818
11
40.94
21
-75.3126
0
LINE
8
Black
10
40.94
20
-75.3126
11
41.3324
21
-75.3818
0
LINE
8
Black
10
122.082
20
-75.3818
11
122.428
21
-75.5811
0
LINE
8
Black
10
122.428
20
-75.5811
11
122.684
21
-75.8863
0
LINE
8
Black
10
122.684
20
-75.8863
11
122.82
21
-76.2608
0
LINE
8
Black
10
122.82
20
-76.2608
11
122.82
21
-76.6592
0
LINE
8
Black
10
122.82
20
-76.6592
11
122.684
21
-77.0337
0
LINE
8
Black
10
122.684
20
-77.0337
11
122.428
21
-77.3389
0
LINE
8
Black
10
122.428
20
-77.3389
11
122.082
21
-77.5382
0
LINE
8
Black
10
122.082
20
-77.5382
11
121.69
21
-77.6074
0
LINE
8
Black
10
121.69
20
-77.6074
11
121.298
21
-77.5382
0
LINE
8
Black
10
121.298
20
-77.5382
11
120.952
21
-77.3389
0
LINE
8
Black
10
120.952
20
-77.3389
11
120.696
21
-77.0337
0
LINE
8
Black
10
120.696
20
-77.0337
11
120.56
21
-76.6592
0
LINE
8
Black
10
120.56
20
-76.6592
11
120.56
21
-76.2608
0
LINE
8
Black
10
120.56
20
-76.2608
11
120.696
21
-75.8863
0
LINE
8
Black
10
120.696
20
-75.8863
11
120.952
21
-75.5811
0
LINE
8
Black
10
120.952
20
-75.5811
11
121.298
21
-75.3818
0
LINE
8
Black
10
121.298
20
-75.3818
11
121.69
21
-75.3126
0
LINE
8
Black
10
121.69
20
-75.3126
11
122.082
21
-75.3818
0
LINE
8
Black
10
103.082
20
-75.3818
11
103.428
21
-75.5811
0
LINE
8
Black
10
103.428
20
-75.5811
11
103.684
21
-75.8863
0
LINE
8
Black
10
103.684
20
-75.8863
11
103.82
21
-76.2608
0
LINE
8
Black
10
103.82
20
-76.2608
11
103.82
21
-76.6592
0
LINE
8
Black
10
103.82
20
-76.6592
11
103.684
21
-77.0337
0
LINE
8
Black
10
103.684
20
-77.0337
11
103.428
21
-77.3389
0
LINE
8
Black
10
103.428
20
-77.3389
11
103.082
21
-77.5382
0
LINE
8
Black
10
103.082
20
-77.5382
11
102.69
21
-77.6074
0
LINE
8
Black
10
102.69
20
-77.6074
11
102.298
21
-77.5382
0
LINE
8
Black
10
102.298
20
-77.5382
11
101.952
21
-77.3389
0
LINE
8
Black
10
101.952
20
-77.3389
11
101.696
21
-77.0337
0
LINE
8
Black
10
101.696
20
-77.0337
11
101.56
21
-76.6592
0
LINE
8
Black
10
101.56
20
-76.6592
11
101.56
21
-76.2608
0
LINE
8
Black
10
101.56
20
-76.2608
11
101.696
21
-75.8863
0
LINE
8
Black
10
101.696
20
-75.8863
11
101.952
21
-75.5811
0
LINE
8
Black
10
101.952
20
-75.5811
11
102.298
21
-75.3818
0
LINE
8
Black
10
102.298
20
-75.3818
11
102.69
21
-75.3126
0
LINE
8
Black
10
102.69
20
-75.3126
11
103.082
21
-75.3818
0
LINE
8
Black
10
84.0824
20
-75.3818
11
84.4275
21
-75.5811
0
LINE
8
Black
10
84.4275
20
-75.5811
11
84.6836
21
-75.8863
0
LINE
8
Black
10
84.6836
20
-75.8863
11
84.8199
21
-76.2608
0
LINE
8
Black
10
84.8199
20
-76.2608
11
84.8199
21
-76.6592
0
LINE
8
Black
10
84.8199
20
-76.6592
11
84.6836
21
-77.0337
0
LINE
8
Black
10
84.6836
20
-77.0337
11
84.4275
21
-77.3389
0
LINE
8
Black
10
84.4275
20
-77.3389
11
84.0824
21
-77.5382
0
LINE
8
Black
10
84.0824
20
-77.5382
11
83.69
21
-77.6074
0
LINE
8
Black
10
83.69
20
-77.6074
11
83.2976
21
-77.5382
0
LINE
8
Black
10
83.2976
20
-77.5382
11
82.9525
21
-77.3389
0
LINE
8
Black
10
82.9525
20
-77.3389
11
82.6964
21
-77.0337
0
LINE
8
Black
10
82.6964
20
-77.0337
11
82.5601
21
-76.6592
0
LINE
8
Black
10
82.5601
20
-76.6592
11
82.5601
21
-76.2608
0
LINE
8
Black
10
82.5601
20
-76.2608
11
82.6964
21
-75.8863
0
LINE
8
Black
10
82.6964
20
-75.8863
11
82.9525
21
-75.5811
0
LINE
8
Black
10
82.9525
20
-75.5811
11
83.2976
21
-75.3818
0
LINE
8
Black
10
83.2976
20
-75.3818
11
83.69
21
-75.3126
0
LINE
8
Black
10
83.69
20
-75.3126
11
84.0824
21
-75.3818
0
LINE
8
Black
10
65.0824
20
-75.3818
11
65.4275
21
-75.5811
0
LINE
8
Black
10
65.4275
20
-75.5811
11
65.6836
21
-75.8863
0
LINE
8
Black
10
65.6836
20
-75.8863
11
65.8199
21
-76.2608
0
LINE
8
Black
10
65.8199
20
-76.2608
11
65.8199
21
-76.6592
0
LINE
8
Black
10
65.8199
20
-76.6592
11
65.6836
21
-77.0337
0
LINE
8
Black
10
65.6836
20
-77.0337
11
65.4275
21
-77.3389
0
LINE
8
Black
10
65.4275
20
-77.3389
11
65.0824
21
-77.5382
0
LINE
8
Black
10
65.0824
20
-77.5382
11
64.69
21
-77.6074
0
LINE
8
Black
10
64.69
20
-77.6074
11
64.2976
21
-77.5382
0
LINE
8
Black
10
64.2976
20
-77.5382
11
63.9525
21
-77.3389
0
LINE
8
Black
10
63.9525
20
-77.3389
11
63.6964
21
-77.0337
0
LINE
8
Black
10
63.6964
20
-77.0337
11
63.5601
21
-76.6592
0
LINE
8
Black
10
63.5601
20
-76.6592
11
63.5601
21
-76.2608
0
LINE
8
Black
10
63.5601
20
-76.2608
11
63.6964
21
-75.8863
0
LINE
8
Black
10
63.6964
20
-75.8863
11
63.9525
21
-75.5811
0
LINE
8
Black
10
63.9525
20
-75.5811
11
64.2976
21
-75.3818
0
LINE
8
Black
10
64.2976
20
-75.3818
11
64.69
21
-75.3126
0
LINE
8
Black
10
64.69
20
-75.3126
11
65.0824
21
-75.3818
0
LINE
8
Black
10
109.432
20
-72.8418
11
109.778
21
-73.0411
0
LINE
8
Black
10
109.778
20
-73.0411
11
110.034
21
-73.3463
0
LINE
8
Black
10
110.034
20
-73.3463
11
110.17
21
-73.7208
0
LINE
8
Black
10
110.17
20
-73.7208
11
110.17
21
-74.1192
0
LINE
8
Black
10
110.17
20
-74.1192
11
110.034
21
-74.4937
0
LINE
8
Black
10
110.034
20
-74.4937
11
109.778
21
-74.7989
0
LINE
8
Black
10
109.778
20
-74.7989
11
109.432
21
-74.9982
0
LINE
8
Black
10
109.432
20
-74.9982
11
109.04
21
-75.0674
0
LINE
8
Black
10
109.04
20
-75.0674
11
108.648
21
-74.9982
0
LINE
8
Black
10
108.648
20
-74.9982
11
108.302
21
-74.7989
0
LINE
8
Black
10
108.302
20
-74.7989
11
108.046
21
-74.4937
0
LINE
8
Black
10
108.046
20
-74.4937
11
107.91
21
-74.1192
0
LINE
8
Black
10
107.91
20
-74.1192
11
107.91
21
-73.7208
0
LINE
8
Black
10
107.91
20
-73.7208
11
108.046
21
-73.3463
0
LINE
8
Black
10
108.046
20
-73.3463
11
108.302
21
-73.0411
0
LINE
8
Black
10
108.302
20
-73.0411
11
108.648
21
-72.8418
0
LINE
8
Black
10
108.648
20
-72.8418
11
109.04
21
-72.7726
0
LINE
8
Black
10
109.04
20
-72.7726
11
109.432
21
-72.8418
0
LINE
8
Black
10
47.6824
20
-72.8418
11
48.0275
21
-73.0411
0
LINE
8
Black
10
48.0275
20
-73.0411
11
48.2836
21
-73.3463
0
LINE
8
Black
10
48.2836
20
-73.3463
11
48.4199
21
-73.7208
0
LINE
8
Black
10
48.4199
20
-73.7208
11
48.4199
21
-74.1192
0
LINE
8
Black
10
48.4199
20
-74.1192
11
48.2836
21
-74.4937
0
LINE
8
Black
10
48.2836
20
-74.4937
11
48.0275
21
-74.7989
0
LINE
8
Black
10
48.0275
20
-74.7989
11
47.6824
21
-74.9982
0
LINE
8
Black
10
47.6824
20
-74.9982
11
47.29
21
-75.0674
0
LINE
8
Black
10
47.29
20
-75.0674
11
46.8976
21
-74.9982
0
LINE
8
Black
10
46.8976
20
-74.9982
11
46.5525
21
-74.7989
0
LINE
8
Black
10
46.5525
20
-74.7989
11
46.2964
21
-74.4937
0
LINE
8
Black
10
46.2964
20
-74.4937
11
46.1601
21
-74.1192
0
LINE
8
Black
10
46.1601
20
-74.1192
11
46.1601
21
-73.7208
0
LINE
8
Black
10
46.1601
20
-73.7208
11
46.2964
21
-73.3463
0
LINE
8
Black
10
46.2964
20
-73.3463
11
46.5525
21
-73.0411
0
LINE
8
Black
10
46.5525
20
-73.0411
11
46.8976
21
-72.8418
0
LINE
8
Black
10
46.8976
20
-72.8418
11
47.29
21
-72.7726
0
LINE
8
Black
10
47.29
20
-72.7726
11
47.6824
21
-72.8418
0
LINE
8
Black
10
71.4324
20
-72.8418
11
71.7775
21
-73.0411
0
LINE
8
Black
10
71.7775
20
-73.0411
11
72.0336
21
-73.3463
0
LINE
8
Black
10
72.0336
20
-73.3463
11
72.1699
21
-73.7208
0
LINE
8
Black
10
72.1699
20
-73.7208
11
72.1699
21
-74.1192
0
LINE
8
Black
10
72.1699
20
-74.1192
11
72.0336
21
-74.4937
0
LINE
8
Black
10
72.0336
20
-74.4937
11
71.7775
21
-74.7989
0
LINE
8
Black
10
71.7775
20
-74.7989
11
71.4324
21
-74.9982
0
LINE
8
Black
10
71.4324
20
-74.9982
11
71.04
21
-75.0674
0
LINE
8
Black
10
71.04
20
-75.0674
11
70.6476
21
-74.9982
0
LINE
8
Black
10
70.6476
20
-74.9982
11
70.3025
21
-74.7989
0
LINE
8
Black
10
70.3025
20
-74.7989
11
70.0464
21
-74.4937
0
LINE
8
Black
10
70.0464
20
-74.4937
11
69.9101
21
-74.1192
0
LINE
8
Black
10
69.9101
20
-74.1192
11
69.9101
21
-73.7208
0
LINE
8
Black
10
69.9101
20
-73.7208
11
70.0464
21
-73.3463
0
LINE
8
Black
10
70.0464
20
-73.3463
11
70.3025
21
-73.0411
0
LINE
8
Black
10
70.3025
20
-73.0411
11
70.6476
21
-72.8418
0
LINE
8
Black
10
70.6476
20
-72.8418
11
71.04
21
-72.7726
0
LINE
8
Black
10
71.04
20
-72.7726
11
71.4324
21
-72.8418
0
LINE
8
Black
10
90.4324
20
-72.8418
11
90.7775
21
-73.0411
0
LINE
8
Black
10
90.7775
20
-73.0411
11
91.0336
21
-73.3463
0
LINE
8
Black
10
91.0336
20
-73.3463
11
91.1699
21
-73.7208
0
LINE
8
Black
10
91.1699
20
-73.7208
11
91.1699
21
-74.1192
0
LINE
8
Black
10
91.1699
20
-74.1192
11
91.0336
21
-74.4937
0
LINE
8
Black
10
91.0336
20
-74.4937
11
90.7775
21
-74.7989
0
LINE
8
Black
10
90.7775
20
-74.7989
11
90.4324
21
-74.9982
0
LINE
8
Black
10
90.4324
20
-74.9982
11
90.04
21
-75.0674
0
LINE
8
Black
10
90.04
20
-75.0674
11
89.6476
21
-74.9982
0
LINE
8
Black
10
89.6476
20
-74.9982
11
89.3025
21
-74.7989
0
LINE
8
Black
10
89.3025
20
-74.7989
11
89.0464
21
-74.4937
0
LINE
8
Black
10
89.0464
20
-74.4937
11
88.9101
21
-74.1192
0
LINE
8
Black
10
88.9101
20
-74.1192
11
88.9101
21
-73.7208
0
LINE
8
Black
10
88.9101
20
-73.7208
11
89.0464
21
-73.3463
0
LINE
8
Black
10
89.0464
20
-73.3463
11
89.3025
21
-73.0411
0
LINE
8
Black
10
89.3025
20
-73.0411
11
89.6476
21
-72.8418
0
LINE
8
Black
10
89.6476
20
-72.8418
11
90.04
21
-72.7726
0
LINE
8
Black
10
90.04
20
-72.7726
11
90.4324
21
-72.8418
0
LINE
8
Black
10
128.432
20
-72.8418
11
128.778
21
-73.0411
0
LINE
8
Black
10
128.778
20
-73.0411
11
129.034
21
-73.3463
0
LINE
8
Black
10
129.034
20
-73.3463
11
129.17
21
-73.7208
0
LINE
8
Black
10
129.17
20
-73.7208
11
129.17
21
-74.1192
0
LINE
8
Black
10
129.17
20
-74.1192
11
129.034
21
-74.4937
0
LINE
8
Black
10
129.034
20
-74.4937
11
128.778
21
-74.7989
0
LINE
8
Black
10
128.778
20
-74.7989
11
128.432
21
-74.9982
0
LINE
8
Black
10
128.432
20
-74.9982
11
128.04
21
-75.0674
0
LINE
8
Black
10
128.04
20
-75.0674
11
127.648
21
-74.9982
0
LINE
8
Black
10
127.648
20
-74.9982
11
127.302
21
-74.7989
0
LINE
8
Black
10
127.302
20
-74.7989
11
127.046
21
-74.4937
0
LINE
8
Black
10
127.046
20
-74.4937
11
126.91
21
-74.1192
0
LINE
8
Black
10
126.91
20
-74.1192
11
126.91
21
-73.7208
0
LINE
8
Black
10
126.91
20
-73.7208
11
127.046
21
-73.3463
0
LINE
8
Black
10
127.046
20
-73.3463
11
127.302
21
-73.0411
0
LINE
8
Black
10
127.302
20
-73.0411
11
127.648
21
-72.8418
0
LINE
8
Black
10
127.648
20
-72.8418
11
128.04
21
-72.7726
0
LINE
8
Black
10
128.04
20
-72.7726
11
128.432
21
-72.8418
0
LINE
8
Black
10
147.432
20
-72.8418
11
147.778
21
-73.0411
0
LINE
8
Black
10
147.778
20
-73.0411
11
148.034
21
-73.3463
0
LINE
8
Black
10
148.034
20
-73.3463
11
148.17
21
-73.7208
0
LINE
8
Black
10
148.17
20
-73.7208
11
148.17
21
-74.1192
0
LINE
8
Black
10
148.17
20
-74.1192
11
148.034
21
-74.4937
0
LINE
8
Black
10
148.034
20
-74.4937
11
147.778
21
-74.7989
0
LINE
8
Black
10
147.778
20
-74.7989
11
147.432
21
-74.9982
0
LINE
8
Black
10
147.432
20
-74.9982
11
147.04
21
-75.0674
0
LINE
8
Black
10
147.04
20
-75.0674
11
146.648
21
-74.9982
0
LINE
8
Black
10
146.648
20
-74.9982
11
146.302
21
-74.7989
0
LINE
8
Black
10
146.302
20
-74.7989
11
146.046
21
-74.4937
0
LINE
8
Black
10
146.046
20
-74.4937
11
145.91
21
-74.1192
0
LINE
8
Black
10
145.91
20
-74.1192
11
145.91
21
-73.7208
0
LINE
8
Black
10
145.91
20
-73.7208
11
146.046
21
-73.3463
0
LINE
8
Black
10
146.046
20
-73.3463
11
146.302
21
-73.0411
0
LINE
8
Black
10
146.302
20
-73.0411
11
146.648
21
-72.8418
0
LINE
8
Black
10
146.648
20
-72.8418
11
147.04
21
-72.7726
0
LINE
8
Black
10
147.04
20
-72.7726
11
147.432
21
-72.8418
0
LINE
8
Black
10
38.5008
20
-67.9493
11
39.0292
21
-68.2543
0
LINE
8
Black
10
39.0292
20
-68.2543
11
39.4213
21
-68.7217
0
LINE
8
Black
10
39.4213
20
-68.7217
11
39.63
21
-69.295
0
LINE
8
Black
10
39.63
20
-69.295
11
39.63
21
-69.905
0
LINE
8
Black
10
39.63
20
-69.905
11
39.4213
21
-70.4783
0
LINE
8
Black
10
39.4213
20
-70.4783
11
39.0292
21
-70.9457
0
LINE
8
Black
10
39.0292
20
-70.9457
11
38.5008
21
-71.2507
0
LINE
8
Black
10
38.5008
20
-71.2507
11
37.9
21
-71.3567
0
LINE
8
Black
10
37.9
20
-71.3567
11
37.2992
21
-71.2507
0
LINE
8
Black
10
37.2992
20
-71.2507
11
36.7708
21
-70.9457
0
LINE
8
Black
10
36.7708
20
-70.9457
11
36.3787
21
-70.4783
0
LINE
8
Black
10
36.3787
20
-70.4783
11
36.17
21
-69.905
0
LINE
8
Black
10
36.17
20
-69.905
11
36.17
21
-69.295
0
LINE
8
Black
10
36.17
20
-69.295
11
36.3787
21
-68.7217
0
LINE
8
Black
10
36.3787
20
-68.7217
11
36.7708
21
-68.2543
0
LINE
8
Black
10
36.7708
20
-68.2543
11
37.2992
21
-67.9493
0
LINE
8
Black
10
37.2992
20
-67.9493
11
37.9
21
-67.8433
0
LINE
8
Black
10
37.9
20
-67.8433
11
38.5008
21
-67.9493
0
LINE
8
Black
10
82.8008
20
-67.9493
11
83.3292
21
-68.2543
0
LINE
8
Black
10
83.3292
20
-68.2543
11
83.7213
21
-68.7217
0
LINE
8
Black
10
83.7213
20
-68.7217
11
83.93
21
-69.295
0
LINE
8
Black
10
83.93
20
-69.295
11
83.93
21
-69.905
0
LINE
8
Black
10
83.93
20
-69.905
11
83.7213
21
-70.4783
0
LINE
8
Black
10
83.7213
20
-70.4783
11
83.3292
21
-70.9457
0
LINE
8
Black
10
83.3292
20
-70.9457
11
82.8008
21
-71.2507
0
LINE
8
Black
10
82.8008
20
-71.2507
11
82.2
21
-71.3567
0
LINE
8
Black
10
82.2
20
-71.3567
11
81.5992
21
-71.2507
0
LINE
8
Black
10
81.5992
20
-71.2507
11
81.0708
21
-70.9457
0
LINE
8
Black
10
81.0708
20
-70.9457
11
80.6787
21
-70.4783
0
LINE
8
Black
10
80.6787
20
-70.4783
11
80.47
21
-69.905
0
LINE
8
Black
10
80.47
20
-69.905
11
80.47
21
-69.295
0
LINE
8
Black
10
80.47
20
-69.295
11
80.6787
21
-68.7217
0
LINE
8
Black
10
80.6787
20
-68.7217
11
81.0708
21
-68.2543
0
LINE
8
Black
10
81.0708
20
-68.2543
11
81.5992
21
-67.9493
0
LINE
8
Black
10
81.5992
20
-67.9493
11
82.2
21
-67.8433
0
LINE
8
Black
10
82.2
20
-67.8433
11
82.8008
21
-67.9493
0
LINE
8
Black
10
122.501
20
-67.9493
11
123.029
21
-68.2543
0
LINE
8
Black
10
123.029
20
-68.2543
11
123.421
21
-68.7217
0
LINE
8
Black
10
123.421
20
-68.7217
11
123.63
21
-69.295
0
LINE
8
Black
10
123.63
20
-69.295
11
123.63
21
-69.905
0
LINE
8
Black
10
123.63
20
-69.905
11
123.421
21
-70.4783
0
LINE
8
Black
10
123.421
20
-70.4783
11
123.029
21
-70.9457
0
LINE
8
Black
10
123.029
20
-70.9457
11
122.501
21
-71.2507
0
LINE
8
Black
10
122.501
20
-71.2507
11
121.9
21
-71.3567
0
LINE
8
Black
10
121.9
20
-71.3567
11
121.299
21
-71.2507
0
LINE
8
Black
10
121.299
20
-71.2507
11
120.771
21
-70.9457
0
LINE
8
Black
10
120.771
20
-70.9457
11
120.379
21
-70.4783
0
LINE
8
Black
10
120.379
20
-70.4783
11
120.17
21
-69.905
0
LINE
8
Black
10
120.17
20
-69.905
11
120.17
21
-69.295
0
LINE
8
Black
10
120.17
20
-69.295
11
120.379
21
-68.7217
0
LINE
8
Black
10
120.379
20
-68.7217
11
120.771
21
-68.2543
0
LINE
8
Black
10
120.771
20
-68.2543
11
121.299
21
-67.9493
0
LINE
8
Black
10
121.299
20
-67.9493
11
121.9
21
-67.8433
0
LINE
8
Black
10
121.9
20
-67.8433
11
122.501
21
-67.9493
0
LINE
8
Black
10
157.101
20
-67.9493
11
157.629
21
-68.2543
0
LINE
8
Black
10
157.629
20
-68.2543
11
158.021
21
-68.7217
0
LINE
8
Black
10
158.021
20
-68.7217
11
158.23
21
-69.295
0
LINE
8
Black
10
158.23
20
-69.295
11
158.23
21
-69.905
0
LINE
8
Black
10
158.23
20
-69.905
11
158.021
21
-70.4783
0
LINE
8
Black
10
158.021
20
-70.4783
11
157.629
21
-70.9457
0
LINE
8
Black
10
157.629
20
-70.9457
11
157.101
21
-71.2507
0
LINE
8
Black
10
157.101
20
-71.2507
11
156.5
21
-71.3567
0
LINE
8
Black
10
156.5
20
-71.3567
11
155.899
21
-71.2507
0
LINE
8
Black
10
155.899
20
-71.2507
11
155.371
21
-70.9457
0
LINE
8
Black
10
155.371
20
-70.9457
11
154.979
21
-70.4783
0
LINE
8
Black
10
154.979
20
-70.4783
11
154.77
21
-69.905
0
LINE
8
Black
10
154.77
20
-69.905
11
154.77
21
-69.295
0
LINE
8
Black
10
154.77
20
-69.295
11
154.979
21
-68.7217
0
LINE
8
Black
10
154.979
20
-68.7217
11
155.371
21
-68.2543
0
LINE
8
Black
10
155.371
20
-68.2543
11
155.899
21
-67.9493
0
LINE
8
Black
10
155.899
20
-67.9493
11
156.5
21
-67.8433
0
LINE
8
Black
10
156.5
20
-67.8433
11
157.101
21
-67.9493
0
LINE
8
Black
10
55.5824
20
-56.3818
11
55.9275
21
-56.5811
0
LINE
8
Black
10
55.9275
20
-56.5811
11
56.1836
21
-56.8863
0
LINE
8
Black
10
56.1836
20
-56.8863
11
56.3199
21
-57.2608
0
LINE
8
Black
10
56.3199
20
-57.2608
11
56.3199
21
-57.6592
0
LINE
8
Black
10
56.3199
20
-57.6592
11
56.1836
21
-58.0337
0
LINE
8
Black
10
56.1836
20
-58.0337
11
55.9275
21
-58.3389
0
LINE
8
Black
10
55.9275
20
-58.3389
11
55.5824
21
-58.5382
0
LINE
8
Black
10
55.5824
20
-58.5382
11
55.19
21
-58.6074
0
LINE
8
Black
10
55.19
20
-58.6074
11
54.7976
21
-58.5382
0
LINE
8
Black
10
54.7976
20
-58.5382
11
54.4525
21
-58.3389
0
LINE
8
Black
10
54.4525
20
-58.3389
11
54.1964
21
-58.0337
0
LINE
8
Black
10
54.1964
20
-58.0337
11
54.0601
21
-57.6592
0
LINE
8
Black
10
54.0601
20
-57.6592
11
54.0601
21
-57.2608
0
LINE
8
Black
10
54.0601
20
-57.2608
11
54.1964
21
-56.8863
0
LINE
8
Black
10
54.1964
20
-56.8863
11
54.4525
21
-56.5811
0
LINE
8
Black
10
54.4525
20
-56.5811
11
54.7976
21
-56.3818
0
LINE
8
Black
10
54.7976
20
-56.3818
11
55.19
21
-56.3126
0
LINE
8
Black
10
55.19
20
-56.3126
11
55.5824
21
-56.3818
0
LINE
8
Black
10
36.5824
20
-56.3818
11
36.9275
21
-56.5811
0
LINE
8
Black
10
36.9275
20
-56.5811
11
37.1836
21
-56.8863
0
LINE
8
Black
10
37.1836
20
-56.8863
11
37.3199
21
-57.2608
0
LINE
8
Black
10
37.3199
20
-57.2608
11
37.3199
21
-57.6592
0
LINE
8
Black
10
37.3199
20
-57.6592
11
37.1836
21
-58.0337
0
LINE
8
Black
10
37.1836
20
-58.0337
11
36.9275
21
-58.3389
0
LINE
8
Black
10
36.9275
20
-58.3389
11
36.5824
21
-58.5382
0
LINE
8
Black
10
36.5824
20
-58.5382
11
36.19
21
-58.6074
0
LINE
8
Black
10
36.19
20
-58.6074
11
35.7976
21
-58.5382
0
LINE
8
Black
10
35.7976
20
-58.5382
11
35.4525
21
-58.3389
0
LINE
8
Black
10
35.4525
20
-58.3389
11
35.1964
21
-58.0337
0
LINE
8
Black
10
35.1964
20
-58.0337
11
35.0601
21
-57.6592
0
LINE
8
Black
10
35.0601
20
-57.6592
11
35.0601
21
-57.2608
0
LINE
8
Black
10
35.0601
20
-57.2608
11
35.1964
21
-56.8863
0
LINE
8
Black
10
35.1964
20
-56.8863
11
35.4525
21
-56.5811
0
LINE
8
Black
10
35.4525
20
-56.5811
11
35.7976
21
-56.3818
0
LINE
8
Black
10
35.7976
20
-56.3818
11
36.19
21
-56.3126
0
LINE
8
Black
10
36.19
20
-56.3126
11
36.5824
21
-56.3818
0
LINE
8
Black
10
150.582
20
-56.3818
11
150.928
21
-56.5811
0
LINE
8
Black
10
150.928
20
-56.5811
11
151.184
21
-56.8863
0
LINE
8
Black
10
151.184
20
-56.8863
11
151.32
21
-57.2608
0
LINE
8
Black
10
151.32
20
-57.2608
11
151.32
21
-57.6592
0
LINE
8
Black
10
151.32
20
-57.6592
11
151.184
21
-58.0337
0
LINE
8
Black
10
151.184
20
-58.0337
11
150.928
21
-58.3389
0
LINE
8
Black
10
150.928
20
-58.3389
11
150.582
21
-58.5382
0
LINE
8
Black
10
150.582
20
-58.5382
11
150.19
21
-58.6074
0
LINE
8
Black
10
150.19
20
-58.6074
11
149.798
21
-58.5382
0
LINE
8
Black
10
149.798
20
-58.5382
11
149.452
21
-58.3389
0
LINE
8
Black
10
149.452
20
-58.3389
11
149.196
21
-58.0337
0
LINE
8
Black
10
149.196
20
-58.0337
11
149.06
21
-57.6592
0
LINE
8
Black
10
149.06
20
-57.6592
11
149.06
21
-57.2608
0
LINE
8
Black
10
149.06
20
-57.2608
11
149.196
21
-56.8863
0
LINE
8
Black
10
149.196
20
-56.8863
11
149.452
21
-56.5811
0
LINE
8
Black
10
149.452
20
-56.5811
11
149.798
21
-56.3818
0
LINE
8
Black
10
149.798
20
-56.3818
11
150.19
21
-56.3126
0
LINE
8
Black
10
150.19
20
-56.3126
11
150.582
21
-56.3818
0
LINE
8
Black
10
131.582
20
-56.3818
11
131.928
21
-56.5811
0
LINE
8
Black
10
131.928
20
-56.5811
11
132.184
21
-56.8863
0
LINE
8
Black
10
132.184
20
-56.8863
11
132.32
21
-57.2608
0
LINE
8
Black
10
132.32
20
-57.2608
11
132.32
21
-57.6592
0
LINE
8
Black
10
132.32
20
-57.6592
11
132.184
21
-58.0337
0
LINE
8
Black
10
132.184
20
-58.0337
11
131.928
21
-58.3389
0
LINE
8
Black
10
131.928
20
-58.3389
11
131.582
21
-58.5382
0
LINE
8
Black
10
131.582
20
-58.5382
11
131.19
21
-58.6074
0
LINE
8
Black
10
131.19
20
-58.6074
11
130.798
21
-58.5382
0
LINE
8
Black
10
130.798
20
-58.5382
11
130.452
21
-58.3389
0
LINE
8
Black
10
130.452
20
-58.3389
11
130.196
21
-58.0337
0
LINE
8
Black
10
130.196
20
-58.0337
11
130.06
21
-57.6592
0
LINE
8
Black
10
130.06
20
-57.6592
11
130.06
21
-57.2608
0
LINE
8
Black
10
130.06
20
-57.2608
11
130.196
21
-56.8863
0
LINE
8
Black
10
130.196
20
-56.8863
11
130.452
21
-56.5811
0
LINE
8
Black
10
130.452
20
-56.5811
11
130.798
21
-56.3818
0
LINE
8
Black
10
130.798
20
-56.3818
11
131.19
21
-56.3126
0
LINE
8
Black
10
131.19
20
-56.3126
11
131.582
21
-56.3818
0
LINE
8
Black
10
112.582
20
-56.3818
11
112.928
21
-56.5811
0
LINE
8
Black
10
112.928
20
-56.5811
11
113.184
21
-56.8863
0
LINE
8
Black
10
113.184
20
-56.8863
11
113.32
21
-57.2608
0
LINE
8
Black
10
113.32
20
-57.2608
11
113.32
21
-57.6592
0
LINE
8
Black
10
113.32
20
-57.6592
11
113.184
21
-58.0337
0
LINE
8
Black
10
113.184
20
-58.0337
11
112.928
21
-58.3389
0
LINE
8
Black
10
112.928
20
-58.3389
11
112.582
21
-58.5382
0
LINE
8
Black
10
112.582
20
-58.5382
11
112.19
21
-58.6074
0
LINE
8
Black
10
112.19
20
-58.6074
11
111.798
21
-58.5382
0
LINE
8
Black
10
111.798
20
-58.5382
11
111.452
21
-58.3389
0
LINE
8
Black
10
111.452
20
-58.3389
11
111.196
21
-58.0337
0
LINE
8
Black
10
111.196
20
-58.0337
11
111.06
21
-57.6592
0
LINE
8
Black
10
111.06
20
-57.6592
11
111.06
21
-57.2608
0
LINE
8
Black
10
111.06
20
-57.2608
11
111.196
21
-56.8863
0
LINE
8
Black
10
111.196
20
-56.8863
11
111.452
21
-56.5811
0
LINE
8
Black
10
111.452
20
-56.5811
11
111.798
21
-56.3818
0
LINE
8
Black
10
111.798
20
-56.3818
11
112.19
21
-56.3126
0
LINE
8
Black
10
112.19
20
-56.3126
11
112.582
21
-56.3818
0
LINE
8
Black
10
74.5824
20
-56.3818
11
74.9275
21
-56.5811
0
LINE
8
Black
10
74.9275
20
-56.5811
11
75.1836
21
-56.8863
0
LINE
8
Black
10
75.1836
20
-56.8863
11
75.3199
21
-57.2608
0
LINE
8
Black
10
75.3199
20
-57.2608
11
75.3199
21
-57.6592
0
LINE
8
Black
10
75.3199
20
-57.6592
11
75.1836
21
-58.0337
0
LINE
8
Black
10
75.1836
20
-58.0337
11
74.9275
21
-58.3389
0
LINE
8
Black
10
74.9275
20
-58.3389
11
74.5824
21
-58.5382
0
LINE
8
Black
10
74.5824
20
-58.5382
11
74.19
21
-58.6074
0
LINE
8
Black
10
74.19
20
-58.6074
11
73.7976
21
-58.5382
0
LINE
8
Black
10
73.7976
20
-58.5382
11
73.4525
21
-58.3389
0
LINE
8
Black
10
73.4525
20
-58.3389
11
73.1964
21
-58.0337
0
LINE
8
Black
10
73.1964
20
-58.0337
11
73.0601
21
-57.6592
0
LINE
8
Black
10
73.0601
20
-57.6592
11
73.0601
21
-57.2608
0
LINE
8
Black
10
73.0601
20
-57.2608
11
73.1964
21
-56.8863
0
LINE
8
Black
10
73.1964
20
-56.8863
11
73.4525
21
-56.5811
0
LINE
8
Black
10
73.4525
20
-56.5811
11
73.7976
21
-56.3818
0
LINE
8
Black
10
73.7976
20
-56.3818
11
74.19
21
-56.3126
0
LINE
8
Black
10
74.19
20
-56.3126
11
74.5824
21
-56.3818
0
LINE
8
Black
10
93.5824
20
-56.3818
11
93.9275
21
-56.5811
0
LINE
8
Black
10
93.9275
20
-56.5811
11
94.1836
21
-56.8863
0
LINE
8
Black
10
94.1836
20
-56.8863
11
94.3199
21
-57.2608
0
LINE
8
Black
10
94.3199
20
-57.2608
11
94.3199
21
-57.6592
0
LINE
8
Black
10
94.3199
20
-57.6592
11
94.1836
21
-58.0337
0
LINE
8
Black
10
94.1836
20
-58.0337
11
93.9275
21
-58.3389
0
LINE
8
Black
10
93.9275
20
-58.3389
11
93.5824
21
-58.5382
0
LINE
8
Black
10
93.5824
20
-58.5382
11
93.19
21
-58.6074
0
LINE
8
Black
10
93.19
20
-58.6074
11
92.7976
21
-58.5382
0
LINE
8
Black
10
92.7976
20
-58.5382
11
92.4525
21
-58.3389
0
LINE
8
Black
10
92.4525
20
-58.3389
11
92.1964
21
-58.0337
0
LINE
8
Black
10
92.1964
20
-58.0337
11
92.0601
21
-57.6592
0
LINE
8
Black
10
92.0601
20
-57.6592
11
92.0601
21
-57.2608
0
LINE
8
Black
10
92.0601
20
-57.2608
11
92.1964
21
-56.8863
0
LINE
8
Black
10
92.1964
20
-56.8863
11
92.4525
21
-56.5811
0
LINE
8
Black
10
92.4525
20
-56.5811
11
92.7976
21
-56.3818
0
LINE
8
Black
10
92.7976
20
-56.3818
11
93.19
21
-56.3126
0
LINE
8
Black
10
93.19
20
-56.3126
11
93.5824
21
-56.3818
0
LINE
8
Black
10
42.9324
20
-53.8418
11
43.2775
21
-54.0411
0
LINE
8
Black
10
43.2775
20
-54.0411
11
43.5336
21
-54.3463
0
LINE
8
Black
10
43.5336
20
-54.3463
11
43.6699
21
-54.7208
0
LINE
8
Black
10
43.6699
20
-54.7208
11
43.6699
21
-55.1192
0
LINE
8
Black
10
43.6699
20
-55.1192
11
43.5336
21
-55.4937
0
LINE
8
Black
10
43.5336
20
-55.4937
11
43.2775
21
-55.7989
0
LINE
8
Black
10
43.2775
20
-55.7989
11
42.9324
21
-55.9982
0
LINE
8
Black
10
42.9324
20
-55.9982
11
42.54
21
-56.0674
0
LINE
8
Black
10
42.54
20
-56.0674
11
42.1476
21
-55.9982
0
LINE
8
Black
10
42.1476
20
-55.9982
11
41.8025
21
-55.7989
0
LINE
8
Black
10
41.8025
20
-55.7989
11
41.5464
21
-55.4937
0
LINE
8
Black
10
41.5464
20
-55.4937
11
41.4101
21
-55.1192
0
LINE
8
Black
10
41.4101
20
-55.1192
11
41.4101
21
-54.7208
0
LINE
8
Black
10
41.4101
20
-54.7208
11
41.5464
21
-54.3463
0
LINE
8
Black
10
41.5464
20
-54.3463
11
41.8025
21
-54.0411
0
LINE
8
Black
10
41.8025
20
-54.0411
11
42.1476
21
-53.8418
0
LINE
8
Black
10
42.1476
20
-53.8418
11
42.54
21
-53.7726
0
LINE
8
Black
10
42.54
20
-53.7726
11
42.9324
21
-53.8418
0
LINE
8
Black
10
61.9324
20
-53.8418
11
62.2775
21
-54.0411
0
LINE
8
Black
10
62.2775
20
-54.0411
11
62.5336
21
-54.3463
0
LINE
8
Black
10
62.5336
20
-54.3463
11
62.6699
21
-54.7208
0
LINE
8
Black
10
62.6699
20
-54.7208
11
62.6699
21
-55.1192
0
LINE
8
Black
10
62.6699
20
-55.1192
11
62.5336
21
-55.4937
0
LINE
8
Black
10
62.5336
20
-55.4937
11
62.2775
21
-55.7989
0
LINE
8
Black
10
62.2775
20
-55.7989
11
61.9324
21
-55.9982
0
LINE
8
Black
10
61.9324
20
-55.9982
11
61.54
21
-56.0674
0
LINE
8
Black
10
61.54
20
-56.0674
11
61.1476
21
-55.9982
0
LINE
8
Black
10
61.1476
20
-55.9982
11
60.8025
21
-55.7989
0
LINE
8
Black
10
60.8025
20
-55.7989
11
60.5464
21
-55.4937
0
LINE
8
Black
10
60.5464
20
-55.4937
11
60.4101
21
-55.1192
0
LINE
8
Black
10
60.4101
20
-55.1192
11
60.4101
21
-54.7208
0
LINE
8
Black
10
60.4101
20
-54.7208
11
60.5464
21
-54.3463
0
LINE
8
Black
10
60.5464
20
-54.3463
11
60.8025
21
-54.0411
0
LINE
8
Black
10
60.8025
20
-54.0411
11
61.1476
21
-53.8418
0
LINE
8
Black
10
61.1476
20
-53.8418
11
61.54
21
-53.7726
0
LINE
8
Black
10
61.54
20
-53.7726
11
61.9324
21
-53.8418
0
LINE
8
Black
10
80.9324
20
-53.8418
11
81.2775
21
-54.0411
0
LINE
8
Black
10
81.2775
20
-54.0411
11
81.5336
21
-54.3463
0
LINE
8
Black
10
81.5336
20
-54.3463
11
81.6699
21
-54.7208
0
LINE
8
Black
10
81.6699
20
-54.7208
11
81.6699
21
-55.1192
0
LINE
8
Black
10
81.6699
20
-55.1192
11
81.5336
21
-55.4937
0
LINE
8
Black
10
81.5336
20
-55.4937
11
81.2775
21
-55.7989
0
LINE
8
Black
10
81.2775
20
-55.7989
11
80.9324
21
-55.9982
0
LINE
8
Black
10
80.9324
20
-55.9982
11
80.54
21
-56.0674
0
LINE
8
Black
10
80.54
20
-56.0674
11
80.1476
21
-55.9982
0
LINE
8
Black
10
80.1476
20
-55.9982
11
79.8025
21
-55.7989
0
LINE
8
Black
10
79.8025
20
-55.7989
11
79.5464
21
-55.4937
0
LINE
8
Black
10
79.5464
20
-55.4937
11
79.4101
21
-55.1192
0
LINE
8
Black
10
79.4101
20
-55.1192
11
79.4101
21
-54.7208
0
LINE
8
Black
10
79.4101
20
-54.7208
11
79.5464
21
-54.3463
0
LINE
8
Black
10
79.5464
20
-54.3463
11
79.8025
21
-54.0411
0
LINE
8
Black
10
79.8025
20
-54.0411
11
80.1476
21
-53.8418
0
LINE
8
Black
10
80.1476
20
-53.8418
11
80.54
21
-53.7726
0
LINE
8
Black
10
80.54
20
-53.7726
11
80.9324
21
-53.8418
0
LINE
8
Black
10
99.9324
20
-53.8418
11
100.278
21
-54.0411
0
LINE
8
Black
10
100.278
20
-54.0411
11
100.534
21
-54.3463
0
LINE
8
Black
10
100.534
20
-54.3463
11
100.67
21
-54.7208
0
LINE
8
Black
10
100.67
20
-54.7208
11
100.67
21
-55.1192
0
LINE
8
Black
10
100.67
20
-55.1192
11
100.534
21
-55.4937
0
LINE
8
Black
10
100.534
20
-55.4937
11
100.278
21
-55.7989
0
LINE
8
Black
10
100.278
20
-55.7989
11
99.9324
21
-55.9982
0
LINE
8
Black
10
99.9324
20
-55.9982
11
99.54
21
-56.0674
0
LINE
8
Black
10
99.54
20
-56.0674
11
99.1476
21
-55.9982
0
LINE
8
Black
10
99.1476
20
-55.9982
11
98.8025
21
-55.7989
0
LINE
8
Black
10
98.8025
20
-55.7989
11
98.5464
21
-55.4937
0
LINE
8
Black
10
98.5464
20
-55.4937
11
98.4101
21
-55.1192
0
LINE
8
Black
10
98.4101
20
-55.1192
11
98.4101
21
-54.7208
0
LINE
8
Black
10
98.4101
20
-54.7208
11
98.5464
21
-54.3463
0
LINE
8
Black
10
98.5464
20
-54.3463
11
98.8025
21
-54.0411
0
LINE
8
Black
10
98.8025
20
-54.0411
11
99.1476
21
-53.8418
0
LINE
8
Black
10
99.1476
20
-53.8418
11
99.54
21
-53.7726
0
LINE
8
Black
10
99.54
20
-53.7726
11
99.9324
21
-53.8418
0
LINE
8
Black
10
118.932
20
-53.8418
11
119.278
21
-54.0411
0
LINE
8
Black
10
119.278
20
-54.0411
11
119.534
21
-54.3463
0
LINE
8
Black
10
119.534
20
-54.3463
11
119.67
21
-54.7208
0
LINE
8
Black
10
119.67
20
-54.7208
11
119.67
21
-55.1192
0
LINE
8
Black
10
119.67
20
-55.1192
11
119.534
21
-55.4937
0
LINE
8
Black
10
119.534
20
-55.4937
11
119.278
21
-55.7989
0
LINE
8
Black
10
119.278
20
-55.7989
11
118.932
21
-55.9982
0
LINE
8
Black
10
118.932
20
-55.9982
11
118.54
21
-56.0674
0
LINE
8
Black
10
118.54
20
-56.0674
11
118.148
21
-55.9982
0
LINE
8
Black
10
118.148
20
-55.9982
11
117.802
21
-55.7989
0
LINE
8
Black
10
117.802
20
-55.7989
11
117.546
21
-55.4937
0
LINE
8
Black
10
117.546
20
-55.4937
11
117.41
21
-55.1192
0
LINE
8
Black
10
117.41
20
-55.1192
11
117.41
21
-54.7208
0
LINE
8
Black
10
117.41
20
-54.7208
11
117.546
21
-54.3463
0
LINE
8
Black
10
117.546
20
-54.3463
11
117.802
21
-54.0411
0
LINE
8
Black
10
117.802
20
-54.0411
11
118.148
21
-53.8418
0
LINE
8
Black
10
118.148
20
-53.8418
11
118.54
21
-53.7726
0
LINE
8
Black
10
118.54
20
-53.7726
11
118.932
21
-53.8418
0
LINE
8
Black
10
137.932
20
-53.8418
11
138.278
21
-54.0411
0
LINE
8
Black
10
138.278
20
-54.0411
11
138.534
21
-54.3463
0
LINE
8
Black
10
138.534
20
-54.3463
11
138.67
21
-54.7208
0
LINE
8
Black
10
138.67
20
-54.7208
11
138.67
21
-55.1192
0
LINE
8
Black
10
138.67
20
-55.1192
11
138.534
21
-55.4937
0
LINE
8
Black
10
138.534
20
-55.4937
11
138.278
21
-55.7989
0
LINE
8
Black
10
138.278
20
-55.7989
11
137.932
21
-55.9982
0
LINE
8
Black
10
137.932
20
-55.9982
11
137.54
21
-56.0674
0
LINE
8
Black
10
137.54
20
-56.0674
11
137.148
21
-55.9982
0
LINE
8
Black
10
137.148
20
-55.9982
11
136.802
21
-55.7989
0
LINE
8
Black
10
136.802
20
-55.7989
11
136.546
21
-55.4937
0
LINE
8
Black
10
136.546
20
-55.4937
11
136.41
21
-55.1192
0
LINE
8
Black
10
136.41
20
-55.1192
11
136.41
21
-54.7208
0
LINE
8
Black
10
136.41
20
-54.7208
11
136.546
21
-54.3463
0
LINE
8
Black
10
136.546
20
-54.3463
11
136.802
21
-54.0411
0
LINE
8
Black
10
136.802
20
-54.0411
11
137.148
21
-53.8418
0
LINE
8
Black
10
137.148
20
-53.8418
11
137.54
21
-53.7726
0
LINE
8
Black
10
137.54
20
-53.7726
11
137.932
21
-53.8418
0
LINE
8
Black
10
156.932
20
-53.8418
11
157.278
21
-54.0411
0
LINE
8
Black
10
157.278
20
-54.0411
11
157.534
21
-54.3463
0
LINE
8
Black
10
157.534
20
-54.3463
11
157.67
21
-54.7208
0
LINE
8
Black
10
157.67
20
-54.7208
11
157.67
21
-55.1192
0
LINE
8
Black
10
157.67
20
-55.1192
11
157.534
21
-55.4937
0
LINE
8
Black
10
157.534
20
-55.4937
11
157.278
21
-55.7989
0
LINE
8
Black
10
157.278
20
-55.7989
11
156.932
21
-55.9982
0
LINE
8
Black
10
156.932
20
-55.9982
11
156.54
21
-56.0674
0
LINE
8
Black
10
156.54
20
-56.0674
11
156.148
21
-55.9982
0
LINE
8
Black
10
156.148
20
-55.9982
11
155.802
21
-55.7989
0
LINE
8
Black
10
155.802
20
-55.7989
11
155.546
21
-55.4937
0
LINE
8
Black
10
155.546
20
-55.4937
11
155.41
21
-55.1192
0
LINE
8
Black
10
155.41
20
-55.1192
11
155.41
21
-54.7208
0
LINE
8
Black
10
155.41
20
-54.7208
11
155.546
21
-54.3463
0
LINE
8
Black
10
155.546
20
-54.3463
11
155.802
21
-54.0411
0
LINE
8
Black
10
155.802
20
-54.0411
11
156.148
21
-53.8418
0
LINE
8
Black
10
156.148
20
-53.8418
11
156.54
21
-53.7726
0
LINE
8
Black
10
156.54
20
-53.7726
11
156.932
21
-53.8418
0
LINE
8
Black
10
108.701
20
-33.9493
11
109.229
21
-34.2543
0
LINE
8
Black
10
109.229
20
-34.2543
11
109.621
21
-34.7217
0
LINE
8
Black
10
109.621
20
-34.7217
11
109.83
21
-35.295
0
LINE
8
Black
10
109.83
20
-35.295
11
109.83
21
-35.905
0
LINE
8
Black
10
109.83
20
-35.905
11
109.621
21
-36.4783
0
LINE
8
Black
10
109.621
20
-36.4783
11
109.229
21
-36.9457
0
LINE
8
Black
10
109.229
20
-36.9457
11
108.701
21
-37.2507
0
LINE
8
Black
10
108.701
20
-37.2507
11
108.1
21
-37.3567
0
LINE
8
Black
10
108.1
20
-37.3567
11
107.499
21
-37.2507
0
LINE
8
Black
10
107.499
20
-37.2507
11
106.971
21
-36.9457
0
LINE
8
Black
10
106.971
20
-36.9457
11
106.579
21
-36.4783
0
LINE
8
Black
10
106.579
20
-36.4783
11
106.37
21
-35.905
0
LINE
8
Black
10
106.37
20
-35.905
11
106.37
21
-35.295
0
LINE
8
Black
10
106.37
20
-35.295
11
106.579
21
-34.7217
0
LINE
8
Black
10
106.579
20
-34.7217
11
106.971
21
-34.2543
0
LINE
8
Black
10
106.971
20
-34.2543
11
107.499
21
-33.9493
0
LINE
8
Black
10
107.499
20
-33.9493
11
108.1
21
-33.8433
0
LINE
8
Black
10
108.1
20
-33.8433
11
108.701
21
-33.9493
0
LINE
8
Black
10
32.6008
20
-30.3493
11
33.1292
21
-30.6543
0
LINE
8
Black
10
33.1292
20
-30.6543
11
33.5213
21
-31.1217
0
LINE
8
Black
10
33.5213
20
-31.1217
11
33.73
21
-31.695
0
LINE
8
Black
10
33.73
20
-31.695
11
33.73
21
-32.305
0
LINE
8
Black
10
33.73
20
-32.305
11
33.5213
21
-32.8783
0
LINE
8
Black
10
33.5213
20
-32.8783
11
33.1292
21
-33.3457
0
LINE
8
Black
10
33.1292
20
-33.3457
11
32.6008
21
-33.6507
0
LINE
8
Black
10
32.6008
20
-33.6507
11
32
21
-33.7567
0
LINE
8
Black
10
32
20
-33.7567
11
31.3992
21
-33.6507
0
LINE
8
Black
10
31.3992
20
-33.6507
11
30.8708
21
-33.3457
0
LINE
8
Black
10
30.8708
20
-33.3457
11
30.4787
21
-32.8783
0
LINE
8
Black
10
30.4787
20
-32.8783
11
30.27
21
-32.305
0
LINE
8
Black
10
30.27
20
-32.305
11
30.27
21
-31.695
0
LINE
8
Black
10
30.27
20
-31.695
11
30.4787
21
-31.1217
0
LINE
8
Black
10
30.4787
20
-31.1217
11
30.8708
21
-30.6543
0
LINE
8
Black
10
30.8708
20
-30.6543
11
31.3992
21
-30.3493
0
LINE
8
Black
10
31.3992
20
-30.3493
11
32
21
-30.2433
0
LINE
8
Black
10
32
20
-30.2433
11
32.6008
21
-30.3493
0
LINE
8
Black
10
91.2008
20
-30.3493
11
91.7292
21
-30.6543
0
LINE
8
Black
10
91.7292
20
-30.6543
11
92.1213
21
-31.1217
0
LINE
8
Black
10
92.1213
20
-31.1217
11
92.33
21
-31.695
0
LINE
8
Black
10
92.33
20
-31.695
11
92.33
21
-32.305
0
LINE
8
Black
10
92.33
20
-32.305
11
92.1213
21
-32.8783
0
LINE
8
Black
10
92.1213
20
-32.8783
11
91.7292
21
-33.3457
0
LINE
8
Black
10
91.7292
20
-33.3457
11
91.2008
21
-33.6507
0
LINE
8
Black
10
91.2008
20
-33.6507
11
90.6
21
-33.7567
0
LINE
8
Black
10
90.6
20
-33.7567
11
89.9992
21
-33.6507
0
LINE
8
Black
10
89.9992
20
-33.6507
11
89.4708
21
-33.3457
0
LINE
8
Black
10
89.4708
20
-33.3457
11
89.0787
21
-32.8783
0
LINE
8
Black
10
89.0787
20
-32.8783
11
88.87
21
-32.305
0
LINE
8
Black
10
88.87
20
-32.305
11
88.87
21
-31.695
0
LINE
8
Black
10
88.87
20
-31.695
11
89.0787
21
-31.1217
0
LINE
8
Black
10
89.0787
20
-31.1217
11
89.4708
21
-30.6543
0
LINE
8
Black
10
89.4708
20
-30.6543
11
89.9992
21
-30.3493
0
LINE
8
Black
10
89.9992
20
-30.3493
11
90.6
21
-30.2433
0
LINE
8
Black
10
90.6
20
-30.2433
11
91.2008
21
-30.3493
0
LINE
8
Black
10
143.701
20
-30.3493
11
144.229
21
-30.6543
0
LINE
8
Black
10
144.229
20
-30.6543
11
144.621
21
-31.1217
0
LINE
8
Black
10
144.621
20
-31.1217
11
144.83
21
-31.695
0
LINE
8
Black
10
144.83
20
-31.695
11
144.83
21
-32.305
0
LINE
8
Black
10
144.83
20
-32.305
11
144.621
21
-32.8783
0
LINE
8
Black
10
144.621
20
-32.8783
11
144.229
21
-33.3457
0
LINE
8
Black
10
144.229
20
-33.3457
11
143.701
21
-33.6507
0
LINE
8
Black
10
143.701
20
-33.6507
11
143.1
21
-33.7567
0
LINE
8
Black
10
143.1
20
-33.7567
11
142.499
21
-33.6507
0
LINE
8
Black
10
142.499
20
-33.6507
11
141.971
21
-33.3457
0
LINE
8
Black
10
141.971
20
-33.3457
11
141.579
21
-32.8783
0
LINE
8
Black
10
141.579
20
-32.8783
11
141.37
21
-32.305
0
LINE
8
Black
10
141.37
20
-32.305
11
141.37
21
-31.695
0
LINE
8
Black
10
141.37
20
-31.695
11
141.579
21
-31.1217
0
LINE
8
Black
10
141.579
20
-31.1217
11
141.971
21
-30.6543
0
LINE
8
Black
10
141.971
20
-30.6543
11
142.499
21
-30.3493
0
LINE
8
Black
10
142.499
20
-30.3493
11
143.1
21
-30.2433
0
LINE
8
Black
10
143.1
20
-30.2433
11
143.701
21
-30.3493
0
LINE
8
Black
10
167.201
20
-30.3493
11
167.729
21
-30.6543
0
LINE
8
Black
10
167.729
20
-30.6543
11
168.121
21
-31.1217
0
LINE
8
Black
10
168.121
20
-31.1217
11
168.33
21
-31.695
0
LINE
8
Black
10
168.33
20
-31.695
11
168.33
21
-32.305
0
LINE
8
Black
10
168.33
20
-32.305
11
168.121
21
-32.8783
0
LINE
8
Black
10
168.121
20
-32.8783
11
167.729
21
-33.3457
0
LINE
8
Black
10
167.729
20
-33.3457
11
167.201
21
-33.6507
0
LINE
8
Black
10
167.201
20
-33.6507
11
166.6
21
-33.7567
0
LINE
8
Black
10
166.6
20
-33.7567
11
165.999
21
-33.6507
0
LINE
8
Black
10
165.999
20
-33.6507
11
165.471
21
-33.3457
0
LINE
8
Black
10
165.471
20
-33.3457
11
165.079
21
-32.8783
0
LINE
8
Black
10
165.079
20
-32.8783
11
164.87
21
-32.305
0
LINE
8
Black
10
164.87
20
-32.305
11
164.87
21
-31.695
0
LINE
8
Black
10
164.87
20
-31.695
11
165.079
21
-31.1217
0
LINE
8
Black
10
165.079
20
-31.1217
11
165.471
21
-30.6543
0
LINE
8
Black
10
165.471
20
-30.6543
11
165.999
21
-30.3493
0
LINE
8
Black
10
165.999
20
-30.3493
11
166.6
21
-30.2433
0
LINE
8
Black
10
166.6
20
-30.2433
11
167.201
21
-30.3493
  0
ENDSEC
  0
EOF
