  0
SECTION
  2
HEADER
  9
$ANGBASE
  50
0.0
  9
$ANGDIR
  70
  1
  9
$MEASUREMENT
  70
0
  0
ENDSEC
  0
SECTION
  2
TABLES
  0
TABLE
  2
LTYPE
  70
1
  0
LTYPE
  2
CONTINUOUS
  70
0
  3
Solid line
  72
65
  73
0
  40
0.0
  0
ENDTAB
  0
TABLE
  2
STYLE
  70
4
  0
STYLE
  2
KICAD
  70
0
  40
0
  41
1
  42
1
  50
0
  71
0
  3
isocp.shx
  0
STYLE
  2
KICADB
  70
0
  40
0
  41
1
  42
1
  50
0
  71
0
  3
isocp.shx
  0
STYLE
  2
KICADI
  70
0
  40
0
  41
1
  42
1
  50
15
  71
0
  3
isocp.shx
  0
STYLE
  2
KICADBI
  70
0
  40
0
  41
1
  42
1
  50
15
  71
0
  3
isocp.shx
  0
ENDTAB
  0
TABLE
  2
LAYER
  70
30
  0
LAYER
  2
BLACK
  70
0
  62
7
  6
CONTINUOUS
  0
LAYER
  2
GRAY1
  70
0
  62
251
  6
CONTINUOUS
  0
LAYER
  2
GRAY2
  70
0
  62
8
  6
CONTINUOUS
  0
LAYER
  2
GRAY3
  70
0
  62
9
  6
CONTINUOUS
  0
LAYER
  2
WHITE
  70
0
  62
7
  6
CONTINUOUS
  0
LAYER
  2
LYELLOW
  70
0
  62
51
  6
CONTINUOUS
  0
LAYER
  2
BLUE1
  70
0
  62
178
  6
CONTINUOUS
  0
LAYER
  2
GREEN1
  70
0
  62
98
  6
CONTINUOUS
  0
LAYER
  2
CYAN1
  70
0
  62
138
  6
CONTINUOUS
  0
LAYER
  2
RED1
  70
0
  62
18
  6
CONTINUOUS
  0
LAYER
  2
MAGENTA1
  70
0
  62
228
  6
CONTINUOUS
  0
LAYER
  2
BROWN1
  70
0
  62
58
  6
CONTINUOUS
  0
LAYER
  2
BLUE2
  70
0
  62
5
  6
CONTINUOUS
  0
LAYER
  2
GREEN2
  70
0
  62
3
  6
CONTINUOUS
  0
LAYER
  2
CYAN2
  70
0
  62
4
  6
CONTINUOUS
  0
LAYER
  2
RED2
  70
0
  62
1
  6
CONTINUOUS
  0
LAYER
  2
MAGENTA2
  70
0
  62
6
  6
CONTINUOUS
  0
LAYER
  2
BROWN2
  70
0
  62
54
  6
CONTINUOUS
  0
LAYER
  2
BLUE3
  70
0
  62
171
  6
CONTINUOUS
  0
LAYER
  2
GREEN3
  70
0
  62
91
  6
CONTINUOUS
  0
LAYER
  2
CYAN3
  70
0
  62
131
  6
CONTINUOUS
  0
LAYER
  2
RED3
  70
0
  62
11
  6
CONTINUOUS
  0
LAYER
  2
MAGENTA3
  70
0
  62
221
  6
CONTINUOUS
  0
LAYER
  2
YELLOW3
  70
0
  62
2
  6
CONTINUOUS
  0
LAYER
  2
BLUE4
  70
0
  62
5
  6
CONTINUOUS
  0
LAYER
  2
GREEN4
  70
0
  62
3
  6
CONTINUOUS
  0
LAYER
  2
CYAN4
  70
0
  62
4
  6
CONTINUOUS
  0
LAYER
  2
RED4
  70
0
  62
1
  6
CONTINUOUS
  0
LAYER
  2
MAGENTA4
  70
0
  62
6
  6
CONTINUOUS
  0
LAYER
  2
YELLOW4
  70
0
  62
2
  6
CONTINUOUS
  0
ENDTAB
  0
ENDSEC
  0
SECTION
  2
ENTITIES
0
LINE
8
Black
10
170.004
20
-28.9508
11
170.009
21
-28.9508
0
LINE
8
Black
10
170.009
20
-28.9508
11
170.013
21
-28.9523
0
LINE
8
Black
10
170.013
20
-28.9523
11
170.017
21
-28.953
0
LINE
8
Black
10
170.017
20
-28.953
11
170.021
21
-28.9552
0
LINE
8
Black
10
170.021
20
-28.9552
11
170.025
21
-28.9567
0
LINE
8
Black
10
170.025
20
-28.9567
11
170.028
21
-28.9595
0
LINE
8
Black
10
170.028
20
-28.9595
11
170.032
21
-28.9617
0
LINE
8
Black
10
170.032
20
-28.9617
11
170.035
21
-28.965
0
LINE
8
Black
10
170.035
20
-28.965
11
170.038
21
-28.9679
0
LINE
8
Black
10
170.038
20
-28.9679
11
170.04
21
-28.9716
0
LINE
8
Black
10
170.04
20
-28.9716
11
170.043
21
-28.975
0
LINE
8
Black
10
170.043
20
-28.975
11
170.045
21
-28.9791
0
LINE
8
Black
10
170.045
20
-28.9791
11
170.047
21
-28.9829
0
LINE
8
Black
10
170.047
20
-28.9829
11
170.048
21
-28.9872
0
LINE
8
Black
10
170.048
20
-28.9872
11
170.049
21
-28.9913
0
LINE
8
Black
10
170.049
20
-28.9913
11
170.049
21
-28.9957
0
LINE
8
Black
10
170.049
20
-28.9957
11
170.05
21
-29
0
LINE
8
Black
10
170.05
20
-29
11
170.05
21
-30
0
LINE
8
Black
10
170.05
20
-30
11
170.05
21
-147
0
LINE
8
Black
10
170.05
20
-147
11
170.049
21
-147.004
0
LINE
8
Black
10
170.049
20
-147.004
11
170.049
21
-147.009
0
LINE
8
Black
10
170.049
20
-147.009
11
170.048
21
-147.013
0
LINE
8
Black
10
170.048
20
-147.013
11
170.047
21
-147.017
0
LINE
8
Black
10
170.047
20
-147.017
11
170.045
21
-147.021
0
LINE
8
Black
10
170.045
20
-147.021
11
170.043
21
-147.025
0
LINE
8
Black
10
170.043
20
-147.025
11
170.04
21
-147.028
0
LINE
8
Black
10
170.04
20
-147.028
11
170.038
21
-147.032
0
LINE
8
Black
10
170.038
20
-147.032
11
170.035
21
-147.035
0
LINE
8
Black
10
170.035
20
-147.035
11
170.032
21
-147.038
0
LINE
8
Black
10
170.032
20
-147.038
11
170.028
21
-147.04
0
LINE
8
Black
10
170.028
20
-147.04
11
170.025
21
-147.043
0
LINE
8
Black
10
170.025
20
-147.043
11
170.021
21
-147.045
0
LINE
8
Black
10
170.021
20
-147.045
11
170.017
21
-147.047
0
LINE
8
Black
10
170.017
20
-147.047
11
170.013
21
-147.048
0
LINE
8
Black
10
170.013
20
-147.048
11
170.009
21
-147.049
0
LINE
8
Black
10
170.009
20
-147.049
11
170.004
21
-147.049
0
LINE
8
Black
10
170.004
20
-147.049
11
170
21
-147.05
0
LINE
8
Black
10
170
20
-147.05
11
29
21
-147.05
0
LINE
8
Black
10
29
20
-147.05
11
28.9957
21
-147.049
0
LINE
8
Black
10
28.9957
20
-147.049
11
28.9913
21
-147.049
0
LINE
8
Black
10
28.9913
20
-147.049
11
28.9872
21
-147.048
0
LINE
8
Black
10
28.9872
20
-147.048
11
28.9829
21
-147.047
0
LINE
8
Black
10
28.9829
20
-147.047
11
28.9791
21
-147.045
0
LINE
8
Black
10
28.9791
20
-147.045
11
28.975
21
-147.043
0
LINE
8
Black
10
28.975
20
-147.043
11
28.9716
21
-147.04
0
LINE
8
Black
10
28.9716
20
-147.04
11
28.9679
21
-147.038
0
LINE
8
Black
10
28.9679
20
-147.038
11
28.965
21
-147.035
0
LINE
8
Black
10
28.965
20
-147.035
11
28.9617
21
-147.032
0
LINE
8
Black
10
28.9617
20
-147.032
11
28.9595
21
-147.028
0
LINE
8
Black
10
28.9595
20
-147.028
11
28.9567
21
-147.025
0
LINE
8
Black
10
28.9567
20
-147.025
11
28.9552
21
-147.021
0
LINE
8
Black
10
28.9552
20
-147.021
11
28.953
21
-147.017
0
LINE
8
Black
10
28.953
20
-147.017
11
28.9523
21
-147.013
0
LINE
8
Black
10
28.9523
20
-147.013
11
28.9508
21
-147.009
0
LINE
8
Black
10
28.9508
20
-147.009
11
28.9508
21
-147.004
0
LINE
8
Black
10
28.9508
20
-147.004
11
28.95
21
-147
0
LINE
8
Black
10
28.95
20
-147
11
28.95
21
-30
0
LINE
8
Black
10
28.95
20
-30
11
28.95
21
-29
0
LINE
8
Black
10
28.95
20
-29
11
28.9508
21
-28.9957
0
LINE
8
Black
10
28.9508
20
-28.9957
11
28.9508
21
-28.9913
0
LINE
8
Black
10
28.9508
20
-28.9913
11
28.9523
21
-28.9872
0
LINE
8
Black
10
28.9523
20
-28.9872
11
28.953
21
-28.9829
0
LINE
8
Black
10
28.953
20
-28.9829
11
28.9552
21
-28.9791
0
LINE
8
Black
10
28.9552
20
-28.9791
11
28.9567
21
-28.975
0
LINE
8
Black
10
28.9567
20
-28.975
11
28.9595
21
-28.9716
0
LINE
8
Black
10
28.9595
20
-28.9716
11
28.9617
21
-28.9679
0
LINE
8
Black
10
28.9617
20
-28.9679
11
28.965
21
-28.965
0
LINE
8
Black
10
28.965
20
-28.965
11
28.9679
21
-28.9617
0
LINE
8
Black
10
28.9679
20
-28.9617
11
28.9716
21
-28.9595
0
LINE
8
Black
10
28.9716
20
-28.9595
11
28.975
21
-28.9567
0
LINE
8
Black
10
28.975
20
-28.9567
11
28.9791
21
-28.9552
0
LINE
8
Black
10
28.9791
20
-28.9552
11
28.9829
21
-28.953
0
LINE
8
Black
10
28.9829
20
-28.953
11
28.9872
21
-28.9523
0
LINE
8
Black
10
28.9872
20
-28.9523
11
28.9913
21
-28.9508
0
LINE
8
Black
10
28.9913
20
-28.9508
11
28.9957
21
-28.9508
0
LINE
8
Black
10
28.9957
20
-28.9508
11
29
21
-28.95
0
LINE
8
Black
10
29
20
-28.95
11
170
21
-28.95
0
LINE
8
Black
10
170
20
-28.95
11
170.004
21
-28.9508
0
LINE
8
Black
10
29.05
20
-29.05
11
29.05
21
-30
0
LINE
8
Black
10
29.05
20
-30
11
29.05
21
-146.95
0
LINE
8
Black
10
29.05
20
-146.95
11
169.95
21
-146.95
0
LINE
8
Black
10
169.95
20
-146.95
11
169.95
21
-30
0
LINE
8
Black
10
169.95
20
-30
11
169.95
21
-29.05
0
LINE
8
Black
10
169.95
20
-29.05
11
29.05
21
-29.05
  0
ENDSEC
  0
EOF
